<svg xmlns="http://www.w3.org/2000/svg" version="1.1" viewBox="0.00 0.00 409.00 288.00">
<g stroke-width="2.00" fill="none" stroke-linecap="butt">
<path stroke="#b56d73" vector-effect="non-scaling-stroke" d="
  M 362.06 140.17
  Q 353.75 134.92 344.69 131.07
  C 337.39 127.96 330.52 126.98 322.65 126.59"
/>
<path stroke="#d08a14" vector-effect="non-scaling-stroke" d="
  M 344.35 188.37
  Q 342.89 185.87 340.30 183.98
  C 336.17 180.97 331.31 178.38 326.91 176.45
  Q 316.10 171.70 304.30 174.36"
/>
</g>
<path fill="#6d1fe3" d="
  M 362.06 140.17
  Q 353.75 134.92 344.69 131.07
  C 337.39 127.96 330.52 126.98 322.65 126.59
  Q 323.33 123.04 323.85 121.31
  Q 336.34 79.92 350.99 34.39
  Q 354.59 23.20 355.70 21.02
  C 360.27 12.06 369.06 5.69 379.27 5.68
  Q 396.27 5.65 402.46 19.71
  C 405.84 27.41 405.02 35.11 401.94 42.60
  Q 398.48 51.01 395.20 59.06
  Q 379.52 97.49 364.79 134.08
  Q 363.62 137.01 362.06 140.17
  Z"
/>
<path fill="currentColor" d="
  M 270.13 24.47
  L 270.29 24.76
  A 2.37 2.37 0.0 0 1 269.08 28.16
  C 262.96 30.48 256.83 33.96 251.54 35.77
  C 247.45 37.17 240.92 39.84 237.36 40.96
  Q 201.01 52.39 162.73 45.29
  Q 153.46 43.56 139.09 38.77
  Q 127.92 35.05 115.51 32.02
  Q 111.87 31.13 101.54 29.84
  C 87.34 28.07 72.04 30.16 58.77 34.27
  C 49.73 37.07 38.84 42.02 30.90 45.21
  A 2.49 2.49 0.0 0 1 27.60 43.65
  L 27.57 43.54
  A 2.94 2.93 -20.2 0 1 29.23 39.95
  Q 44.54 33.51 58.42 29.18
  Q 71.37 25.15 82.75 24.23
  Q 88.32 23.78 103.25 24.75
  Q 106.57 24.97 118.92 27.70
  C 127.94 29.70 137.79 32.87 145.63 35.47
  C 155.95 38.90 167.98 41.02 177.69 42.34
  C 190.79 44.11 204.07 42.96 218.31 40.55
  C 235.05 37.72 250.59 30.70 266.16 23.25
  A 3.07 3.06 -27.9 0 1 270.13 24.47
  Z"
/>
<path fill="currentColor" d="
  M 23.10 101.70
  L 23.04 101.53
  A 4.59 4.59 0.0 0 1 25.81 95.76
  Q 33.35 92.98 49.01 87.28
  Q 56.85 84.42 67.95 82.18
  Q 89.08 77.91 110.67 82.28
  C 118.58 83.88 125.79 86.51 133.57 88.71
  Q 135.76 89.33 150.20 94.81
  C 153.35 96.01 160.49 97.32 166.41 98.55
  C 187.35 102.89 210.02 100.64 230.05 94.51
  Q 241.05 91.14 256.97 83.44
  A 3.95 3.94 64.2 0 1 262.24 85.28
  L 262.31 85.43
  A 3.82 3.82 0.0 0 1 260.48 90.55
  Q 259.55 90.98 246.58 96.51
  C 220.84 107.50 192.33 111.14 164.75 106.30
  Q 155.59 104.69 142.78 100.39
  Q 122.69 93.65 121.15 93.13
  Q 118.01 92.06 105.19 89.54
  Q 99.23 88.37 92.26 88.38
  Q 82.78 88.39 79.21 88.67
  C 72.01 89.25 65.80 91.10 56.82 93.66
  Q 52.64 94.84 47.18 96.99
  Q 38.32 100.48 28.78 104.33
  A 4.30 4.29 69.8 0 1 23.10 101.70
  Z"
/>
<path fill="#fdba02" d="
  M 322.65 126.59
  C 330.52 126.98 337.39 127.96 344.69 131.07
  Q 353.75 134.92 362.06 140.17
  Q 365.71 144.61 363.69 149.89
  Q 357.31 166.56 351.42 183.39
  Q 349.66 188.42 344.35 188.37
  Q 342.89 185.87 340.30 183.98
  C 336.17 180.97 331.31 178.38 326.91 176.45
  Q 316.10 171.70 304.30 174.36
  Q 300.91 169.77 302.95 164.19
  Q 306.99 153.19 312.90 136.10
  Q 314.61 131.17 316.10 129.55
  Q 318.60 126.84 322.65 126.59
  Z"
/>
<path fill="currentColor" d="
  M 18.70 156.64
  Q 20.12 154.78 22.87 153.62
  Q 33.99 148.92 48.27 144.25
  C 64.27 139.02 81.43 136.28 97.92 138.27
  Q 109.17 139.63 117.43 142.12
  Q 126.45 144.84 144.83 151.66
  Q 175.32 162.96 206.85 156.93
  C 219.85 154.44 231.39 149.61 243.78 143.30
  Q 246.16 142.08 249.48 141.98
  C 256.49 141.76 259.41 149.68 255.72 154.97
  Q 254.52 156.69 250.88 157.85
  Q 248.45 158.63 241.49 161.81
  C 233.79 165.32 223.16 168.28 216.77 170.04
  Q 215.38 170.42 207.13 171.87
  Q 180.79 176.51 155.45 170.37
  Q 148.82 168.77 138.43 164.91
  Q 133.07 162.91 121.57 158.93
  Q 111.90 155.58 99.40 153.90
  Q 75.54 150.71 51.83 159.87
  Q 38.21 165.13 31.56 168.08
  C 27.42 169.92 23.46 170.72 19.98 168.04
  C 16.29 165.21 15.92 160.26 18.70 156.64
  Z"
/>
<path fill="#a25925" d="
  M 344.35 188.37
  Q 349.96 199.69 350.47 208.26
  Q 351.64 228.10 342.00 245.03
  C 332.82 261.16 315.09 272.88 297.01 277.76
  Q 286.08 280.71 275.62 280.96
  C 271.08 281.07 249.56 281.49 249.67 274.62
  Q 249.72 271.61 251.72 270.44
  Q 257.53 267.07 258.95 265.48
  Q 265.65 258.01 268.00 249.25
  C 269.43 243.93 270.37 236.78 270.35 231.17
  C 270.33 226.51 270.41 221.43 271.04 217.27
  Q 274.68 193.31 294.76 179.27
  Q 297.10 177.64 304.30 174.36
  Q 316.10 171.70 326.91 176.45
  C 331.31 178.38 336.17 180.97 340.30 183.98
  Q 342.89 185.87 344.35 188.37
  Z"
/>
<path fill="currentColor" d="
  M 11.49 242.47
  C 1.69 235.23 5.82 220.56 16.47 216.73
  C 29.40 212.07 44.08 206.50 58.35 203.33
  Q 82.85 197.86 107.88 202.86
  C 115.48 204.38 126.20 207.96 135.76 211.68
  C 151.02 217.63 167.53 221.38 183.48 220.42
  Q 194.99 219.74 210.36 215.44
  C 217.12 213.55 225.18 210.04 231.48 207.49
  C 236.71 205.37 241.90 205.65 246.50 209.06
  Q 253.95 214.57 250.96 224.59
  C 249.45 229.66 246.61 231.80 241.34 233.86
  Q 224.30 240.51 213.33 243.57
  Q 180.10 252.82 147.10 244.63
  Q 138.41 242.48 120.46 235.43
  Q 110.31 231.45 104.47 230.27
  Q 95.32 228.42 87.69 228.13
  C 73.01 227.56 58.16 231.23 44.12 236.60
  Q 30.30 241.90 29.23 242.45
  C 22.33 245.99 17.23 246.71 11.49 242.47
  Z"
/>
</svg>
