<?xml version="1.0" encoding="UTF-8"?>
<svg xmlns="http://www.w3.org/2000/svg" viewBox="0 0 741 741" width="741" height="741">
<g transform="translate(0,741) scale(0.1,-0.1)" stroke="none">
<path fill="#7B2F33" d="M5565 7199 c-126 -30 -270 -136 -325 -241 -18 -34 -49 -88 -69 -118
-19 -30 -72 -125 -116 -210 -71 -136 -137 -257 -274 -499 -20 -36 -58 -105
-85 -155 -49 -93 -422 -764 -494 -891 -21 -38 -124 -225 -227 -415 -281 -519
-272 -509 -517 -535 -382 -40 -563 -155 -825 -523 -138 -194 -467 -537 -656
-684 -196 -151 -369 -241 -602 -312 -142 -43 -196 -54 -430 -91 -166 -26 -235
-79 -235 -180 0 -129 237 -529 435 -734 466 -482 851 -741 1460 -983 542 -216
1160 -295 1405 -180 187 88 392 453 541 967 56 193 150 645 174 840 26 207 33
251 72 405 35 135 37 155 37 295 1 198 -22 281 -140 524 l-86 176 4 76 c4 71
9 84 60 175 57 102 208 376 403 734 62 113 161 293 220 400 59 107 137 249
173 315 35 66 88 161 117 210 28 50 76 135 105 190 29 55 110 201 178 325 160
287 219 411 237 497 67 316 -104 591 -388 623 -94 11 -98 11 -152 -1z"/>
<path fill="#7B2F33" d="M2353 5595 c-26 -18 -62 -79 -98 -164 -31 -74 -59 -115 -89 -129 -11
-6 -61 -29 -109 -52 -146 -68 -143 -99 22 -184 131 -69 131 -69 201 -209 59
-119 72 -134 113 -123 22 5 37 28 89 134 l63 127 122 63 c159 84 172 122 60
178 -170 86 -186 99 -230 193 -73 157 -105 193 -144 166z"/>
<path fill="#7B2F33" d="M1113 4718 c-12 -6 -24 -16 -26 -22 -3 -6 -30 -73 -61 -149 -132
-325 -144 -338 -427 -468 -170 -78 -189 -91 -189 -127 0 -43 35 -67 194 -137
228 -99 286 -152 357 -324 134 -326 140 -338 187 -326 38 9 36 4 115 201 120
294 134 309 397 436 182 88 210 108 210 149 0 37 -22 51 -214 140 -249 115
-259 126 -397 453 -77 183 -91 201 -146 174z"/>
<path fill="#7B2F33" d="M6209 2981 c-13 -10 -49 -70 -79 -133 l-55 -113 -114 -61 c-183 -98
-185 -119 -17 -205 126 -65 134 -72 182 -176 61 -132 79 -155 118 -151 29 3
35 11 93 127 67 137 65 135 216 212 136 69 130 103 -34 188 l-119 63 -63 121
c-70 137 -91 158 -128 128z"/>
<path fill="#7B2F33" d="M5419 1838 c-11 -13 -35 -57 -53 -98 -85 -192 -142 -254 -294 -319
-115 -50 -142 -72 -142 -117 0 -41 21 -57 155 -115 138 -60 176 -100 256 -266
71 -147 82 -163 119 -163 36 0 47 15 117 160 78 160 111 194 274 280 188 100
186 128 -17 225 -149 72 -181 105 -260 271 -76 161 -111 192 -155 142z"/>
<path fill="#EDC565" d="M5588 7001 c-101 -33 -158 -103 -307 -377 -69 -126 -143 -263 -166
-304 -24 -41 -143 -257 -265 -480 -217 -394 -390 -708 -690 -1250 -80 -146
-171 -310 -201 -364 -114 -210 -221 -269 -524 -294 -187 -16 -312 -72 -439
-197 -63 -61 -136 -156 -136 -175 0 -11 430 -267 1050 -625 113 -65 269 -156
346 -202 170 -99 294 -167 298 -162 10 12 50 135 67 204 26 109 26 266 -1 370
-18 71 -65 177 -154 343 -43 81 -60 161 -54 259 8 112 20 140 217 497 98 176
319 578 491 891 449 819 469 855 618 1124 174 313 184 339 184 453 0 137 -53
232 -156 276 -38 17 -143 24 -178 13z"/>
<path fill="#EDC565" d="M2344 5348 c-41 -87 -57 -104 -135 -144 -38 -19 -69 -36 -69 -39 0
-3 35 -22 78 -44 l78 -39 38 -81 c21 -45 40 -81 42 -81 3 0 21 35 42 78 l37
77 84 44 84 43 -71 38 c-97 50 -100 54 -138 138 -19 39 -35 72 -37 72 -2 0
-17 -28 -33 -62z"/>
<path fill="#EDC565" d="M1134 4455 c-61 -168 -129 -299 -179 -343 -24 -21 -100 -65 -169 -98
-69 -32 -126 -61 -126 -64 0 -3 46 -28 102 -55 213 -104 229 -120 313 -320 26
-60 50 -119 55 -130 7 -18 10 -16 21 15 27 74 132 276 157 303 31 33 122 86
234 137 42 19 76 39 75 44 -1 5 -59 38 -130 73 -189 95 -210 120 -308 363 -29
72 -40 90 -45 75z"/>
<path fill="#EDC565" d="M2570 3115 c-24 -25 -42 -45 -39 -45 3 0 25 20 49 45 24 25 42 45 39
45 -3 0 -25 -20 -49 -45z"/>
<path fill="#EDC565" d="M6200 2729 c-40 -83 -48 -90 -130 -130 l-64 -31 65 -34 c81 -44 94
-56 133 -139 l33 -69 39 80 c38 78 40 80 116 119 l76 41 -76 39 c-75 39 -78
42 -115 115 -22 41 -40 76 -41 77 -1 2 -18 -29 -36 -68z"/>
<path fill="#EDC565" d="M5411 1535 c-50 -108 -65 -124 -181 -184 l-83 -44 97 -50 c109 -56
125 -73 181 -202 l33 -77 50 105 c55 116 67 128 200 191 34 16 62 32 62 35 -1
3 -34 21 -74 40 -112 50 -143 81 -193 188 -24 51 -44 93 -46 93 -1 0 -22 -43
-46 -95z"/>
<path fill="#FFFFFF" d="M2677 3227 c-57 -67 -169 -185 -248 -262 -450 -437 -804 -622 -1361
-710 l-38 -6 31 -62 c59 -117 181 -290 281 -398 18 -19 76 -58 128 -86 l95
-52 85 33 c291 113 561 293 779 520 72 75 109 86 149 43 33 -35 28 -74 -22
-155 -144 -234 -401 -462 -714 -637 -39 -22 -70 -43 -69 -48 5 -18 169 -130
294 -201 120 -68 140 -76 159 -66 41 22 209 161 338 278 141 129 149 133 189
120 32 -12 47 -35 47 -75 0 -43 -141 -257 -262 -395 -32 -36 -58 -71 -58 -76
0 -26 408 -182 578 -222 l53 -12 67 63 c273 259 423 489 531 814 51 151 66
175 108 175 52 0 66 -33 60 -134 -19 -280 -193 -693 -390 -929 -51 -61 -48
-63 101 -72 258 -17 326 4 402 122 131 202 265 531 339 828 53 212 144 736
130 749 -5 5 -456 268 -934 546 -192 112 -425 247 -517 301 -92 54 -181 105
-197 113 l-30 16 -104 -123z"/>
</g>
</svg>