<svg xmlns="http://www.w3.org/2000/svg" viewBox="0 0 348 302"><g fill="none" stroke-width="2"><path stroke="#7eb8f2" d="M308.27 123.57q-26.42-5.55-52.74-10.71-5.67-1.11-7.85-.66c-5.86 1.22-10.15 4.54-11.28 11.02q-7.35 41.82-16.1 81.84c-2.05 9.35-3.41 17.08-5.65 27.52q-5.86 27.32-6.82 33.69-.83 5.46 4.34 10.37" vector-effect="non-scaling-stroke"/><path stroke="#7f5ab9" d="M29.67 64.83q5.85-4.71 11.08-4.87 12.02-.37 49.78-.26" vector-effect="non-scaling-stroke"/><path stroke="#7dbcfd" d="M78.85 204.95c4.84 7.89 10.88 15.57 18.13 20.66 8.58 6.04 18.29 11.3 28.73 13.21q12.55 2.28 22.78 1.17 23.41-2.55 41.1-18.86 2.82-2.6 7.94-9.05 5.14-6.48 6.94-9.83 3.94-7.29 6.55-15.57 2.86-9.05 3.38-16.53 1.13-16.05-2.86-28.97-8.6-27.9-34.3-42.6c-24.2-13.83-52.62-11.78-75.84 3.27-34.61 22.43-43.63 68.7-22.55 103.1" vector-effect="non-scaling-stroke"/><path stroke="#8b93ab" d="M134.207 112.586a52.76 52.57-97.2 0 0-45.542 58.933 52.76 52.57-97.2 0 0 58.768 45.755 52.76 52.57-97.2 0 0 45.543-58.933 52.76 52.57-97.2 0 0-58.769-45.755" vector-effect="non-scaling-stroke"/><path stroke="#8b93ab" d="M122.887 134.887a14.28 14.1-102.1 0 0-10.794 16.919 14.28 14.1-102.1 0 0 16.78 11.007 14.28 14.1-102.1 0 0 10.794-16.919 14.28 14.1-102.1 0 0-16.78-11.007" vector-effect="non-scaling-stroke"/><path stroke="#87d281" d="m276.92 207.67-7.16 38.28a.5.5 0 0 1-.96.1q-5.4-13.59-17.4-20.69-4.4-2.61-9.19-2.35c-3.96.21-5.8 1.89-6.91 5.51-2.43 7.96.02 13.8 4.65 20.54 5.19 7.56 14.55 11.76 23.36 13.52.59.12 1.94-.07 2.7.18a.65.65 0 0 1 .44.71c-.4 2.65-2.36 7.18.27 9.49 2.3 2.01 5.66.51 6.36-2.15q.43-1.65 1.02-5.61a.79.79 0 0 1 1.08-.61c12.62 5.11 29.15.93 38.17-9.25 4.84-5.47 7.69-16.46-1.99-19.24-10.92-3.14-22.92 2.28-30.38 10.14q-1.45 1.53-2.6 2.39a.4.4 0 0 1-.63-.39l6.83-38.48" vector-effect="non-scaling-stroke"/><path stroke="#fd93ad" d="M284.58 209.76q4.34 5.98 10.57 7.29c6.57 1.38 12.63-1.92 15.48-7.74q4.33-8.83-1.14-17.54a.3.3 0 0 1 .22-.46q13.04-1.58 14.97-13.05c1.94-11.53-8.86-17.47-18.67-15.56a.67.67 0 0 1-.73-.95c3.93-8.19-2-17.11-9.81-19.65q-3.53-1.15-8.43-.1c-6.32 1.37-10.14 7.81-10.44 14.01a.24.24 0 0 1-.38.18c-6.46-4.89-16.71-4.39-21.25 2.44q-5.77 8.69-1.4 17.18c.93 1.81 2.74 3.79 4.61 5.86a.56.56 0 0 1-.04.8c-9.4 8.35-8.85 21.67 2.96 27.17q6.95 3.23 15.82-1.97" vector-effect="non-scaling-stroke"/><path stroke="#887448" d="m284.58 209.76-2.31-4.71a1.21 1.21 0 0 0-1.88-.38l-3.47 3" vector-effect="non-scaling-stroke"/><path stroke="#fe7b3b" d="M283.617 167.931a12.17 11.61-103.8 0 0-8.372 14.588 12.17 11.61-103.8 0 0 14.178 9.05 12.17 11.61-103.8 0 0 8.372-14.588 12.17 11.61-103.8 0 0-14.178-9.05" vector-effect="non-scaling-stroke"/></g><path fill="#007efe" d="M308.27 123.57q-26.42-5.55-52.74-10.71-5.67-1.11-7.85-.66c-5.86 1.22-10.15 4.54-11.28 11.02q-7.35 41.82-16.1 81.84c-2.05 9.35-3.41 17.08-5.65 27.52q-5.86 27.32-6.82 33.69-.83 5.46 4.34 10.37-84.25.04-168.16-.03l-4.52.11c-14.01.34-25.88-7.4-30.53-20.67q-1.24-3.54-1.28-12.36-.29-59.1-.88-117.93-.09-8.68-.04-27.06c.03-7.78.91-12.99 5.2-18.61 2.94-3.84 9.5-7.63 12.84-10.53q1.15-.99 4.87-4.73 5.85-4.71 11.08-4.87 12.02-.37 49.78-.26l10.98-.16a6.08 6.05-56.5 0 0 2.29-.47c5.42-2.26 8.59-5.7 10.93-12q1.17-3.16 3.39-7.59c2.88-5.78 6.15-13.2 8.19-18.53 2.6-6.82 7.22-10.8 13.59-13.19q3.38-1.27 11.31-1.01 3.66.12 43.97-.18 9.06-.06 12.57 1.4c6.58 2.75 10.42 6.71 13.27 13.98q1.15 2.94 12.91 27.39c3.87 8.03 9.63 9.5 18.65 9.32q.45-.01 27.09.01c10.46.01 17.43 1.37 23.56 9.13 4.96 6.26 4.82 11.2 4.89 20.32q.13 17.62.15 35.45M78.85 204.95c4.84 7.89 10.88 15.57 18.13 20.66 8.58 6.04 18.29 11.3 28.73 13.21q12.55 2.28 22.78 1.17 23.41-2.55 41.1-18.86 2.82-2.6 7.94-9.05 5.14-6.48 6.94-9.83 3.94-7.29 6.55-15.57 2.86-9.05 3.38-16.53 1.13-16.05-2.86-28.97-8.6-27.9-34.3-42.6c-24.2-13.83-52.62-11.78-75.84 3.27-34.61 22.43-43.63 68.7-22.55 103.1"/><path fill="#fd3574" d="M90.53 59.7q-37.76-.11-49.78.26-5.23.16-11.08 4.87c-1.3-6.26-.36-13.72-.49-18.63q-.13-5.47 1.26-8.2c3.47-6.75 8.93-8.38 16.75-8.03q.8.04 30.56 0c5.4-.01 9.64 3.35 12.01 7.82q1.25 2.37 1.11 9.09-.14 6.27-.34 12.82"/><path fill="#fafafb" d="M96.98 225.61c-7.25-5.09-13.29-12.77-18.13-20.66-21.08-34.4-12.06-80.67 22.55-103.1 23.22-15.05 51.64-17.1 75.84-3.27q25.7 14.7 34.3 42.6 3.99 12.92 2.86 28.97-.52 7.48-3.38 16.53-2.61 8.28-6.55 15.57-1.8 3.35-6.94 9.83-5.12 6.45-7.94 9.05-17.69 16.31-41.1 18.86-10.23 1.11-22.78-1.17c-10.44-1.91-20.15-7.17-28.73-13.21m37.227-113.024a52.76 52.57-97.2 0 0-45.542 58.933 52.76 52.57-97.2 0 0 58.768 45.755 52.76 52.57-97.2 0 0 45.543-58.933 52.76 52.57-97.2 0 0-58.769-45.755"/><path fill="#1c2b5b" d="M134.207 112.586a52.76 52.57-97.2 0 1 58.769 45.755 52.76 52.57-97.2 0 1-45.543 58.933 52.76 52.57-97.2 0 1-58.768-45.755 52.76 52.57-97.2 0 1 45.542-58.933m-11.32 22.301a14.28 14.1-102.1 0 0-10.794 16.919 14.28 14.1-102.1 0 0 16.78 11.007 14.28 14.1-102.1 0 0 10.794-16.919 14.28 14.1-102.1 0 0-16.78-11.007"/><path fill="#fcf1e5" d="M308.27 123.57q20.54 3.51 39.73 9.26v57.41q-.77 6.36-1.15 8.37-2.01 10.59-16.51 86.22c-1.58 8.25-4.81 13.78-14.15 13.64q-4.94-.07-8.92-.95-40.41-8.89-80.03-17.15-3.71-.78-7.56-1.78-3.84-1-7.51-1.95-5.17-4.91-4.34-10.37.96-6.37 6.82-33.69c2.24-10.44 3.6-18.17 5.65-27.52q8.75-40.02 16.1-81.84c1.13-6.48 5.42-9.8 11.28-11.02q2.18-.45 7.85.66 26.32 5.16 52.74 10.71m-31.35 84.1-7.16 38.28a.5.5 0 0 1-.96.1q-5.4-13.59-17.4-20.69-4.4-2.61-9.19-2.35c-3.96.21-5.8 1.89-6.91 5.51-2.43 7.96.02 13.8 4.65 20.54 5.19 7.56 14.55 11.76 23.36 13.52.59.12 1.94-.07 2.7.18a.65.65 0 0 1 .44.71c-.4 2.65-2.36 7.18.27 9.49 2.3 2.01 5.66.51 6.36-2.15q.43-1.65 1.02-5.61a.79.79 0 0 1 1.08-.61c12.62 5.11 29.15.93 38.17-9.25 4.84-5.47 7.69-16.46-1.99-19.24-10.92-3.14-22.92 2.28-30.38 10.14q-1.45 1.53-2.6 2.39a.4.4 0 0 1-.63-.39l6.83-38.48q4.34 5.98 10.57 7.29c6.57 1.38 12.63-1.92 15.48-7.74q4.33-8.83-1.14-17.54a.3.3 0 0 1 .22-.46q13.04-1.58 14.97-13.05c1.94-11.53-8.86-17.47-18.67-15.56a.67.67 0 0 1-.73-.95c3.93-8.19-2-17.11-9.81-19.65q-3.53-1.15-8.43-.1c-6.32 1.37-10.14 7.81-10.44 14.01a.24.24 0 0 1-.38.18c-6.46-4.89-16.71-4.39-21.25 2.44q-5.77 8.69-1.4 17.18c.93 1.81 2.74 3.79 4.61 5.86a.56.56 0 0 1-.04.8c-9.4 8.35-8.85 21.67 2.96 27.17q6.95 3.23 15.82-1.97"/><ellipse fill="#fafafb" rx="14.28" ry="14.1" transform="rotate(257.9 123.1 23.548)"/><path fill="#fd3574" d="m284.58 209.76-2.31-4.71a1.21 1.21 0 0 0-1.88-.38l-3.47 3q-8.87 5.2-15.82 1.97c-11.81-5.5-12.36-18.82-2.96-27.17a.56.56 0 0 0 .04-.8c-1.87-2.07-3.68-4.05-4.61-5.86q-4.37-8.49 1.4-17.18c4.54-6.83 14.79-7.33 21.25-2.44a.24.24 0 0 0 .38-.18c.3-6.2 4.12-12.64 10.44-14.01q4.9-1.05 8.43.1c7.81 2.54 13.74 11.46 9.81 19.65a.67.67 0 0 0 .73.95c9.81-1.91 20.61 4.03 18.67 15.56q-1.93 11.47-14.97 13.05a.3.3 0 0 0-.22.46q5.47 8.71 1.14 17.54c-2.85 5.82-8.91 9.12-15.48 7.74q-6.23-1.31-10.57-7.29m-.963-41.829a12.17 11.61-103.8 0 0-8.372 14.588 12.17 11.61-103.8 0 0 14.178 9.05 12.17 11.61-103.8 0 0 8.372-14.588 12.17 11.61-103.8 0 0-14.178-9.05"/><ellipse fill="#fec101" rx="12.17" ry="11.61" transform="rotate(256.2 213.731 -22.455)"/><path fill="#12b31c" d="m284.58 209.76-6.83 38.48a.4.4 0 0 0 .63.39q1.15-.86 2.6-2.39c7.46-7.86 19.46-13.28 30.38-10.14 9.68 2.78 6.83 13.77 1.99 19.24-9.02 10.18-25.55 14.36-38.17 9.25a.79.79 0 0 0-1.08.61q-.59 3.96-1.02 5.61c-.7 2.66-4.06 4.16-6.36 2.15-2.63-2.31-.67-6.84-.27-9.49a.65.65 0 0 0-.44-.71c-.76-.25-2.11-.06-2.7-.18-8.81-1.76-18.17-5.96-23.36-13.52-4.63-6.74-7.08-12.58-4.65-20.54 1.11-3.62 2.95-5.3 6.91-5.51q4.79-.26 9.19 2.35 12 7.1 17.4 20.69a.5.5 0 0 0 .96-.1l7.16-38.28 3.47-3a1.21 1.21 0 0 1 1.88.38z"/></svg>