<svg xmlns="http://www.w3.org/2000/svg" viewBox="0 0 512 512"><g transform="rotate(-28 256 256)"><path fill="#e0552f" d="M256 48c6 0 11.4 3.6 13.8 9.1l40.2 92.9H202l40.2-92.9C244.6 51.6 250 48 256 48Z"/><path fill="#f2704b" d="M202 150h108v268c0 12.2-9.8 22-22 22h-64c-12.2 0-22-9.8-22-22V150Z"/><path fill="#fff4e0" d="M202 250h108v128H202z"/><path fill="#fcc417" d="M202 250h108v20H202zm0 108h108v20H202z"/><path fill="#ffd98a" d="M256 74c3 0 5.6 1.9 6.7 4.7L276 110h-40l13.3-31.3c1.1-2.8 3.7-4.7 6.7-4.7Z"/><path fill="#e0552f" d="M224 418h64c0 12.2-9.8 22-22 22h-20c-12.2 0-22-9.8-22-22Z" opacity=".35"/></g></svg>
