<svg xmlns="http://www.w3.org/2000/svg" viewBox="0 0 271 289"><g fill="#a36aeb"><path d=" M 228.89 101.35 Q 226.95 96.80 224.17 93.84 C 219.71 89.09 215.57 83.56 211.51 79.46 Q 197.94 65.75 182.87 54.63 Q 180.23 52.67 170.18 47.47 Q 177.15 39.84 183.42 32.96 Q 188.43 27.46 191.47 26.15 Q 198.06 23.31 204.62 26.02 Q 214.76 30.22 225.30 39.00 Q 238.96 50.38 246.21 65.98 Q 249.48 73.00 246.75 80.29 Q 245.54 83.52 241.54 87.83 Q 235.32 94.53 228.89 101.35 Z" /><path d=" M 49.01 183.75 Q 50.39 185.07 51.59 186.35 C 54.85 189.84 59.09 192.82 62.84 195.80 C 66.18 198.46 69.04 202.05 71.87 204.38 C 77.14 208.71 80.95 211.44 84.52 215.77 C 87.41 219.26 90.54 222.52 93.96 225.60 Q 98.32 229.51 102.30 234.10 Q 96.69 241.09 94.31 242.32 C 91.22 243.94 88.92 243.24 85.80 243.07 Q 84.84 243.02 82.67 244.04 Q 70.17 249.89 47.08 261.09 C 41.10 263.98 32.98 268.34 27.21 262.26 C 24.22 259.12 24.52 255.46 25.86 251.15 Q 34.03 224.76 41.85 201.90 A 1.51 1.46 45.5 0 0 41.84 200.91 C 40.50 197.23 39.43 194.87 42.42 191.41 Q 45.59 187.75 49.01 183.75 Z" /></g><g fill="#faebcc"><path d=" M 170.18 47.47 Q 180.23 52.67 182.87 54.63 Q 197.94 65.75 211.51 79.46 C 215.57 83.56 219.71 89.09 224.17 93.84 Q 226.95 96.80 228.89 101.35 L 218.26 112.74 L 214.12 105.60 A 1.52 1.34 14.9 0 0 213.98 105.39 Q 205.04 94.55 198.14 86.89 Q 197.18 85.81 191.59 81.10 C 188.46 78.45 185.12 74.48 181.71 72.03 Q 171.86 64.98 159.27 58.49 L 170.18 47.47 Z" /><path d=" M 153.49 64.96 Q 152.75 66.64 154.14 67.35 C 158.15 69.39 163.40 71.79 166.79 74.79 C 168.72 76.49 171.18 78.57 173.71 80.04 C 178.61 82.90 181.55 85.74 186.18 90.80 Q 188.09 92.88 191.75 96.12 Q 198.68 102.24 202.15 107.11 Q 205.02 111.14 210.59 121.40 L 122.37 214.55 Q 118.87 208.58 114.22 205.28 Q 106.77 200.01 102.85 195.39 A 11.18 10.86 86.8 0 0 100.95 193.64 C 94.24 188.76 89.02 184.68 83.73 178.18 C 80.72 174.47 77.94 172.12 75.05 168.93 C 72.86 166.51 70.34 164.65 67.88 163.04 A 1.19 1.16 55.9 0 0 67.04 162.87 L 66.26 163.01 Q 66.46 162.93 66.51 162.72 Q 66.56 162.44 66.64 162.37 Q 71.53 157.70 75.08 152.49 A 7.66 7.34 86.5 0 1 76.13 151.25 C 81.11 146.54 85.32 141.14 90.20 135.82 Q 100.51 124.56 109.91 113.70 Q 119.36 102.77 124.28 97.45 Q 133.24 87.75 139.06 81.57 Q 141.21 79.28 146.26 73.26 Q 149.78 69.06 153.49 64.96 Z" /><path d=" M 60.71 169.15 L 60.66 170.11 A 1.04 1.02 -70.8 0 0 61.06 170.97 Q 67.66 175.99 72.42 182.14 A 15.71 15.37 -89.4 0 0 74.66 184.48 C 79.30 188.42 81.75 190.30 84.86 193.73 Q 86.18 195.19 91.21 200.19 C 94.51 203.47 98.99 206.36 101.98 208.78 Q 108.71 214.22 115.08 222.53 Q 109.50 229.33 102.30 234.10 Q 98.32 229.51 93.96 225.60 C 90.54 222.52 87.41 219.26 84.52 215.77 C 80.95 211.44 77.14 208.71 71.87 204.38 C 69.04 202.05 66.18 198.46 62.84 195.80 C 59.09 192.82 54.85 189.84 51.59 186.35 Q 50.39 185.07 49.01 183.75 Q 50.60 180.88 53.19 177.92 Q 56.97 173.59 60.71 169.15 Z" /></g><g fill="#ddba74"><path d=" M 218.26 112.74 Q 215.11 117.37 210.59 121.40 Q 205.02 111.14 202.15 107.11 Q 198.68 102.24 191.75 96.12 Q 188.09 92.88 186.18 90.80 C 181.55 85.74 178.61 82.90 173.71 80.04 C 171.18 78.57 168.72 76.49 166.79 74.79 C 163.40 71.79 158.15 69.39 154.14 67.35 Q 152.75 66.64 153.49 64.96 L 159.27 58.49 Q 171.86 64.98 181.71 72.03 C 185.12 74.48 188.46 78.45 191.59 81.10 Q 197.18 85.81 198.14 86.89 Q 205.04 94.55 213.98 105.39 A 1.52 1.34 14.9 0 1 214.12 105.60 L 218.26 112.74 Z" /><path d=" M 122.37 214.55 L 115.08 222.53 Q 108.71 214.22 101.98 208.78 C 98.99 206.36 94.51 203.47 91.21 200.19 Q 86.18 195.19 84.86 193.73 C 81.75 190.30 79.30 188.42 74.66 184.48 A 15.71 15.37 -89.4 0 1 72.42 182.14 Q 67.66 175.99 61.06 170.97 A 1.04 1.02 -70.8 0 1 60.66 170.11 L 60.71 169.15 L 66.26 163.01 L 67.04 162.87 A 1.19 1.16 55.9 0 1 67.88 163.04 C 70.34 164.65 72.86 166.51 75.05 168.93 C 77.94 172.12 80.72 174.47 83.73 178.18 C 89.02 184.68 94.24 188.76 100.95 193.64 A 11.18 10.86 86.8 0 1 102.85 195.39 Q 106.77 200.01 114.22 205.28 Q 118.87 208.58 122.37 214.55 Z" /></g><path fill="#ddba74" d=" M 121.46 179.44 C 113.71 181.96 106.53 181.49 101.80 174.51 C 99.70 171.41 98.37 169.28 98.47 165.76 C 98.66 159.56 99.47 154.71 103.26 148.93 C 106.55 143.90 109.43 138.57 113.54 133.80 Q 117.60 129.07 118.83 127.56 Q 125.58 119.29 134.69 111.42 Q 137.12 109.32 140.33 107.15 C 145.62 103.59 147.84 102.14 152.78 100.07 C 159.16 97.40 169.82 98.44 173.55 104.97 C 177.32 111.60 176.72 117.18 174.44 123.97 C 171.49 132.75 165.40 141.43 159.27 148.52 Q 156.69 151.51 151.15 157.55 Q 147.16 161.91 143.82 164.41 C 140.51 166.90 137.40 170.47 133.49 172.91 Q 124.79 178.35 121.46 179.44 Z" /><path fill="#a36aeb" d=" M 103.69 166.41 C 102.66 162.84 103.86 157.48 105.79 153.73 Q 111.23 143.16 115.62 137.64 Q 126.87 123.50 139.01 113.29 Q 142.82 110.09 147.45 107.29 C 154.82 102.83 164.83 102.81 169.18 111.12 C 173.94 120.20 164.70 134.17 159.28 141.30 Q 148.34 155.67 135.79 165.77 Q 130.79 169.78 123.88 173.03 C 115.55 176.93 106.51 176.18 103.69 166.41 Z" /></svg>
