<svg xmlns="http://www.w3.org/2000/svg" viewBox="0 0 271 289"><path fill="currentColor" d="M228.89 101.35q-1.94-4.55-4.72-7.51c-4.46-4.75-8.6-10.28-12.66-14.38q-13.57-13.71-28.64-24.83-2.64-1.96-12.69-7.16 6.97-7.63 13.24-14.51 5.01-5.5 8.05-6.81 6.59-2.84 13.15-.13 10.14 4.2 20.68 12.98 13.66 11.38 20.91 26.98 3.27 7.02.54 14.31-1.21 3.23-5.21 7.54-6.22 6.7-12.65 13.52m-179.88 82.4q1.38 1.32 2.58 2.6c3.26 3.49 7.5 6.47 11.25 9.45 3.34 2.66 6.2 6.25 9.03 8.58 5.27 4.33 9.08 7.06 12.65 11.39 2.89 3.49 6.02 6.75 9.44 9.83q4.36 3.91 8.34 8.5-5.61 6.99-7.99 8.22c-3.09 1.62-5.39.92-8.51.75q-.96-.05-3.13.97-12.5 5.85-35.59 17.05c-5.98 2.89-14.1 7.25-19.87 1.17-2.99-3.14-2.69-6.8-1.35-11.11q8.17-26.39 15.99-49.25a1.51 1.46 45.5 0 0-.01-.99c-1.34-3.68-2.41-6.04.58-9.5q3.17-3.66 6.59-7.66"/><path fill="#faebcc" d="M170.18 47.47q10.05 5.2 12.69 7.16 15.07 11.12 28.64 24.83c4.06 4.1 8.2 9.63 12.66 14.38q2.78 2.96 4.72 7.51l-10.63 11.39-4.14-7.14a1.52 1.34 14.9 0 0-.14-.21q-8.94-10.84-15.84-18.5-.96-1.08-6.55-5.79c-3.13-2.65-6.47-6.62-9.88-9.07q-9.85-7.05-22.44-13.54zm-16.69 17.49q-.74 1.68.65 2.39c4.01 2.04 9.26 4.44 12.65 7.44 1.93 1.7 4.39 3.78 6.92 5.25 4.9 2.86 7.84 5.7 12.47 10.76q1.91 2.08 5.57 5.32 6.93 6.12 10.4 10.99 2.87 4.03 8.44 14.29l-88.22 93.15q-3.5-5.97-8.15-9.27-7.45-5.27-11.37-9.89a11.18 10.86 86.8 0 0-1.9-1.75c-6.71-4.88-11.93-8.96-17.22-15.46-3.01-3.71-5.79-6.06-8.68-9.25-2.19-2.42-4.71-4.28-7.17-5.89a1.19 1.16 55.9 0 0-.84-.17l-.78.14q.2-.08.25-.29.05-.28.13-.35 4.89-4.67 8.44-9.88a7.66 7.34 86.5 0 1 1.05-1.24c4.98-4.71 9.19-10.11 14.07-15.43q10.31-11.26 19.71-22.12 9.45-10.93 14.37-16.25 8.96-9.7 14.78-15.88 2.15-2.29 7.2-8.31 3.52-4.2 7.23-8.3M60.71 169.15l-.05.96a1.04 1.02-70.8 0 0 .4.86q6.6 5.02 11.36 11.17a15.71 15.37-89.4 0 0 2.24 2.34c4.64 3.94 7.09 5.82 10.2 9.25q1.32 1.46 6.35 6.46c3.3 3.28 7.78 6.17 10.77 8.59q6.73 5.44 13.1 13.75-5.58 6.8-12.78 11.57-3.98-4.59-8.34-8.5a93 93 0 0 1-9.44-9.83c-3.57-4.33-7.38-7.06-12.65-11.39-2.83-2.33-5.69-5.92-9.03-8.58-3.75-2.98-7.99-5.96-11.25-9.45q-1.2-1.28-2.58-2.6 1.59-2.87 4.18-5.83 3.78-4.33 7.52-8.77"/><path fill="#ddba74" d="M218.26 112.74q-3.15 4.63-7.67 8.66-5.57-10.26-8.44-14.29-3.47-4.87-10.4-10.99-3.66-3.24-5.57-5.32c-4.63-5.06-7.57-7.9-12.47-10.76-2.53-1.47-4.99-3.55-6.92-5.25-3.39-3-8.64-5.4-12.65-7.44q-1.39-.71-.65-2.39l5.78-6.47q12.59 6.49 22.44 13.54c3.41 2.45 6.75 6.42 9.88 9.07q5.59 4.71 6.55 5.79 6.9 7.66 15.84 18.5a1.52 1.34 14.9 0 1 .14.21zm-95.89 101.81-7.29 7.98q-6.37-8.31-13.1-13.75c-2.99-2.42-7.47-5.31-10.77-8.59q-5.03-5-6.35-6.46c-3.11-3.43-5.56-5.31-10.2-9.25a15.71 15.37-89.4 0 1-2.24-2.34q-4.76-6.15-11.36-11.17a1.04 1.02-70.8 0 1-.4-.86l.05-.96 5.55-6.14.78-.14a1.19 1.16 55.9 0 1 .84.17c2.46 1.61 4.98 3.47 7.17 5.89 2.89 3.19 5.67 5.54 8.68 9.25 5.29 6.5 10.51 10.58 17.22 15.46a11.18 10.86 86.8 0 1 1.9 1.75q3.92 4.62 11.37 9.89 4.65 3.3 8.15 9.27m-.91-35.11c-7.75 2.52-14.93 2.05-19.66-4.93-2.1-3.1-3.43-5.23-3.33-8.75.19-6.2 1-11.05 4.79-16.83 3.29-5.03 6.17-10.36 10.28-15.13q4.06-4.73 5.29-6.24 6.75-8.27 15.86-16.14 2.43-2.1 5.64-4.27c5.29-3.56 7.51-5.01 12.45-7.08 6.38-2.67 17.04-1.63 20.77 4.9 3.77 6.63 3.17 12.21.89 19-2.95 8.78-9.04 17.46-15.17 24.55q-2.58 2.99-8.12 9.03-3.99 4.36-7.33 6.86c-3.31 2.49-6.42 6.06-10.33 8.5q-8.7 5.44-12.03 6.53"/><path fill="currentColor" d="M103.69 166.41c-1.03-3.57.17-8.93 2.1-12.68q5.44-10.57 9.83-16.09 11.25-14.14 23.39-24.35 3.81-3.2 8.44-6c7.37-4.46 17.38-4.48 21.73 3.83 4.76 9.08-4.48 23.05-9.9 30.18q-10.94 14.37-23.49 24.47-5 4.01-11.91 7.26c-8.33 3.9-17.37 3.15-20.19-6.62"/></svg>