<svg xmlns="http://www.w3.org/2000/svg" width="24" height="24" fill="#1f1f1f" viewBox="0 -960 960 960"><path d="M183.5-183.5Q160-207 160-240t23.5-56.5T240-320t56.5 23.5T320-240t-23.5 56.5T240-160t-56.5-23.5m0-240Q160-447 160-480t23.5-56.5T240-560t56.5 23.5T320-480t-23.5 56.5T240-400t-56.5-23.5m0-240Q160-687 160-720t23.5-56.5T240-800t56.5 23.5T320-720t-23.5 56.5T240-640t-56.5-23.5m240 0Q400-687 400-720t23.5-56.5T480-800t56.5 23.5T560-720t-23.5 56.5T480-640t-56.5-23.5m240 0Q640-687 640-720t23.5-56.5T720-800t56.5 23.5T800-720t-23.5 56.5T720-640t-56.5-23.5m-240 240Q400-447 400-480t23.5-56.5T480-560t56.5 23.5T560-480t-23.5 56.5T480-400t-56.5-23.5M520-200v-66q0-8 3-15.5t9-13.5l209-208q9-9 20-13t22-4q12 0 23 4.5t20 13.5l37 37q8 9 12.5 20t4.5 22-4 22.5-13 20.5L655-172q-6 6-13.5 9t-15.5 3h-66q-17 0-28.5-11.5T520-200m300-223-37-37zM580-220h38l121-122-18-19-19-18-122 121zm141-141-19-18 37 37z"/></svg>