<svg xmlns="http://www.w3.org/2000/svg" version="1.1" viewBox="0.00 0.00 314.00 296.00">
<path stroke="#fc94ad" stroke-width="2.00" fill="none" stroke-linecap="butt" vector-effect="non-scaling-stroke" d="
  M 220.47 204.18
  Q 215.26 199.73 210.66 194.57
  C 207.27 190.77 204.19 188.19 201.03 184.95
  Q 196.11 179.90 194.55 178.33
  Q 175.54 159.16 159.07 143.43
  Q 151.68 136.37 144.54 128.98
  C 140.45 124.74 136.23 121.31 132.33 117.20
  C 127.40 112.01 121.25 106.54 115.71 100.95"
/>
<path fill="#fb3675" d="
  M 220.47 204.18
  Q 215.26 199.73 210.66 194.57
  C 207.27 190.77 204.19 188.19 201.03 184.95
  Q 196.11 179.90 194.55 178.33
  Q 175.54 159.16 159.07 143.43
  Q 151.68 136.37 144.54 128.98
  C 140.45 124.74 136.23 121.31 132.33 117.20
  C 127.40 112.01 121.25 106.54 115.71 100.95
  Q 155.14 58.82 194.59 16.59
  Q 198.32 12.60 204.02 9.28
  C 217.11 1.63 231.04 2.82 243.73 10.50
  Q 247.43 12.74 254.76 19.66
  Q 276.46 40.18 296.31 59.94
  Q 301.59 65.20 304.53 71.20
  C 313.73 89.98 308.78 108.67 294.73 123.04
  Q 290.01 127.86 288.19 129.88
  Q 263.15 157.55 243.00 179.42
  C 237.02 185.90 228.30 196.13 220.47 204.18
  Z"
/>
<path fill="#ecdcbf" d="
  M 220.47 204.18
  Q 194.90 232.22 168.96 260.70
  Q 154.53 276.54 135.70 274.86
  C 127.23 274.10 119.80 270.77 113.84 264.93
  Q 93.63 245.16 70.80 222.20
  C 67.34 218.72 64.26 215.26 61.05 211.64
  C 50.39 199.63 49.14 180.68 56.10 166.90
  Q 58.70 161.75 68.27 151.74
  Q 78.47 141.09 108.11 108.72
  Q 108.81 107.96 112.05 104.97
  Q 114.10 103.09 115.71 100.95
  C 121.25 106.54 127.40 112.01 132.33 117.20
  C 136.23 121.31 140.45 124.74 144.54 128.98
  Q 151.68 136.37 159.07 143.43
  Q 175.54 159.16 194.55 178.33
  Q 196.11 179.90 201.03 184.95
  C 204.19 188.19 207.27 190.77 210.66 194.57
  Q 215.26 199.73 220.47 204.18
  Z"
/>
<ellipse fill="#fb3675" cx="0.00" cy="0.00" transform="translate(20.82,250.65) rotate(-4.9)" rx="18.22" ry="16.03"/>
<ellipse fill="#fb3675" cx="0.00" cy="0.00" transform="translate(65.97,274.70) rotate(-4.8)" rx="17.55" ry="15.76"/>
</svg>
