<svg xmlns="http://www.w3.org/2000/svg" viewBox="0 0 314 296"><path fill="none" stroke="#fc94ad" stroke-width="2" d="M220.47 204.18q-5.21-4.45-9.81-9.61c-3.39-3.8-6.47-6.38-9.63-9.62q-4.92-5.05-6.48-6.62-19.01-19.17-35.48-34.9-7.39-7.06-14.53-14.45c-4.09-4.24-8.31-7.67-12.21-11.78-4.93-5.19-11.08-10.66-16.62-16.25" vector-effect="non-scaling-stroke"/><path fill="#fb3675" d="M220.47 204.18q-5.21-4.45-9.81-9.61c-3.39-3.8-6.47-6.38-9.63-9.62q-4.92-5.05-6.48-6.62-19.01-19.17-35.48-34.9-7.39-7.06-14.53-14.45c-4.09-4.24-8.31-7.67-12.21-11.78-4.93-5.19-11.08-10.66-16.62-16.25q39.43-42.13 78.88-84.36 3.73-3.99 9.43-7.31c13.09-7.65 27.02-6.46 39.71 1.22q3.7 2.24 11.03 9.16 21.7 20.52 41.55 40.28 5.28 5.26 8.22 11.26c9.2 18.78 4.25 37.47-9.8 51.84q-4.72 4.82-6.54 6.84-25.04 27.67-45.19 49.54c-5.98 6.48-14.7 16.71-22.53 24.76"/><path fill="#ecdcbf" d="M220.47 204.18q-25.57 28.04-51.51 56.52-14.43 15.84-33.26 14.16c-8.47-.76-15.9-4.09-21.86-9.93Q93.63 245.16 70.8 222.2c-3.46-3.48-6.54-6.94-9.75-10.56-10.66-12.01-11.91-30.96-4.95-44.74q2.6-5.15 12.17-15.16 10.2-10.65 39.84-43.02.7-.76 3.94-3.75 2.05-1.88 3.66-4.02c5.54 5.59 11.69 11.06 16.62 16.25 3.9 4.11 8.12 7.54 12.21 11.78q7.14 7.39 14.53 14.45 16.47 15.73 35.48 34.9 1.56 1.57 6.48 6.62c3.16 3.24 6.24 5.82 9.63 9.62q4.6 5.16 9.81 9.61"/><ellipse fill="#fb3675" rx="18.22" ry="16.03" transform="rotate(-4.9 2939.478 -117.975)"/><ellipse fill="#fb3675" rx="17.55" ry="15.76" transform="rotate(-4.8 3310.057 -649.648)"/></svg>