<svg xmlns="http://www.w3.org/2000/svg" viewBox="0 0 421 277"><path fill="none" stroke="#fc93ac" stroke-width="2" d="M352.12 213.73q-3.27-3.89-8.35-5.96-15.58-6.35-68.21-28.87-2.4-1.02-7.57-.2" vector-effect="non-scaling-stroke"/><path fill="#fc3675" d="M352.12 213.73q-3.27-3.89-8.35-5.96-15.58-6.35-68.21-28.87-2.4-1.02-7.57-.2 1.38-4.06 5.35-14.33 15.74-40.65 31.56-81.84 11.19-29.1 22.64-59.17 2.95-7.73 4.71-9.8c4.26-5 10.68-7.54 17.4-7.2q3.1.16 8.11 2.47 1.57.72 11.99 4.97c10.35 4.23 22.38 10.06 31.49 13.69q6.17 2.46 8.57 4.85c4.89 4.87 7.09 11.41 6.41 18.13q-.24 2.37-3.04 9.41-30.54 76.84-61.06 153.85"/><rect width="18.1" height="5.96" x="-9.05" y="-2.98" fill="#fc3675" rx="2.86" transform="rotate(-1.5 906.702 -3165.354)"/><rect width="19.28" height="6.48" x="-9.64" y="-3.24" fill="#fc3675" rx="3.13" transform="rotate(10.1 -86.327 627.301)"/><rect width="18.56" height="5.76" x="-9.28" y="-2.88" fill="#fc3675" rx="2.78" transform="rotate(-13.9 135.379 -226.808)"/><rect width="17.42" height="5.86" x="-8.71" y="-2.93" fill="#fc3675" rx="2.83" transform="rotate(-24.1 194.683 -599.49)"/><rect width="19.26" height="6.44" x="-9.63" y="-3.22" fill="#fc3675" rx="3.12" transform="rotate(17.2 -36.41 459.13)"/><rect width="18.08" height="5.6" x="-9.04" y="-2.8" fill="#fc3675" rx="2.72" transform="rotate(-21.6 105.026 -77.079)"/><rect width="19.3" height="5.82" x="-9.65" y="-2.91" fill="#fc3675" rx="2.82" transform="rotate(-19.5 224.505 -676.297)"/><rect width="19.92" height="6.48" x="-9.96" y="-3.24" fill="#fc3675" rx="3.13" transform="rotate(15.2 -67.375 619.58)"/><rect width="19.36" height="6.4" x="-9.68" y="-3.2" fill="#fc3675" rx="3.09" transform="rotate(-10.1 346.71 -1187.438)"/><rect width="20.14" height="6.4" x="-10.07" y="-3.2" fill="#fc3675" rx="3.08" transform="rotate(3.3 -666.042 3268.611)"/><rect width="20.04" height="8.3" x="-10.02" y="-4.15" fill="#fc3675" rx="3.96" transform="rotate(-.7 6686.898 -6617.087)"/><rect width="19.96" height="7.7" x="-9.98" y="-3.85" fill="#fc3675" rx="3.71" transform="rotate(-13.4 384.495 -195.266)"/><rect width="20.22" height="8.1" x="-10.11" y="-4.05" fill="#fc3675" rx="3.89" transform="rotate(11.8 -352.38 559.31)"/><rect width="16.2" height="7.36" x="-8.1" y="-3.68" fill="#fc3675" rx="3.53" transform="rotate(-23.7 332.833 -556.116)"/><rect width="19.44" height="7.54" x="-9.72" y="-3.77" fill="#fc3675" rx="3.64" transform="rotate(17.2 -233.353 481.103)"/><rect width="20.38" height="7.58" x="-10.19" y="-3.79" fill="#fc3675" rx="3.66" transform="rotate(-20.8 264.35 -38.245)"/><rect width="19.5" height="7.24" x="-9.75" y="-3.62" fill="#fc3675" rx="3.5" transform="rotate(-18.9 399.978 -645.088)"/><rect width="19.72" height="7.72" x="-9.86" y="-3.86" fill="#fc3675" rx="3.72" transform="rotate(13.9 -322.157 690.11)"/><rect width="19.68" height="7.36" x="-9.84" y="-3.68" fill="#fc3675" rx="3.53" transform="rotate(-10.4 655.794 -1086.124)"/><rect width="19.94" height="7.88" x="-9.97" y="-3.94" fill="#fc3675" rx="3.77" transform="rotate(2.4 -2334.98 4379.112)"/><rect width="27.52" height="13.62" x="-13.76" y="-6.81" fill="#fc3675" rx="6.49" transform="rotate(-9.9 860.33 -267.663)"/><rect width="26.66" height="12.84" x="-13.33" y="-6.42" fill="#fc3675" rx="6.12" transform="rotate(4.7 -1697.773 1173.794)"/><rect width="26.06" height="12.78" x="-13.03" y="-6.39" fill="#fc3675" rx="6.11" transform="rotate(16.4 -459.34 494.255)"/><rect width="23.52" height="12.04" x="-11.76" y="-6.02" fill="#fc3675" rx="5.76" transform="rotate(-21.5 514.427 -546.233)"/><rect width="27.72" height="14.04" x="-13.86" y="-7.02" fill="#fc3675" rx="6.71" transform="rotate(-21.2 421.74 3.82)"/><rect width="23.58" height="12.14" x="-11.79" y="-6.07" fill="#fc3675" rx="5.8" transform="rotate(13.7 -585.69 701.084)"/><rect width="25.28" height="12.38" x="-12.64" y="-6.19" fill="#fc3675" rx="5.91" transform="rotate(-13.4 782.35 -808.772)"/><rect width="25.86" height="12.44" x="-12.93" y="-6.22" fill="#fc3675" rx="5.92" transform="rotate(1.7 -5397.98 6093.992)"/><path fill="#fcf0e3" d="M267.99 178.7q5.17-.82 7.57.2 52.63 22.52 68.21 28.87 5.08 2.07 8.35 5.96-.84 2.09-1.6 4.36-.95 2.81-1.58 4.38-8.12 20.32-12.77 32.45c-3.29 8.58-10.16 13.68-19.38 13.61q-4-.02-13.17-3.93-24.49-10.43-33.42-14.13-10.63-4.42-12.77-6.23c-7.82-6.64-8.81-16.48-5.1-25.9q6.59-16.72 13.42-35.07.62-1.69 2.24-4.57"/><path fill="#fc3675" d="M68.06 218.99q-5.09.27-9.35 1.11-3.85.76-5.44.35c-11.46-2.96-10.03-19.82 1.24-21.14q6.86-.8 12.46-1.09 5.61-.29 12.51-.21c11.35.13 14.53 16.74 3.45 20.89q-1.54.57-5.45.22-4.32-.39-9.42-.13"/><rect width="43.08" height="20.52" x="-21.54" y="-10.26" fill="#fc3675" rx="9.47" transform="rotate(17.8 -631.62 478.306)"/><rect width="38.2" height="21.6" x="-19.1" y="-10.8" fill="#fc3675" rx="10.29" transform="rotate(-20.9 606.174 49.01)"/><path fill="#fc3675" d="M188.1 228.58c-.53-7.67 3.78-10.92 10.93-12.24q9.05-1.68 16.61-4.27 3.28-1.12 5.85-.99c7.83.39 11.44 7.86 8.49 14.66q-2.23 5.15-7.8 6.72-12.31 3.46-22.85 5.64c-6.19 1.28-10.81-3.52-11.23-9.52"/><rect width="42.24" height="20.86" x="-21.12" y="-10.43" fill="#fc3675" rx="9.68" transform="rotate(7.5 -1660.405 1350.495)"/></svg>