<svg xmlns="http://www.w3.org/2000/svg" viewBox="0 0 409 288"><g fill="none" stroke-width="2"><path stroke="#b56d73" d="M362.06 140.17q-8.31-5.25-17.37-9.1c-7.3-3.11-14.17-4.09-22.04-4.48" vector-effect="non-scaling-stroke"/><path stroke="#d08a14" d="M344.35 188.37q-1.46-2.5-4.05-4.39c-4.13-3.01-8.99-5.6-13.39-7.53q-10.81-4.75-22.61-2.09" vector-effect="non-scaling-stroke"/></g><path fill="#6d1fe3" d="M362.06 140.17q-8.31-5.25-17.37-9.1c-7.3-3.11-14.17-4.09-22.04-4.48q.68-3.55 1.2-5.28 12.49-41.39 27.14-86.92 3.6-11.19 4.71-13.37c4.57-8.96 13.36-15.33 23.57-15.34q17-.03 23.19 14.03c3.38 7.7 2.56 15.4-.52 22.89q-3.46 8.41-6.74 16.46-15.68 38.43-30.41 75.02-1.17 2.93-2.73 6.09"/><path fill="currentColor" d="m270.13 24.47.16.29a2.37 2.37 0 0 1-1.21 3.4c-6.12 2.32-12.25 5.8-17.54 7.61-4.09 1.4-10.62 4.07-14.18 5.19q-36.35 11.43-74.63 4.33-9.27-1.73-23.64-6.52-11.17-3.72-23.58-6.75-3.64-.89-13.97-2.18c-14.2-1.77-29.5.32-42.77 4.43-9.04 2.8-19.93 7.75-27.87 10.94a2.49 2.49 0 0 1-3.3-1.56l-.03-.11a2.94 2.93-20.2 0 1 1.66-3.59q15.31-6.44 29.19-10.77 12.95-4.03 24.33-4.95 5.57-.45 20.5.52 3.32.22 15.67 2.95c9.02 2 18.87 5.17 26.71 7.77 10.32 3.43 22.35 5.55 32.06 6.87 13.1 1.77 26.38.62 40.62-1.79 16.74-2.83 32.28-9.85 47.85-17.3a3.07 3.06-27.9 0 1 3.97 1.22M23.1 101.7l-.06-.17a4.59 4.59 0 0 1 2.77-5.77q7.54-2.78 23.2-8.48 7.84-2.86 18.94-5.1 21.13-4.27 42.72.1c7.91 1.6 15.12 4.23 22.9 6.43q2.19.62 16.63 6.1c3.15 1.2 10.29 2.51 16.21 3.74 20.94 4.34 43.61 2.09 63.64-4.04q11-3.37 26.92-11.07a3.95 3.94 64.2 0 1 5.27 1.84l.07.15a3.82 3.82 0 0 1-1.83 5.12q-.93.43-13.9 5.96c-25.74 10.99-54.25 14.63-81.83 9.79q-9.16-1.61-21.97-5.91-20.09-6.74-21.63-7.26-3.14-1.07-15.96-3.59-5.96-1.17-12.93-1.16-9.48.01-13.05.29c-7.2.58-13.41 2.43-22.39 4.99q-4.18 1.18-9.64 3.33-8.86 3.49-18.4 7.34a4.3 4.29 69.8 0 1-5.68-2.63"/><path fill="#fdba02" d="M322.65 126.59c7.87.39 14.74 1.37 22.04 4.48q9.06 3.85 17.37 9.1 3.65 4.44 1.63 9.72-6.38 16.67-12.27 33.5-1.76 5.03-7.07 4.98-1.46-2.5-4.05-4.39c-4.13-3.01-8.99-5.6-13.39-7.53q-10.81-4.75-22.61-2.09-3.39-4.59-1.35-10.17 4.04-11 9.95-28.09 1.71-4.93 3.2-6.55 2.5-2.71 6.55-2.96"/><path fill="currentColor" d="M18.7 156.64q1.42-1.86 4.17-3.02 11.12-4.7 25.4-9.37c16-5.23 33.16-7.97 49.65-5.98q11.25 1.36 19.51 3.85 9.02 2.72 27.4 9.54 30.49 11.3 62.02 5.27c13-2.49 24.54-7.32 36.93-13.63q2.38-1.22 5.7-1.32c7.01-.22 9.93 7.7 6.24 12.99q-1.2 1.72-4.84 2.88-2.43.78-9.39 3.96c-7.7 3.51-18.33 6.47-24.72 8.23q-1.39.38-9.64 1.83-26.34 4.64-51.68-1.5-6.63-1.6-17.02-5.46-5.36-2-16.86-5.98-9.67-3.35-22.17-5.03-23.86-3.19-47.57 5.97-13.62 5.26-20.27 8.21c-4.14 1.84-8.1 2.64-11.58-.04-3.69-2.83-4.06-7.78-1.28-11.4"/><path fill="#a25925" d="M344.35 188.37q5.61 11.32 6.12 19.89 1.17 19.84-8.47 36.77c-9.18 16.13-26.91 27.85-44.99 32.73q-10.93 2.95-21.39 3.2c-4.54.11-26.06.53-25.95-6.34q.05-3.01 2.05-4.18 5.81-3.37 7.23-4.96 6.7-7.47 9.05-16.23c1.43-5.32 2.37-12.47 2.35-18.08-.02-4.66.06-9.74.69-13.9q3.64-23.96 23.72-38 2.34-1.63 9.54-4.91 11.8-2.66 22.61 2.09c4.4 1.93 9.26 4.52 13.39 7.53q2.59 1.89 4.05 4.39"/><path fill="currentColor" d="M11.49 242.47c-9.8-7.24-5.67-21.91 4.98-25.74 12.93-4.66 27.61-10.23 41.88-13.4q24.5-5.47 49.53-.47c7.6 1.52 18.32 5.1 27.88 8.82 15.26 5.95 31.77 9.7 47.72 8.74q11.51-.68 26.88-4.98c6.76-1.89 14.82-5.4 21.12-7.95 5.23-2.12 10.42-1.84 15.02 1.57q7.45 5.51 4.46 15.53c-1.51 5.07-4.35 7.21-9.62 9.27q-17.04 6.65-28.01 9.71-33.23 9.25-66.23 1.06-8.69-2.15-26.64-9.2-10.15-3.98-15.99-5.16-9.15-1.85-16.78-2.14c-14.68-.57-29.53 3.1-43.57 8.47q-13.82 5.3-14.89 5.85c-6.9 3.54-12 4.26-17.74.02"/></svg>