<svg xmlns="http://www.w3.org/2000/svg" viewBox="0 0 1687 1863"><path fill="#d99f60" d="m1134.66 916.22-12.83-6.84a2.2 2.05 83.3 0 1-.67-.57q-1.25-1.63-3.89-1.74a3.37 3.35-33.9 0 1-.99-.19q-7.58-2.65-18.52-3.52c-19.48-1.56-44.36-4.5-60.09-6.06q-73.43-7.32-115.73-11.77-135.77-14.29-292.93-30.14-3.64-.37-25.61-2.71-11.86-1.27-24.35 3.13a2.55 2.34-53.8 0 1-.65.13l-1.83.13q-.42-.96-.4-1.57.54-16.71 4.47-34.53c6.21-28.14 23.16-51.92 49.82-63.2q3.59-1.52 13.39-4.42c25.06-7.43 49.16-22.07 62.16-45.35q5.89-10.56 10.1-21.69 4.17-11.05 6.43-23.04 4.19-22.25 3.96-48.77-.36-40.57-4.33-77.97-4.7-44.25-8.48-85.9c-1.12-12.3-1.89-25.78-2.52-37.06-2.31-41.49-.22-83.71 7.43-124.69q4.45-23.86 11.19-42.29 12.94-35.32 36.16-65.46 17.75-23.03 43.1-39.6 24.65-16.13 53.21-23.78c16.28-4.37 33.11-5.5 50.02-4.82 11.7.47 21.79 2.38 32.59 4.46q4.29.83 13.67 4.1c22.58 7.87 43.76 21.28 62.05 37.2q4.1 3.57 8.84 8.89 10.2 11.45 19.13 24.37 13.19 19.08 21.09 41.14c4.32 12.05 8.89 26.55 11.29 39.44q6.98 37.44 6.63 72.95-.24 24.52-3.65 53.5-2.42 20.61-9.04 52.86-13.1 63.83-30.11 124.18-3.19 11.33-11.93 49.51-3.01 13.15-6 34.54-2.83 20.18-1.65 34.94 2.34 29.24 13.49 52.52c5.56 11.6 15.39 24.22 26.55 32.86 9.94 7.68 16.31 11.35 28.7 18.9q20.66 12.59 31.74 32.48 8.73 15.66 11.54 33.59.71 4.52.76 9.8c.03 3.78.38 8.49 0 13.12q-1.15 14.34-3.31 28.94m-279.82-590.5q3.69 5.17 8.89 9.67 19.97 17.27 47.54 14.49c46.08-4.65 68.77-57.17 42.09-94.53-26.68-37.35-83.73-32.93-103.07 9.15q-11.57 25.18-1.71 49.67 2.57 6.38 6.26 11.55"/><path fill="#f24c7a" d="M385.68 1116.48c-3.03-.12-5.67-.05-8.58-.37q-19.52-2.13-39.23-8.01-34.91-10.4-67.78-28.68c-28.33-15.75-55.3-37.44-74.07-63.21-22.14-30.39-35.6-65.92-36.31-103.46q-.42-22.18 7.57-44.7 4.83-13.63 11.34-23.25c15.06-22.25 37.1-38.91 63-46.09q17.38-4.82 36.42-4.92c20.75-.11 41.48 7.18 57.14 20.92q5.68 5 10.53 12.09c20.35 29.78 22.06 65.41 25.26 101q2.84 31.61 11.64 61.45c2.91 9.88 7.47 20.07 10.61 28.09q8.52 21.72 22.1 42.82 2.13 3.31 5.16 11.61 5.55 15.23-.66 30.06c-5.2 12.42-22.25 15.12-34.14 14.65"/><path fill="#4891d3" d="M1347.22 1041.45c-10.1 6.32-19.31 9.46-31 6.12-11.1-3.17-17.29-14.2-18.43-25.35-1.16-11.36.11-23.46 1.6-34.07 3.42-24.24 8.31-48.59 15.53-70.71 10.48-32.14 27.03-62.31 50.72-86.6 36.76-37.67 97.81-52.17 141.79-16.23q10.8 8.83 17.7 20.75c10.22 17.69 16.76 38.23 16.57 58.49-.33 35.58-20.29 65.53-52.16 80.69q-11.82 5.62-18.62 8.15-17.52 6.51-44.47 15.75c-14.02 4.8-26.55 10.74-41.6 18.92-13.37 7.26-25.18 16.31-37.63 24.09"/><path fill="#8567cd" d="M1134.66 916.22q6.11 5.72 10.93 12.93 7.79 11.64 9.6 24.86.88 6.41.87 18.99-.01 35.75-.89 64c-.67 21.47-10.76 45.64-35.61 46.46a.6.59-64 0 0-.31.11q-.52.36-.11.76-18.26-1.98-36.31-3.03-8.62-.5-16.25-1.57-8.58-1.2-16.19-2.22l-94.25-9.33a.23.11-18.4 0 1-.07-.01q-3.2-.74-6.54-.81c-12.12-1.31-24.75-3.14-36.29-4.2q-19.41-1.78-38.46-3.43l-5.22-.65q-3.27-2.66-7.59-3.21-11.23-1.43-12.65-1.56-31.78-2.89-53.89-5.17-9.93-1.02-18.96-.53a.36.35-19.6 0 0-.27.56q.31.42 1.12.69-.8-.02-1.23-.28-3.12-.39-6.2-.84c-5.77-.83-11.55-.92-17.36-1.33l10.88.19a.15.14 2 0 0 .15-.13.12.12 0 0 0-.1-.13q-5.39-.72-10.78-.97-2.29-.11-10.78-.74-5.82-.44-11.67-.28-20.07-2.1-40.13-4.22-1.98-.21-2.47 1.06-8.69.02-13.48-1.12c-4.53-1.08-9.19-2.25-13.82-2.88q-11.51-1.58-17.12-2.53a.8.71-15.8 0 1-.39-.19q-.4-.34-.96-.4-9.44-.88-38.44-4.16-4.06-.46-6.36-.28c-7.63.59-14.6.43-22.72-1.06a.13.13 0 0 1-.11-.14v-.01a.17.17 0 0 1 .18-.16l9.55.36a.2.2 0 0 0 .2-.16v-.01a.23.23 0 0 0-.2-.25q-7.16-.8-14.36-1.57-1.78-.19-4.34.05-2.28.21-4.29.45-.26-1.52-2.82-2.41-2.89-1-3.6-1.4c-19.47-11.12-21.59-32.51-19.87-52.82q3.9-45.92 6.21-64.53c.76-6.09 2.96-14.94 5.72-20.86q6.8-14.57 19.98-23.77 2.31-1.61 8.88-5.11.49-.26 1.1-1.16l1.83-.13a2.55 2.34-53.8 0 0 .65-.13q12.49-4.4 24.35-3.13 21.97 2.34 25.61 2.71 157.16 15.85 292.93 30.14 42.3 4.45 115.73 11.77c15.73 1.56 40.61 4.5 60.09 6.06q10.94.87 18.52 3.52a3.37 3.35-33.9 0 0 .99.19q2.64.11 3.89 1.74a2.2 2.05 83.3 0 0 .67.57z"/><path fill="#f24c7a" d="M687.63 1042.19q-.14 3.7-1.1 7.31-5.61 21.08-14.04 51.02-4.87 17.31-9.21 30.15-6.21 18.35-10.75 29.63-11.77 29.29-16.19 39.56-7.8 18.12-20.01 40.77-.29.52-.52.82a.99.01-52.9 0 0-.59.79q-.56 1.81-7.29 13.47-17.69 30.66-35.59 54.89-1.54 2.08-2.89 3.66c-1.59 1.86-2.72 4.91-4.95 6.65a3.69 3.63.5 0 0-.61.59q-19.29 23.28-25.13 29.77-10.96 12.18-30.4 31.58-5.49 5.47-27.37 24.55c-18.41 16.06-36.44 29.49-56.39 43.43q-12.47 8.72-12.94 9.05-7.61 5.43-13.05 8.91-14.86 9.52-23.38 15.19-2.01 1.34-5.5 2.76a2.39 2.37-54.7 0 1-.91.16l-9.28-.33q-7.47-.15-13.68 1.52-19.07 5.12-33.12 7.31-39.97 6.25-78.42.15-35-5.54-66.14-23.92-30.63-18.08-49.17-46.63c-19.45-29.96-27.43-66.2-22.51-101.74q1.41-10.14 5.98-24.27 4.42-13.66 9.62-23.07 14.83-26.81 37.67-44.66 14.96-11.69 34.71-19.48 37.25-14.67 77.28-10.83c11.61 1.12 21.7 2.66 34.25 5.28q19.98 4.16 30.74 6.02c12.37 2.13 25.34 2.54 40 2.3q12.68-.21 20.92-1.51 34.53-5.5 63.24-22.44 11.83-6.98 26.45-18.49 12.58-9.92 23.41-22.18c25.32-28.67 43.05-63.04 53.31-99.62q2.83-10.1 5.52-19.89.21-.76 1.37-2.29 2.01-.24 4.29-.45 2.56-.24 4.34-.05 7.2.77 14.36 1.57a.23.23 0 0 1 .2.25v.01a.2.2 0 0 1-.2.16l-9.55-.36a.17.17 0 0 0-.18.16v.01a.13.13 0 0 0 .11.14c8.12 1.49 15.09 1.65 22.72 1.06q2.3-.18 6.36.28 29 3.28 38.44 4.16.56.06.96.4a.8.71-15.8 0 0 .39.19q5.61.95 17.12 2.53c4.63.63 9.29 1.8 13.82 2.88q4.79 1.14 13.48 1.12"/><path fill="#fe882c" d="m730.23 1045.35 18 1.76-4.21.56a.41.41 0 0 0-.06.8c10.03 2.86 20.78 3.32 31.24 3.42q-.36 5.98-1.62 11.7-.66 3.01-.98 5.48c-.64 4.93-1.57 9.32-1.96 13.79-.56 6.41-2.18 13.58-3.33 21.04q-3.62 23.45-5.43 32.62-.67 3.37-4.15 20.77c-5.2 25.95-11.6 51.34-19 78.16-3.57 12.91-8.57 26.96-12.28 39.31-2.45 8.18-6.04 16.71-9.89 27.32q-8.77 24.12-28.33 68c-2.08 4.69-3.42 8.62-5.66 12.86q-2.09 3.97-4.45 9.54c-2.5 5.9-6.22 12.86-8.67 18.18q-5.07 11-26.41 57.05-10.26 22.15-29.57 66.74c-5.75 13.27-10.18 26.43-11.86 40.57-.41 3.45-1.64 7.95-1.68 11.99q-.01 1.33-1.72 1.14c-11.92-1.68-22.21 7-30.96 14.87q-13.41 12.06-19.27 16.23c-24.71 17.57-54.43 30.31-84.68 34.71-30.08 4.38-62.35 2.97-89.07-12.96-15.06-8.97-28.77-23.17-34.41-39.98q-8.04-23.96-3.43-49.04 1.74-9.48 4.08-16.27 8.41-24.47 25.63-45.35a2.29 1.91-6.2 0 1 .27-.28l2.47-2.27a.5.5 0 0 0-.32-.86l-8.98-.38 9.28.33a2.39 2.37-54.7 0 0 .91-.16q3.49-1.42 5.5-2.76 8.52-5.67 23.38-15.19 5.44-3.48 13.05-8.91.47-.33 12.94-9.05c19.95-13.94 37.98-27.37 56.39-43.43q21.88-19.08 27.37-24.55 19.44-19.4 30.4-31.58 5.84-6.49 25.13-29.77a3.69 3.63.5 0 1 .61-.59c2.23-1.74 3.36-4.79 4.95-6.65q1.35-1.58 2.89-3.66 17.9-24.23 35.59-54.89 6.73-11.66 7.29-13.47a.99.01-52.9 0 1 .59-.79q.23-.3.52-.82 12.21-22.65 20.01-40.77 4.42-10.27 16.19-39.56 4.54-11.28 10.75-29.63 4.34-12.84 9.21-30.15 8.43-29.94 14.04-51.02.96-3.61 1.1-7.31.49-1.27 2.47-1.06 20.06 2.12 40.13 4.22"/><path fill="#f24c7a" d="m752.53 1047.41-4.3-.3-18-1.76q5.85-.16 11.67.28 8.49.63 10.78.74 5.39.25 10.78.97a.12.12 0 0 1 .1.13.15.14 2 0 1-.15.13z"/><path fill="#d99f60" d="M752.53 1047.41c5.81.41 11.59.5 17.36 1.33q3.08.45 6.2.84-.87 1.42-.89 2.31c-10.46-.1-21.21-.56-31.24-3.42a.41.41 0 0 1 .06-.8l4.21-.56z"/><path fill="#7cb86c" d="m869.56 1059.08-92.24-9.22q-.81-.27-1.12-.69a.36.35-19.6 0 1 .27-.56q9.03-.49 18.96.53 22.11 2.28 53.89 5.17 1.42.13 12.65 1.56 4.32.55 7.59 3.21"/><path fill="#fcc417" d="M776.09 1049.58q.43.26 1.23.28l92.24 9.22 5.22.65q.82 4.57.24 9.08-.79 6.14-.8 6.24-2.55 34.38-4.89 65.72-.23 3.08-.44 6.22-1.81 27.49-2.3 43.94a3.89 3.57 55.1 0 1-.11.82q-.48 1.92-.39 3.75.29 6.1-.35 11.58-.72 6.15-.65 11.39.13 10.96-.19 16.19a4.09 3.69 58 0 1-.13.74q-.59 1.99-.6 3.86-.04 9.64-.31 25.49c-.03 2 .28 4.24.28 6q-.02 16.26-.02 26.32.01 9.56.43 22.82.22 7.04.91 22.79.41 9.64.56 13.57.6 16.59 3.67 51.62c2.28 26.01 4.81 51.17 8.25 80.76q4.55 39.05 8.57 81.29c1.52 16.03 2.59 24.75 1.52 37.33q-.68 7.97-1.79 12.23-2.4 9.17-6.96 20.28-3.97 8.76-9.05 16.91-1.19 1.9-1.67 2.9-.77 1.62-1.67 2.86c-2.54 3.53-4.02 6.22-6.32 9-19.89 24.01-47.22 41.21-77.86 47.7-42.2 8.93-87.85 3.67-125.08-18.01q-10.24-5.96-21.03-15.98-26.72-24.83-34.29-60.66-3.59-17.03-3.18-32.95a1.34 1.31 61.6 0 1 .18-.63q.52-.91.27-2.11a.6.55-76.6 0 0-.17-.3q-.47-.45-1.2-.34 1.71.19 1.72-1.14c.04-4.04 1.27-8.54 1.68-11.99 1.68-14.14 6.11-27.3 11.86-40.57q19.31-44.59 29.57-66.74 21.34-46.05 26.41-57.05c2.45-5.32 6.17-12.28 8.67-18.18q2.36-5.57 4.45-9.54c2.24-4.24 3.58-8.17 5.66-12.86q19.56-43.88 28.33-68c3.85-10.61 7.44-19.14 9.89-27.32 3.71-12.35 8.71-26.4 12.28-39.31 7.4-26.82 13.8-52.21 19-78.16q3.48-17.4 4.15-20.77 1.81-9.17 5.43-32.62c1.15-7.46 2.77-14.63 3.33-21.04.39-4.47 1.32-8.86 1.96-13.79q.32-2.47.98-5.48 1.26-5.72 1.62-11.7.02-.89.89-2.31m21.373 5.746a.51.06-173.9 0 0 .5.114.51.06-173.9 0 0 .514-.006.51.06-173.9 0 0-.5-.114.51.06-173.9 0 0-.514.006"/><path fill="#d99f60" d="M797.463 1055.326a.51.06-173.9 0 1 .513-.006.51.06-173.9 0 1 .501.114.51.06-173.9 0 1-.513.006.51.06-173.9 0 1-.501-.114"/><path fill="#7cb86c" d="m949.53 1067.36 4.75.94h.03l11.1.92a.98.98 0 0 1 .8.56l1.62 3.52a2.89 2.78 31.3 0 1 .26.98q.43 4.92.26 10.47-.06 1.77.33 3.46a3.29 2.77-56 0 1 .07.66q.55 31.44 3.16 60.37.31 3.36 3.73 36.14 2.21 21.12 4.7 36.02 3.85 23.03 7.77 41.94 2.33 11.24 6.84 28.66 7.17 27.7 7.44 28.49.01.01 2.05 6.97 1.79 6.06 2.29 8.53.41 2.01 3.16 9.75 1.46 4.12 2.96 9.79 4.4 16.58 11.02 30.69 4.65 9.91 6.08 13.26 6.1 14.31 11.91 25.71a.23.23 0 0 0 .3.1l.01-.01a.35.34-25.5 0 0 .17-.47q-1.38-2.83-8.91-18.47-1.63-3.38-1.62-4.55a.19.18-62.7 0 1 .33-.11q2.32 3.31 3.4 5.78 8.73 20.03 14.23 29.58 5.88 10.2 10.68 18.69c1.21 2.15 3.08 4.73 4.77 6.76q1.47 1.77 3.55 5.03 11.93 18.62 17.94 26.79 1.35 1.84 7.72 10.43c5.34 7.2 11.53 14.14 17.03 21.32q.23.3 7.26 8.96.06.08.81 1.03 2.73 3.49 16.33 19.58 6.54 7.73 12.76 17.49 1.31 2.05 3.37 6.35.17.34.71.77a1.36 1.35-77.9 0 1 .48.75l.71 3.1a1.95 1.93-71.3 0 0 .36.74q1.46 1.86 1.31 3.54c2.2 6.77 3.17 14.12 4.02 20.87 2.87 22.62-3.52 45.7-16.01 64.41-16.51 24.75-43.7 39.65-72.22 46.45q-17.36 4.14-35.64 4.43c-46.29.76-90.03-17.44-118.28-54.68q-4.93-6.49-8.22-12.2-4.23-7.36-8-12.31-3.16-4.15-7.96-5.6-5.1-1.54-13.97.02 4.56-11.11 6.96-20.28 1.11-4.26 1.79-12.23c1.07-12.58 0-21.3-1.52-37.33q-4.02-42.24-8.57-81.29c-3.44-29.59-5.97-54.75-8.25-80.76q-3.07-35.03-3.67-51.62-.15-3.93-.56-13.57-.69-15.75-.91-22.79-.42-13.26-.43-22.82 0-10.06.02-26.32c0-1.76-.31-4-.28-6q.27-15.85.31-25.49.01-1.87.6-3.86a4.09 3.69 58 0 0 .13-.74q.32-5.23.19-16.19-.07-5.24.65-11.39.64-5.48.35-11.58-.09-1.83.39-3.75a3.89 3.57 55.1 0 0 .11-.82q.49-16.45 2.3-43.94.21-3.14.44-6.22 2.34-31.34 4.89-65.72.01-.1.8-6.24.58-4.51-.24-9.08 19.05 1.65 38.46 3.43c11.54 1.06 24.17 2.89 36.29 4.2"/><path fill="#66b5e1" d="M1050.39 1077.51q3.49 13.52 5.06 28.08.99 9.13 2.21 15.07 3.24 15.79 4.61 21.32 11.52 46.47 34.86 88.13 9.59 17.12 22.95 36.67 3.62 5.29 9.03 11.84 8.16 9.86 9.61 11.57 10.31 12.14 25.13 27 7.72 7.73 16.97 15.31 15.72 12.9 17.63 14.32 22.45 16.66 49.2 31.02 12.56 6.74 25.07 11.42 21.39 7.99 42.61 13.6 7.39 1.95 23.65 5.12 3.23.63 23.76 4.66 4.99.98 9.09 1.66 14.97 5.5 29.01 12.1 14.44 6.79 22.56 12.58c12.09 8.61 23.68 18.53 32.39 30.25 14.32 19.27 21.6 47.24 18.58 71.34-.92 7.34-1.99 15.34-4.47 22.76q-5.68 17.03-16.7 31.47-10.35 13.55-26.43 23.73-21.01 13.31-45.62 18.59-28.08 6.03-55.2 5.1c-7.43-.25-14.93-1.2-22.21-1.86q-5.05-.46-8.85-1.07c-38.82-6.28-76.62-19.99-109.88-41.2-5.3-3.37-11.81-7.43-18.07-8.96q-5.8-1.42-11.38-.76.15-1.68-1.31-3.54a1.95 1.93-71.3 0 1-.36-.74l-.71-3.1a1.36 1.35-77.9 0 0-.48-.75q-.54-.43-.71-.77-2.06-4.3-3.37-6.35-6.22-9.76-12.76-17.49-13.6-16.09-16.33-19.58-.75-.95-.81-1.03-7.03-8.66-7.26-8.96c-5.5-7.18-11.69-14.12-17.03-21.32q-6.37-8.59-7.72-10.43-6.01-8.17-17.94-26.79-2.08-3.26-3.55-5.03c-1.69-2.03-3.56-4.61-4.77-6.76q-4.8-8.49-10.68-18.69-5.5-9.55-14.23-29.58-1.08-2.47-3.4-5.78a.19.18-62.7 0 0-.33.11q-.01 1.17 1.62 4.55 7.53 15.64 8.91 18.47a.35.34-25.5 0 1-.17.47l-.01.01a.23.23 0 0 1-.3-.1q-5.81-11.4-11.91-25.71-1.43-3.35-6.08-13.26-6.62-14.11-11.02-30.69-1.5-5.67-2.96-9.79-2.75-7.74-3.16-9.75-.5-2.47-2.29-8.53-2.04-6.96-2.05-6.97-.27-.79-7.44-28.49-4.51-17.42-6.84-28.66-3.92-18.91-7.77-41.94-2.49-14.9-4.7-36.02-3.42-32.78-3.73-36.14-2.61-28.93-3.16-60.37a3.29 2.77-56 0 0-.07-.66q-.39-1.69-.33-3.46.17-5.55-.26-10.47a2.89 2.78 31.3 0 0-.26-.98l-1.62-3.52a.98.98 0 0 0-.8-.56l-11.1-.92h-.03l-4.75-.94q3.34.07 6.54.81a.23.11-18.4 0 0 .07.01z"/><path fill="#4891d3" d="M1119.14 1084.33q1.51 9.96 3.34 19.97 3.58 19.51 11.47 36.87 4.98 10.94 9.41 18.17c7.43 12.13 18.62 22.82 30.64 31.61q24.82 18.14 55.15 21.75 30.34 3.6 58.97-5.96 26.26-8.77 47.34-25.55 6.76-5.38 28.49-23.25 20.65-16.97 44.71-26.48c26.58-10.5 58.2-13.4 85.81-6.63q20.55 5.04 39.36 16.89c36.4 22.94 53.42 64.9 55.15 106.29q1.52 36.29-14.15 68.36c-7.47 15.3-19.57 31.89-32.89 43.49q-23.83 20.75-51.12 30.74-24.13 8.84-49.66 12.7-13.25 2.01-28.97 2.86c-14.19.77-27.11 3.7-40.36 8.14q-4.1-.68-9.09-1.66-20.53-4.03-23.76-4.66-16.26-3.17-23.65-5.12-21.22-5.61-42.61-13.6-12.51-4.68-25.07-11.42-26.75-14.36-49.2-31.02-1.91-1.42-17.63-14.32-9.25-7.58-16.97-15.31-14.82-14.86-25.13-27-1.45-1.71-9.61-11.57-5.41-6.55-9.03-11.84-13.36-19.55-22.95-36.67-23.34-41.66-34.86-88.13-1.37-5.53-4.61-21.32-1.22-5.94-2.21-15.07-1.57-14.56-5.06-28.08 7.61 1.02 16.19 2.22 7.63 1.07 16.25 1.57 18.05 1.05 36.31 3.03"/></svg>