<?xml version="1.0" encoding="UTF-8" standalone="no"?>
<!DOCTYPE svg PUBLIC "-//W3C//DTD SVG 1.1//EN" "http://www.w3.org/Graphics/SVG/1.1/DTD/svg11.dtd">
<svg xmlns="http://www.w3.org/2000/svg" version="1.1" viewBox="0.00 0.00 1687.00 1863.00">
<path fill="#d99f60" d="
  M 1134.66 916.22
  L 1121.83 909.38
  A 2.20 2.05 83.3 0 1 1121.16 908.81
  Q 1119.91 907.18 1117.27 907.07
  A 3.37 3.35 -33.9 0 1 1116.28 906.88
  Q 1108.70 904.23 1097.76 903.36
  C 1078.28 901.80 1053.40 898.86 1037.67 897.30
  Q 964.24 889.98 921.94 885.53
  Q 786.17 871.24 629.01 855.39
  Q 625.37 855.02 603.40 852.68
  Q 591.54 851.41 579.05 855.81
  A 2.55 2.34 -53.8 0 1 578.40 855.94
  L 576.57 856.07
  Q 576.15 855.11 576.17 854.50
  Q 576.71 837.79 580.64 819.97
  C 586.85 791.83 603.80 768.05 630.46 756.77
  Q 634.05 755.25 643.85 752.35
  C 668.91 744.92 693.01 730.28 706.01 707.00
  Q 711.90 696.44 716.11 685.31
  Q 720.28 674.26 722.54 662.27
  Q 726.73 640.02 726.50 613.50
  Q 726.14 572.93 722.17 535.53
  Q 717.47 491.28 713.69 449.63
  C 712.57 437.33 711.80 423.85 711.17 412.57
  C 708.86 371.08 710.95 328.86 718.60 287.88
  Q 723.05 264.02 729.79 245.59
  Q 742.73 210.27 765.95 180.13
  Q 783.70 157.10 809.05 140.53
  Q 833.70 124.40 862.26 116.75
  C 878.54 112.38 895.37 111.25 912.28 111.93
  C 923.98 112.40 934.07 114.31 944.87 116.39
  Q 949.16 117.22 958.54 120.49
  C 981.12 128.36 1002.30 141.77 1020.59 157.69
  Q 1024.69 161.26 1029.43 166.58
  Q 1039.63 178.03 1048.56 190.95
  Q 1061.75 210.03 1069.65 232.09
  C 1073.97 244.14 1078.54 258.64 1080.94 271.53
  Q 1087.92 308.97 1087.57 344.48
  Q 1087.33 369.00 1083.92 397.98
  Q 1081.50 418.59 1074.88 450.84
  Q 1061.78 514.67 1044.77 575.02
  Q 1041.58 586.35 1032.84 624.53
  Q 1029.83 637.68 1026.84 659.07
  Q 1024.01 679.25 1025.19 694.01
  Q 1027.53 723.25 1038.68 746.53
  C 1044.24 758.13 1054.07 770.75 1065.23 779.39
  C 1075.17 787.07 1081.54 790.74 1093.93 798.29
  Q 1114.59 810.88 1125.67 830.77
  Q 1134.40 846.43 1137.21 864.36
  Q 1137.92 868.88 1137.97 874.16
  C 1138.00 877.94 1138.35 882.65 1137.97 887.28
  Q 1136.82 901.62 1134.66 916.22
  Z
  M 854.84 325.72
  Q 858.53 330.89 863.73 335.39
  Q 883.70 352.66 911.27 349.88
  C 957.35 345.23 980.04 292.71 953.36 255.35
  C 926.68 218.00 869.63 222.42 850.29 264.50
  Q 838.72 289.68 848.58 314.17
  Q 851.15 320.55 854.84 325.72
  Z"
/>
<path fill="#f24c7a" d="
  M 385.68 1116.48
  C 382.65 1116.36 380.01 1116.43 377.10 1116.11
  Q 357.58 1113.98 337.87 1108.10
  Q 302.96 1097.70 270.09 1079.42
  C 241.76 1063.67 214.79 1041.98 196.02 1016.21
  C 173.88 985.82 160.42 950.29 159.71 912.75
  Q 159.29 890.57 167.28 868.05
  Q 172.11 854.42 178.62 844.80
  C 193.68 822.55 215.72 805.89 241.62 798.71
  Q 259.00 793.89 278.04 793.79
  C 298.79 793.68 319.52 800.97 335.18 814.71
  Q 340.86 819.71 345.71 826.80
  C 366.06 856.58 367.77 892.21 370.97 927.80
  Q 373.81 959.41 382.61 989.25
  C 385.52 999.13 390.08 1009.32 393.22 1017.34
  Q 401.74 1039.06 415.32 1060.16
  Q 417.45 1063.47 420.48 1071.77
  Q 426.03 1087.00 419.82 1101.83
  C 414.62 1114.25 397.57 1116.95 385.68 1116.48
  Z"
/>
<path fill="#4891d3" d="
  M 1347.22 1041.45
  C 1337.12 1047.77 1327.91 1050.91 1316.22 1047.57
  C 1305.12 1044.40 1298.93 1033.37 1297.79 1022.22
  C 1296.63 1010.86 1297.90 998.76 1299.39 988.15
  C 1302.81 963.91 1307.70 939.56 1314.92 917.44
  C 1325.40 885.30 1341.95 855.13 1365.64 830.84
  C 1402.40 793.17 1463.45 778.67 1507.43 814.61
  Q 1518.23 823.44 1525.13 835.36
  C 1535.35 853.05 1541.89 873.59 1541.70 893.85
  C 1541.37 929.43 1521.41 959.38 1489.54 974.54
  Q 1477.72 980.16 1470.92 982.69
  Q 1453.40 989.20 1426.45 998.44
  C 1412.43 1003.24 1399.90 1009.18 1384.85 1017.36
  C 1371.48 1024.62 1359.67 1033.67 1347.22 1041.45
  Z"
/>
<path fill="#8567cd" d="
  M 1134.66 916.22
  Q 1140.77 921.94 1145.59 929.15
  Q 1153.38 940.79 1155.19 954.01
  Q 1156.07 960.42 1156.06 973.00
  Q 1156.05 1008.75 1155.17 1037.00
  C 1154.50 1058.47 1144.41 1082.64 1119.56 1083.46
  A 0.60 0.59 -64.0 0 0 1119.25 1083.57
  Q 1118.73 1083.93 1119.14 1084.33
  Q 1100.88 1082.35 1082.83 1081.30
  Q 1074.21 1080.80 1066.58 1079.73
  Q 1058.00 1078.53 1050.39 1077.51
  L 956.14 1068.18
  A 0.23 0.11 -18.4 0 1 956.07 1068.17
  Q 952.87 1067.43 949.53 1067.36
  C 937.41 1066.05 924.78 1064.22 913.24 1063.16
  Q 893.83 1061.38 874.78 1059.73
  L 869.56 1059.08
  Q 866.29 1056.42 861.97 1055.87
  Q 850.74 1054.44 849.32 1054.31
  Q 817.54 1051.42 795.43 1049.14
  Q 785.50 1048.12 776.47 1048.61
  A 0.36 0.35 -19.6 0 0 776.20 1049.17
  Q 776.51 1049.59 777.32 1049.86
  Q 776.52 1049.84 776.09 1049.58
  Q 772.97 1049.19 769.89 1048.74
  C 764.12 1047.91 758.34 1047.82 752.53 1047.41
  L 763.41 1047.60
  A 0.15 0.14 2.0 0 0 763.56 1047.47
  A 0.12 0.12 0.0 0 0 763.46 1047.34
  Q 758.07 1046.62 752.68 1046.37
  Q 750.39 1046.26 741.90 1045.63
  Q 736.08 1045.19 730.23 1045.35
  Q 710.16 1043.25 690.10 1041.13
  Q 688.12 1040.92 687.63 1042.19
  Q 678.94 1042.21 674.15 1041.07
  C 669.62 1039.99 664.96 1038.82 660.33 1038.19
  Q 648.82 1036.61 643.21 1035.66
  A 0.80 0.71 -15.8 0 1 642.82 1035.47
  Q 642.42 1035.13 641.86 1035.07
  Q 632.42 1034.19 603.42 1030.91
  Q 599.36 1030.45 597.06 1030.63
  C 589.43 1031.22 582.46 1031.06 574.34 1029.57
  A 0.13 0.13 0.0 0 1 574.23 1029.43
  L 574.23 1029.42
  A 0.17 0.17 0.0 0 1 574.41 1029.26
  L 583.96 1029.62
  A 0.20 0.20 0.0 0 0 584.16 1029.46
  L 584.16 1029.45
  A 0.23 0.23 0.0 0 0 583.96 1029.20
  Q 576.80 1028.40 569.60 1027.63
  Q 567.82 1027.44 565.26 1027.68
  Q 562.98 1027.89 560.97 1028.13
  Q 560.71 1026.61 558.15 1025.72
  Q 555.26 1024.72 554.55 1024.32
  C 535.08 1013.20 532.96 991.81 534.68 971.50
  Q 538.58 925.58 540.89 906.97
  C 541.65 900.88 543.85 892.03 546.61 886.11
  Q 553.41 871.54 566.59 862.34
  Q 568.90 860.73 575.47 857.23
  Q 575.96 856.97 576.57 856.07
  L 578.40 855.94
  A 2.55 2.34 -53.8 0 0 579.05 855.81
  Q 591.54 851.41 603.40 852.68
  Q 625.37 855.02 629.01 855.39
  Q 786.17 871.24 921.94 885.53
  Q 964.24 889.98 1037.67 897.30
  C 1053.40 898.86 1078.28 901.80 1097.76 903.36
  Q 1108.70 904.23 1116.28 906.88
  A 3.37 3.35 -33.9 0 0 1117.27 907.07
  Q 1119.91 907.18 1121.16 908.81
  A 2.20 2.05 83.3 0 0 1121.83 909.38
  L 1134.66 916.22
  Z"
/>
<path fill="#f24c7a" d="
  M 687.63 1042.19
  Q 687.49 1045.89 686.53 1049.50
  Q 680.92 1070.58 672.49 1100.52
  Q 667.62 1117.83 663.28 1130.67
  Q 657.07 1149.02 652.53 1160.30
  Q 640.76 1189.59 636.34 1199.86
  Q 628.54 1217.98 616.33 1240.63
  Q 616.04 1241.15 615.81 1241.45
  A 0.99 0.01 -52.9 0 0 615.22 1242.24
  Q 614.66 1244.05 607.93 1255.71
  Q 590.24 1286.37 572.34 1310.60
  Q 570.80 1312.68 569.45 1314.26
  C 567.86 1316.12 566.73 1319.17 564.50 1320.91
  A 3.69 3.63 0.5 0 0 563.89 1321.50
  Q 544.60 1344.78 538.76 1351.27
  Q 527.80 1363.45 508.36 1382.85
  Q 502.87 1388.32 480.99 1407.40
  C 462.58 1423.46 444.55 1436.89 424.60 1450.83
  Q 412.13 1459.55 411.66 1459.88
  Q 404.05 1465.31 398.61 1468.79
  Q 383.75 1478.31 375.23 1483.98
  Q 373.22 1485.32 369.73 1486.74
  A 2.39 2.37 -54.7 0 1 368.82 1486.90
  L 359.54 1486.57
  Q 352.07 1486.42 345.86 1488.09
  Q 326.79 1493.21 312.74 1495.40
  Q 272.77 1501.65 234.32 1495.55
  Q 199.32 1490.01 168.18 1471.63
  Q 137.55 1453.55 119.01 1425.00
  C 99.56 1395.04 91.58 1358.80 96.50 1323.26
  Q 97.91 1313.12 102.48 1298.99
  Q 106.90 1285.33 112.10 1275.92
  Q 126.93 1249.11 149.77 1231.26
  Q 164.73 1219.57 184.48 1211.78
  Q 221.73 1197.11 261.76 1200.95
  C 273.37 1202.07 283.46 1203.61 296.01 1206.23
  Q 315.99 1210.39 326.75 1212.25
  C 339.12 1214.38 352.09 1214.79 366.75 1214.55
  Q 379.43 1214.34 387.67 1213.04
  Q 422.20 1207.54 450.91 1190.60
  Q 462.74 1183.62 477.36 1172.11
  Q 489.94 1162.19 500.77 1149.93
  C 526.09 1121.26 543.82 1086.89 554.08 1050.31
  Q 556.91 1040.21 559.60 1030.42
  Q 559.81 1029.66 560.97 1028.13
  Q 562.98 1027.89 565.26 1027.68
  Q 567.82 1027.44 569.60 1027.63
  Q 576.80 1028.40 583.96 1029.20
  A 0.23 0.23 0.0 0 1 584.16 1029.45
  L 584.16 1029.46
  A 0.20 0.20 0.0 0 1 583.96 1029.62
  L 574.41 1029.26
  A 0.17 0.17 0.0 0 0 574.23 1029.42
  L 574.23 1029.43
  A 0.13 0.13 0.0 0 0 574.34 1029.57
  C 582.46 1031.06 589.43 1031.22 597.06 1030.63
  Q 599.36 1030.45 603.42 1030.91
  Q 632.42 1034.19 641.86 1035.07
  Q 642.42 1035.13 642.82 1035.47
  A 0.80 0.71 -15.8 0 0 643.21 1035.66
  Q 648.82 1036.61 660.33 1038.19
  C 664.96 1038.82 669.62 1039.99 674.15 1041.07
  Q 678.94 1042.21 687.63 1042.19
  Z"
/>
<path fill="#fe882c" d="
  M 730.23 1045.35
  L 748.23 1047.11
  L 744.02 1047.67
  A 0.41 0.41 0.0 0 0 743.96 1048.47
  C 753.99 1051.33 764.74 1051.79 775.20 1051.89
  Q 774.84 1057.87 773.58 1063.59
  Q 772.92 1066.60 772.60 1069.07
  C 771.96 1074.00 771.03 1078.39 770.64 1082.86
  C 770.08 1089.27 768.46 1096.44 767.31 1103.90
  Q 763.69 1127.35 761.88 1136.52
  Q 761.21 1139.89 757.73 1157.29
  C 752.53 1183.24 746.13 1208.63 738.73 1235.45
  C 735.16 1248.36 730.16 1262.41 726.45 1274.76
  C 724.00 1282.94 720.41 1291.47 716.56 1302.08
  Q 707.79 1326.20 688.23 1370.08
  C 686.15 1374.77 684.81 1378.70 682.57 1382.94
  Q 680.48 1386.91 678.12 1392.48
  C 675.62 1398.38 671.90 1405.34 669.45 1410.66
  Q 664.38 1421.66 643.04 1467.71
  Q 632.78 1489.86 613.47 1534.45
  C 607.72 1547.72 603.29 1560.88 601.61 1575.02
  C 601.20 1578.47 599.97 1582.97 599.93 1587.01
  Q 599.92 1588.34 598.21 1588.15
  C 586.29 1586.47 576.00 1595.15 567.25 1603.02
  Q 553.84 1615.08 547.98 1619.25
  C 523.27 1636.82 493.55 1649.56 463.30 1653.96
  C 433.22 1658.34 400.95 1656.93 374.23 1641.00
  C 359.17 1632.03 345.46 1617.83 339.82 1601.02
  Q 331.78 1577.06 336.39 1551.98
  Q 338.13 1542.50 340.47 1535.71
  Q 348.88 1511.24 366.10 1490.36
  A 2.29 1.91 -6.2 0 1 366.37 1490.08
  L 368.84 1487.81
  A 0.50 0.50 0.0 0 0 368.52 1486.95
  L 359.54 1486.57
  L 368.82 1486.90
  A 2.39 2.37 -54.7 0 0 369.73 1486.74
  Q 373.22 1485.32 375.23 1483.98
  Q 383.75 1478.31 398.61 1468.79
  Q 404.05 1465.31 411.66 1459.88
  Q 412.13 1459.55 424.60 1450.83
  C 444.55 1436.89 462.58 1423.46 480.99 1407.40
  Q 502.87 1388.32 508.36 1382.85
  Q 527.80 1363.45 538.76 1351.27
  Q 544.60 1344.78 563.89 1321.50
  A 3.69 3.63 0.5 0 1 564.50 1320.91
  C 566.73 1319.17 567.86 1316.12 569.45 1314.26
  Q 570.80 1312.68 572.34 1310.60
  Q 590.24 1286.37 607.93 1255.71
  Q 614.66 1244.05 615.22 1242.24
  A 0.99 0.01 -52.9 0 1 615.81 1241.45
  Q 616.04 1241.15 616.33 1240.63
  Q 628.54 1217.98 636.34 1199.86
  Q 640.76 1189.59 652.53 1160.30
  Q 657.07 1149.02 663.28 1130.67
  Q 667.62 1117.83 672.49 1100.52
  Q 680.92 1070.58 686.53 1049.50
  Q 687.49 1045.89 687.63 1042.19
  Q 688.12 1040.92 690.10 1041.13
  Q 710.16 1043.25 730.23 1045.35
  Z"
/>
<path fill="#f24c7a" d="
  M 752.53 1047.41
  L 748.23 1047.11
  L 730.23 1045.35
  Q 736.08 1045.19 741.90 1045.63
  Q 750.39 1046.26 752.68 1046.37
  Q 758.07 1046.62 763.46 1047.34
  A 0.12 0.12 0.0 0 1 763.56 1047.47
  A 0.15 0.14 2.0 0 1 763.41 1047.60
  L 752.53 1047.41
  Z"
/>
<path fill="#d99f60" d="
  M 752.53 1047.41
  C 758.34 1047.82 764.12 1047.91 769.89 1048.74
  Q 772.97 1049.19 776.09 1049.58
  Q 775.22 1051.00 775.20 1051.89
  C 764.74 1051.79 753.99 1051.33 743.96 1048.47
  A 0.41 0.41 0.0 0 1 744.02 1047.67
  L 748.23 1047.11
  L 752.53 1047.41
  Z"
/>
<path fill="#7cb86c" d="
  M 869.56 1059.08
  L 777.32 1049.86
  Q 776.51 1049.59 776.20 1049.17
  A 0.36 0.35 -19.6 0 1 776.47 1048.61
  Q 785.50 1048.12 795.43 1049.14
  Q 817.54 1051.42 849.32 1054.31
  Q 850.74 1054.44 861.97 1055.87
  Q 866.29 1056.42 869.56 1059.08
  Z"
/>
<path fill="#fcc417" d="
  M 776.09 1049.58
  Q 776.52 1049.84 777.32 1049.86
  L 869.56 1059.08
  L 874.78 1059.73
  Q 875.60 1064.30 875.02 1068.81
  Q 874.23 1074.95 874.22 1075.05
  Q 871.67 1109.43 869.33 1140.77
  Q 869.10 1143.85 868.89 1146.99
  Q 867.08 1174.48 866.59 1190.93
  A 3.89 3.57 55.1 0 1 866.48 1191.75
  Q 866.00 1193.67 866.09 1195.50
  Q 866.38 1201.60 865.74 1207.08
  Q 865.02 1213.23 865.09 1218.47
  Q 865.22 1229.43 864.90 1234.66
  A 4.09 3.69 58.0 0 1 864.77 1235.40
  Q 864.18 1237.39 864.17 1239.26
  Q 864.13 1248.90 863.86 1264.75
  C 863.83 1266.75 864.14 1268.99 864.14 1270.75
  Q 864.12 1287.01 864.12 1297.07
  Q 864.13 1306.63 864.55 1319.89
  Q 864.77 1326.93 865.46 1342.68
  Q 865.87 1352.32 866.02 1356.25
  Q 866.62 1372.84 869.69 1407.87
  C 871.97 1433.88 874.50 1459.04 877.94 1488.63
  Q 882.49 1527.68 886.51 1569.92
  C 888.03 1585.95 889.10 1594.67 888.03 1607.25
  Q 887.35 1615.22 886.24 1619.48
  Q 883.84 1628.65 879.28 1639.76
  Q 875.31 1648.52 870.23 1656.67
  Q 869.04 1658.57 868.56 1659.57
  Q 867.79 1661.19 866.89 1662.43
  C 864.35 1665.96 862.87 1668.65 860.57 1671.43
  C 840.68 1695.44 813.35 1712.64 782.71 1719.13
  C 740.51 1728.06 694.86 1722.80 657.63 1701.12
  Q 647.39 1695.16 636.60 1685.14
  Q 609.88 1660.31 602.31 1624.48
  Q 598.72 1607.45 599.13 1591.53
  A 1.34 1.31 61.6 0 1 599.31 1590.90
  Q 599.83 1589.99 599.58 1588.79
  A 0.60 0.55 -76.6 0 0 599.41 1588.49
  Q 598.94 1588.04 598.21 1588.15
  Q 599.92 1588.34 599.93 1587.01
  C 599.97 1582.97 601.20 1578.47 601.61 1575.02
  C 603.29 1560.88 607.72 1547.72 613.47 1534.45
  Q 632.78 1489.86 643.04 1467.71
  Q 664.38 1421.66 669.45 1410.66
  C 671.90 1405.34 675.62 1398.38 678.12 1392.48
  Q 680.48 1386.91 682.57 1382.94
  C 684.81 1378.70 686.15 1374.77 688.23 1370.08
  Q 707.79 1326.20 716.56 1302.08
  C 720.41 1291.47 724.00 1282.94 726.45 1274.76
  C 730.16 1262.41 735.16 1248.36 738.73 1235.45
  C 746.13 1208.63 752.53 1183.24 757.73 1157.29
  Q 761.21 1139.89 761.88 1136.52
  Q 763.69 1127.35 767.31 1103.90
  C 768.46 1096.44 770.08 1089.27 770.64 1082.86
  C 771.03 1078.39 771.96 1074.00 772.60 1069.07
  Q 772.92 1066.60 773.58 1063.59
  Q 774.84 1057.87 775.20 1051.89
  Q 775.22 1051.00 776.09 1049.58
  Z
  M 797.4629 1055.3258
  A 0.51 0.06 -173.9 0 0 797.9636 1055.4397
  A 0.51 0.06 -173.9 0 0 798.4771 1055.4342
  A 0.51 0.06 -173.9 0 0 797.9764 1055.3203
  A 0.51 0.06 -173.9 0 0 797.4629 1055.3258
  Z"
/>
<path fill="#d99f60" d="
  M 797.4629 1055.3258
  A 0.51 0.06 -173.9 0 1 797.9764 1055.3203
  A 0.51 0.06 -173.9 0 1 798.4771 1055.4342
  A 0.51 0.06 -173.9 0 1 797.9636 1055.4397
  A 0.51 0.06 -173.9 0 1 797.4629 1055.3258
  Z"
/>
<path fill="#7cb86c" d="
  M 949.53 1067.36
  L 954.28 1068.30
  Q 954.29 1068.30 954.31 1068.30
  L 965.41 1069.22
  A 0.98 0.98 0.0 0 1 966.21 1069.78
  L 967.83 1073.30
  A 2.89 2.78 31.3 0 1 968.09 1074.28
  Q 968.52 1079.20 968.35 1084.75
  Q 968.29 1086.52 968.68 1088.21
  A 3.29 2.77 -56.0 0 1 968.75 1088.87
  Q 969.30 1120.31 971.91 1149.24
  Q 972.22 1152.60 975.64 1185.38
  Q 977.85 1206.50 980.34 1221.40
  Q 984.19 1244.43 988.11 1263.34
  Q 990.44 1274.58 994.95 1292.00
  Q 1002.12 1319.70 1002.39 1320.49
  Q 1002.40 1320.50 1004.44 1327.46
  Q 1006.23 1333.52 1006.73 1335.99
  Q 1007.14 1338.00 1009.89 1345.74
  Q 1011.35 1349.86 1012.85 1355.53
  Q 1017.25 1372.11 1023.87 1386.22
  Q 1028.52 1396.13 1029.95 1399.48
  Q 1036.05 1413.79 1041.86 1425.19
  A 0.23 0.23 0.0 0 0 1042.16 1425.29
  L 1042.17 1425.28
  A 0.35 0.34 -25.5 0 0 1042.34 1424.81
  Q 1040.96 1421.98 1033.43 1406.34
  Q 1031.80 1402.96 1031.81 1401.79
  A 0.19 0.18 -62.7 0 1 1032.14 1401.68
  Q 1034.46 1404.99 1035.54 1407.46
  Q 1044.27 1427.49 1049.77 1437.04
  Q 1055.65 1447.24 1060.45 1455.73
  C 1061.66 1457.88 1063.53 1460.46 1065.22 1462.49
  Q 1066.69 1464.26 1068.77 1467.52
  Q 1080.70 1486.14 1086.71 1494.31
  Q 1088.06 1496.15 1094.43 1504.74
  C 1099.77 1511.94 1105.96 1518.88 1111.46 1526.06
  Q 1111.69 1526.36 1118.72 1535.02
  Q 1118.78 1535.10 1119.53 1536.05
  Q 1122.26 1539.54 1135.86 1555.63
  Q 1142.40 1563.36 1148.62 1573.12
  Q 1149.93 1575.17 1151.99 1579.47
  Q 1152.16 1579.81 1152.70 1580.24
  A 1.36 1.35 -77.9 0 1 1153.18 1580.99
  L 1153.89 1584.09
  A 1.95 1.93 -71.3 0 0 1154.25 1584.83
  Q 1155.71 1586.69 1155.56 1588.37
  C 1157.76 1595.14 1158.73 1602.49 1159.58 1609.24
  C 1162.45 1631.86 1156.06 1654.94 1143.57 1673.65
  C 1127.06 1698.40 1099.87 1713.30 1071.35 1720.10
  Q 1053.99 1724.24 1035.71 1724.53
  C 989.42 1725.29 945.68 1707.09 917.43 1669.85
  Q 912.50 1663.36 909.21 1657.65
  Q 904.98 1650.29 901.21 1645.34
  Q 898.05 1641.19 893.25 1639.74
  Q 888.15 1638.20 879.28 1639.76
  Q 883.84 1628.65 886.24 1619.48
  Q 887.35 1615.22 888.03 1607.25
  C 889.10 1594.67 888.03 1585.95 886.51 1569.92
  Q 882.49 1527.68 877.94 1488.63
  C 874.50 1459.04 871.97 1433.88 869.69 1407.87
  Q 866.62 1372.84 866.02 1356.25
  Q 865.87 1352.32 865.46 1342.68
  Q 864.77 1326.93 864.55 1319.89
  Q 864.13 1306.63 864.12 1297.07
  Q 864.12 1287.01 864.14 1270.75
  C 864.14 1268.99 863.83 1266.75 863.86 1264.75
  Q 864.13 1248.90 864.17 1239.26
  Q 864.18 1237.39 864.77 1235.40
  A 4.09 3.69 58.0 0 0 864.90 1234.66
  Q 865.22 1229.43 865.09 1218.47
  Q 865.02 1213.23 865.74 1207.08
  Q 866.38 1201.60 866.09 1195.50
  Q 866.00 1193.67 866.48 1191.75
  A 3.89 3.57 55.1 0 0 866.59 1190.93
  Q 867.08 1174.48 868.89 1146.99
  Q 869.10 1143.85 869.33 1140.77
  Q 871.67 1109.43 874.22 1075.05
  Q 874.23 1074.95 875.02 1068.81
  Q 875.60 1064.30 874.78 1059.73
  Q 893.83 1061.38 913.24 1063.16
  C 924.78 1064.22 937.41 1066.05 949.53 1067.36
  Z"
/>
<path fill="#66b5e1" d="
  M 1050.39 1077.51
  Q 1053.88 1091.03 1055.45 1105.59
  Q 1056.44 1114.72 1057.66 1120.66
  Q 1060.90 1136.45 1062.27 1141.98
  Q 1073.79 1188.45 1097.13 1230.11
  Q 1106.72 1247.23 1120.08 1266.78
  Q 1123.70 1272.07 1129.11 1278.62
  Q 1137.27 1288.48 1138.72 1290.19
  Q 1149.03 1302.33 1163.85 1317.19
  Q 1171.57 1324.92 1180.82 1332.50
  Q 1196.54 1345.40 1198.45 1346.82
  Q 1220.90 1363.48 1247.65 1377.84
  Q 1260.21 1384.58 1272.72 1389.26
  Q 1294.11 1397.25 1315.33 1402.86
  Q 1322.72 1404.81 1338.98 1407.98
  Q 1342.21 1408.61 1362.74 1412.64
  Q 1367.73 1413.62 1371.83 1414.30
  Q 1386.80 1419.80 1400.84 1426.40
  Q 1415.28 1433.19 1423.40 1438.98
  C 1435.49 1447.59 1447.08 1457.51 1455.79 1469.23
  C 1470.11 1488.50 1477.39 1516.47 1474.37 1540.57
  C 1473.45 1547.91 1472.38 1555.91 1469.90 1563.33
  Q 1464.22 1580.36 1453.20 1594.80
  Q 1442.85 1608.35 1426.77 1618.53
  Q 1405.76 1631.84 1381.15 1637.12
  Q 1353.07 1643.15 1325.95 1642.22
  C 1318.52 1641.97 1311.02 1641.02 1303.74 1640.36
  Q 1298.69 1639.90 1294.89 1639.29
  C 1256.07 1633.01 1218.27 1619.30 1185.01 1598.09
  C 1179.71 1594.72 1173.20 1590.66 1166.94 1589.13
  Q 1161.14 1587.71 1155.56 1588.37
  Q 1155.71 1586.69 1154.25 1584.83
  A 1.95 1.93 -71.3 0 1 1153.89 1584.09
  L 1153.18 1580.99
  A 1.36 1.35 -77.9 0 0 1152.70 1580.24
  Q 1152.16 1579.81 1151.99 1579.47
  Q 1149.93 1575.17 1148.62 1573.12
  Q 1142.40 1563.36 1135.86 1555.63
  Q 1122.26 1539.54 1119.53 1536.05
  Q 1118.78 1535.10 1118.72 1535.02
  Q 1111.69 1526.36 1111.46 1526.06
  C 1105.96 1518.88 1099.77 1511.94 1094.43 1504.74
  Q 1088.06 1496.15 1086.71 1494.31
  Q 1080.70 1486.14 1068.77 1467.52
  Q 1066.69 1464.26 1065.22 1462.49
  C 1063.53 1460.46 1061.66 1457.88 1060.45 1455.73
  Q 1055.65 1447.24 1049.77 1437.04
  Q 1044.27 1427.49 1035.54 1407.46
  Q 1034.46 1404.99 1032.14 1401.68
  A 0.19 0.18 -62.7 0 0 1031.81 1401.79
  Q 1031.80 1402.96 1033.43 1406.34
  Q 1040.96 1421.98 1042.34 1424.81
  A 0.35 0.34 -25.5 0 1 1042.17 1425.28
  L 1042.16 1425.29
  A 0.23 0.23 0.0 0 1 1041.86 1425.19
  Q 1036.05 1413.79 1029.95 1399.48
  Q 1028.52 1396.13 1023.87 1386.22
  Q 1017.25 1372.11 1012.85 1355.53
  Q 1011.35 1349.86 1009.89 1345.74
  Q 1007.14 1338.00 1006.73 1335.99
  Q 1006.23 1333.52 1004.44 1327.46
  Q 1002.40 1320.50 1002.39 1320.49
  Q 1002.12 1319.70 994.95 1292.00
  Q 990.44 1274.58 988.11 1263.34
  Q 984.19 1244.43 980.34 1221.40
  Q 977.85 1206.50 975.64 1185.38
  Q 972.22 1152.60 971.91 1149.24
  Q 969.30 1120.31 968.75 1088.87
  A 3.29 2.77 -56.0 0 0 968.68 1088.21
  Q 968.29 1086.52 968.35 1084.75
  Q 968.52 1079.20 968.09 1074.28
  A 2.89 2.78 31.3 0 0 967.83 1073.30
  L 966.21 1069.78
  A 0.98 0.98 0.0 0 0 965.41 1069.22
  L 954.31 1068.30
  Q 954.29 1068.30 954.28 1068.30
  L 949.53 1067.36
  Q 952.87 1067.43 956.07 1068.17
  A 0.23 0.11 -18.4 0 0 956.14 1068.18
  L 1050.39 1077.51
  Z"
/>
<path fill="#4891d3" d="
  M 1119.14 1084.33
  Q 1120.65 1094.29 1122.48 1104.30
  Q 1126.06 1123.81 1133.95 1141.17
  Q 1138.93 1152.11 1143.36 1159.34
  C 1150.79 1171.47 1161.98 1182.16 1174.00 1190.95
  Q 1198.82 1209.09 1229.15 1212.70
  Q 1259.49 1216.30 1288.12 1206.74
  Q 1314.38 1197.97 1335.46 1181.19
  Q 1342.22 1175.81 1363.95 1157.94
  Q 1384.60 1140.97 1408.66 1131.46
  C 1435.24 1120.96 1466.86 1118.06 1494.47 1124.83
  Q 1515.02 1129.87 1533.83 1141.72
  C 1570.23 1164.66 1587.25 1206.62 1588.98 1248.01
  Q 1590.50 1284.30 1574.83 1316.37
  C 1567.36 1331.67 1555.26 1348.26 1541.94 1359.86
  Q 1518.11 1380.61 1490.82 1390.60
  Q 1466.69 1399.44 1441.16 1403.30
  Q 1427.91 1405.31 1412.19 1406.16
  C 1398.00 1406.93 1385.08 1409.86 1371.83 1414.30
  Q 1367.73 1413.62 1362.74 1412.64
  Q 1342.21 1408.61 1338.98 1407.98
  Q 1322.72 1404.81 1315.33 1402.86
  Q 1294.11 1397.25 1272.72 1389.26
  Q 1260.21 1384.58 1247.65 1377.84
  Q 1220.90 1363.48 1198.45 1346.82
  Q 1196.54 1345.40 1180.82 1332.50
  Q 1171.57 1324.92 1163.85 1317.19
  Q 1149.03 1302.33 1138.72 1290.19
  Q 1137.27 1288.48 1129.11 1278.62
  Q 1123.70 1272.07 1120.08 1266.78
  Q 1106.72 1247.23 1097.13 1230.11
  Q 1073.79 1188.45 1062.27 1141.98
  Q 1060.90 1136.45 1057.66 1120.66
  Q 1056.44 1114.72 1055.45 1105.59
  Q 1053.88 1091.03 1050.39 1077.51
  Q 1058.00 1078.53 1066.58 1079.73
  Q 1074.21 1080.80 1082.83 1081.30
  Q 1100.88 1082.35 1119.14 1084.33
  Z"
/>
</svg>
