<svg xmlns="http://www.w3.org/2000/svg" version="1.1" viewBox="0.00 0.00 339.00 291.00">
<g stroke-width="2.00" fill="none" stroke-linecap="butt">
<path stroke="#80a3c5" vector-effect="non-scaling-stroke" d="
  M 203.5508 45.4210
  A 30.41 30.09 -34.9 0 0 161.3941 38.1416
  A 30.41 30.09 -34.9 0 0 153.6692 80.2190
  A 30.41 30.09 -34.9 0 0 195.8259 87.4984
  A 30.41 30.09 -34.9 0 0 203.5508 45.4210"
/>
<path stroke="#8ac056" vector-effect="non-scaling-stroke" d="
  M 272.5082 53.0880
  A 30.60 30.11 -82.7 0 0 238.7541 79.6141
  A 30.60 30.11 -82.7 0 0 264.7318 113.7920
  A 30.60 30.11 -82.7 0 0 298.4859 87.2659
  A 30.60 30.11 -82.7 0 0 272.5082 53.0880"
/>
<path stroke="#b776b7" vector-effect="non-scaling-stroke" d="
  M 105.6606 65.7511
  A 30.50 29.97 -64.5 0 0 65.4795 80.3776
  A 30.50 29.97 -64.5 0 0 79.3994 120.8089
  A 30.50 29.97 -64.5 0 0 119.5805 106.1824
  A 30.50 29.97 -64.5 0 0 105.6606 65.7511"
/>
<path stroke="#f7756b" vector-effect="non-scaling-stroke" d="
  M 250.6194 129.0504
  A 30.87 30.28 -66.5 0 0 210.5414 145.2859
  A 30.87 30.28 -66.5 0 0 226.0006 185.6696
  A 30.87 30.28 -66.5 0 0 266.0786 169.4341
  A 30.87 30.28 -66.5 0 0 250.6194 129.0504"
/>
<path stroke="#ffa746" vector-effect="non-scaling-stroke" d="
  M 181.77 160.65
  A 31.37 31.37 0.0 0 0 150.40 129.28
  A 31.37 31.37 0.0 0 0 119.03 160.65
  A 31.37 31.37 0.0 0 0 150.40 192.02
  A 31.37 31.37 0.0 0 0 181.77 160.65"
/>
<path stroke="#ffc347" vector-effect="non-scaling-stroke" d="
  M 72.8858 139.4015
  A 30.78 30.29 -70.3 0 0 33.9929 158.1694
  A 30.78 30.29 -70.3 0 0 52.1342 197.3585
  A 30.78 30.29 -70.3 0 0 91.0271 178.5906
  A 30.78 30.29 -70.3 0 0 72.8858 139.4015"
/>
</g>
<path fill="#ffcc8b" d="
  M 166.43 283.90
  C 109.49 288.49 48.59 270.63 19.38 217.39
  C 3.22 187.93 -0.02 154.99 9.26 122.56
  C 20.35 83.83 47.49 52.43 82.82 33.08
  C 91.28 28.45 100.40 24.07 109.21 20.76
  Q 140.13 9.15 173.52 5.54
  Q 207.42 1.88 241.04 9.01
  Q 259.94 13.01 277.72 22.02
  C 287.93 27.19 296.43 33.73 304.02 40.99
  Q 326.06 62.10 332.61 92.87
  C 337.10 113.98 334.38 133.65 326.53 154.02
  C 318.57 174.64 303.92 192.29 284.13 202.38
  C 278.74 205.14 271.22 207.25 266.54 210.70
  C 258.87 216.37 253.90 223.19 251.45 232.10
  C 250.80 234.48 249.54 239.17 247.95 241.93
  Q 244.42 248.06 241.13 251.41
  C 221.45 271.42 194.26 281.66 166.43 283.90
  Z
  M 203.5508 45.4210
  A 30.41 30.09 -34.9 0 0 161.3941 38.1416
  A 30.41 30.09 -34.9 0 0 153.6692 80.2190
  A 30.41 30.09 -34.9 0 0 195.8259 87.4984
  A 30.41 30.09 -34.9 0 0 203.5508 45.4210
  Z
  M 272.5082 53.0880
  A 30.60 30.11 -82.7 0 0 238.7541 79.6141
  A 30.60 30.11 -82.7 0 0 264.7318 113.7920
  A 30.60 30.11 -82.7 0 0 298.4859 87.2659
  A 30.60 30.11 -82.7 0 0 272.5082 53.0880
  Z
  M 105.6606 65.7511
  A 30.50 29.97 -64.5 0 0 65.4795 80.3776
  A 30.50 29.97 -64.5 0 0 79.3994 120.8089
  A 30.50 29.97 -64.5 0 0 119.5805 106.1824
  A 30.50 29.97 -64.5 0 0 105.6606 65.7511
  Z
  M 250.6194 129.0504
  A 30.87 30.28 -66.5 0 0 210.5414 145.2859
  A 30.87 30.28 -66.5 0 0 226.0006 185.6696
  A 30.87 30.28 -66.5 0 0 266.0786 169.4341
  A 30.87 30.28 -66.5 0 0 250.6194 129.0504
  Z
  M 181.77 160.65
  A 31.37 31.37 0.0 0 0 150.40 129.28
  A 31.37 31.37 0.0 0 0 119.03 160.65
  A 31.37 31.37 0.0 0 0 150.40 192.02
  A 31.37 31.37 0.0 0 0 181.77 160.65
  Z
  M 72.8858 139.4015
  A 30.78 30.29 -70.3 0 0 33.9929 158.1694
  A 30.78 30.29 -70.3 0 0 52.1342 197.3585
  A 30.78 30.29 -70.3 0 0 91.0271 178.5906
  A 30.78 30.29 -70.3 0 0 72.8858 139.4015
  Z
  M 209.59 212.28
  Q 206.13 210.27 204.06 209.96
  Q 187.28 207.44 171.61 215.90
  Q 164.47 219.74 159.27 227.22
  C 153.66 235.26 153.58 246.26 162.33 251.96
  C 168.84 256.20 175.86 255.83 183.97 254.26
  Q 199.03 251.35 210.47 241.24
  C 219.31 233.43 220.92 218.86 209.59 212.28
  Z"
/>
<ellipse fill="#007afe" cx="0.00" cy="0.00" transform="translate(178.61,62.82) rotate(-34.9)" rx="30.41" ry="30.09"/>
<ellipse fill="#14b420" cx="0.00" cy="0.00" transform="translate(268.62,83.44) rotate(-82.7)" rx="30.60" ry="30.11"/>
<ellipse fill="#6e20e3" cx="0.00" cy="0.00" transform="translate(92.53,93.28) rotate(-64.5)" rx="30.50" ry="29.97"/>
<ellipse fill="#ef1e4a" cx="0.00" cy="0.00" transform="translate(238.31,157.36) rotate(-66.5)" rx="30.87" ry="30.28"/>
<circle fill="#ff8101" cx="150.40" cy="160.65" r="31.37"/>
<ellipse fill="#feba02" cx="0.00" cy="0.00" transform="translate(62.51,168.38) rotate(-70.3)" rx="30.78" ry="30.29"/>
</svg>
