<svg xmlns="http://www.w3.org/2000/svg" viewBox="0 0 272 272"><path fill="currentColor" d="M153.34 172.5q-.04.39-.38-.03a.9.88 24.7 0 1-.18-.47q-.26-3.12-1.92-6.57-2.84-5.92-5.84-10.32a8 8 0 0 0-1.17-1.35q-5.9-5.48-10.66-10.06c-5.28-5.09-10.85-8.35-17.42-11.47q-5.45-2.6-11.85-2.94c10.63-13.69 21.73-28.48 31.7-40.76q11.99-14.75 15.46-19.2c3.99-5.1 8.4-9.78 13.68-16.32q4.02-4.99 14.61-17.09 5.91-6.75 10.02-8.98c11.03-5.99 23.57-4.82 33.76 2.32 11.38 7.97 16.75 23.38 12.06 36.91-2.28 6.58-4.21 10.76-8.79 16.63q-35.06 44.95-69.78 87.08-1.65 2.01-3.3 2.62m-11.91 9.93q-3.66 3.79-11.22 12.28-17.3 19.43-38.99 36.3c-3.69 2.87-5.74 4.86-10.06 4.2a.57.57 0 0 1-.46-.73c.64-2.19-.39-4.25-1.78-5.86-4.13-4.78-12.61-12.65-19.29-11.96a1.12 1.11-5.6 0 1-1.23-1.01q-.25-2.58.93-5.58 2.38-6.1 8.6-17.91 9.83-18.67 25.61-40.66 2.37-3.31 4.51-6.82c2.48-2.82 9.71-.61 12.16.69q9.49 5.06 16.76 11.49c4.19 3.7 7.15 8.07 10.61 12.78 2.67 3.65 4.8 8.16 3.85 12.79m-69.25 59.15q-6.6 8.16-16.47 9.37-6.11.74-7.15-4.02-.45-2.06.57-6.28c1.42-5.87 2.1-10.14 6.33-14.27q13.46 2.5 16.72 15.2"/><path fill="#fdf0d6" d="M103.92 129.29q6.4.34 11.85 2.94c6.57 3.12 12.14 6.38 17.42 11.47q4.76 4.58 10.66 10.06a8 8 0 0 1 1.17 1.35q3 4.4 5.84 10.32 1.66 3.45 1.92 6.57a.9.88 24.7 0 0 .18.47q.34.42.38.03-4.74 9.63-11.91 9.93c.95-4.63-1.18-9.14-3.85-12.79-3.46-4.71-6.42-9.08-10.61-12.78q-7.27-6.43-16.76-11.49c-2.45-1.3-9.68-3.51-12.16-.69q-1.55-4.08.31-7.34 1.05-1.85 5.56-8.05M72.18 241.58q-3.26-12.7-16.72-15.2-.26-3.65 2.11-6.82c2.36-3.16 10.29 2.55 14.14 5.14q5.92 4 7.02 10.51a2.68 2.68 0 0 1-1.12 2.66zm95.7-117.21q-4.75 5.68-5.59 6.39c-4.69 4.01-13.3 4.23-18.06.03-5.49-4.85-5.16-13.37-.76-18.88 12.11-15.16 23.09-30.01 36.18-45.96 4.55-5.54 8.04-10.29 11.96-15.55 5.19-6.97 12.61-9.55 20.46-4.26 7.57 5.1 5.89 15.93.88 22.33q-24.01 30.71-45.07 55.9"/></svg>