<svg xmlns="http://www.w3.org/2000/svg" width="24" height="24" fill="#1f1f1f" viewBox="0 -960 960 960"><path d="M194-200h240q12 0 18-11t-2-21l-64-87q-6-8-16-8t-16 8l-44 58q-6 8-16 8t-16-8l-24-32q-6-8-16-7.5t-16 8.5l-45 60q-8 10-1.5 21t18.5 11m6 80q-33 0-56.5-23.5T120-200v-240q0-33 23.5-56.5T200-520h240q33 0 56.5 23.5T520-440v240q0 33-23.5 56.5T440-120zm-68.5-651.5Q120-783 120-800t11.5-28.5T160-840t28.5 11.5T200-800t-11.5 28.5T160-760t-28.5-11.5m160 0Q280-783 280-800t11.5-28.5T320-840t28.5 11.5T360-800t-11.5 28.5T320-760t-28.5-11.5m160 0Q440-783 440-800t11.5-28.5T480-840t28.5 11.5T520-800t-11.5 28.5T480-760t-28.5-11.5m160 0Q600-783 600-800t11.5-28.5T640-840t28.5 11.5T680-800t-11.5 28.5T640-760t-28.5-11.5m160 0Q760-783 760-800t11.5-28.5T800-840t28.5 11.5T840-800t-11.5 28.5T800-760t-28.5-11.5m-160 640Q600-143 600-160t11.5-28.5T640-200t28.5 11.5T680-160t-11.5 28.5T640-120t-28.5-11.5m-480-480Q120-623 120-640t11.5-28.5T160-680t28.5 11.5T200-640t-11.5 28.5T160-600t-28.5-11.5m640 0Q760-623 760-640t11.5-28.5T800-680t28.5 11.5T840-640t-11.5 28.5T800-600t-28.5-11.5m0 160Q760-463 760-480t11.5-28.5T800-520t28.5 11.5T840-480t-11.5 28.5T800-440t-28.5-11.5m0 160Q760-303 760-320t11.5-28.5T800-360t28.5 11.5T840-320t-11.5 28.5T800-280t-28.5-11.5m0 160Q760-143 760-160t11.5-28.5T800-200t28.5 11.5T840-160t-11.5 28.5T800-120t-28.5-11.5"/></svg>