<svg xmlns="http://www.w3.org/2000/svg" viewBox="0 0 1254 1254"><g fill="none" stroke-width="2"><path stroke="#fdd372" d="M458.09 350.87q-1.13-4.79-2.33-9.72-.55-2.24.89-3.5 5.9-5.2 18.79-15.97 7.46-6.24 42.22-35.84 7.02-5.97 9.05-9.27 3.69-5.97 5.08-12.03c2.14-9.31.36-19.53-5.49-27.5q-8.5-11.58-24.35-13.48-.6-.07-6.17-.69-43.68-4.85-82.25-9.12a2.32 2.31 82 0 1-1.89-1.43l-1.26-3.12m-40.68-91.79c-14.49-11.67-33.61-9.02-45.35 4.94q-3.2 3.8-7.02 13.4-23.99 60.3-29.02 73.28-.14.36-.93 2.88a2.56 2.55-84.7 0 1-2.15 1.79q-70.72 8.04-83.66 9.25-11.07 1.03-16.05 3.27c-11.11 5-18.15 13.95-20.2 25.72-2.04 11.74 3.68 25.47 12.34 32.67q7.77 6.46 12.39 10.53c16.33 14.39 32.83 28.53 50.67 44.08a.94.92-63.3 0 1 .29.9q-11.07 49.04-16.46 71.8-2.05 8.63-3.44 14.69-1.84 8.01 2.07 17.78c4.62 11.54 15.41 18.88 27.53 19.48q6.69.34 13.18-1.53 3.58-1.02 11.87-5.9c20.9-12.29 49.94-30.01 69.5-41.44q1.08-.63 3.54-1.7a1.29 1.28 44.1 0 1 1.03-.01q2.15.91 2.89 1.37 28.29 17.54 66.44 40.21 5.83 3.47 9.77 5.41 12.79 6.29 26.53 1.16 9.73-3.63 15.58-13.36 3.41-5.68 4.13-10.28" vector-effect="non-scaling-stroke"/><path stroke="#f67b40" d="M922.89 498.86c44.41.43 85.93-17.16 116.39-49.14 33.18-34.84 49.84-84.87 41.68-132.61-13.04-76.32-77.49-132.13-154.98-132.89-77.48-.76-143.02 53.78-157.55 129.82-9.1 47.57 6.58 97.92 39.07 133.41 29.82 32.57 70.99 50.97 115.39 51.41" vector-effect="non-scaling-stroke"/><path stroke="#7f9981" d="M426.92 857.67q-.85 25.3 14.94 44.97 14.63 18.22 35.98 23.56 23.34 5.83 44.25-3.62c21.45-9.69 35.96-29.35 39.43-52.8q.62-4.17.89-11.55a1.05 1.05 0 0 1 1.05-1.02h126.07a.86.86 0 0 1 .86.9c-1.25 27.6 14.77 52.92 39.65 64.43q15.84 7.33 34.26 5.51c36.04-3.57 61.55-34.36 60.93-70.15a.86.86 0 0 1 .86-.87c16.3.07 33.99.89 46.77-10.91q13.2-12.2 13.52-31.14.3-18.2.2-56.97-.04-16.03-.56-19.49c-2.78-18.41-12.61-33.49-29.21-42.17-16.09-8.41-31.41-6.81-54.32-6.83q-1.95 0-2.62-2.14-9.21-29.43-21.27-56.15-3.17-7.03-6.81-13.93c-6.86-13.03-13.75-24.17-23.08-35.3q-18.39-21.91-45.36-30.81-5.87-1.94-14.57-3.37-10.27-1.69-14.93-1.72-29.6-.18-92.88-.08c-9.77.01-19.19.51-27.64 2.11-39.79 7.54-65.92 37.62-82.19 73q-9.83 21.35-18.96 46.01-4.38 11.81-7.12 21.39a1.37 1.37 0 0 1-1.3.99c-14.13.14-25.47-.78-37.75 2.02-25.16 5.73-42.05 26.49-42.32 52.36q-.25 23.79-.05 69.32c.11 25.78 17.41 42.5 42.63 43.53q7.48.31 19.8.06a.83.83 0 0 1 .85.86" vector-effect="non-scaling-stroke"/><path stroke="#fdd372" d="M87.18 1117.29q0 7.04.04 14.06.04 7.69.68 10.75c3.78 18.15 16 31.53 33.84 36.71q5.64 1.64 11.76 1.64 487.75 0 983.92-.07c5.14 0 10.9-.3 15.16-1.85q21.36-7.78 27.46-28.89 1.57-5.43 1.63-15.47.01-1.72.01-16.95t-.01-16.94q-.06-10.05-1.63-15.48-6.11-21.11-27.47-28.88c-4.26-1.55-10.02-1.85-15.16-1.85q-496.17-.01-983.92.06-6.12 0-11.76 1.64c-17.84 5.18-30.06 18.56-33.83 36.71q-.64 3.06-.68 10.75-.04 7.02-.04 14.06" vector-effect="non-scaling-stroke"/><path stroke="#45a2fd" d="M599.4 689.01a2.38 2.38 0 0 0 2.38-2.36q.3-36.43.05-72.65-.05-7.19.13-14.33c.21-8.01 1.15-13.98-8.07-14.26q-2.38-.07-22.32.23-9.43.14-21.19 4.73-1.51.59-9.96 5.1a4.84 4.32 7.1 0 0-.81.56c-6.59 5.6-11.58 9.92-16.33 17-8.91 13.26-14.48 25.13-21.36 41.64q-2.75 6.59-5.69 15.08-5.26 15.22-5.27 15.23-.75 2.39 1.35 3.73a1.9 1.83-27.6 0 0 1.02.3H599.4m43.03-8.01c-.03 2-.77 7.72 2.61 8 5.11.43 12.42-.05 16.96-.03q37.42.14 73.44.04c4.57-.02 9.86.28 14.41-.29a2.21 2.21 0 0 0 1.93-2.37q-.35-4.34-1.81-8.09-3.81-9.85-5.09-13.79c-4.06-12.42-10.17-25.45-15.5-35.92-3.86-7.57-8.79-13.63-13.38-20.89a6.67 5.41 73.8 0 0-.54-.74q-2.18-2.63-11.7-10.44-8.97-7.37-19.49-9.27-6.73-1.22-13.02-1.48-14.13-.61-22.05-.44-6.81.14-6.79 7.64.18 77.24.02 88.07" vector-effect="non-scaling-stroke"/></g><path fill="#fdb503" d="M1242.19 1166.46a80.09 80.09 0 0 1-80.09 80.09H91.26a80.09 80.09 0 0 1-80.09-80.09V85.6A80.09 80.09 0 0 1 91.26 5.51H1162.1a80.09 80.09 0 0 1 80.09 80.09zM475.17 437.8q1.34-7.68-.16-14.32-3.4-14.94-16.92-72.61-1.13-4.79-2.33-9.72-.55-2.24.89-3.5 5.9-5.2 18.79-15.97 7.46-6.24 42.22-35.84 7.02-5.97 9.05-9.27 3.69-5.97 5.08-12.03c2.14-9.31.36-19.53-5.49-27.5q-8.5-11.58-24.35-13.48-.6-.07-6.17-.69-43.68-4.85-82.25-9.12a2.32 2.31 82 0 1-1.89-1.43l-1.26-3.12q-15.7-39.69-31.1-79.48-2.68-6.92-9.58-12.31c-14.49-11.67-33.61-9.02-45.35 4.94q-3.2 3.8-7.02 13.4-23.99 60.3-29.02 73.28-.14.36-.93 2.88a2.56 2.55-84.7 0 1-2.15 1.79q-70.72 8.04-83.66 9.25-11.07 1.03-16.05 3.27c-11.11 5-18.15 13.95-20.2 25.72-2.04 11.74 3.68 25.47 12.34 32.67q7.77 6.46 12.39 10.53c16.33 14.39 32.83 28.53 50.67 44.08a.94.92-63.3 0 1 .29.9q-11.07 49.04-16.46 71.8-2.05 8.63-3.44 14.69-1.84 8.01 2.07 17.78c4.62 11.54 15.41 18.88 27.53 19.48q6.69.34 13.18-1.53 3.58-1.02 11.87-5.9c20.9-12.29 49.94-30.01 69.5-41.44q1.08-.63 3.54-1.7a1.29 1.28 44.1 0 1 1.03-.01q2.15.91 2.89 1.37 28.29 17.54 66.44 40.21 5.83 3.47 9.77 5.41 12.79 6.29 26.53 1.16 9.73-3.63 15.58-13.36 3.41-5.68 4.13-10.28m447.72 61.06c44.41.43 85.93-17.16 116.39-49.14 33.18-34.84 49.84-84.87 41.68-132.61-13.04-76.32-77.49-132.13-154.98-132.89-77.48-.76-143.02 53.78-157.55 129.82-9.1 47.57 6.58 97.92 39.07 133.41 29.82 32.57 70.99 50.97 115.39 51.41M426.92 857.67q-.85 25.3 14.94 44.97 14.63 18.22 35.98 23.56 23.34 5.83 44.25-3.62c21.45-9.69 35.96-29.35 39.43-52.8q.62-4.17.89-11.55a1.05 1.05 0 0 1 1.05-1.02h126.07a.86.86 0 0 1 .86.9c-1.25 27.6 14.77 52.92 39.65 64.43q15.84 7.33 34.26 5.51c36.04-3.57 61.55-34.36 60.93-70.15a.86.86 0 0 1 .86-.87c16.3.07 33.99.89 46.77-10.91q13.2-12.2 13.52-31.14.3-18.2.2-56.97-.04-16.03-.56-19.49c-2.78-18.41-12.61-33.49-29.21-42.17-16.09-8.41-31.41-6.81-54.32-6.83q-1.95 0-2.62-2.14-9.21-29.43-21.27-56.15-3.17-7.03-6.81-13.93c-6.86-13.03-13.75-24.17-23.08-35.3q-18.39-21.91-45.36-30.81-5.87-1.94-14.57-3.37-10.27-1.69-14.93-1.72-29.6-.18-92.88-.08c-9.77.01-19.19.51-27.64 2.11-39.79 7.54-65.92 37.62-82.19 73q-9.83 21.35-18.96 46.01-4.38 11.81-7.12 21.39a1.37 1.37 0 0 1-1.3.99c-14.13.14-25.47-.78-37.75 2.02-25.16 5.73-42.05 26.49-42.32 52.36q-.25 23.79-.05 69.32c.11 25.78 17.41 42.5 42.63 43.53q7.48.31 19.8.06a.83.83 0 0 1 .85.86M87.18 1117.29q0 7.04.04 14.06.04 7.69.68 10.75c3.78 18.15 16 31.53 33.84 36.71q5.64 1.64 11.76 1.64 487.75 0 983.92-.07c5.14 0 10.9-.3 15.16-1.85q21.36-7.78 27.46-28.89 1.57-5.43 1.63-15.47.01-1.72.01-16.95t-.01-16.94q-.06-10.05-1.63-15.48-6.11-21.11-27.47-28.88c-4.26-1.55-10.02-1.85-15.16-1.85q-496.17-.01-983.92.06-6.12 0-11.76 1.64c-17.84 5.18-30.06 18.56-33.83 36.71q-.64 3.06-.68 10.75-.04 7.02-.04 14.06"/><path fill="#fcf0e1" d="M369.7 117.41q2.32 4.96 5.84 9.31c3.41 4.21 4.73 10.28 7.43 18.35q2.49 7.43 5.13 13.15 6.12 13.25 10.52 25.38c2.87 7.89 5.67 14.13 9.14 22.54q.63 1.54 2.62 3.06l1.26 3.12a2.32 2.31 82 0 0 1.89 1.43q38.57 4.27 82.25 9.12 5.57.62 6.17.69 15.85 1.9 24.35 13.48c5.85 7.97 7.63 18.19 5.49 27.5q-1.39 6.06-5.08 12.03-2.03 3.3-9.05 9.27-34.76 29.6-42.22 35.84-12.89 10.77-18.79 15.97-1.44 1.26-.89 3.5 1.2 4.93 2.33 9.72-.53 4.84.96 11.1 3.32 13.89 3.4 14.16c3.73 13.42 5.94 25.71 9.59 40.15 1.76 6.98 2.19 14.21 3.13 21.52q-.72 4.6-4.13 10.28-5.85 9.73-15.58 13.36-13.74 5.13-26.53-1.16-3.94-1.94-9.77-5.41-38.15-22.67-66.44-40.21-.74-.46-2.89-1.37a1.29 1.28 44.1 0 0-1.03.01q-2.46 1.07-3.54 1.7c-19.56 11.43-48.6 29.15-69.5 41.44q-8.29 4.88-11.87 5.9-6.49 1.87-13.18 1.53c-12.12-.6-22.91-7.94-27.53-19.48q-3.91-9.77-2.07-17.78 1.39-6.06 3.44-14.69 5.39-22.76 16.46-71.8a.94.92-63.3 0 0-.29-.9c-17.84-15.55-34.34-29.69-50.67-44.08q-4.62-4.07-12.39-10.53c-8.66-7.2-14.38-20.93-12.34-32.67 2.05-11.77 9.09-20.72 20.2-25.72q4.98-2.24 16.05-3.27 12.94-1.21 83.66-9.25a2.56 2.55-84.7 0 0 2.15-1.79q.79-2.52.93-2.88 5.03-12.98 29.02-73.28 3.82-9.6 7.02-13.4c11.74-13.96 30.86-16.61 45.35-4.94"/><path fill="#ef407d" d="M925.98 184.22c77.49.76 141.94 56.57 154.98 132.89 8.16 47.74-8.5 97.77-41.68 132.61-30.46 31.98-71.98 49.57-116.39 49.14-44.4-.44-85.57-18.84-115.39-51.41-32.49-35.49-48.17-85.84-39.07-133.41C782.96 238 848.5 183.46 925.98 184.22"/><path fill="#007dfe" d="M426.92 857.67a.83.83 0 0 0-.85-.86q-12.32.25-19.8-.06c-25.22-1.03-42.52-17.75-42.63-43.53q-.2-45.53.05-69.32c.27-25.87 17.16-46.63 42.32-52.36 12.28-2.8 23.62-1.88 37.75-2.02a1.37 1.37 0 0 0 1.3-.99q2.74-9.58 7.12-21.39 9.13-24.66 18.96-46.01c16.27-35.38 42.4-65.46 82.19-73 8.45-1.6 17.87-2.1 27.64-2.11q63.28-.1 92.88.08 4.66.03 14.93 1.72 8.7 1.43 14.57 3.37 26.97 8.9 45.36 30.81c9.33 11.13 16.22 22.27 23.08 35.3q3.64 6.9 6.81 13.93 12.06 26.72 21.27 56.15.67 2.14 2.62 2.14c22.91.02 38.23-1.58 54.32 6.83 16.6 8.68 26.43 23.76 29.21 42.17q.52 3.46.56 19.49.1 38.77-.2 56.97-.32 18.94-13.52 31.14c-12.78 11.8-30.47 10.98-46.77 10.91a.86.86 0 0 0-.86.87c.62 35.79-24.89 66.58-60.93 70.15q-18.42 1.82-34.26-5.51c-24.88-11.51-40.9-36.83-39.65-64.43a.86.86 0 0 0-.86-.9H563.46a1.05 1.05 0 0 0-1.05 1.02q-.27 7.38-.89 11.55c-3.47 23.45-17.98 43.11-39.43 52.8q-20.91 9.45-44.25 3.62-21.35-5.34-35.98-23.56-15.79-19.67-14.94-44.97M599.4 689.01a2.38 2.38 0 0 0 2.38-2.36q.3-36.43.05-72.65-.05-7.19.13-14.33c.21-8.01 1.15-13.98-8.07-14.26q-2.38-.07-22.32.23-9.43.14-21.19 4.73-1.51.59-9.96 5.1a4.84 4.32 7.1 0 0-.81.56c-6.59 5.6-11.58 9.92-16.33 17-8.91 13.26-14.48 25.13-21.36 41.64q-2.75 6.59-5.69 15.08-5.26 15.22-5.27 15.23-.75 2.39 1.35 3.73a1.9 1.83-27.6 0 0 1.02.3zm43.03-8.01c-.03 2-.77 7.72 2.61 8 5.11.43 12.42-.05 16.96-.03q37.42.14 73.44.04c4.57-.02 9.86.28 14.41-.29a2.21 2.21 0 0 0 1.93-2.37q-.35-4.34-1.81-8.09-3.81-9.85-5.09-13.79c-4.06-12.42-10.17-25.45-15.5-35.92-3.86-7.57-8.79-13.63-13.38-20.89a6.67 5.41 73.8 0 0-.54-.74q-2.18-2.63-11.7-10.44-8.97-7.37-19.49-9.27-6.73-1.22-13.02-1.48-14.13-.61-22.05-.44-6.81.14-6.79 7.64.18 77.24.02 88.07"/><path fill="#8ac7fc" d="M599.4 689.01H493.33a1.9 1.83-27.6 0 1-1.02-.3q-2.1-1.34-1.35-3.73.01-.01 5.27-15.23 2.94-8.49 5.69-15.08c6.88-16.51 12.45-28.38 21.36-41.64 4.75-7.08 9.74-11.4 16.33-17a4.84 4.32 7.1 0 1 .81-.56q8.45-4.51 9.96-5.1 11.76-4.59 21.19-4.73 19.94-.3 22.32-.23c9.22.28 8.28 6.25 8.07 14.26q-.18 7.14-.13 14.33.25 36.22-.05 72.65a2.38 2.38 0 0 1-2.38 2.36m45.64-.01c-3.38-.28-2.64-6-2.61-8q.16-10.83-.02-88.07-.02-7.5 6.79-7.64 7.92-.17 22.05.44 6.29.26 13.02 1.48 10.52 1.9 19.49 9.27 9.52 7.81 11.7 10.44a6.67 5.41 73.8 0 1 .54.74c4.59 7.26 9.52 13.32 13.38 20.89 5.33 10.47 11.44 23.5 15.5 35.92q1.28 3.94 5.09 13.79 1.46 3.75 1.81 8.09a2.21 2.21 0 0 1-1.93 2.37c-4.55.57-9.84.27-14.41.29q-36.02.1-73.44-.04c-4.54-.02-11.85.46-16.96.03"/><path fill="#fcf0e1" d="M1161.68 1117.22q0 15.23-.01 16.95-.06 10.04-1.63 15.47-6.1 21.11-27.46 28.89c-4.26 1.55-10.02 1.85-15.16 1.85q-496.17.07-983.92.07-6.12 0-11.76-1.64c-17.84-5.18-30.06-18.56-33.84-36.71q-.64-3.06-.68-10.75-.04-7.02-.04-14.06t.04-14.06q.04-7.69.68-10.75c3.77-18.15 15.99-31.53 33.83-36.71q5.64-1.64 11.76-1.64 487.75-.07 983.92-.06c5.14 0 10.9.3 15.16 1.85q21.36 7.77 27.47 28.88 1.57 5.43 1.63 15.48.01 1.71.01 16.94"/></svg>