<svg xmlns="http://www.w3.org/2000/svg" version="1.1" viewBox="0.00 0.00 1254.00 1254.00">
<g stroke-width="2.00" fill="none" stroke-linecap="butt">
<path stroke="#fdd372" vector-effect="non-scaling-stroke" d="
  M 458.09 350.87
  Q 456.96 346.08 455.76 341.15
  Q 455.21 338.91 456.65 337.65
  Q 462.55 332.45 475.44 321.68
  Q 482.90 315.44 517.66 285.84
  Q 524.68 279.87 526.71 276.57
  Q 530.40 270.60 531.79 264.54
  C 533.93 255.23 532.15 245.01 526.30 237.04
  Q 517.80 225.46 501.95 223.56
  Q 501.35 223.49 495.78 222.87
  Q 452.10 218.02 413.53 213.75
  A 2.32 2.31 82.0 0 1 411.64 212.32
  L 410.38 209.20"
/>
<path stroke="#fdd372" vector-effect="non-scaling-stroke" d="
  M 369.70 117.41
  C 355.21 105.74 336.09 108.39 324.35 122.35
  Q 321.15 126.15 317.33 135.75
  Q 293.34 196.05 288.31 209.03
  Q 288.17 209.39 287.38 211.91
  A 2.56 2.55 -84.7 0 1 285.23 213.70
  Q 214.51 221.74 201.57 222.95
  Q 190.50 223.98 185.52 226.22
  C 174.41 231.22 167.37 240.17 165.32 251.94
  C 163.28 263.68 169.00 277.41 177.66 284.61
  Q 185.43 291.07 190.05 295.14
  C 206.38 309.53 222.88 323.67 240.72 339.22
  A 0.94 0.92 -63.3 0 1 241.01 340.12
  Q 229.94 389.16 224.55 411.92
  Q 222.50 420.55 221.11 426.61
  Q 219.27 434.62 223.18 444.39
  C 227.80 455.93 238.59 463.27 250.71 463.87
  Q 257.40 464.21 263.89 462.34
  Q 267.47 461.32 275.76 456.44
  C 296.66 444.15 325.70 426.43 345.26 415.00
  Q 346.34 414.37 348.80 413.30
  A 1.29 1.28 44.1 0 1 349.83 413.29
  Q 351.98 414.20 352.72 414.66
  Q 381.01 432.20 419.16 454.87
  Q 424.99 458.34 428.93 460.28
  Q 441.72 466.57 455.46 461.44
  Q 465.19 457.81 471.04 448.08
  Q 474.45 442.40 475.17 437.80"
/>
<path stroke="#f67b40" vector-effect="non-scaling-stroke" d="
  M 922.89 498.86
  C 967.30 499.29 1008.82 481.70 1039.28 449.72
  C 1072.46 414.88 1089.12 364.85 1080.96 317.11
  C 1067.92 240.79 1003.47 184.98 925.98 184.22
  C 848.50 183.46 782.96 238.00 768.43 314.04
  C 759.33 361.61 775.01 411.96 807.50 447.45
  C 837.32 480.02 878.49 498.42 922.89 498.86"
/>
<path stroke="#7f9981" vector-effect="non-scaling-stroke" d="
  M 426.92 857.67
  Q 426.07 882.97 441.86 902.64
  Q 456.49 920.86 477.84 926.20
  Q 501.18 932.03 522.09 922.58
  C 543.54 912.89 558.05 893.23 561.52 869.78
  Q 562.14 865.61 562.41 858.23
  A 1.05 1.05 0.0 0 1 563.46 857.21
  L 689.53 857.21
  A 0.86 0.86 0.0 0 1 690.39 858.11
  C 689.14 885.71 705.16 911.03 730.04 922.54
  Q 745.88 929.87 764.30 928.05
  C 800.34 924.48 825.85 893.69 825.23 857.90
  A 0.86 0.86 0.0 0 1 826.09 857.03
  C 842.39 857.10 860.08 857.92 872.86 846.12
  Q 886.06 833.92 886.38 814.98
  Q 886.68 796.78 886.58 758.01
  Q 886.54 741.98 886.02 738.52
  C 883.24 720.11 873.41 705.03 856.81 696.35
  C 840.72 687.94 825.40 689.54 802.49 689.52
  Q 800.54 689.52 799.87 687.38
  Q 790.66 657.95 778.60 631.23
  Q 775.43 624.20 771.79 617.30
  C 764.93 604.27 758.04 593.13 748.71 582.00
  Q 730.32 560.09 703.35 551.19
  Q 697.48 549.25 688.78 547.82
  Q 678.51 546.13 673.85 546.10
  Q 644.25 545.92 580.97 546.02
  C 571.20 546.03 561.78 546.53 553.33 548.13
  C 513.54 555.67 487.41 585.75 471.14 621.13
  Q 461.31 642.48 452.18 667.14
  Q 447.80 678.95 445.06 688.53
  A 1.37 1.37 0.0 0 1 443.76 689.52
  C 429.63 689.66 418.29 688.74 406.01 691.54
  C 380.85 697.27 363.96 718.03 363.69 743.90
  Q 363.44 767.69 363.64 813.22
  C 363.75 839.00 381.05 855.72 406.27 856.75
  Q 413.75 857.06 426.07 856.81
  A 0.83 0.83 0.0 0 1 426.92 857.67"
/>
<path stroke="#fdd372" vector-effect="non-scaling-stroke" d="
  M 87.18 1117.29
  Q 87.18 1124.33 87.22 1131.35
  Q 87.26 1139.04 87.90 1142.10
  C 91.68 1160.25 103.90 1173.63 121.74 1178.81
  Q 127.38 1180.45 133.50 1180.45
  Q 621.25 1180.45 1117.42 1180.38
  C 1122.56 1180.38 1128.32 1180.08 1132.58 1178.53
  Q 1153.94 1170.75 1160.04 1149.64
  Q 1161.61 1144.21 1161.67 1134.17
  Q 1161.68 1132.45 1161.68 1117.22
  Q 1161.68 1101.99 1161.67 1100.28
  Q 1161.61 1090.23 1160.04 1084.80
  Q 1153.93 1063.69 1132.57 1055.92
  C 1128.31 1054.37 1122.55 1054.07 1117.41 1054.07
  Q 621.24 1054.06 133.49 1054.13
  Q 127.37 1054.13 121.73 1055.77
  C 103.89 1060.95 91.67 1074.33 87.90 1092.48
  Q 87.26 1095.54 87.22 1103.23
  Q 87.18 1110.25 87.18 1117.29"
/>
<path stroke="#45a2fd" vector-effect="non-scaling-stroke" d="
  M 599.40 689.01
  A 2.38 2.38 0.0 0 0 601.78 686.65
  Q 602.08 650.22 601.83 614.00
  Q 601.78 606.81 601.96 599.67
  C 602.17 591.66 603.11 585.69 593.89 585.41
  Q 591.51 585.34 571.57 585.64
  Q 562.14 585.78 550.38 590.37
  Q 548.87 590.96 540.42 595.47
  A 4.84 4.32 7.1 0 0 539.61 596.03
  C 533.02 601.63 528.03 605.95 523.28 613.03
  C 514.37 626.29 508.80 638.16 501.92 654.67
  Q 499.17 661.26 496.23 669.75
  Q 490.97 684.97 490.96 684.98
  Q 490.21 687.37 492.31 688.71
  A 1.90 1.83 -27.6 0 0 493.33 689.01
  L 599.40 689.01"
/>
<path stroke="#45a2fd" vector-effect="non-scaling-stroke" d="
  M 642.43 681.00
  C 642.40 683.00 641.66 688.72 645.04 689.00
  C 650.15 689.43 657.46 688.95 662.00 688.97
  Q 699.42 689.11 735.44 689.01
  C 740.01 688.99 745.30 689.29 749.85 688.72
  A 2.21 2.21 0.0 0 0 751.78 686.35
  Q 751.43 682.01 749.97 678.26
  Q 746.16 668.41 744.88 664.47
  C 740.82 652.05 734.71 639.02 729.38 628.55
  C 725.52 620.98 720.59 614.92 716.00 607.66
  A 6.67 5.41 73.8 0 0 715.46 606.92
  Q 713.28 604.29 703.76 596.48
  Q 694.79 589.11 684.27 587.21
  Q 677.54 585.99 671.25 585.73
  Q 657.12 585.12 649.20 585.29
  Q 642.39 585.43 642.41 592.93
  Q 642.59 670.17 642.43 681.00"
/>
</g>
<path fill="#fdb503" d="
  M 1242.19 1166.46
  A 80.09 80.09 0.0 0 1 1162.10 1246.55
  L 91.26 1246.55
  A 80.09 80.09 0.0 0 1 11.17 1166.46
  L 11.17 85.60
  A 80.09 80.09 0.0 0 1 91.26 5.51
  L 1162.10 5.51
  A 80.09 80.09 0.0 0 1 1242.19 85.60
  L 1242.19 1166.46
  Z
  M 475.17 437.80
  Q 476.51 430.12 475.01 423.48
  Q 471.61 408.54 458.09 350.87
  Q 456.96 346.08 455.76 341.15
  Q 455.21 338.91 456.65 337.65
  Q 462.55 332.45 475.44 321.68
  Q 482.90 315.44 517.66 285.84
  Q 524.68 279.87 526.71 276.57
  Q 530.40 270.60 531.79 264.54
  C 533.93 255.23 532.15 245.01 526.30 237.04
  Q 517.80 225.46 501.95 223.56
  Q 501.35 223.49 495.78 222.87
  Q 452.10 218.02 413.53 213.75
  A 2.32 2.31 82.0 0 1 411.64 212.32
  L 410.38 209.20
  Q 394.68 169.51 379.28 129.72
  Q 376.60 122.80 369.70 117.41
  C 355.21 105.74 336.09 108.39 324.35 122.35
  Q 321.15 126.15 317.33 135.75
  Q 293.34 196.05 288.31 209.03
  Q 288.17 209.39 287.38 211.91
  A 2.56 2.55 -84.7 0 1 285.23 213.70
  Q 214.51 221.74 201.57 222.95
  Q 190.50 223.98 185.52 226.22
  C 174.41 231.22 167.37 240.17 165.32 251.94
  C 163.28 263.68 169.00 277.41 177.66 284.61
  Q 185.43 291.07 190.05 295.14
  C 206.38 309.53 222.88 323.67 240.72 339.22
  A 0.94 0.92 -63.3 0 1 241.01 340.12
  Q 229.94 389.16 224.55 411.92
  Q 222.50 420.55 221.11 426.61
  Q 219.27 434.62 223.18 444.39
  C 227.80 455.93 238.59 463.27 250.71 463.87
  Q 257.40 464.21 263.89 462.34
  Q 267.47 461.32 275.76 456.44
  C 296.66 444.15 325.70 426.43 345.26 415.00
  Q 346.34 414.37 348.80 413.30
  A 1.29 1.28 44.1 0 1 349.83 413.29
  Q 351.98 414.20 352.72 414.66
  Q 381.01 432.20 419.16 454.87
  Q 424.99 458.34 428.93 460.28
  Q 441.72 466.57 455.46 461.44
  Q 465.19 457.81 471.04 448.08
  Q 474.45 442.40 475.17 437.80
  Z
  M 922.89 498.86
  C 967.30 499.29 1008.82 481.70 1039.28 449.72
  C 1072.46 414.88 1089.12 364.85 1080.96 317.11
  C 1067.92 240.79 1003.47 184.98 925.98 184.22
  C 848.50 183.46 782.96 238.00 768.43 314.04
  C 759.33 361.61 775.01 411.96 807.50 447.45
  C 837.32 480.02 878.49 498.42 922.89 498.86
  Z
  M 426.92 857.67
  Q 426.07 882.97 441.86 902.64
  Q 456.49 920.86 477.84 926.20
  Q 501.18 932.03 522.09 922.58
  C 543.54 912.89 558.05 893.23 561.52 869.78
  Q 562.14 865.61 562.41 858.23
  A 1.05 1.05 0.0 0 1 563.46 857.21
  L 689.53 857.21
  A 0.86 0.86 0.0 0 1 690.39 858.11
  C 689.14 885.71 705.16 911.03 730.04 922.54
  Q 745.88 929.87 764.30 928.05
  C 800.34 924.48 825.85 893.69 825.23 857.90
  A 0.86 0.86 0.0 0 1 826.09 857.03
  C 842.39 857.10 860.08 857.92 872.86 846.12
  Q 886.06 833.92 886.38 814.98
  Q 886.68 796.78 886.58 758.01
  Q 886.54 741.98 886.02 738.52
  C 883.24 720.11 873.41 705.03 856.81 696.35
  C 840.72 687.94 825.40 689.54 802.49 689.52
  Q 800.54 689.52 799.87 687.38
  Q 790.66 657.95 778.60 631.23
  Q 775.43 624.20 771.79 617.30
  C 764.93 604.27 758.04 593.13 748.71 582.00
  Q 730.32 560.09 703.35 551.19
  Q 697.48 549.25 688.78 547.82
  Q 678.51 546.13 673.85 546.10
  Q 644.25 545.92 580.97 546.02
  C 571.20 546.03 561.78 546.53 553.33 548.13
  C 513.54 555.67 487.41 585.75 471.14 621.13
  Q 461.31 642.48 452.18 667.14
  Q 447.80 678.95 445.06 688.53
  A 1.37 1.37 0.0 0 1 443.76 689.52
  C 429.63 689.66 418.29 688.74 406.01 691.54
  C 380.85 697.27 363.96 718.03 363.69 743.90
  Q 363.44 767.69 363.64 813.22
  C 363.75 839.00 381.05 855.72 406.27 856.75
  Q 413.75 857.06 426.07 856.81
  A 0.83 0.83 0.0 0 1 426.92 857.67
  Z
  M 87.18 1117.29
  Q 87.18 1124.33 87.22 1131.35
  Q 87.26 1139.04 87.90 1142.10
  C 91.68 1160.25 103.90 1173.63 121.74 1178.81
  Q 127.38 1180.45 133.50 1180.45
  Q 621.25 1180.45 1117.42 1180.38
  C 1122.56 1180.38 1128.32 1180.08 1132.58 1178.53
  Q 1153.94 1170.75 1160.04 1149.64
  Q 1161.61 1144.21 1161.67 1134.17
  Q 1161.68 1132.45 1161.68 1117.22
  Q 1161.68 1101.99 1161.67 1100.28
  Q 1161.61 1090.23 1160.04 1084.80
  Q 1153.93 1063.69 1132.57 1055.92
  C 1128.31 1054.37 1122.55 1054.07 1117.41 1054.07
  Q 621.24 1054.06 133.49 1054.13
  Q 127.37 1054.13 121.73 1055.77
  C 103.89 1060.95 91.67 1074.33 87.90 1092.48
  Q 87.26 1095.54 87.22 1103.23
  Q 87.18 1110.25 87.18 1117.29
  Z"
/>
<path fill="#fcf0e1" d="
  M 369.70 117.41
  Q 372.02 122.37 375.54 126.72
  C 378.95 130.93 380.27 137.00 382.97 145.07
  Q 385.46 152.50 388.10 158.22
  Q 394.22 171.47 398.62 183.60
  C 401.49 191.49 404.29 197.73 407.76 206.14
  Q 408.39 207.68 410.38 209.20
  L 411.64 212.32
  A 2.32 2.31 82.0 0 0 413.53 213.75
  Q 452.10 218.02 495.78 222.87
  Q 501.35 223.49 501.95 223.56
  Q 517.80 225.46 526.30 237.04
  C 532.15 245.01 533.93 255.23 531.79 264.54
  Q 530.40 270.60 526.71 276.57
  Q 524.68 279.87 517.66 285.84
  Q 482.90 315.44 475.44 321.68
  Q 462.55 332.45 456.65 337.65
  Q 455.21 338.91 455.76 341.15
  Q 456.96 346.08 458.09 350.87
  Q 457.56 355.71 459.05 361.97
  Q 462.37 375.86 462.45 376.13
  C 466.18 389.55 468.39 401.84 472.04 416.28
  C 473.80 423.26 474.23 430.49 475.17 437.80
  Q 474.45 442.40 471.04 448.08
  Q 465.19 457.81 455.46 461.44
  Q 441.72 466.57 428.93 460.28
  Q 424.99 458.34 419.16 454.87
  Q 381.01 432.20 352.72 414.66
  Q 351.98 414.20 349.83 413.29
  A 1.29 1.28 44.1 0 0 348.80 413.30
  Q 346.34 414.37 345.26 415.00
  C 325.70 426.43 296.66 444.15 275.76 456.44
  Q 267.47 461.32 263.89 462.34
  Q 257.40 464.21 250.71 463.87
  C 238.59 463.27 227.80 455.93 223.18 444.39
  Q 219.27 434.62 221.11 426.61
  Q 222.50 420.55 224.55 411.92
  Q 229.94 389.16 241.01 340.12
  A 0.94 0.92 -63.3 0 0 240.72 339.22
  C 222.88 323.67 206.38 309.53 190.05 295.14
  Q 185.43 291.07 177.66 284.61
  C 169.00 277.41 163.28 263.68 165.32 251.94
  C 167.37 240.17 174.41 231.22 185.52 226.22
  Q 190.50 223.98 201.57 222.95
  Q 214.51 221.74 285.23 213.70
  A 2.56 2.55 -84.7 0 0 287.38 211.91
  Q 288.17 209.39 288.31 209.03
  Q 293.34 196.05 317.33 135.75
  Q 321.15 126.15 324.35 122.35
  C 336.09 108.39 355.21 105.74 369.70 117.41
  Z"
/>
<path fill="#ef407d" d="
  M 925.98 184.22
  C 1003.47 184.98 1067.92 240.79 1080.96 317.11
  C 1089.12 364.85 1072.46 414.88 1039.28 449.72
  C 1008.82 481.70 967.30 499.29 922.89 498.86
  C 878.49 498.42 837.32 480.02 807.50 447.45
  C 775.01 411.96 759.33 361.61 768.43 314.04
  C 782.96 238.00 848.50 183.46 925.98 184.22
  Z"
/>
<path fill="#007dfe" d="
  M 426.92 857.67
  A 0.83 0.83 0.0 0 0 426.07 856.81
  Q 413.75 857.06 406.27 856.75
  C 381.05 855.72 363.75 839.00 363.64 813.22
  Q 363.44 767.69 363.69 743.90
  C 363.96 718.03 380.85 697.27 406.01 691.54
  C 418.29 688.74 429.63 689.66 443.76 689.52
  A 1.37 1.37 0.0 0 0 445.06 688.53
  Q 447.80 678.95 452.18 667.14
  Q 461.31 642.48 471.14 621.13
  C 487.41 585.75 513.54 555.67 553.33 548.13
  C 561.78 546.53 571.20 546.03 580.97 546.02
  Q 644.25 545.92 673.85 546.10
  Q 678.51 546.13 688.78 547.82
  Q 697.48 549.25 703.35 551.19
  Q 730.32 560.09 748.71 582.00
  C 758.04 593.13 764.93 604.27 771.79 617.30
  Q 775.43 624.20 778.60 631.23
  Q 790.66 657.95 799.87 687.38
  Q 800.54 689.52 802.49 689.52
  C 825.40 689.54 840.72 687.94 856.81 696.35
  C 873.41 705.03 883.24 720.11 886.02 738.52
  Q 886.54 741.98 886.58 758.01
  Q 886.68 796.78 886.38 814.98
  Q 886.06 833.92 872.86 846.12
  C 860.08 857.92 842.39 857.10 826.09 857.03
  A 0.86 0.86 0.0 0 0 825.23 857.90
  C 825.85 893.69 800.34 924.48 764.30 928.05
  Q 745.88 929.87 730.04 922.54
  C 705.16 911.03 689.14 885.71 690.39 858.11
  A 0.86 0.86 0.0 0 0 689.53 857.21
  L 563.46 857.21
  A 1.05 1.05 0.0 0 0 562.41 858.23
  Q 562.14 865.61 561.52 869.78
  C 558.05 893.23 543.54 912.89 522.09 922.58
  Q 501.18 932.03 477.84 926.20
  Q 456.49 920.86 441.86 902.64
  Q 426.07 882.97 426.92 857.67
  Z
  M 599.40 689.01
  A 2.38 2.38 0.0 0 0 601.78 686.65
  Q 602.08 650.22 601.83 614.00
  Q 601.78 606.81 601.96 599.67
  C 602.17 591.66 603.11 585.69 593.89 585.41
  Q 591.51 585.34 571.57 585.64
  Q 562.14 585.78 550.38 590.37
  Q 548.87 590.96 540.42 595.47
  A 4.84 4.32 7.1 0 0 539.61 596.03
  C 533.02 601.63 528.03 605.95 523.28 613.03
  C 514.37 626.29 508.80 638.16 501.92 654.67
  Q 499.17 661.26 496.23 669.75
  Q 490.97 684.97 490.96 684.98
  Q 490.21 687.37 492.31 688.71
  A 1.90 1.83 -27.6 0 0 493.33 689.01
  L 599.40 689.01
  Z
  M 642.43 681.00
  C 642.40 683.00 641.66 688.72 645.04 689.00
  C 650.15 689.43 657.46 688.95 662.00 688.97
  Q 699.42 689.11 735.44 689.01
  C 740.01 688.99 745.30 689.29 749.85 688.72
  A 2.21 2.21 0.0 0 0 751.78 686.35
  Q 751.43 682.01 749.97 678.26
  Q 746.16 668.41 744.88 664.47
  C 740.82 652.05 734.71 639.02 729.38 628.55
  C 725.52 620.98 720.59 614.92 716.00 607.66
  A 6.67 5.41 73.8 0 0 715.46 606.92
  Q 713.28 604.29 703.76 596.48
  Q 694.79 589.11 684.27 587.21
  Q 677.54 585.99 671.25 585.73
  Q 657.12 585.12 649.20 585.29
  Q 642.39 585.43 642.41 592.93
  Q 642.59 670.17 642.43 681.00
  Z"
/>
<path fill="#8ac7fc" d="
  M 599.40 689.01
  L 493.33 689.01
  A 1.90 1.83 -27.6 0 1 492.31 688.71
  Q 490.21 687.37 490.96 684.98
  Q 490.97 684.97 496.23 669.75
  Q 499.17 661.26 501.92 654.67
  C 508.80 638.16 514.37 626.29 523.28 613.03
  C 528.03 605.95 533.02 601.63 539.61 596.03
  A 4.84 4.32 7.1 0 1 540.42 595.47
  Q 548.87 590.96 550.38 590.37
  Q 562.14 585.78 571.57 585.64
  Q 591.51 585.34 593.89 585.41
  C 603.11 585.69 602.17 591.66 601.96 599.67
  Q 601.78 606.81 601.83 614.00
  Q 602.08 650.22 601.78 686.65
  A 2.38 2.38 0.0 0 1 599.40 689.01
  Z"
/>
<path fill="#8ac7fc" d="
  M 645.04 689.00
  C 641.66 688.72 642.40 683.00 642.43 681.00
  Q 642.59 670.17 642.41 592.93
  Q 642.39 585.43 649.20 585.29
  Q 657.12 585.12 671.25 585.73
  Q 677.54 585.99 684.27 587.21
  Q 694.79 589.11 703.76 596.48
  Q 713.28 604.29 715.46 606.92
  A 6.67 5.41 73.8 0 1 716.00 607.66
  C 720.59 614.92 725.52 620.98 729.38 628.55
  C 734.71 639.02 740.82 652.05 744.88 664.47
  Q 746.16 668.41 749.97 678.26
  Q 751.43 682.01 751.78 686.35
  A 2.21 2.21 0.0 0 1 749.85 688.72
  C 745.30 689.29 740.01 688.99 735.44 689.01
  Q 699.42 689.11 662.00 688.97
  C 657.46 688.95 650.15 689.43 645.04 689.00
  Z"
/>
<path fill="#fcf0e1" d="
  M 1161.68 1117.22
  Q 1161.68 1132.45 1161.67 1134.17
  Q 1161.61 1144.21 1160.04 1149.64
  Q 1153.94 1170.75 1132.58 1178.53
  C 1128.32 1180.08 1122.56 1180.38 1117.42 1180.38
  Q 621.25 1180.45 133.50 1180.45
  Q 127.38 1180.45 121.74 1178.81
  C 103.90 1173.63 91.68 1160.25 87.90 1142.10
  Q 87.26 1139.04 87.22 1131.35
  Q 87.18 1124.33 87.18 1117.29
  Q 87.18 1110.25 87.22 1103.23
  Q 87.26 1095.54 87.90 1092.48
  C 91.67 1074.33 103.89 1060.95 121.73 1055.77
  Q 127.37 1054.13 133.49 1054.13
  Q 621.24 1054.06 1117.41 1054.07
  C 1122.55 1054.07 1128.31 1054.37 1132.57 1055.92
  Q 1153.93 1063.69 1160.04 1084.80
  Q 1161.61 1090.23 1161.67 1100.28
  Q 1161.68 1101.99 1161.68 1117.22
  Z"
/>
</svg>
