<svg xmlns="http://www.w3.org/2000/svg" viewBox="28 31 451 451"><g fill="none" stroke-width="2"><path stroke="#fccfa2" d="M125.2 208.1q.25.09.44.22a.6.6 0 0 1 .13.89l-.97 1.12a.87.86-40.2 0 0-.09 1.02c1.06 1.76 2.47 1.75 3.22 3.68q1.12 2.87 3.81 6.47a.28.27-44.2 0 1-.01.34l-.21.24a.45.44-43.9 0 1-.68-.01q-.89-1.1-1.75-.88a.46.46 0 0 0-.25.72q2.12 2.79 1.99 5.59a1.2 1.15-62.7 0 0 .22.75l3.81 5.08a.53.53 0 0 1-.42.84q-.8.01-1.04.37a1.32 1.31-44.8 0 0-.01 1.42l5.17 8.19a.64.64 0 0 0 .21.21q5.79 3.67 10.32 9.29 1.34 1.67 6.16 4.75" vector-effect="non-scaling-stroke"/><path stroke="#fceaa6" d="m155.25 258.4 3.82 3.18a.14.14 0 0 0 .21-.03h.01a.22.22 0 0 0-.07-.31q-1.63-.95-2.22-2.8a.89.89 0 0 1 1.29-1.04q2.39 1.34 6.17 4.36c4.55 3.63 10.03 6.36 15.29 7a1.6 1.6 0 0 1 .46.13l15.95 6.85a1.4 1.19 71.3 0 1 .32.19q.89.65 1.64 2.2a.87.86-37.6 0 0 1.43.18l1.16-1.34a.89.88 28.3 0 1 .92-.27c5.98 1.82 12.53 5.11 21.16 9.04q1.94.89 8.29 1.54" vector-effect="non-scaling-stroke"/><path stroke="#c6e5b1" d="M231.08 287.28q2.69 1.82 5.65 2.99 6.16 2.44 13.06 4.95a7.81 7.65 70 0 1 1.23.59q4.28 2.59 9.06 2.56c4.78-.02 7.14 2.75 11.23 4.57q2.36 1.04 3.93 2.38a2.44 2.41 71.2 0 0 1.1.55l6.96 1.46a2 2 0 0 1 .6.24l9.87 5.9" vector-effect="non-scaling-stroke"/><path stroke="#b1d1f5" d="m293.77 313.47 7.64 10.24a.94.49 27.5 0 1 .07.1q3.24 6.05 4.09 12.69.15 1.09-.53 5.63a6.7 6.63 42.4 0 0 .13 2.58c.81 3.21-.39 5.35-1.82 9.55-1.17 3.42-3.08 5.48-5.6 7.5q-2.1 1.68-10.61 7.52a7.98 7.72 2.8 0 0-1.39 1.22q-1.38 1.52-1.95 2a3 2.61-47.7 0 1-3.23.38q-1.16-.7-2.26-.4-4.75 1.32-7.02 2.29a1.56 1.53 41.1 0 1-1.05.06q-.31-.09-.32-.09a2 1.99 28.1 0 0-.7.21l-3.84 1.97a.74.74 0 0 1-.83-1.22l1.69-1.48a.54.54 0 0 0-.37-.95c-2.6.04-4.64 1.61-7.15 1.51q-4.64-.19-9.31.06a6.43 6.36 48.5 0 1-1.51-.1l-4.42-.82" vector-effect="non-scaling-stroke"/><path stroke="#c6e5b1" d="m243.48 373.92-9.98-4.18a12.39 11.6 60.3 0 0-2.17-.67c-5.1-1.07-9.82-2.62-13.29-6.68a7.49 7 1.1 0 0-1-.97q-6.39-5.17-7.03-5.95-3.69-4.42-7.5-7.47-.93-.74-4.63-6.32a.89.88-18.3 0 0-.79-.39l-.31.02a.38.38 0 0 0-.32.54l.97 1.99a.71.71 0 0 1-.88.98l-.96-.34a.66.65-9.7 0 1-.27-.19l-6.3-7.83a1.59 1.55-75.3 0 1-.21-.37q-1.65-4.35-4.87-5.33" vector-effect="non-scaling-stroke"/><path stroke="#fceaa6" d="M183.94 330.76q-2.89-2.86-5.37-5.96a3.63 3.54 63.8 0 0-3.61-1.28c-3.26.77-6.49-1.84-9.58-2.53q-2.76-.61-4.56-1.38c-5.98-2.56-16.2.22-21.72 2.98a1.2 1.2 0 0 1-.36.12l-3.51.62a.96.92-64.5 0 0-.32.12l-5.61 3.58a.08.08 0 0 0-.01.13l.36.31a.36.36 0 0 0 .43.04l2.19-1.39a.85.84 81.1 0 1 1.27.93q-1.11 4.25-5.78 7.39a1.37 1.36-55.9 0 1-1.02.2l-1.17-.25a1.05 1.05 0 0 0-1.1.46l-4.92 7.53a.62.62 0 0 1-1.06-.05l-.07-.15a1.12 1.09 46.9 0 1 .02-.94l4.19-8.37a2.23 1.97-14.9 0 1 .24-.36l2.32-2.8a.53.53 0 0 0-.08-.76l-.02-.02a.6.6 0 0 0-.77.04q-1.62 1.48-4.46 4.45-.92.96-.52 2.3.63 2.17-1.14 4.1c-2.6 2.83-4.6 6.47-4.93 10.32q-.3 3.52-.7 4.49a.84.84 0 0 1-1.54.03q-.97-2.12-1.05-3.69a.81.81 0 0 0-1.57-.23l-.41 1.15a.94.94 0 0 1-1.82-.15l-.14-.81a.45.45 0 0 0-.78-.22q-2.82 3.11-1.68 7.2 1.37 4.91 1.63 6.72a.77.77 0 0 1-1.22.72c-2.61-1.93-3.43-5.14-4.72-7.92a.4.39 65 0 0-.53-.2l-.02.01a.28.28 0 0 0-.1.31l2.12 7.38a1.08 1.04 48.7 0 1-.03.68c-1.01 2.59-1.4 4.63.1 7.42q4.24 7.89 10.24 13.91c2.32 2.32 2.83 6.27 4.14 8.85a1.63 1.54-80.3 0 0 .22.33l9.39 10.68a.86.86 0 0 1-.59 1.42l-1.03.06a.44.44 0 0 0-.32.7l3.39 4.45" vector-effect="non-scaling-stroke"/><path stroke="#c6e5b1" d="M126.25 413.43q5.52 6.24 9.51 9.05 5.24 3.69 12.61 8.95c1.86 1.33 3.81 2.27 6.05 3.66a6.01 5.44-15.8 0 0 .93.46q5.88 2.23 10.44 4.87c3.21 1.85 6.37 2.41 9.45 4.61a.37.37 0 0 1-.27.67c-6.57-1.02-13.65-5.26-18.68-8.56a.23.23 0 0 0-.34.27q.34.95 1.36 1.64 2.27 1.52 5.8 3.26 8.3 4.1 17.23 7.64" vector-effect="non-scaling-stroke"/><path stroke="#b1d1f5" d="M180.34 449.95q6.77 2.94 14.33 3.83a7.7 7.5 58 0 1 1.83.45q6.73 2.57 14.32 2.85a3.98 3.84 35.1 0 0 1.41-.22c4.21-1.48 8.2-.32 12.26-.12q5.32.25 6.03.43c2.7.67 5.18 2.48 8.86 2.32a.89.88 10.5 0 0 .78-.53l.43-1.02a.94.94 0 0 1 .85-.57l15.75-.4" vector-effect="non-scaling-stroke"/><path stroke="#d5b9ef" d="M257.19 456.97c2.64.14 8.03.3 10.04-1.62q1.53-1.46 3.93-.6a2.68 2.67-44.2 0 0 1.77.02c2.99-.99 5.64-2.34 9.11-2.69a3.51 3.45-56.8 0 0 .82-.18l12.16-4.13a.42.42 0 0 1 .36.76l-1.69 1.02a2.89 2.3-62.7 0 1-.47.21q-9.45 3.07-10.5 3.47c-3.06 1.17-5.94 1.35-9.44 2.43a.22.21 77.8 0 0-.15.24l.07.36a.48.47 83.9 0 0 .49.4l5.23-.33a.69.69 0 0 1 .37 1.3q-.77.41-1.64.52-4.71.58-7.46 1.93-1.67.82-3.69.05c-3.5-1.34-8.47.06-12.4 1.3a.76.76 0 0 0-.5.91l.21.81a.76.75-10.6 0 1-.65.94l-5.73.62a.34.33 9.3 0 0-.27.19l.01.01a.18.18 0 0 0 .19.16l4.95-.27a1.09.96-55.8 0 0 .39-.1q4.01-1.83 7.81-.43a.24.24 0 0 1-.02.45q-3.44.9-4.04 1.22-.58.31-.6.78-.02.57.52.58c8.47.26 13.4.66 21.12-2.13a2.33 2.26-57.2 0 1 .47-.11l6.06-.75a1.56 1.21-52 0 0 .28-.07q4.72-2.03 9.03-2.95a9.97 9.58-62.4 0 0 2.09-.7c4.4-2.01 9.21-2.71 13.47-4.55q8.85-3.81 17.73-7.91 1.72-.79 5.22-1.92a.14.14 0 0 1 .13.25l-4.86 3.64a.34.33-35.2 0 0-.08.45l.21.32a.47.46 57.7 0 0 .64.15l7.36-4.69a.67.67 0 0 1 1.03.53l.04.64a.72.72 0 0 0 1.07.58c1.87-1.05 4.39-3.37 6.56-4.62q11.23-6.43 13.7-8.05c5.36-3.51 12.55-9.22 17.32-14.75 3.32-3.83 7.94-8.08 10.93-12.37 3.53-5.07 6.48-8.06 9.18-13.33q1.73-3.38 4.02-7.14a4.31 4.17-22.8 0 0 .5-1.17q2.12-8 6.23-15.5 1.31-2.39 1.34-8.16a.13.04-61.8 0 1 .01-.05l1.79-8.49a.92.92 0 0 0-.77-1.1l-.04-.01a.8.8 0 0 0-.77.78q-.09 4.14-1.52 8.78a.27.26-34.9 0 1-.52-.09c.13-2.11.96-4.67 1.06-7.08q.33-8.56.25-13.72a3.76 3.65 36.6 0 0-.17-1.04q-.71-2.2-1.1-7.11a.22.22 0 0 1 .39-.16q.6.66.68 1.62.32 3.9.78 5.13a.37.36 54.9 0 0 .62.11l.35-.4a.9.88 59.6 0 0 .19-.76l-1.31-5.87a1.48 1.43 19 0 0-.31-.61l-1.64-1.86a1.47 1.44 21.9 0 1-.34-.78q-.77-7.09-3.23-13.54" vector-effect="non-scaling-stroke"/><path stroke="#b1d1f5" d="M401.56 316.74q-.91-3.53-1.98-7.52-.29-1.06.17-1.85a.49.49 0 0 1 .87.04c2.76 5.92 4.03 11.87 6.37 20.6a1.42 1.41 4.1 0 0 .8.92l.37.16a.49.49 0 0 0 .68-.53q-1.22-7.45-4.07-14.63-.33-.83-.36-4.82a4.78 4.61-52.7 0 0-.13-1.1c-.42-1.78-1.75-5.75-2.85-7.92q-2.88-5.65-4.64-11.66a13.01 12.49-68.1 0 0-.88-2.19q-4.71-9.15-6.24-11.87-.8-1.44-3.61-3.07a7.85 7.82 83.3 0 1-1.84-1.46q-2.11-2.24-3.09-2.94-.46-.32-1.06-.32a.21.21 0 0 0-.12.39q.51.35.69 1.13a.33.33 0 0 1-.57.29l-7.96-9.26" vector-effect="non-scaling-stroke"/><path stroke="#c6e5b1" d="m372.11 259.13-8.44-6.47a1.28 1.14 85.4 0 1-.25-.24l-4.18-4.9a.74.73 58.6 0 0-.85-.21q-.83.34-.95.48a2.3 2.14 41.5 0 1-3.27.08q-2.57-2.44-4.35-3.9a3.08 2.96 75.3 0 0-.67-.41l-10.76-4.79a2.36 2.3-29.1 0 0-.67-.18c-3.99-.46-7.02-2.39-10.62-4.49q-1.13-.66-2.68-1.18-13.29-4.48-26.39-8.69" vector-effect="non-scaling-stroke"/><path stroke="#fceaa6" d="m298.03 224.23-18.62-6.38a5.99 5.74 57.5 0 0-1.06-.26l-4.94-.8a3.35 3.3-22.7 0 1-1.37-.55c-2.82-1.97-5.16-2.25-7.89-4.19q-3.7-2.63-8.64-2.54a4.16 4.12-29.6 0 1-2.22-.6c-5.55-3.39-12.75-5.3-18.47-9.13q-4.37-2.92-8.22-5.94" vector-effect="non-scaling-stroke"/><path stroke="#fccfa2" d="M226.6 193.84c-5.19-2.79-8.13-9.28-8.82-14.89-.63-5.08-.18-15.3 3.99-19.16q3.52-3.27 6.82-4.8c3.42-1.59 5.17-4.05 8.41-6.74q1.99-1.66 4.34-1.68a.27.27 0 0 1 .2.44l-2.62 3.03a.23.22-73.6 0 0 .2.37q3.98-.49 6.51-3.23c1.15-1.25 3.78-1.77 5.67-.86 3.21 1.54 4.83-1.15 7.8-1.22 3.81-.08 6.59 1.74 10.53 1.64a.66.65 2.5 0 0 .64-.58q.1-1.01.35-1.52a.59.59 0 0 1 .84-.24q5.73 3.55 11.2 5.01" vector-effect="non-scaling-stroke"/><path stroke="#fceaa6" d="m282.66 149.41 3.38 1.85a8.28 7.65-8.6 0 1 1.18.8q3.25 2.7 7.28 5.67c2.85 2.1 4.96 5.63 7.8 8.39 1.8 1.75 4.49 6.25 7.35 3.48a1.55 1.54 44.3 0 1 2.13-.02l12.1 11.26a3.19 3.15 72.6 0 0 1.41.75q6.67 1.57 13.46 2.67 2.19.36 5.06-.44" vector-effect="non-scaling-stroke"/><path stroke="#c6e5b1" d="M343.81 183.82q1.42.87 1.82 1.66a.42.41-18.5 0 1-.3.59l-4.48.79a.62.61 38.1 0 0 .15 1.22l9.15-.57a.24.16 38.4 0 1 .11.01q2.23.66 2.74.56 1.79-.34 12.48-3.25c4.88-1.32 9.45-3.34 12.51-6.09q7.19-6.47 11.59-15.68 1.37-2.86.46-7.44" vector-effect="non-scaling-stroke"/><path stroke="#fceaa6" d="m390.04 155.62.4-5.98a1.48 1.47-14.2 0 1 .69-1.15q.62-.38.99-.86a1.56 1.49-26.9 0 0 .33-.94v-2.96a2.34 2.13 42.3 0 0-.04-.42l-1.85-10.63a1.47 1.12 37.4 0 0-.06-.22c-3.59-8.97-6.13-16.49-11.57-22.37a2.19 2.13 16.5 0 1-.49-.87c-1.06-3.88-4.17-6.74-6.99-9.44" vector-effect="non-scaling-stroke"/><path stroke="#fccfa2" d="M371.45 99.78q-4-4.45-8.62-7.85-.91-.67-1.03-1.2a.25.25 0 0 1 .37-.28q4.64 2.84 6.16 4.46 2.11 2.24 4.25 4.58" vector-effect="non-scaling-stroke"/><path stroke="#fceaa6" d="m372.58 99.49 4.91 5.78a1 1 0 0 0 .13.13q4.78 3.8 5.84 6.01 3.55 7.47 6.96 13.13c1.2 2 1.44 4.43 1.86 6.83a.81.8-3.9 0 0 .77.67q1.88.05 2.24 2.99.98 8.03 2.22 14.4a.42.42 0 0 0 .81.03c.7-2.66.31-4.36-.21-7.93q-1.85-12.58-6.64-24.81a.5.49-14.9 0 1 .39-.67h.03a.91.9 70.4 0 1 .91.44q5.07 8.76 7.5 17.04a.13.13 0 0 0 .15.09l.26-.04a.42.41-11.9 0 0 .33-.5q-2.72-11.09-5.97-17.14-2.11-3.93-4.66-8.1-3.25-5.29-3.76-5.87-3.75-4.32-4.73-5.16c-4.17-3.62-7.52-7.87-11.97-10.87a7.75 7.64 3.3 0 1-2.45-2.71c-1.43-2.64-4.38-4.57-7.1-4.72a.48.48 0 0 0-.51.44v.01a.39.38 8.9 0 0 .31.42q2.37.49 3.31 2.45a.55.55 0 0 1-.89.62q-.62-.63-1.61-1.13" vector-effect="non-scaling-stroke"/><path stroke="#fccfa2" d="M361.01 81.32 360 79.71a1.84 1.78 87.3 0 0-.65-.61q-6.93-3.84-12.63-6.78c-4.48-2.31-9.44-3.88-13.38-6.01q-2.56-1.38-6.12-2.15a8.77 8.75-24.8 0 1-2.1-.77q-6.76-3.55-14.35-4.84" vector-effect="non-scaling-stroke"/><path stroke="#f7a9a7" d="m310.77 58.55-10.22-3.39a.34.34 0 0 1-.07-.61q2.54-1.61 5.55-.63.03.02 7.74 2.09a.22.22 0 0 0 .27-.14v-.01a.21.2 22.4 0 0-.11-.25c-3.62-1.62-6.76-1.65-10.06-3.11q-2.25-1-5.34-.91a.79.78 9.1 0 1-.77-1.05l.35-.98a.36.36 0 0 0-.3-.47l-15.75-1.9a.5.5 0 0 0-.14 0q-3.14.58-5.99.62c-3.11.05-6.22 1.44-9.44 1.66a.7.7 0 0 1-.74-.66l-.14-2.17a1.39 1.39 0 0 0-1.43-1.3q-7.32.23-17.97 1.91c-6.24.99-13.84 4.64-17.57 6.42a8.51 8.32 28.7 0 1-2.72.76l-1.66.17a6.87 6.55 30.4 0 0-1.66.39q-9.26 3.51-14.06 5.4c-3.84 1.52-7.23 3.59-10.27 4.43q-2.35.65-7.48 3.7c-3.47 2.05-9.52 4.08-13.44 6.92-2.83 2.04-4.72 4-6.63 4.09a.39.39 0 0 1-.23-.72l16.39-10.43a.05.05 0 0 0 .01-.05l-.15-.22a.27.27 0 0 0-.36-.1c-5.31 2.71-9.72 5.3-14.26 7.52-5.02 2.46-7.36 4.73-12.37 7.55-3.71 2.09-5.46 5.73-9 7.95a4.09 3.74-82.3 0 0-.85.71l-11.29 12.5a8.74 8.43-10.9 0 0-1.16 1.65q-2.01 3.72-5.15 8.58-1.11 1.71-.3 3.63a1.29 1.24 43.8 0 1 .04.92q-.51 1.54-1.29 2.15c-1.91 1.49-4.21 5.58-3.67 7.71a1.43 1.41-42.7 0 1-.04.87l-4.46 12.58a.13.13 0 0 1-.25-.02l-.12-.68a.61.61 0 0 0-1.11-.24q-3.1 4.61-2.71 9.56a1.21 1.21 0 0 1-.45 1.04c-1.16.94-.79 2.48-1.41 3.83q-1.3 2.81-2.17 5.52a1.63 1.53-43.2 0 0-.05.8l.35 1.98a.55.55 0 0 1-.04.29q-2.33 5.22-1.73 11.47a.25.25 0 0 0 .47.08q.74-1.6.67-4.89a.41.41 0 0 1 .81-.1q.54 2.49.56 5.04a1.46 1.41-26 0 1-.35.96l-1.22 1.41a1.14 1.11-19.3 0 0-.25.5q-.93 4.18-.29 8.63a.04.04 0 0 0 .04.04l.46-.03a.46.46 0 0 0 .43-.49l-.3-4.8a.48.48 0 0 1 .95-.08l.77 7.65a2.66 2.65 52.5 0 1-.16 1.24l-.55 1.45a2.07 2.07 0 0 0-.03 1.41q.07.25 1.81 7.52a.96.9 63.2 0 0 1.5.55q.55-.49 1.43-.1a.69.67 88.4 0 1 .34.33l1.99 4.08a1.04 1.04 0 0 0 .5.5l2.73 1.32" vector-effect="non-scaling-stroke"/><path stroke="#f37949" d="M310.77 58.55q-.72 1.12-2.08 2.17" vector-effect="non-scaling-stroke"/><path stroke="#f7a9a7" d="M308.69 60.72q-7.67-2.41-10.04-2.89-.95-.19-1.4.4a.38.38 0 0 0 .19.59l9.43 3.02" vector-effect="non-scaling-stroke"/><path stroke="#f37949" d="M306.87 61.84q-3.13 2.81-8.5 3.92a6.36 6.35-68.9 0 0-2.43 1.08q-5.7 4.21-12.78 6.52c-2.79.91-4.64 3.62-7.15 5.08a1.27 1.24-56.3 0 1-.79.17l-1.22-.15a1.07 1.06 29.3 0 0-.77.21l-9.18 6.87a.42.42 0 0 1-.57-.62l1.9-2.2a.34.33 2.6 0 0-.45-.49c-3.59 2.57-6.06 4.83-9.43 6.75q-2.27 1.29-11.65 7.34-5.69 3.67-11.35 7.77-10.5 7.62-22.77 16.15-3.83 2.67-7.82 5.14-2.77 1.71-9.7 8.97a3.6 3.34-82.1 0 1-.71.58q-3.5 2.19-6.01 4.54-6.15 5.78-8.33 8.35c-1.86 2.2-3.59 3.09-6.1 5.23q-2.1 1.8-4.32 4.21-3.63 3.92-8.57 6.63-.93.51-2.83 4.13a1.26 1.2 82.2 0 1-.23.32l-6.59 6.73a.29.29 0 0 1-.43-.03l-.15-.21a.59.58-43.7 0 1 .02-.73l4.08-4.93a.94.49-27.5 0 0 .07-.1l5.1-8.35a1.31 1.3-47.6 0 0-.06-1.47l-.37-.48a.37.36 35.9 0 0-.64.1c-.99 2.91-2.36 4.27-3.65 7.27q-.69 1.62-2.41 3.21-3.38 3.15-6.58 6.88c-.54.65-.74 1.63-.46 2.27a1.23 1.23 0 0 1-.2 1.31l-3.76 4.22a1.36 1.35 24.7 0 1-1.2.44q-.05 0-.12-.03a.66.65-76.1 0 0-.87.53q-.35 2.65-.94 3.49-.86 1.24-6.8 7.81a4.71 4.7 79.5 0 0-.76 1.11q-.38.76-.75 1.86-.22.64-.64.6-.34-.03-.74-.55" vector-effect="non-scaling-stroke"/><path stroke="#f7a9a7" d="m126.26 199.29-2.21-4.04a.36.36 0 0 0-.67.24q.5 2.76 2.2 5.27" vector-effect="non-scaling-stroke"/><path stroke="#f37949" d="M125.58 200.76q.44 1.53-1.12 3.08a1.06 1.05 49.5 0 0-.1 1.38l.17.22a1.08 1.08 0 0 0 1.58.16q2.46-2.21 3.56-2.77a.42.42 0 0 1 .51.64l-3.38 3.92a1.75 1.7-75.7 0 1-.85.52l-.75.19" vector-effect="non-scaling-stroke"/><path stroke="#fccfa2" d="M308.69 60.72q5.95.93 10.55 4.27 1.96 1.42 2.7 1.68c3.07 1.1 5.6.79 8.06 3.45a.3.29-23.4 0 1-.2.49q-6.6.51-10.36-4.7a1.97 1.91-4.1 0 0-.75-.63l-5.49-2.54a2.49 2.39-27.6 0 0-.65-.19l-5.68-.71" vector-effect="non-scaling-stroke"/><path stroke="#f8b949" d="m361.01 81.32 4.44 4.49" vector-effect="non-scaling-stroke"/><path stroke="#fccfa2" d="M365.45 85.81q2.04 3.01 5.96 4.55a2.26 2.24-9.7 0 1 .87.61l2.5 2.83" vector-effect="non-scaling-stroke"/><path stroke="#f8b949" d="M374.78 93.8q.37 1.11.32 2.17a1.52 1.52 0 0 1-.34.87l-2.18 2.65m-1.13.29q-1.69.91-3.25 1.99-1.97 1.37-3.24 2.03-12.58 6.61-34.97 18.53a4.57 4.44-60.7 0 1-1.69.5l-.79.07a5.43 5.2 28.4 0 0-1.78.49q-5.92 2.85-12.51 7.35c-3.32 2.27-5.25 5.59-9.49 7.58a4.6 4.35-75.6 0 0-.81.51c-3.08 2.52-6.4 6.01-9.8 5.2a1.99 1.84-40.6 0 0-.8-.03q-6.2 1-9.66 5.41m-56.06 44.43-5.01 7.01a10.8 10.8 0 0 1-2.55 2.55c-5.03 3.59-9.38 7.76-14.49 11.73q-5.02 3.9-10.27 8.12-1.74 1.39-2.36 1.94-2.87 2.47-5.06 4.41c-5.68 5.05-13.66 10.59-16.74 14.02q-5.3 5.92-8.78 8.98-.77.67-2.88 3.33a1.16 1.16 0 0 1-1.66.16l-7.02-6.07a.55.55 0 0 0-.77.05l-.31.37a.52.52 0 0 0 .05.73l7.2 6.23a.5.5 0 0 1-.12.84q-.19.08-.58.16" vector-effect="non-scaling-stroke"/><path stroke="#fccfa2" d="M125.58 200.76q.88.56.68-1.47" vector-effect="non-scaling-stroke"/><path stroke="#c3cf58" d="M390.04 155.62q-5.97 4.22-12.6 7.63-.87.45-1.76.84-3.98 1.74-8 3.59a10.73 10.45 13.1 0 0-2.14 1.29c-1.88 1.44-3.92 3.87-6.46 4.32a2.01 1.88 20.3 0 0-.76.32l-14.51 10.21" vector-effect="non-scaling-stroke"/><path stroke="#fceaa6" d="M374.78 93.8q1.33 2.08 2.9.98a.62.62 0 0 0 .08-.94q-1.38-1.37-2.75-2.58-4.04-3.58-9.56-5.45" vector-effect="non-scaling-stroke"/><path stroke="#c3cf58" d="M298.03 224.23q-2.29 2.47-4.79 4.45-4.73 3.73-5.1 4.05-14.66 12.63-19.52 16.4-4.42 3.43-9.32 7.92-12.96 11.86-16.29 15.71-2.21 2.56-3.33 4.55c-2.2 3.91-5.35 7.01-8.6 9.97" vector-effect="non-scaling-stroke"/><path stroke="#78b7a7" d="M372.11 259.13q-2.46 3.64-7.36 5.4" vector-effect="non-scaling-stroke"/><path stroke="#c6e5b1" d="m364.75 264.53-5.88-4.86a.6.57-48.7 0 0-.79.07l-.02.02a.46.45-49.9 0 0 .05.61l7.23 6.64a.58.58 0 0 1-.6.96q-.97-.39-1.56.32" vector-effect="non-scaling-stroke"/><path stroke="#78b7a7" d="M363.18 268.29q-1.99-.14-2.68.43-6.86 5.68-16.31 11.97-6.87 4.58-14.1 12.68a4.54 4.43-83.6 0 1-1.1.9q-9.22 5.43-17.38 13.33-1.27 1.23-2.7 2.18a.36.35 50.5 0 1-.45-.05l-.22-.22a.35.34-45 0 1 .01-.49l11.71-11.3.02-.02q3.15-1.78 5.23-4.72.1-.14.76-.43a.93.92 83 0 0 .51-.66q.07-.38.05-.39a.98.97-59.2 0 0-.96.25q-3.69 3.69-6.17 4.7a1.79 1.75 37 0 1-.94.12q-.99-.14-1.92-.82a2.22 2.18 42.5 0 0-2.73.1q-7.36 6.35-14.1 12.86-2.8 2.7-5.94 4.76" vector-effect="non-scaling-stroke"/><path stroke="#878be5" d="M401.56 316.74q-5.48 1.64-9.05 6.22a2.48 2.38-84.9 0 1-.72.63l-2.09 1.22" vector-effect="non-scaling-stroke"/><path stroke="#b1d1f5" d="m389.7 324.81-1.26-4.94a.07.07 0 0 0-.07-.06l-.31.02a.23.23 0 0 0-.21.26l.76 6.05" vector-effect="non-scaling-stroke"/><path stroke="#878be5" d="M388.61 326.14q-3.19 2.07-6.02 4.45c-6.59 5.56-14.42 10.91-19.94 15.07q-2.46 1.85-4.53 4.07a5.29 5.1-85.8 0 1-.67.6q-4.58 3.41-14.67 11.94c-2.71 2.3-5.28 4.28-7.38 6.33q-7.94 7.74-13.17 13.05c-3.16 3.2-4.39 5.64-7.07 9.91a7.8 7.8 0 0 1-.97 1.26q-2.27 2.37-4.72 5.63-1.73 2.3-3.98 3.14a.54.54 0 0 1-.6-.86l2.26-2.61a.33.33 0 0 0-.41-.5q-2.45 1.47-3.17 3.88a2.66 2.5-20.6 0 1-.36.73c-3.87 5.52-9.42 9.51-13.59 15.11q-1.83 2.45-3.42 4.75c-1.71 2.47-3.72 4.2-6.13 6.44a3.44 3.33-8.9 0 0-.71.94c-.84 1.69-1.02 3.68-2.08 5.16q-1.29 1.81-3.22 2.31" vector-effect="non-scaling-stroke"/><path stroke="#b1d1f5" d="M274.06 436.94q-10.52 2.95-21.02 4.89-3.65.68-6.51 1.56c-4.24 1.32-8.09.53-12.84 1.26q-4.59.71-10.41-.27-1.15-.2-1.86.46a.33.32-60.2 0 0 .15.56q3.43.7 5.68.54 9-.62 17.99-1.13c5.7-.32 9.95-3.43 16.47-1.69a.33.33 0 0 0 .34-.52l-.21-.28a.53.52 63.7 0 1 .28-.83l9.56-2.45" vector-effect="non-scaling-stroke"/><path stroke="#878be5" d="M271.68 439.04q.2 1.52-1.08 2.06-3.05 1.28-3.92 2.81-1.76 3.08-4.08 5.77a6.89 6.5 80.2 0 0-.9 1.36q-1.63 3.32-4.51 5.93" vector-effect="non-scaling-stroke"/><path stroke="#78b7a7" d="m180.34 449.95 4.25-6.61" vector-effect="non-scaling-stroke"/><path stroke="#b1d1f5" d="m184.59 443.34 1.07-.04a.35.34 65.6 0 0 .22-.6q-.53-.48-1.38-.53" vector-effect="non-scaling-stroke"/><path stroke="#78b7a7" d="m184.5 442.17 1.54-2.72" vector-effect="non-scaling-stroke"/><path stroke="#b1d1f5" d="M186.04 439.45q.41.2.83.11.46-.1.56-.51.09-.35-.08-.79" vector-effect="non-scaling-stroke"/><path stroke="#78b7a7" d="M187.35 438.26q1.29-2.43 1.24-4.59" vector-effect="non-scaling-stroke"/><path stroke="#b1d1f5" d="m188.59 433.67 12.81 3.06a7.58 7.51-38.1 0 0 1.89.22l5.95-.05a.39.39 0 0 0 .34-.58q-.58-1.09-2.11-.94-4.61.44-7.99-1.75" vector-effect="non-scaling-stroke"/><path stroke="#78b7a7" d="M199.48 433.63c-.52-2.42.84-3.7 1.53-5.43q2.05-5.15 2.71-6.63a.8.46-30.1 0 1 .08-.14l2.32-3.42a.54.53 26.5 0 0-.28-.81q-2.92-1-2-3.08a.29.29 0 0 0-.31-.4q-1.64.28-3.27-.73a.32.32 0 0 1 .15-.6l2.63-.17a1.27 1.26-70.5 0 0 .87-.42q2.9-3.24 4.17-6.93" vector-effect="non-scaling-stroke"/><path stroke="#b1d1f5" d="M208.08 404.87q2.61.24 5.77 1.3 1.41.48 7.89.77a.85.83-78.8 0 0 .83-.57q.02-.07.09-.27a.89.89 0 0 1 .69-.59l20.99-3.71a.29.29 0 0 0 .13-.5l-.88-.76a.26.24-30.6 0 0-.24-.05l-9.16 2.4a2.46 2.27 37.1 0 1-.72.07l-12.51-.76" vector-effect="non-scaling-stroke"/><path stroke="#aebc9c" d="M220.96 402.2q.03-.06-.31-.2" vector-effect="non-scaling-stroke"/><path stroke="#78b7a7" d="M220.65 402q.42-.8 1.47-1.31a1.57 1.45-81.9 0 0 .53-.43l4.52-5.84a2.18 2.18 0 0 1 2.54-.68q1.67.67 5.06.62a.37.36-87.2 0 0 .35-.32l.03-.25a.09.09 0 0 0-.08-.1l-5.71-.69a.41.41 0 0 1-.27-.67l14.81-17.13a.19.17-45.3 0 0 .01-.23q-.41-.49-.43-1.05" vector-effect="non-scaling-stroke"/><path stroke="#b1d1f5" d="M363.18 268.29q2.85 1.56 4.3 4.42a1.69 1.64-84 0 0 .44.56l2.28 1.97a1.18 1.14 18.2 0 1 .39.74q.34 2.77 2.91 5.47a.65.65 0 0 0 1.12-.4c.17-2.57-2.27-5.79-4.57-9.57-1.44-2.36-3.59-4.55-5.3-6.95" vector-effect="non-scaling-stroke"/><path stroke="#c3cf58" d="M220.65 402q-1 .13-2.2-.23" vector-effect="non-scaling-stroke"/><path stroke="#78b7a7" d="M218.45 401.77q.9-3.36 3.25-6.04c1.16-1.33 1-2.8 1.93-3.88 2.19-2.54 3.69-6.03 5.6-8.85a.19.18 36.9 0 0-.04-.25l-.01-.01a.2.19-52.5 0 0-.27.04q-3.83 4.61-3.95 4.8-.55.91-4.39 4.35-5.19 4.66-6.37 6.04-.96 1.11-1.8 2.76a.62.62 0 0 0 .54.9l3.27.11" vector-effect="non-scaling-stroke"/><path stroke="#c3cf58" d="M216.21 401.74q-.67-.14-1.11.02a.27.27 0 0 0 0 .5q1.9.7 4.08.7" vector-effect="non-scaling-stroke"/><path stroke="#c6e5b1" d="M219.18 402.96q.32.83.21 1.42a.82.81 3.6 0 1-.75.65q-4.37.22-8.77-1.35a2.48 2.36 50.8 0 0-1.1-.14q-3.7.33-7.15-1.73a4.68 4.63 63.7 0 0-1.83-.63l-5.77-.69a.39.39 0 0 0-.2.74q1.6.67 5.41 1.82c2.55.77 5.84 1.09 8.85 1.82m-8.6 28.76-4.34-.42" vector-effect="non-scaling-stroke"/><path stroke="#78b7a7" d="m195.14 433.21 5.06-7.58a2.64 2.59-26.5 0 0 .44-1.27q.2-2.67 1.18-4.11a.78.77-54.5 0 0-.17-1.05c-1.47-1.12-3.01-1.87-4.39.02q-1.17 1.59-1.47 3.05a1.61 1.3 69.7 0 1-.13.39l-4.53 10.04" vector-effect="non-scaling-stroke"/><path stroke="#c6e5b1" d="m191.13 432.7-5.95-2.33a.74.67 25.3 0 0-.89.27l-.02.03a.66.61-61.7 0 0 .23.89l4.09 2.11m-1.24 4.59c-3.11.7-5.4-2.32-8.95-2.61a.64.64 0 0 0-.25 1.24l7.89 2.56m-1.54 2.72q-9.81-3.95-12.59-4.84-4.87-1.56-7.38-2.97c-1.53-.87-3.31-1.39-5.08-2.25a.43.43 0 0 0-.62.33l-.03.29a.3.3 0 0 0 .16.31l10.12 5.36a2.49 2.48-23.3 0 0 .48.19l15.03 4.75m-51.61-40.03q4.48 3.03 7.48 6.72a3.83 3.6-1.7 0 0 .87.77l6.54 4.07a1.4 1.29 1.5 0 1 .38.37q1.48 2.25 3.66 3.55a.26.26 0 0 0 .33-.38q-1.92-2.33-3.44-3.35a3.66 3.62 87.8 0 1-.79-.74q-4.27-5.38-11.06-8.97a2.41 2.11 79.8 0 1-.69-.55l-3.19-3.73" vector-effect="non-scaling-stroke"/><path stroke="#fceaa6" d="M219.18 402.96q.57-1.03 1.78-.76" vector-effect="non-scaling-stroke"/><path stroke="#d5b9ef" d="M271.68 439.04q1.67-.75 2.38-2.1m114.55-110.8q.2.6.7.45a.38.38 0 0 0 .25-.25q.22-.71.14-1.53" vector-effect="non-scaling-stroke"/><path stroke="#b1d1f5" d="M195.14 433.21q-1.96.18-4.01-.51" vector-effect="non-scaling-stroke"/><path stroke="#aebc9c" d="m218.45 401.77-2.24-.03" vector-effect="non-scaling-stroke"/><path stroke="#c3cf58" d="M183.94 330.76q-6.25 8.29-13.21 15.77c-5.48 5.89-9.78 11.34-14.46 17.23q-10.67 13.4-20.12 30.38-1.55 2.79-3.08 6.93" vector-effect="non-scaling-stroke"/><path stroke="#fceaa6" d="m133.07 401.07-3.55-3.22a.38.37-88.7 0 0-.54.52l4 4.94" vector-effect="non-scaling-stroke"/><path stroke="#c3cf58" d="M132.98 403.31q-.52 2.95 1.39 6.01a.2.2 0 0 1-.11.29q-.1.04-.32.06a.25.24-19.5 0 1-.22-.1c-1.8-2.4-3.12-.98-4.4.96q-1.22 1.84-3.07 2.9" vector-effect="non-scaling-stroke"/><path stroke="#d5b9ef" d="M193.3 65.84a.33.33 0 0 0 .07-.57q-.29-.19-.92-.1a.27.27 0 0 0-.09.51q.56.31.94.16m214.61 280.98q.01 2.73.45 2.73t.43-2.73q-.01-2.72-.45-2.72t-.43 2.72" vector-effect="non-scaling-stroke"/><path stroke="#f7a9a7" d="M258.51 50.69q.76.76 0 1.29a.92.92 0 0 0 .54 1.67l8.5-.08a1.35 1.28-53.6 0 0 .45-.08q3.36-1.21 7.4-.2a.39.38 5.6 0 0 .48-.39l-.04-.52a.46.46 0 0 0-.38-.43q-5.86-1-12.85-.43a2.39 2.36 63.2 0 1-1.79-.6q-1.56-1.4-2.1-1.03a.61.46-38.2 0 0-.21.8m-1.98 1.24a2.33.69-35.4 0 0-2.3.788 2.33.69-35.4 0 0-1.5 1.912 2.33.69-35.4 0 0 2.3-.788 2.33.69-35.4 0 0 1.5-1.912m-24.06 6.59q.06.22 4.21-.67.76-.16.61-.67-.15-.55-.88-.29-4.01 1.4-3.94 1.63" vector-effect="non-scaling-stroke"/><path stroke="#f37949" d="M294.279 61.021a.27.27 0 0 0-.367-.107l-13.104 7.175a.27.27 0 0 0-.108.366l.221.404a.27.27 0 0 0 .367.107l13.104-7.175a.27.27 0 0 0 .108-.366l-.221-.404" vector-effect="non-scaling-stroke"/><path stroke="#f7a9a7" d="M206.95 65.49q-4.52 1.47-9.58 4.13a5.28 4.45-63.9 0 1-.82.36q-12.31 4.27-22.8 11.5a.29.28-30.2 0 0-.1.36l.12.25a.53.52-31.8 0 0 .79.18c3.94-3.06 7.83-4.58 11.73-7.39q2.73-1.96 8.48-2.84a1.75 1.64-60.9 0 0 .5-.16L207.36 66a.26.26 0 0 0 .15-.2l-.01-.03a.44.44 0 0 0-.55-.28m-43.1 30.54q4.36-2.37 7.5-5.81a2.55 1.65-75.6 0 1 .27-.25l8.1-5.98a.3.3 0 0 0-.01-.49l-.42-.28a.04.03 38 0 0-.05 0l-8.57 6.05a3.18 2.96-4 0 0-.87.93q-2.2 3.61-6.12 5.51a.17.17 0 0 0-.08.23l.01.01a.18.18 0 0 0 .24.08" vector-effect="non-scaling-stroke"/><path stroke="#a2463c" d="M228.45 100.82c1.6-5.21-1.41-10.57-5.5-13.75q-7.79-6.06-15.88-.69c-4.91 3.26-8.15 7.04-8.19 13.13-.03 3.79 3.11 6.19 6.67 4.3 2.95-1.57 3.95-3.96 5.37-5.73a2.72 2.66-85.9 0 1 .71-.63c4.19-2.64 7.72-1.16 10.01 2.87 1.37 2.41 4.01 3.4 6.26 1.36a1.94 1.83-14.1 0 0 .55-.86" vector-effect="non-scaling-stroke"/><path stroke="#f7a9a7" d="M166.98 87.77q1.8-.96 2.01-1.33a.34.33 6.8 0 0-.39-.49q-.57.18-1.81 1.57a.16.16 0 0 0 .19.25" vector-effect="non-scaling-stroke"/><path stroke="#f7a9a7" d="m159.05 94.15.32.35a.15.15 0 0 0 .21.01l.11-.1a9.27.28-42.9 0 0 6.6-6.51l-.15-.16a9.27.28-42.9 0 0-6.98 6.1l-.11.1a.15.15 0 0 0 0 .21" vector-effect="non-scaling-stroke"/><path stroke="#f3944e" d="M135.724 111.327a3.56.54-63.4 0 0-2.077 2.941 3.56.54-63.4 0 0-1.111 3.425 3.56.54-63.4 0 0 2.077-2.941 3.56.54-63.4 0 0 1.111-3.425m25.458 39.16a4.21.72-53.7 0 0-3.072 2.967 4.21.72-53.7 0 0-1.912 3.819 4.21.72-53.7 0 0 3.072-2.967 4.21.72-53.7 0 0 1.912-3.819" vector-effect="non-scaling-stroke"/><path stroke="#f7a9a7" d="M120.506 162.4a4.5.71-84.7 0 0-1.123 4.414 4.5.71-84.7 0 0 .291 4.547 4.5.71-84.7 0 0 1.123-4.415 4.5.71-84.7 0 0-.291-4.547" vector-effect="non-scaling-stroke"/><path stroke="#f37949" d="M150.48 163.52q-4.91 3.96-6.86 6.16-.54.61-6.08 9.57a.23.23 0 0 0 .27.34q.94-.32 1.24-.86 2.69-4.84 4.4-7.28a6.39 6.13-5.9 0 1 .77-.91l6.86-6.61a.12.12 0 0 0 .02-.15l-.14-.22a.35.35 0 0 0-.48-.04" vector-effect="non-scaling-stroke"/><path stroke="#cd6397" d="M120.943 187.027a.66.43-109.2 0 0-.19.764.66.43-109.2 0 0 .624.482.66.43-109.2 0 0 .19-.764.66.43-109.2 0 0-.624-.482" vector-effect="non-scaling-stroke"/><path stroke="#a76b37" d="M285.9 99.62a1.26 1.26 0 0 0 1.14 1.01c4.31.34 6.34-1.69 9.22-4.32 2.86-2.61 7.07-3.02 10.03-.65a4.38 4.22-1 0 1 .57.53c1.98 2.21 2.88 6.8 7.14 6.73 3.9-.06 2.86-6.22 1.83-8.27q-2.22-4.36-7.01-8.01c-8.12-6.16-17.91-1.36-21.92 6.51q-1.65 3.26-1 6.47" vector-effect="non-scaling-stroke"/><path stroke="#f8b949" d="M360.33 89.65q.12-.16-2.65-2.44-.51-.41-.79-.02-.26.36.29.71 3.04 1.9 3.15 1.75m-61.116 9.76a2.41 1.08-167.8 0 0 2.128 1.566 2.41 1.08-167.8 0 0 2.584-.547 2.41 1.08-167.8 0 0-2.128-1.565 2.41 1.08-167.8 0 0-2.584.547" vector-effect="non-scaling-stroke"/><path stroke="#a76b37" d="M232.78 113.76c-1.97-.55-3.94.2-3.89 2.43.15 5.82 8.62 12.11 13.9 15.12 8.49 4.84 22.12 4.51 30.43-.44 4.06-2.42 17.66-11.88 13.19-17.01-1.19-1.36-3.96-.73-5.02.29q-4.51 4.37-5.44 5.08c-11.03 8.54-25.85 8.58-36.22-.96-1.92-1.77-4.56-3.85-6.95-4.51" vector-effect="non-scaling-stroke"/><path stroke="#f8b949" d="M282.05 137.786a1.73.8-156 0 0 1.255 1.435 1.73.8-156 0 0 1.905-.027 1.73.8-156 0 0-1.255-1.435 1.73.8-156 0 0-1.905.027m-66.835 1.957a3.94.6-44.2 0 0-3.243 2.317 3.94.6-44.2 0 0-2.407 3.177 3.94.6-44.2 0 0 3.243-2.317 3.94.6-44.2 0 0 2.407-3.177" vector-effect="non-scaling-stroke"/><path stroke="#fccfa2" d="M139.94 197.282a.33.33 0 0 0-.399-.241l-.058.014a.33.33 0 0 0-.241.4l1.777 7.183a.33.33 0 0 0 .4.241l.058-.014a.33.33 0 0 0 .241-.4l-1.777-7.183" vector-effect="non-scaling-stroke"/><path stroke="#fccfa2" d="M142.587 209.067a5 .43-117.3 0 0 1.91 4.64 5 .43-117.3 0 0 2.676 4.246 5 .43-117.3 0 0-1.91-4.64 5 .43-117.3 0 0-2.676-4.246m-8.227 10.023a2.34.92-130.5 0 0 .82 2.377 2.34.92-130.5 0 0 2.22 1.182 2.34.92-130.5 0 0-.82-2.376 2.34.92-130.5 0 0-2.22-1.182" vector-effect="non-scaling-stroke"/><path stroke="#fccfa2" d="M149.434 220.091a3.35.5-128.3 0 0 1.684 2.939 3.35.5-128.3 0 0 2.468 2.319 3.35.5-128.3 0 0-1.684-2.939 3.35.5-128.3 0 0-2.468-2.319m-7.149 20.779a.72.72 0 0 0-1.018-.02l-.03.027a.72.72 0 0 0-.02 1.018l5.038 5.254a.72.72 0 0 0 1.018.022l.03-.028a.72.72 0 0 0 .02-1.018l-5.038-5.254" vector-effect="non-scaling-stroke"/><path stroke="#c3cf58" d="M373.75 169.2c-.61 1.27-1.55 1.68-1.89 2.6a.41.41 0 0 0 .66.44q1.89-1.78 2.26-2.54.36-.77.58-3.36a.41.41 0 0 0-.76-.24c-.51.85-.24 1.84-.85 3.1" vector-effect="non-scaling-stroke"/><path stroke="#c6e5b1" d="M359.96 182.83q1.91-.34 3.69-.03a1.57 1.42-11.8 0 0 1.64-2.25q-.17-.23-1.27-.44a.55.48 35.9 0 0-.3.03l-4.06 1.78a.46.45 75.8 0 0-.28.48v.03a.5.5 0 0 0 .58.4m-12.24 2.92c2.09-.89 4.23 1.62 6.5-.28a.76.75-68.6 0 0-.58-1.33l-6.21.85a.21.2-9.2 0 0-.18.24l.05.29a.31.3 73.3 0 0 .42.23" vector-effect="non-scaling-stroke"/><path stroke="#fceaa6" d="m218.95 243.56-10.53-5.16a.05.05 0 0 0-.06.02l-.03.05a5.72 1.06 26.1 0 0 4.67 3.47l.35.16a5.72 1.06 26.1 0 0 5.6 1.57l.02-.05a.05.05 0 0 0-.02-.06m4.058 16.545a2.2.66-153.7 0 0 1.68 1.567 2.2.66-153.7 0 0 2.264.383 2.2.66-153.7 0 0-1.68-1.567 2.2.66-153.7 0 0-2.264-.383" vector-effect="non-scaling-stroke"/><path stroke="#c6e5b1" d="M324.283 242.132a.36.36 0 0 0-.19-.472l-9.327-3.979a.36.36 0 0 0-.473.19l-.016.037a.36.36 0 0 0 .19.472l9.327 3.979a.36.36 0 0 0 .473-.19l.016-.037" vector-effect="non-scaling-stroke"/><path stroke="#c6e5b1" d="M329.652 245.144a3.23.33-153.8 0 0 2.752 1.722 3.23.33-153.8 0 0 3.044 1.13 3.23.33-153.8 0 0-2.752-1.722 3.23.33-153.8 0 0-3.044-1.13m-29.759 7.74a5.83.38-158.3 0 0 5.277 2.51 5.83.38-158.3 0 0 5.557 1.802 5.83.38-158.3 0 0-5.276-2.51 5.83.38-158.3 0 0-5.558-1.802M278.13 272.89l20.49 12.37a.06.06 0 0 0 .09-.02 8.29 1.12 31.1 0 0-6.52-5.24l-6.41-3.87a8.29 1.12 31.1 0 0-7.67-3.32.06.06 0 0 0 .02.08" vector-effect="non-scaling-stroke"/><path stroke="#b1d1f5" d="M375.259 287.842a.27.27 0 0 0-.355-.141l-.239.102a.27.27 0 0 0-.142.355l6.138 14.32a.27.27 0 0 0 .355.141l.239-.102a.27.27 0 0 0 .142-.354l-6.138-14.32m9.161 16.787q.3-.19-.96-2.37-.36-.63-.72-.41t.02.83q1.36 2.13 1.66 1.95m.939 3.313a1.21.57-111.4 0 0-.09 1.335 1.21.57-111.4 0 0 .972.919 1.21.57-111.4 0 0 .09-1.335 1.21.57-111.4 0 0-.973-.919M337.702 319.4a7.8.4-100.1 0 0 .974 7.75 7.8.4-100.1 0 0 1.762 7.61 7.8.4-100.1 0 0-.974-7.75 7.8.4-100.1 0 0-1.762-7.61m-22.01 29.359a4.65.3-66.4 0 0-2.137 4.14 4.65.3-66.4 0 0-1.587 4.382 4.65.3-66.4 0 0 2.137-4.14 4.65.3-66.4 0 0 1.587-4.382" vector-effect="non-scaling-stroke"/><path stroke="#b1d1f5" d="M309.084 361.52a4 .49-56.9 0 0-2.594 3.082 4 .49-56.9 0 0-1.774 3.619 4 .49-56.9 0 0 2.594-3.083 4 .49-56.9 0 0 1.774-3.619m-56.392 15.111a1.51.75-6.1 0 0-1.582-.586 1.51.75-6.1 0 0-1.422.906 1.51.75-6.1 0 0 1.582.586 1.51.75-6.1 0 0 1.421-.906m50.949 11.712a2.4.56-29.4 0 0-2.365.69 2.4.56-29.4 0 0-1.816 1.666 2.4.56-29.4 0 0 2.366-.69 2.4.56-29.4 0 0 1.816-1.666m-33.731 1.428q-1.43-.04-3.83.6a.33.33 0 0 0 .1.64q1.07-.05 3.77-.98a.13.13 0 0 0-.04-.26" vector-effect="non-scaling-stroke"/><path stroke="#78b7a7" d="M215.379 408.838a.3.3 0 0 0-.037-.422l-.322-.27a.3.3 0 0 0-.423.037l-6.376 7.599a.3.3 0 0 0 .037.422l.322.27a.3.3 0 0 0 .422-.037l6.377-7.599" vector-effect="non-scaling-stroke"/><path stroke="#b1d1f5" d="M237.574 413.724a.27.27 0 0 0-.278-.262l-5.917.176a.27.27 0 0 0-.262.278l.009.28a.27.27 0 0 0 .278.262l5.917-.176a.27.27 0 0 0 .262-.278l-.009-.28m-43.584 27.072a.82.6-2.4 0 0-.845-.565.82.6-2.4 0 0-.794.633.82.6-2.4 0 0 .844.566.82.6-2.4 0 0 .794-.634m4.3-.238a1.16.87-36 0 0-1.45-.022 1.16.87-36 0 0-.428 1.386 1.16.87-36 0 0 1.45.022 1.16.87-36 0 0 .428-1.386m-.479 5.392-7.01-1.76a.1.1 0 0 0-.12.07v.03a3.43 1.07 14.1 0 0 3.06 1.87l.55.14a3.43 1.07 14.1 0 0 3.58-.2l.01-.03a.1.1 0 0 0-.07-.12m11.215-1.457a3.9.41-167.3 0 0 3.715 1.257 3.9.41-167.3 0 0 3.895.457 3.9.41-167.3 0 0-3.715-1.257 3.9.41-167.3 0 0-3.895-.457m-6.956 3.182a1.38.29-170.6 0 0 1.314.511 1.38.29-170.6 0 0 1.409-.06 1.38.29-170.6 0 0-1.315-.512 1.38.29-170.6 0 0-1.409.06" vector-effect="non-scaling-stroke"/><path stroke="#d5b9ef" d="M390.36 333.38q.39-.05.12-2.88-.09-.84-.58-.78-.5.06-.37.9.44 2.81.83 2.76m9.315-1.281a.27.27 0 0 0-.295-.244l-.258.025a.27.27 0 0 0-.244.294l1.547 16.367a.27.27 0 0 0 .295.244l.258-.025a.27.27 0 0 0 .244-.294l-1.547-16.367" vector-effect="non-scaling-stroke"/><path stroke="#d5b9ef" d="M400.465 351.171a2.76.43-80.1 0 0-.899 2.645 2.76.43-80.1 0 0-.05 2.793 2.76.43-80.1 0 0 .898-2.645 2.76.43-80.1 0 0 .05-2.793" vector-effect="non-scaling-stroke"/><path stroke="#878be5" d="m344.31 363.7-19.78 18.44.03.03a13.32 1.92-43 0 0 11.05-7.68l.29-.27a13.32 1.92-43 0 0 8.44-10.49l-.03-.03" vector-effect="non-scaling-stroke"/><path stroke="#d5b9ef" d="M396.808 374.61a.33.33 0 0 0-.182-.43l-.037-.016a.33.33 0 0 0-.43.182l-3.047 7.505a.33.33 0 0 0 .182.43l.037.015a.33.33 0 0 0 .43-.182l3.047-7.505m-16.503 25.103a3.95.55-54.3 0 0-2.752 2.887 3.95.55-54.3 0 0-1.858 3.529 3.95.55-54.3 0 0 2.752-2.887 3.95.55-54.3 0 0 1.858-3.529M360.75 423.02q2.18-1.14 2.67-1.89 3-4.55 7.55-7.84c.91-.65 1.79-1.97 1.27-3.14a.51.51 0 0 0-.87-.1l-4.74 6.37a9.76 8.42-32.3 0 1-.89 1.03l-5.24 5.23a.21.21 0 0 0 .25.34m-2.46-5.12-18.11 14.82a.07.07 0 0 0-.01.1l.35.43a11.55.46-39.3 0 0 9.23-6.96l.34-.28a11.55.46-39.3 0 0 8.65-7.67l-.35-.43a.07.07 0 0 0-.1-.01m-50.864 11.969a.39.39 0 0 0-.497-.24l-10.816 3.788a.39.39 0 0 0-.239.497l.02.057a.39.39 0 0 0 .497.24l10.816-3.788a.39.39 0 0 0 .239-.497l-.02-.057M285.28 455.58a.45.44-19.5 0 0 .54.25l11.04-3.5a2.27 1.84-65 0 0 .37-.18q3.6-2.29 7.36-3.01c3.67-.71 7.17-2.65 10.8-4.22q.79-.34 1.46-1.52a.38.38 0 0 0-.45-.55l-5.38 1.78a1.69 1.44-63.5 0 0-.33.14q-6.69 3.67-11.95 5.09c-4.94 1.33-8.21 3.4-13.16 5.07a.5.5 0 0 0-.31.63l.01.02" vector-effect="non-scaling-stroke"/><path stroke="#878be5" d="M284.29 443.24q-5.42 1.27-6.78 1.91-1.14.54-1.72 1.43a.23.23 0 0 0 .29.34c2.21-1.07 2.83-1.61 5-1.9q2.2-.29 3.46-1.24a.3.3 0 0 0-.25-.54" vector-effect="non-scaling-stroke"/><path stroke="#d5b9ef" d="M289.046 458.268a1.67.4-25.6 0 0-1.679.361 1.67.4-25.6 0 0-1.333 1.083 1.67.4-25.6 0 0 1.679-.361 1.67.4-25.6 0 0 1.333-1.083m-23.376 4.662.22 1.14a.22.22 0 0 0 .26.17l13.85-2.67a2.23.8-10.9 0 0 2.04-1.21 2.23.8-10.9 0 0-2.34-.36l-13.86 2.67a.22.22 0 0 0-.17.26" vector-effect="non-scaling-stroke"/><path stroke="#fceaa6" d="M156.02 324.35a5.48 1.15-18.4 0 0-5.563.639 5.48 1.15-18.4 0 0-4.837 2.82 5.48 1.15-18.4 0 0 5.563-.638 5.48 1.15-18.4 0 0 4.837-2.82m-50.403 43.439a2.49.74-109.3 0 0 .125 2.595 2.49.74-109.3 0 0 1.521 2.105 2.49.74-109.3 0 0-.125-2.595 2.49.74-109.3 0 0-1.521-2.105" vector-effect="non-scaling-stroke"/><path stroke="#c3cf58" d="m187.28 334.35-.86-.72a.26.26 0 0 0-.37.04l-.12.14a25.01.8-50.1 0 0-15.43 19.7l.03.03a25.01.8-50.1 0 0 16.66-18.67l.12-.15a.26.26 0 0 0-.03-.37" vector-effect="non-scaling-stroke"/><path stroke="#c6e5b1" d="M177.007 364.069a2.07.52-151.7 0 0 1.576 1.439 2.07.52-151.7 0 0 2.07.523 2.07.52-151.7 0 0-1.576-1.439 2.07.52-151.7 0 0-2.07-.523m22.273 35.524a.57.37-165 0 0 .454.504.57.37-165 0 0 .647-.21.57.37-165 0 0-.455-.504.57.37-165 0 0-.647.21m12.928 1.833a2.22.37-3.2 0 0-2.238-.245 2.22.37-3.2 0 0-2.195.493 2.22.37-3.2 0 0 2.237.245 2.22.37-3.2 0 0 2.196-.493M176.06 413.24c-2.56-2.29-5.9-5.17-9.37-5.47-2.67-.23-4.1-2.54-7.05-2.62a.33.33 0 0 0-.24.57q4.15 4.02 10.72 4.44a3.07 3.02 61.4 0 1 1.26.38c1.36.8 2.82 2.4 4.52 2.97a.16.16 0 0 0 .16-.27m-13.17 2.403a3.54.54-149.5 0 0 2.776 2.262 3.54.54-149.5 0 0 3.324 1.332 3.54.54-149.5 0 0-2.776-2.262 3.54.54-149.5 0 0-3.324-1.332m-8.326 4.166a.74.35-150.8 0 0 .475.666.74.35-150.8 0 0 .817.056.74.35-150.8 0 0-.475-.666.74.35-150.8 0 0-.817-.056" vector-effect="non-scaling-stroke"/><path stroke="#c6e5b1" d="M172.97 421.01q.59.61.98.79 2.3 1.02 12.91 5.71a5.61 5.47 59.7 0 0 1.45.4q3.19.42 1.81.82a.24.24 0 0 1-.3-.26l.1-.8a.37.37 0 0 0-.27-.39q-5.88-1.51-12.05-5.58-2.21-1.45-4.37-1.34a.39.38-23.5 0 0-.26.65m-10 3.12-3.81-2.2a.46.46 0 0 0-.65.6l.33.68a.29.27-1.8 0 0 .17.15l3.71 1.32a.3.3 0 0 0 .25-.55m-14.117 2.4a3.75.62-148.5 0 0 2.873 2.489 3.75.62-148.5 0 0 3.521 1.43 3.75.62-148.5 0 0-2.873-2.488 3.75.62-148.5 0 0-3.521-1.43m32.517 6.889c-3.18-.88-8.74-2.21-10.69-4.48q-1.08-1.25-2.1-2.03a.3.3 0 0 0-.43.08l-.03.04a.3.29 30.3 0 0 .11.41q2.21 1.25 3.7 3.36a2.04 1.96-6.4 0 0 .97.74l8.24 2.92a.31.31 0 0 0 .4-.19l.11-.31a.42.42 0 0 0-.28-.54" vector-effect="non-scaling-stroke"/></g><path fill="#fff" d="M125.2 208.1q.25.09.44.22a.6.6 0 0 1 .13.89l-.97 1.12a.87.86-40.2 0 0-.09 1.02c1.06 1.76 2.47 1.75 3.22 3.68q1.12 2.87 3.81 6.47a.28.27-44.2 0 1-.01.34l-.21.24a.45.44-43.9 0 1-.68-.01q-.89-1.1-1.75-.88a.46.46 0 0 0-.25.72q2.12 2.79 1.99 5.59a1.2 1.15-62.7 0 0 .22.75l3.81 5.08a.53.53 0 0 1-.42.84q-.8.01-1.04.37a1.32 1.31-44.8 0 0-.01 1.42l5.17 8.19a.64.64 0 0 0 .21.21q5.79 3.67 10.32 9.29 1.34 1.67 6.16 4.75l3.82 3.18a.14.14 0 0 0 .21-.03h.01a.22.22 0 0 0-.07-.31q-1.63-.95-2.22-2.8a.89.89 0 0 1 1.29-1.04q2.39 1.34 6.17 4.36c4.55 3.63 10.03 6.36 15.29 7a1.6 1.6 0 0 1 .46.13l15.95 6.85a1.4 1.19 71.3 0 1 .32.19q.89.65 1.64 2.2a.87.86-37.6 0 0 1.43.18l1.16-1.34a.89.88 28.3 0 1 .92-.27c5.98 1.82 12.53 5.11 21.16 9.04q1.94.89 8.29 1.54 2.69 1.82 5.65 2.99 6.16 2.44 13.06 4.95a7.81 7.65 70 0 1 1.23.59q4.28 2.59 9.06 2.56c4.78-.02 7.14 2.75 11.23 4.57q2.36 1.04 3.93 2.38a2.44 2.41 71.2 0 0 1.1.55l6.96 1.46a2 2 0 0 1 .6.24l9.87 5.9 7.64 10.24a.94.49 27.5 0 1 .07.1q3.24 6.05 4.09 12.69.15 1.09-.53 5.63a6.7 6.63 42.4 0 0 .13 2.58c.81 3.21-.39 5.35-1.82 9.55-1.17 3.42-3.08 5.48-5.6 7.5q-2.1 1.68-10.61 7.52a7.98 7.72 2.8 0 0-1.39 1.22q-1.38 1.52-1.95 2a3 2.61-47.7 0 1-3.23.38q-1.16-.7-2.26-.4-4.75 1.32-7.02 2.29a1.56 1.53 41.1 0 1-1.05.06q-.31-.09-.32-.09a2 1.99 28.1 0 0-.7.21l-3.84 1.97a.74.74 0 0 1-.83-1.22l1.69-1.48a.54.54 0 0 0-.37-.95c-2.6.04-4.64 1.61-7.15 1.51q-4.64-.19-9.31.06a6.43 6.36 48.5 0 1-1.51-.1l-4.42-.82-9.98-4.18a12.39 11.6 60.3 0 0-2.17-.67c-5.1-1.07-9.82-2.62-13.29-6.68a7.49 7 1.1 0 0-1-.97q-6.39-5.17-7.03-5.95-3.69-4.42-7.5-7.47-.93-.74-4.63-6.32a.89.88-18.3 0 0-.79-.39l-.31.02a.38.38 0 0 0-.32.54l.97 1.99a.71.71 0 0 1-.88.98l-.96-.34a.66.65-9.7 0 1-.27-.19l-6.3-7.83a1.59 1.55-75.3 0 1-.21-.37q-1.65-4.35-4.87-5.33-2.89-2.86-5.37-5.96a3.63 3.54 63.8 0 0-3.61-1.28c-3.26.77-6.49-1.84-9.58-2.53q-2.76-.61-4.56-1.38c-5.98-2.56-16.2.22-21.72 2.98a1.2 1.2 0 0 1-.36.12l-3.51.62a.96.92-64.5 0 0-.32.12l-5.61 3.58a.08.08 0 0 0-.01.13l.36.31a.36.36 0 0 0 .43.04l2.19-1.39a.85.84 81.1 0 1 1.27.93q-1.11 4.25-5.78 7.39a1.37 1.36-55.9 0 1-1.02.2l-1.17-.25a1.05 1.05 0 0 0-1.1.46l-4.92 7.53a.62.62 0 0 1-1.06-.05l-.07-.15a1.12 1.09 46.9 0 1 .02-.94l4.19-8.37a2.23 1.97-14.9 0 1 .24-.36l2.32-2.8a.53.53 0 0 0-.08-.76l-.02-.02a.6.6 0 0 0-.77.04q-1.62 1.48-4.46 4.45-.92.96-.52 2.3.63 2.17-1.14 4.1c-2.6 2.83-4.6 6.47-4.93 10.32q-.3 3.52-.7 4.49a.84.84 0 0 1-1.54.03q-.97-2.12-1.05-3.69a.81.81 0 0 0-1.57-.23l-.41 1.15a.94.94 0 0 1-1.82-.15l-.14-.81a.45.45 0 0 0-.78-.22q-2.82 3.11-1.68 7.2 1.37 4.91 1.63 6.72a.77.77 0 0 1-1.22.72c-2.61-1.93-3.43-5.14-4.72-7.92a.4.39 65 0 0-.53-.2l-.02.01a.28.28 0 0 0-.1.31l2.12 7.38a1.08 1.04 48.7 0 1-.03.68c-1.01 2.59-1.4 4.63.1 7.42q4.24 7.89 10.24 13.91c2.32 2.32 2.83 6.27 4.14 8.85a1.63 1.54-80.3 0 0 .22.33l9.39 10.68a.86.86 0 0 1-.59 1.42l-1.03.06a.44.44 0 0 0-.32.7l3.39 4.45q5.52 6.24 9.51 9.05 5.24 3.69 12.61 8.95c1.86 1.33 3.81 2.27 6.05 3.66a6.01 5.44-15.8 0 0 .93.46q5.88 2.23 10.44 4.87c3.21 1.85 6.37 2.41 9.45 4.61a.37.37 0 0 1-.27.67c-6.57-1.02-13.65-5.26-18.68-8.56a.23.23 0 0 0-.34.27q.34.95 1.36 1.64 2.27 1.52 5.8 3.26 8.3 4.1 17.23 7.64 6.77 2.94 14.33 3.83a7.7 7.5 58 0 1 1.83.45q6.73 2.57 14.32 2.85a3.98 3.84 35.1 0 0 1.41-.22c4.21-1.48 8.2-.32 12.26-.12q5.32.25 6.03.43c2.7.67 5.18 2.48 8.86 2.32a.89.88 10.5 0 0 .78-.53l.43-1.02a.94.94 0 0 1 .85-.57l15.75-.4c2.64.14 8.03.3 10.04-1.62q1.53-1.46 3.93-.6a2.68 2.67-44.2 0 0 1.77.02c2.99-.99 5.64-2.34 9.11-2.69a3.51 3.45-56.8 0 0 .82-.18l12.16-4.13a.42.42 0 0 1 .36.76l-1.69 1.02a2.89 2.3-62.7 0 1-.47.21q-9.45 3.07-10.5 3.47c-3.06 1.17-5.94 1.35-9.44 2.43a.22.21 77.8 0 0-.15.24l.07.36a.48.47 83.9 0 0 .49.4l5.23-.33a.69.69 0 0 1 .37 1.3q-.77.41-1.64.52-4.71.58-7.46 1.93-1.67.82-3.69.05c-3.5-1.34-8.47.06-12.4 1.3a.76.76 0 0 0-.5.91l.21.81a.76.75-10.6 0 1-.65.94l-5.73.62a.34.33 9.3 0 0-.27.19l.01.01a.18.18 0 0 0 .19.16l4.95-.27a1.09.96-55.8 0 0 .39-.1q4.01-1.83 7.81-.43a.24.24 0 0 1-.02.45q-3.44.9-4.04 1.22-.58.31-.6.78-.02.57.52.58c8.47.26 13.4.66 21.12-2.13a2.33 2.26-57.2 0 1 .47-.11l6.06-.75a1.56 1.21-52 0 0 .28-.07q4.72-2.03 9.03-2.95a9.97 9.58-62.4 0 0 2.09-.7c4.4-2.01 9.21-2.71 13.47-4.55q8.85-3.81 17.73-7.91 1.72-.79 5.22-1.92a.14.14 0 0 1 .13.25l-4.86 3.64a.34.33-35.2 0 0-.08.45l.21.32a.47.46 57.7 0 0 .64.15l7.36-4.69a.67.67 0 0 1 1.03.53l.04.64a.72.72 0 0 0 1.07.58c1.87-1.05 4.39-3.37 6.56-4.62q11.23-6.43 13.7-8.05c5.36-3.51 12.55-9.22 17.32-14.75 3.32-3.83 7.94-8.08 10.93-12.37 3.53-5.07 6.48-8.06 9.18-13.33q1.73-3.38 4.02-7.14a4.31 4.17-22.8 0 0 .5-1.17q2.12-8 6.23-15.5 1.31-2.39 1.34-8.16a.13.04-61.8 0 1 .01-.05l1.79-8.49a.92.92 0 0 0-.77-1.1l-.04-.01a.8.8 0 0 0-.77.78q-.09 4.14-1.52 8.78a.27.26-34.9 0 1-.52-.09c.13-2.11.96-4.67 1.06-7.08q.33-8.56.25-13.72a3.76 3.65 36.6 0 0-.17-1.04q-.71-2.2-1.1-7.11a.22.22 0 0 1 .39-.16q.6.66.68 1.62.32 3.9.78 5.13a.37.36 54.9 0 0 .62.11l.35-.4a.9.88 59.6 0 0 .19-.76l-1.31-5.87a1.48 1.43 19 0 0-.31-.61l-1.64-1.86a1.47 1.44 21.9 0 1-.34-.78q-.77-7.09-3.23-13.54-.91-3.53-1.98-7.52-.29-1.06.17-1.85a.49.49 0 0 1 .87.04c2.76 5.92 4.03 11.87 6.37 20.6a1.42 1.41 4.1 0 0 .8.92l.37.16a.49.49 0 0 0 .68-.53q-1.22-7.45-4.07-14.63-.33-.83-.36-4.82a4.78 4.61-52.7 0 0-.13-1.1c-.42-1.78-1.75-5.75-2.85-7.92q-2.88-5.65-4.64-11.66a13.01 12.49-68.1 0 0-.88-2.19q-4.71-9.15-6.24-11.87-.8-1.44-3.61-3.07a7.85 7.82 83.3 0 1-1.84-1.46q-2.11-2.24-3.09-2.94-.46-.32-1.06-.32a.21.21 0 0 0-.12.39q.51.35.69 1.13a.33.33 0 0 1-.57.29l-7.96-9.26-8.44-6.47a1.28 1.14 85.4 0 1-.25-.24l-4.18-4.9a.74.73 58.6 0 0-.85-.21q-.83.34-.95.48a2.3 2.14 41.5 0 1-3.27.08q-2.57-2.44-4.35-3.9a3.08 2.96 75.3 0 0-.67-.41l-10.76-4.79a2.36 2.3-29.1 0 0-.67-.18c-3.99-.46-7.02-2.39-10.62-4.49q-1.13-.66-2.68-1.18-13.29-4.48-26.39-8.69l-18.62-6.38a5.99 5.74 57.5 0 0-1.06-.26l-4.94-.8a3.35 3.3-22.7 0 1-1.37-.55c-2.82-1.97-5.16-2.25-7.89-4.19q-3.7-2.63-8.64-2.54a4.16 4.12-29.6 0 1-2.22-.6c-5.55-3.39-12.75-5.3-18.47-9.13q-4.37-2.92-8.22-5.94c-5.19-2.79-8.13-9.28-8.82-14.89-.63-5.08-.18-15.3 3.99-19.16q3.52-3.27 6.82-4.8c3.42-1.59 5.17-4.05 8.41-6.74q1.99-1.66 4.34-1.68a.27.27 0 0 1 .2.44l-2.62 3.03a.23.22-73.6 0 0 .2.37q3.98-.49 6.51-3.23c1.15-1.25 3.78-1.77 5.67-.86 3.21 1.54 4.83-1.15 7.8-1.22 3.81-.08 6.59 1.74 10.53 1.64a.66.65 2.5 0 0 .64-.58q.1-1.01.35-1.52a.59.59 0 0 1 .84-.24q5.73 3.55 11.2 5.01l3.38 1.85a8.28 7.65-8.6 0 1 1.18.8q3.25 2.7 7.28 5.67c2.85 2.1 4.96 5.63 7.8 8.39 1.8 1.75 4.49 6.25 7.35 3.48a1.55 1.54 44.3 0 1 2.13-.02l12.1 11.26a3.19 3.15 72.6 0 0 1.41.75q6.67 1.57 13.46 2.67 2.19.36 5.06-.44 1.42.87 1.82 1.66a.42.41-18.5 0 1-.3.59l-4.48.79a.62.61 38.1 0 0 .15 1.22l9.15-.57a.24.16 38.4 0 1 .11.01q2.23.66 2.74.56 1.79-.34 12.48-3.25c4.88-1.32 9.45-3.34 12.51-6.09q7.19-6.47 11.59-15.68 1.37-2.86.46-7.44l.4-5.98a1.48 1.47-14.2 0 1 .69-1.15q.62-.38.99-.86a1.56 1.49-26.9 0 0 .33-.94v-2.96a2.34 2.13 42.3 0 0-.04-.42l-1.85-10.63a1.47 1.12 37.4 0 0-.06-.22c-3.59-8.97-6.13-16.49-11.57-22.37a2.19 2.13 16.5 0 1-.49-.87c-1.06-3.88-4.17-6.74-6.99-9.44q-4-4.45-8.62-7.85-.91-.67-1.03-1.2a.25.25 0 0 1 .37-.28q4.64 2.84 6.16 4.46 2.11 2.24 4.25 4.58l4.91 5.78a1 1 0 0 0 .13.13q4.78 3.8 5.84 6.01 3.55 7.47 6.96 13.13c1.2 2 1.44 4.43 1.86 6.83a.81.8-3.9 0 0 .77.67q1.88.05 2.24 2.99.98 8.03 2.22 14.4a.42.42 0 0 0 .81.03c.7-2.66.31-4.36-.21-7.93q-1.85-12.58-6.64-24.81a.5.49-14.9 0 1 .39-.67h.03a.91.9 70.4 0 1 .91.44q5.07 8.76 7.5 17.04a.13.13 0 0 0 .15.09l.26-.04a.42.41-11.9 0 0 .33-.5q-2.72-11.09-5.97-17.14-2.11-3.93-4.66-8.1-3.25-5.29-3.76-5.87-3.75-4.32-4.73-5.16c-4.17-3.62-7.52-7.87-11.97-10.87a7.75 7.64 3.3 0 1-2.45-2.71c-1.43-2.64-4.38-4.57-7.1-4.72a.48.48 0 0 0-.51.44v.01a.39.38 8.9 0 0 .31.42q2.37.49 3.31 2.45a.55.55 0 0 1-.89.62q-.62-.63-1.61-1.13L360 79.71a1.84 1.78 87.3 0 0-.65-.61q-6.93-3.84-12.63-6.78c-4.48-2.31-9.44-3.88-13.38-6.01q-2.56-1.38-6.12-2.15a8.77 8.75-24.8 0 1-2.1-.77q-6.76-3.55-14.35-4.84l-10.22-3.39a.34.34 0 0 1-.07-.61q2.54-1.61 5.55-.63.03.02 7.74 2.09a.22.22 0 0 0 .27-.14v-.01a.21.2 22.4 0 0-.11-.25c-3.62-1.62-6.76-1.65-10.06-3.11q-2.25-1-5.34-.91a.79.78 9.1 0 1-.77-1.05l.35-.98a.36.36 0 0 0-.3-.47l-15.75-1.9a.5.5 0 0 0-.14 0q-3.14.58-5.99.62c-3.11.05-6.22 1.44-9.44 1.66a.7.7 0 0 1-.74-.66l-.14-2.17a1.39 1.39 0 0 0-1.43-1.3q-7.32.23-17.97 1.91c-6.24.99-13.84 4.64-17.57 6.42a8.51 8.32 28.7 0 1-2.72.76l-1.66.17a6.87 6.55 30.4 0 0-1.66.39q-9.26 3.51-14.06 5.4c-3.84 1.52-7.23 3.59-10.27 4.43q-2.35.65-7.48 3.7c-3.47 2.05-9.52 4.08-13.44 6.92-2.83 2.04-4.72 4-6.63 4.09a.39.39 0 0 1-.23-.72l16.39-10.43a.05.05 0 0 0 .01-.05l-.15-.22a.27.27 0 0 0-.36-.1c-5.31 2.71-9.72 5.3-14.26 7.52-5.02 2.46-7.36 4.73-12.37 7.55-3.71 2.09-5.46 5.73-9 7.95a4.09 3.74-82.3 0 0-.85.71l-11.29 12.5a8.74 8.43-10.9 0 0-1.16 1.65q-2.01 3.72-5.15 8.58-1.11 1.71-.3 3.63a1.29 1.24 43.8 0 1 .04.92q-.51 1.54-1.29 2.15c-1.91 1.49-4.21 5.58-3.67 7.71a1.43 1.41-42.7 0 1-.04.87l-4.46 12.58a.13.13 0 0 1-.25-.02l-.12-.68a.61.61 0 0 0-1.11-.24q-3.1 4.61-2.71 9.56a1.21 1.21 0 0 1-.45 1.04c-1.16.94-.79 2.48-1.41 3.83q-1.3 2.81-2.17 5.52a1.63 1.53-43.2 0 0-.05.8l.35 1.98a.55.55 0 0 1-.04.29q-2.33 5.22-1.73 11.47a.25.25 0 0 0 .47.08q.74-1.6.67-4.89a.41.41 0 0 1 .81-.1q.54 2.49.56 5.04a1.46 1.41-26 0 1-.35.96l-1.22 1.41a1.14 1.11-19.3 0 0-.25.5q-.93 4.18-.29 8.63a.04.04 0 0 0 .04.04l.46-.03a.46.46 0 0 0 .43-.49l-.3-4.8a.48.48 0 0 1 .95-.08l.77 7.65a2.66 2.65 52.5 0 1-.16 1.24l-.55 1.45a2.07 2.07 0 0 0-.03 1.41q.07.25 1.81 7.52a.96.9 63.2 0 0 1.5.55q.55-.49 1.43-.1a.69.67 88.4 0 1 .34.33l1.99 4.08a1.04 1.04 0 0 0 .5.5zm68.1-142.26a.33.33 0 0 0 .07-.57q-.29-.19-.92-.1a.27.27 0 0 0-.09.51q.56.31.94.16m214.61 280.98q.01 2.73.45 2.73t.43-2.73q-.01-2.72-.45-2.72t-.43 2.72"/><path fill="#ee534e" d="M310.77 58.55q-.72 1.12-2.08 2.17-7.67-2.41-10.04-2.89-.95-.19-1.4.4a.38.38 0 0 0 .19.59l9.43 3.02q-3.13 2.81-8.5 3.92a6.36 6.35-68.9 0 0-2.43 1.08q-5.7 4.21-12.78 6.52c-2.79.91-4.64 3.62-7.15 5.08a1.27 1.24-56.3 0 1-.79.17l-1.22-.15a1.07 1.06 29.3 0 0-.77.21l-9.18 6.87a.42.42 0 0 1-.57-.62l1.9-2.2a.34.33 2.6 0 0-.45-.49c-3.59 2.57-6.06 4.83-9.43 6.75q-2.27 1.29-11.65 7.34-5.69 3.67-11.35 7.77-10.5 7.62-22.77 16.15-3.83 2.67-7.82 5.14-2.77 1.71-9.7 8.97a3.6 3.34-82.1 0 1-.71.58q-3.5 2.19-6.01 4.54-6.15 5.78-8.33 8.35c-1.86 2.2-3.59 3.09-6.1 5.23q-2.1 1.8-4.32 4.21-3.63 3.92-8.57 6.63-.93.51-2.83 4.13a1.26 1.2 82.2 0 1-.23.32l-6.59 6.73a.29.29 0 0 1-.43-.03l-.15-.21a.59.58-43.7 0 1 .02-.73l4.08-4.93a.94.49-27.5 0 0 .07-.1l5.1-8.35a1.31 1.3-47.6 0 0-.06-1.47l-.37-.48a.37.36 35.9 0 0-.64.1c-.99 2.91-2.36 4.27-3.65 7.27q-.69 1.62-2.41 3.21-3.38 3.15-6.58 6.88c-.54.65-.74 1.63-.46 2.27a1.23 1.23 0 0 1-.2 1.31l-3.76 4.22a1.36 1.35 24.7 0 1-1.2.44q-.05 0-.12-.03a.66.65-76.1 0 0-.87.53q-.35 2.65-.94 3.49-.86 1.24-6.8 7.81a4.71 4.7 79.5 0 0-.76 1.11q-.38.76-.75 1.86-.22.64-.64.6-.34-.03-.74-.55l-2.21-4.04a.36.36 0 0 0-.67.24q.5 2.76 2.2 5.27.44 1.53-1.12 3.08a1.06 1.05 49.5 0 0-.1 1.38l.17.22a1.08 1.08 0 0 0 1.58.16q2.46-2.21 3.56-2.77a.42.42 0 0 1 .51.64l-3.38 3.92a1.75 1.7-75.7 0 1-.85.52l-.75.19-2.73-1.32a1.04 1.04 0 0 1-.5-.5l-1.99-4.08a.69.67 88.4 0 0-.34-.33q-.88-.39-1.43.1a.96.9 63.2 0 1-1.5-.55q-1.74-7.27-1.81-7.52a2.07 2.07 0 0 1 .03-1.41l.55-1.45a2.66 2.65 52.5 0 0 .16-1.24l-.77-7.65a.48.48 0 0 0-.95.08l.3 4.8a.46.46 0 0 1-.43.49l-.46.03a.04.04 0 0 1-.04-.04q-.64-4.45.29-8.63a1.14 1.11-19.3 0 1 .25-.5l1.22-1.41a1.46 1.41-26 0 0 .35-.96q-.02-2.55-.56-5.04a.41.41 0 0 0-.81.1q.07 3.29-.67 4.89a.25.25 0 0 1-.47-.08q-.6-6.25 1.73-11.47a.55.55 0 0 0 .04-.29l-.35-1.98a1.63 1.53-43.2 0 1 .05-.8q.87-2.71 2.17-5.52c.62-1.35.25-2.89 1.41-3.83a1.21 1.21 0 0 0 .45-1.04q-.39-4.95 2.71-9.56a.61.61 0 0 1 1.11.24l.12.68a.13.13 0 0 0 .25.02l4.46-12.58a1.43 1.41-42.7 0 0 .04-.87c-.54-2.13 1.76-6.22 3.67-7.71q.78-.61 1.29-2.15a1.29 1.24 43.8 0 0-.04-.92q-.81-1.92.3-3.63 3.14-4.86 5.15-8.58a8.74 8.43-10.9 0 1 1.16-1.65l11.29-12.5a4.09 3.74-82.3 0 1 .85-.71c3.54-2.22 5.29-5.86 9-7.95 5.01-2.82 7.35-5.09 12.37-7.55 4.54-2.22 8.95-4.81 14.26-7.52a.27.27 0 0 1 .36.1l.15.22a.05.05 0 0 1-.01.05l-16.39 10.43a.39.39 0 0 0 .23.72c1.91-.09 3.8-2.05 6.63-4.09 3.92-2.84 9.97-4.87 13.44-6.92q5.13-3.05 7.48-3.7c3.04-.84 6.43-2.91 10.27-4.43q4.8-1.89 14.06-5.4a6.87 6.55 30.4 0 1 1.66-.39l1.66-.17a8.51 8.32 28.7 0 0 2.72-.76c3.73-1.78 11.33-5.43 17.57-6.42q10.65-1.68 17.97-1.91a1.39 1.39 0 0 1 1.43 1.3l.14 2.17a.7.7 0 0 0 .74.66c3.22-.22 6.33-1.61 9.44-1.66q2.85-.04 5.99-.62a.5.5 0 0 1 .14 0l15.75 1.9a.36.36 0 0 1 .3.47l-.35.98a.79.78 9.1 0 0 .77 1.05q3.09-.09 5.34.91c3.3 1.46 6.44 1.49 10.06 3.11a.21.2 22.4 0 1 .11.25v.01a.22.22 0 0 1-.27.14q-7.71-2.07-7.74-2.09-3.01-.98-5.55.63a.34.34 0 0 0 .07.61zm-52.26-7.86q.76.76 0 1.29a.92.92 0 0 0 .54 1.67l8.5-.08a1.35 1.28-53.6 0 0 .45-.08q3.36-1.21 7.4-.2a.39.38 5.6 0 0 .48-.39l-.04-.52a.46.46 0 0 0-.38-.43q-5.86-1-12.85-.43a2.39 2.36 63.2 0 1-1.79-.6q-1.56-1.4-2.1-1.03a.61.46-38.2 0 0-.21.8m-1.98 1.24a2.33.69-35.4 0 0-2.3.788 2.33.69-35.4 0 0-1.5 1.912 2.33.69-35.4 0 0 2.3-.788 2.33.69-35.4 0 0 1.5-1.912m-24.06 6.59q.06.22 4.21-.67.76-.16.61-.67-.15-.55-.88-.29-4.01 1.4-3.94 1.63m61.809 2.501a.27.27 0 0 0-.367-.107l-13.104 7.175a.27.27 0 0 0-.108.366l.221.404a.27.27 0 0 0 .367.107l13.104-7.175a.27.27 0 0 0 .108-.366zM206.95 65.49q-4.52 1.47-9.58 4.13a5.28 4.45-63.9 0 1-.82.36q-12.31 4.27-22.8 11.5a.29.28-30.2 0 0-.1.36l.12.25a.53.52-31.8 0 0 .79.18c3.94-3.06 7.83-4.58 11.73-7.39q2.73-1.96 8.48-2.84a1.75 1.64-60.9 0 0 .5-.16L207.36 66a.26.26 0 0 0 .15-.2l-.01-.03a.44.44 0 0 0-.55-.28m-43.1 30.54q4.36-2.37 7.5-5.81a2.55 1.65-75.6 0 1 .27-.25l8.1-5.98a.3.3 0 0 0-.01-.49l-.42-.28a.04.03 38 0 0-.05 0l-8.57 6.05a3.18 2.96-4 0 0-.87.93q-2.2 3.61-6.12 5.51a.17.17 0 0 0-.08.23l.01.01a.18.18 0 0 0 .24.08m64.6 4.79c1.6-5.21-1.41-10.57-5.5-13.75q-7.79-6.06-15.88-.69c-4.91 3.26-8.15 7.04-8.19 13.13-.03 3.79 3.11 6.19 6.67 4.3 2.95-1.57 3.95-3.96 5.37-5.73a2.72 2.66-85.9 0 1 .71-.63c4.19-2.64 7.72-1.16 10.01 2.87 1.37 2.41 4.01 3.4 6.26 1.36a1.94 1.83-14.1 0 0 .55-.86m-61.47-13.05q1.8-.96 2.01-1.33a.34.33 6.8 0 0-.39-.49q-.57.18-1.81 1.57a.16.16 0 0 0 .19.25m-7.93 6.38.32.35a.15.15 0 0 0 .21.01l.11-.1a9.27.28-42.9 0 0 6.6-6.51l-.15-.16a9.27.28-42.9 0 0-6.98 6.1l-.11.1a.15.15 0 0 0 0 .21m-23.326 17.177a3.56.54-63.4 0 0-2.077 2.941 3.56.54-63.4 0 0-1.111 3.425 3.56.54-63.4 0 0 2.077-2.941 3.56.54-63.4 0 0 1.111-3.425m25.458 39.16a4.21.72-53.7 0 0-3.072 2.967 4.21.72-53.7 0 0-1.912 3.819 4.21.72-53.7 0 0 3.072-2.967 4.21.72-53.7 0 0 1.912-3.819m-40.676 11.912a4.5.71-84.7 0 0-1.123 4.415 4.5.71-84.7 0 0 .291 4.547 4.5.71-84.7 0 0 1.123-4.415 4.5.71-84.7 0 0-.291-4.547m29.974 1.121q-4.91 3.96-6.86 6.16-.54.61-6.08 9.57a.23.23 0 0 0 .27.34q.94-.32 1.24-.86 2.69-4.84 4.4-7.28a6.39 6.13-5.9 0 1 .77-.91l6.86-6.61a.12.12 0 0 0 .02-.15l-.14-.22a.35.35 0 0 0-.48-.04m-29.537 23.507a.66.43-109.2 0 0-.19.764.66.43-109.2 0 0 .624.482.66.43-109.2 0 0 .19-.764.66.43-109.2 0 0-.624-.482"/><path fill="#fff" d="M258.51 50.69a.61.46-38.2 0 1 .21-.8q.54-.37 2.1 1.03a2.39 2.36 63.2 0 0 1.79.6q6.99-.57 12.85.43a.46.46 0 0 1 .38.43l.04.52a.39.38 5.6 0 1-.48.39q-4.04-1.01-7.4.2a1.35 1.28-53.6 0 1-.45.08l-8.5.08a.92.92 0 0 1-.54-1.67q.76-.53 0-1.29"/><ellipse fill="#fff" rx="2.33" ry=".69" transform="rotate(-35.4 210.79 -372.29)"/><path fill="#fff" d="M237.29 57.18q.15.51-.61.67-4.15.89-4.21.67-.07-.23 3.94-1.63.73-.26.88.29m71.4 3.54q5.95.93 10.55 4.27 1.96 1.42 2.7 1.68c3.07 1.1 5.6.79 8.06 3.45a.3.29-23.4 0 1-.2.49q-6.6.51-10.36-4.7a1.97 1.91-4.1 0 0-.75-.63l-5.49-2.54a2.49 2.39-27.6 0 0-.65-.19l-5.68-.71-9.43-3.02a.38.38 0 0 1-.19-.59q.45-.59 1.4-.4 2.37.48 10.04 2.89"/><path fill="#f89e44" d="m361.01 81.32 4.44 4.49q2.04 3.01 5.96 4.55a2.26 2.24-9.7 0 1 .87.61l2.5 2.83q.37 1.11.32 2.17a1.52 1.52 0 0 1-.34.87l-2.18 2.65q-2.14-2.34-4.25-4.58-1.52-1.62-6.16-4.46a.25.25 0 0 0-.37.28q.12.53 1.03 1.2 4.62 3.4 8.62 7.85-1.69.91-3.25 1.99-1.97 1.37-3.24 2.03-12.58 6.61-34.97 18.53a4.57 4.44-60.7 0 1-1.69.5l-.79.07a5.43 5.2 28.4 0 0-1.78.49q-5.92 2.85-12.51 7.35c-3.32 2.27-5.25 5.59-9.49 7.58a4.6 4.35-75.6 0 0-.81.51c-3.08 2.52-6.4 6.01-9.8 5.2a1.99 1.84-40.6 0 0-.8-.03q-6.2 1-9.66 5.41-5.47-1.46-11.2-5.01a.59.59 0 0 0-.84.24q-.25.51-.35 1.52a.66.65 2.5 0 1-.64.58c-3.94.1-6.72-1.72-10.53-1.64-2.97.07-4.59 2.76-7.8 1.22-1.89-.91-4.52-.39-5.67.86q-2.53 2.74-6.51 3.23a.23.22-73.6 0 1-.2-.37l2.62-3.03a.27.27 0 0 0-.2-.44q-2.35.02-4.34 1.68c-3.24 2.69-4.99 5.15-8.41 6.74q-3.3 1.53-6.82 4.8c-4.17 3.86-4.62 14.08-3.99 19.16.69 5.61 3.63 12.1 8.82 14.89l-5.01 7.01a10.8 10.8 0 0 1-2.55 2.55c-5.03 3.59-9.38 7.76-14.49 11.73q-5.02 3.9-10.27 8.12-1.74 1.39-2.36 1.94-2.87 2.47-5.06 4.41c-5.68 5.05-13.66 10.59-16.74 14.02q-5.3 5.92-8.78 8.98-.77.67-2.88 3.33a1.16 1.16 0 0 1-1.66.16l-7.02-6.07a.55.55 0 0 0-.77.05l-.31.37a.52.52 0 0 0 .05.73l7.2 6.23a.5.5 0 0 1-.12.84q-.19.08-.58.16-4.82-3.08-6.16-4.75-4.53-5.62-10.32-9.29a.64.64 0 0 1-.21-.21l-5.17-8.19a1.32 1.31-44.8 0 1 .01-1.42q.24-.36 1.04-.37a.53.53 0 0 0 .42-.84l-3.81-5.08a1.2 1.15-62.7 0 1-.22-.75q.13-2.8-1.99-5.59a.46.46 0 0 1 .25-.72q.86-.22 1.75.88a.45.44-43.9 0 0 .68.01l.21-.24a.28.27-44.2 0 0 .01-.34q-2.69-3.6-3.81-6.47c-.75-1.93-2.16-1.92-3.22-3.68a.87.86-40.2 0 1 .09-1.02l.97-1.12a.6.6 0 0 0-.13-.89q-.19-.13-.44-.22l.75-.19a1.75 1.7-75.7 0 0 .85-.52l3.38-3.92a.42.42 0 0 0-.51-.64q-1.1.56-3.56 2.77a1.08 1.08 0 0 1-1.58-.16l-.17-.22a1.06 1.05 49.5 0 1 .1-1.38q1.56-1.55 1.12-3.08.88.56.68-1.47.4.52.74.55.42.04.64-.6.37-1.1.75-1.86a4.71 4.7 79.5 0 1 .76-1.11q5.94-6.57 6.8-7.81.59-.84.94-3.49a.66.65-76.1 0 1 .87-.53q.07.03.12.03a1.36 1.35 24.7 0 0 1.2-.44l3.76-4.22a1.23 1.23 0 0 0 .2-1.31c-.28-.64-.08-1.62.46-2.27q3.2-3.73 6.58-6.88 1.72-1.59 2.41-3.21c1.29-3 2.66-4.36 3.65-7.27a.37.36 35.9 0 1 .64-.1l.37.48a1.31 1.3-47.6 0 1 .06 1.47l-5.1 8.35a.94.49-27.5 0 1-.07.1l-4.08 4.93a.59.58-43.7 0 0-.02.73l.15.21a.29.29 0 0 0 .43.03l6.59-6.73a1.26 1.2 82.2 0 0 .23-.32q1.9-3.62 2.83-4.13 4.94-2.71 8.57-6.63 2.22-2.41 4.32-4.21c2.51-2.14 4.24-3.03 6.1-5.23q2.18-2.57 8.33-8.35 2.51-2.35 6.01-4.54a3.6 3.34-82.1 0 0 .71-.58q6.93-7.26 9.7-8.97 3.99-2.47 7.82-5.14 12.27-8.53 22.77-16.15 5.66-4.1 11.35-7.77 9.38-6.05 11.65-7.34c3.37-1.92 5.84-4.18 9.43-6.75a.34.33 2.6 0 1 .45.49l-1.9 2.2a.42.42 0 0 0 .57.62l9.18-6.87a1.07 1.06 29.3 0 1 .77-.21l1.22.15a1.27 1.24-56.3 0 0 .79-.17c2.51-1.46 4.36-4.17 7.15-5.08q7.08-2.31 12.78-6.52a6.36 6.35-68.9 0 1 2.43-1.08q5.37-1.11 8.5-3.92l5.68.71a2.49 2.39-27.6 0 1 .65.19l5.49 2.54a1.97 1.91-4.1 0 1 .75.63q3.76 5.21 10.36 4.7a.3.29-23.4 0 0 .2-.49c-2.46-2.66-4.99-2.35-8.06-3.45q-.74-.26-2.7-1.68-4.6-3.34-10.55-4.27 1.36-1.05 2.08-2.17 7.59 1.29 14.35 4.84a8.77 8.75-24.8 0 0 2.1.77q3.56.77 6.12 2.15c3.94 2.13 8.9 3.7 13.38 6.01q5.7 2.94 12.63 6.78a1.84 1.78 87.3 0 1 .65.61zm-75.11 18.3a1.26 1.26 0 0 0 1.14 1.01c4.31.34 6.34-1.69 9.22-4.32 2.86-2.61 7.07-3.02 10.03-.65a4.38 4.22-1 0 1 .57.53c1.98 2.21 2.88 6.8 7.14 6.73 3.9-.06 2.86-6.22 1.83-8.27q-2.22-4.36-7.01-8.01c-8.12-6.16-17.91-1.36-21.92 6.51q-1.65 3.26-1 6.47m74.43-9.97q.12-.16-2.65-2.44-.51-.41-.79-.02-.26.36.29.71 3.04 1.9 3.15 1.75m-61.116 9.76a2.41 1.08-167.8 0 0 2.128 1.566 2.41 1.08-167.8 0 0 2.584-.547 2.41 1.08-167.8 0 0-2.128-1.565 2.41 1.08-167.8 0 0-2.584.547m-66.434 14.35c-1.97-.55-3.94.2-3.89 2.43.15 5.82 8.62 12.11 13.9 15.12 8.49 4.84 22.12 4.51 30.43-.44 4.06-2.42 17.66-11.88 13.19-17.01-1.19-1.36-3.96-.73-5.02.29q-4.51 4.37-5.44 5.08c-11.03 8.54-25.85 8.58-36.22-.96-1.92-1.77-4.56-3.85-6.95-4.51m49.27 24.026a1.73.8-156 0 0 1.255 1.435 1.73.8-156 0 0 1.905-.027 1.73.8-156 0 0-1.255-1.435 1.73.8-156 0 0-1.905.027m-66.835 1.957a3.94.6-44.2 0 0-3.243 2.317 3.94.6-44.2 0 0-2.407 3.177 3.94.6-44.2 0 0 3.243-2.317 3.94.6-44.2 0 0 2.407-3.177m-75.274 57.539a.33.33 0 0 0-.4-.241l-.058.014a.33.33 0 0 0-.241.4l1.777 7.183a.33.33 0 0 0 .4.241l.058-.014a.33.33 0 0 0 .241-.4zm2.646 11.785a5 .43-117.3 0 0 1.91 4.64 5 .43-117.3 0 0 2.676 4.246 5 .43-117.3 0 0-1.91-4.64 5 .43-117.3 0 0-2.676-4.246m-8.227 10.024a2.34.92-130.5 0 0 .82 2.376 2.34.92-130.5 0 0 2.22 1.182 2.34.92-130.5 0 0-.82-2.376 2.34.92-130.5 0 0-2.22-1.182m15.074 1a3.35.5-128.3 0 0 1.684 2.939 3.35.5-128.3 0 0 2.468 2.319 3.35.5-128.3 0 0-1.684-2.939 3.35.5-128.3 0 0-2.468-2.319m-7.15 20.78a.72.72 0 0 0-1.017-.022l-.03.028a.72.72 0 0 0-.02 1.018l5.038 5.254a.72.72 0 0 0 1.018.022l.03-.028a.72.72 0 0 0 .02-1.018z"/><rect width="15.48" height="1" x="-7.74" y="-.5" fill="#f89e44" rx=".27" transform="rotate(-28.7 270.722 -529.63)"/><path fill="#ab72df" d="M193.3 65.84q-.38.15-.94-.16a.27.27 0 0 1 .09-.51q.63-.09.92.1a.33.33 0 0 1-.07.57"/><path fill="#fff" d="M206.95 65.49a.44.44 0 0 1 .55.28l.01.03a.26.26 0 0 1-.15.2l-12.09 5.88a1.75 1.64-60.9 0 1-.5.16q-5.75.88-8.48 2.84c-3.9 2.81-7.79 4.33-11.73 7.39a.53.52-31.8 0 1-.79-.18l-.12-.25a.29.28-30.2 0 1 .1-.36q10.49-7.23 22.8-11.5a5.28 4.45-63.9 0 0 .82-.36q5.06-2.66 9.58-4.13"/><path fill="#f8d44d" d="m372.58 99.49 2.18-2.65a1.52 1.52 0 0 0 .34-.87q.05-1.06-.32-2.17 1.33 2.08 2.9.98a.62.62 0 0 0 .08-.94q-1.38-1.37-2.75-2.58-4.04-3.58-9.56-5.45l-4.44-4.49q.99.5 1.61 1.13a.55.55 0 0 0 .89-.62q-.94-1.96-3.31-2.45a.39.38 8.9 0 1-.31-.42v-.01a.48.48 0 0 1 .51-.44c2.72.15 5.67 2.08 7.1 4.72a7.75 7.64 3.3 0 0 2.45 2.71c4.45 3 7.8 7.25 11.97 10.87q.98.84 4.73 5.16.51.58 3.76 5.87 2.55 4.17 4.66 8.1 3.25 6.05 5.97 17.14a.42.41-11.9 0 1-.33.5l-.26.04a.13.13 0 0 1-.15-.09q-2.43-8.28-7.5-17.04a.91.9 70.4 0 0-.91-.44h-.03a.5.49-14.9 0 0-.39.67q4.79 12.23 6.64 24.81c.52 3.57.91 5.27.21 7.93a.42.42 0 0 1-.81-.03q-1.24-6.37-2.22-14.4-.36-2.94-2.24-2.99a.81.8-3.9 0 1-.77-.67c-.42-2.4-.66-4.83-1.86-6.83q-3.41-5.66-6.96-13.13-1.06-2.21-5.84-6.01a1 1 0 0 1-.13-.13z"/><path fill="#fff" d="M163.85 96.03a.18.18 0 0 1-.24-.08l-.01-.01a.17.17 0 0 1 .08-.23q3.92-1.9 6.12-5.51a3.18 2.96-4 0 1 .87-.93l8.57-6.05a.04.03 38 0 1 .05 0l.42.28a.3.3 0 0 1 .01.49l-8.1 5.98a2.55 1.65-75.6 0 0-.27.25q-3.14 3.44-7.5 5.81"/><path fill="#563829" d="M285.9 99.62q-.65-3.21 1-6.47c4.01-7.87 13.8-12.67 21.92-6.51q4.79 3.65 7.01 8.01c1.03 2.05 2.07 8.21-1.83 8.27-4.26.07-5.16-4.52-7.14-6.73a4.38 4.22-1 0 0-.57-.53c-2.96-2.37-7.17-1.96-10.03.65-2.88 2.63-4.91 4.66-9.22 4.32a1.26 1.26 0 0 1-1.14-1.01m-58 2.06c-2.25 2.04-4.89 1.05-6.26-1.36-2.29-4.03-5.82-5.51-10.01-2.87a2.72 2.66-85.9 0 0-.71.63c-1.42 1.77-2.42 4.16-5.37 5.73-3.56 1.89-6.7-.51-6.67-4.3.04-6.09 3.28-9.87 8.19-13.13q8.09-5.37 15.88.69c4.09 3.18 7.1 8.54 5.5 13.75a1.94 1.83-14.1 0 1-.55.86"/><path fill="#fff" d="m374.78 93.8-2.5-2.83a2.26 2.24-9.7 0 0-.87-.61q-3.92-1.54-5.96-4.55 5.52 1.87 9.56 5.45 1.37 1.21 2.75 2.58a.62.62 0 0 1-.08.94q-1.57 1.1-2.9-.98m-207.99-6.28q1.24-1.39 1.81-1.57a.34.33 6.8 0 1 .39.49q-.21.37-2.01 1.33a.16.16 0 0 1-.19-.25"/><path fill="#f8d44d" d="M360.33 89.65q-.11.15-3.15-1.75-.55-.35-.29-.71.28-.39.79.02 2.77 2.28 2.65 2.44"/><path fill="#fff" d="M159.05 94.15a.15.15 0 0 1 0-.21l.11-.1a9.27.28-42.9 0 1 6.98-6.1l.15.16a9.27.28-42.9 0 1-6.6 6.51l-.11.1a.15.15 0 0 1-.21-.01z"/><ellipse fill="#f8d44d" rx="2.41" ry="1.08" transform="rotate(192.2 156.124 33.846)"/><path fill="#f8d44d" d="M390.04 155.62q-5.97 4.22-12.6 7.63-.87.45-1.76.84-3.98 1.74-8 3.59a10.73 10.45 13.1 0 0-2.14 1.29c-1.88 1.44-3.92 3.87-6.46 4.32a2.01 1.88 20.3 0 0-.76.32l-14.51 10.21q-2.87.8-5.06.44-6.79-1.1-13.46-2.67a3.19 3.15 72.6 0 1-1.41-.75l-12.1-11.26a1.55 1.54 44.3 0 0-2.13.02c-2.86 2.77-5.55-1.73-7.35-3.48-2.84-2.76-4.95-6.29-7.8-8.39q-4.03-2.97-7.28-5.67a8.28 7.65-8.6 0 0-1.18-.8l-3.38-1.85q3.46-4.41 9.66-5.41a1.99 1.84-40.6 0 1 .8.03c3.4.81 6.72-2.68 9.8-5.2a4.6 4.35-75.6 0 1 .81-.51c4.24-1.99 6.17-5.31 9.49-7.58q6.59-4.5 12.51-7.35a5.43 5.2 28.4 0 1 1.78-.49l.79-.07a4.57 4.44-60.7 0 0 1.69-.5q22.39-11.92 34.97-18.53 1.27-.66 3.24-2.03 1.56-1.08 3.25-1.99c2.82 2.7 5.93 5.56 6.99 9.44a2.19 2.13 16.5 0 0 .49.87c5.44 5.88 7.98 13.4 11.57 22.37a1.47 1.12 37.4 0 1 .06.22l1.85 10.63a2.34 2.13 42.3 0 1 .04.42v2.96a1.56 1.49-26.9 0 1-.33.94q-.37.48-.99.86a1.48 1.47-14.2 0 0-.69 1.15z"/><ellipse fill="#f8d44d" rx="3.56" ry=".54" transform="rotate(-63.4 159.769 -51.332)"/><path fill="#563829" d="M228.89 116.19c-.05-2.23 1.92-2.98 3.89-2.43 2.39.66 5.03 2.74 6.95 4.51 10.37 9.54 25.19 9.5 36.22.96q.93-.71 5.44-5.08c1.06-1.02 3.83-1.65 5.02-.29 4.47 5.13-9.13 14.59-13.19 17.01-8.31 4.95-21.94 5.28-30.43.44-5.28-3.01-13.75-9.3-13.9-15.12"/><ellipse fill="#f8d44d" rx="1.73" ry=".8" transform="rotate(204 156.533 39.101)"/><ellipse fill="#f8d44d" rx="3.94" ry=".6" transform="rotate(-44.2 281.65 -190.282)"/><ellipse fill="#f8d44d" rx="4.21" ry=".72" transform="rotate(-53.7 231.33 -79.796)"/><path fill="#8dca63" d="M390.04 155.62q.91 4.58-.46 7.44-4.4 9.21-11.59 15.68c-3.06 2.75-7.63 4.77-12.51 6.09q-10.69 2.91-12.48 3.25-.51.1-2.74-.56a.24.16 38.4 0 0-.11-.01l-9.15.57a.62.61 38.1 0 1-.15-1.22l4.48-.79a.42.41-18.5 0 0 .3-.59q-.4-.79-1.82-1.66l14.51-10.21a2.01 1.88 20.3 0 1 .76-.32c2.54-.45 4.58-2.88 6.46-4.32a10.73 10.45 13.1 0 1 2.14-1.29q4.02-1.85 8-3.59.89-.39 1.76-.84 6.63-3.41 12.6-7.63m-16.29 13.58c-.61 1.27-1.55 1.68-1.89 2.6a.41.41 0 0 0 .66.44q1.89-1.78 2.26-2.54.36-.77.58-3.36a.41.41 0 0 0-.76-.24c-.51.85-.24 1.84-.85 3.1m-13.79 13.63q1.91-.34 3.69-.03a1.57 1.42-11.8 0 0 1.64-2.25q-.17-.23-1.27-.44a.55.48 35.9 0 0-.3.03l-4.06 1.78a.46.45 75.8 0 0-.28.48v.03a.5.5 0 0 0 .58.4m-12.24 2.92c2.09-.89 4.23 1.62 6.5-.28a.76.75-68.6 0 0-.58-1.33l-6.21.85a.21.2-9.2 0 0-.18.24l.05.29a.31.3 73.3 0 0 .42.23"/><ellipse fill="#fff" rx="4.5" ry=".71" transform="rotate(-84.7 151.584 17.567)"/><path fill="#f89e44" d="M150.48 163.52a.35.35 0 0 1 .48.04l.14.22a.12.12 0 0 1-.02.15l-6.86 6.61a6.39 6.13-5.9 0 0-.77.91q-1.71 2.44-4.4 7.28-.3.54-1.24.86a.23.23 0 0 1-.27-.34q5.54-8.96 6.08-9.57 1.95-2.2 6.86-6.16"/><path fill="#f8d44d" d="M374.78 169.7q-.37.76-2.26 2.54a.41.41 0 0 1-.66-.44c.34-.92 1.28-1.33 1.89-2.6.61-1.26.34-2.25.85-3.1a.41.41 0 0 1 .76.24q-.22 2.59-.58 3.36"/><path fill="#fff" d="M359.96 182.83a.5.5 0 0 1-.58-.4v-.03a.46.45 75.8 0 1 .28-.48l4.06-1.78a.55.48 35.9 0 1 .3-.03q1.1.21 1.27.44a1.57 1.42-11.8 0 1-1.64 2.25q-1.78-.31-3.69.03m-12.24 2.92a.31.3 73.3 0 1-.42-.23l-.05-.29a.21.2-9.2 0 1 .18-.24l6.21-.85a.76.75-68.6 0 1 .58 1.33c-2.27 1.9-4.41-.61-6.5.28"/><ellipse fill="#ab72df" rx=".66" ry=".43" transform="rotate(250.8 127.258 50.773)"/><path fill="#f8d44d" d="M298.03 224.23q-2.29 2.47-4.79 4.45-4.73 3.73-5.1 4.05-14.66 12.63-19.52 16.4-4.42 3.43-9.32 7.92-12.96 11.86-16.29 15.71-2.21 2.56-3.33 4.55c-2.2 3.91-5.35 7.01-8.6 9.97q-6.35-.65-8.29-1.54c-8.63-3.93-15.18-7.22-21.16-9.04a.89.88 28.3 0 0-.92.27l-1.16 1.34a.87.86-37.6 0 1-1.43-.18q-.75-1.55-1.64-2.2a1.4 1.19 71.3 0 0-.32-.19l-15.95-6.85a1.6 1.6 0 0 0-.46-.13c-5.26-.64-10.74-3.37-15.29-7q-3.78-3.02-6.17-4.36a.89.89 0 0 0-1.29 1.04q.59 1.85 2.22 2.8a.22.22 0 0 1 .07.31h-.01a.14.14 0 0 1-.21.03l-3.82-3.18q.39-.08.58-.16a.5.5 0 0 0 .12-.84l-7.2-6.23a.52.52 0 0 1-.05-.73l.31-.37a.55.55 0 0 1 .77-.05l7.02 6.07a1.16 1.16 0 0 0 1.66-.16q2.11-2.66 2.88-3.33 3.48-3.06 8.78-8.98c3.08-3.43 11.06-8.97 16.74-14.02q2.19-1.94 5.06-4.41.62-.55 2.36-1.94 5.25-4.22 10.27-8.12c5.11-3.97 9.46-8.14 14.49-11.73a10.8 10.8 0 0 0 2.55-2.55l5.01-7.01q3.85 3.02 8.22 5.94c5.72 3.83 12.92 5.74 18.47 9.13a4.16 4.12-29.6 0 0 2.22.6q4.94-.09 8.64 2.54c2.73 1.94 5.07 2.22 7.89 4.19a3.35 3.3-22.7 0 0 1.37.55l4.94.8a5.99 5.74 57.5 0 1 1.06.26zm-79.08 19.33-10.53-5.16a.05.05 0 0 0-.06.02l-.03.05a5.72 1.06 26.1 0 0 4.67 3.47l.35.16a5.72 1.06 26.1 0 0 5.6 1.57l.02-.05a.05.05 0 0 0-.02-.06m4.058 16.545a2.2.66-153.7 0 0 1.68 1.567 2.2.66-153.7 0 0 2.264.383 2.2.66-153.7 0 0-1.68-1.567 2.2.66-153.7 0 0-2.264-.383"/><path fill="#fff" d="M126.26 199.29q.2 2.03-.68 1.47-1.7-2.51-2.2-5.27a.36.36 0 0 1 .67-.24z"/><rect width=".72" height="8.06" x="-.36" y="-4.03" fill="#fff" rx=".33" transform="rotate(-13.9 894.53 -475.736)"/><ellipse fill="#fff" rx="5" ry=".43" transform="rotate(242.7 137.476 62.624)"/><ellipse fill="#fff" rx="2.34" ry=".92" transform="rotate(229.5 118.851 79.114)"/><ellipse fill="#fff" rx="3.35" ry=".5" transform="rotate(231.7 129.708 74.657)"/><path fill="#8dca63" d="M372.11 259.13q-2.46 3.64-7.36 5.4l-5.88-4.86a.6.57-48.7 0 0-.79.07l-.02.02a.46.45-49.9 0 0 .05.61l7.23 6.64a.58.58 0 0 1-.6.96q-.97-.39-1.56.32-1.99-.14-2.68.43-6.86 5.68-16.31 11.97-6.87 4.58-14.1 12.68a4.54 4.43-83.6 0 1-1.1.9q-9.22 5.43-17.38 13.33-1.27 1.23-2.7 2.18a.36.35 50.5 0 1-.45-.05l-.22-.22a.35.34-45 0 1 .01-.49l11.71-11.3.02-.02q3.15-1.78 5.23-4.72.1-.14.76-.43a.93.92 83 0 0 .51-.66q.07-.38.05-.39a.98.97-59.2 0 0-.96.25q-3.69 3.69-6.17 4.7a1.79 1.75 37 0 1-.94.12q-.99-.14-1.92-.82a2.22 2.18 42.5 0 0-2.73.1q-7.36 6.35-14.1 12.86-2.8 2.7-5.94 4.76l-9.87-5.9a2 2 0 0 0-.6-.24l-6.96-1.46a2.44 2.41 71.2 0 1-1.1-.55q-1.57-1.34-3.93-2.38c-4.09-1.82-6.45-4.59-11.23-4.57q-4.78.03-9.06-2.56a7.81 7.65 70 0 0-1.23-.59q-6.9-2.51-13.06-4.95-2.96-1.17-5.65-2.99c3.25-2.96 6.4-6.06 8.6-9.97q1.12-1.99 3.33-4.55 3.33-3.85 16.29-15.71 4.9-4.49 9.32-7.92 4.86-3.77 19.52-16.4.37-.32 5.1-4.05 2.5-1.98 4.79-4.45 13.1 4.21 26.39 8.69 1.55.52 2.68 1.18c3.6 2.1 6.63 4.03 10.62 4.49a2.36 2.3-29.1 0 1 .67.18l10.76 4.79a3.08 2.96 75.3 0 1 .67.41q1.78 1.46 4.35 3.9a2.3 2.14 41.5 0 0 3.27-.08q.12-.14.95-.48a.74.73 58.6 0 1 .85.21l4.18 4.9a1.28 1.14 85.4 0 0 .25.24zm-47.827-16.998a.36.36 0 0 0-.19-.472l-9.327-3.979a.36.36 0 0 0-.473.19l-.016.037a.36.36 0 0 0 .19.472l9.327 3.979a.36.36 0 0 0 .473-.19zm5.369 3.012a3.23.33-153.8 0 0 2.752 1.722 3.23.33-153.8 0 0 3.044 1.13 3.23.33-153.8 0 0-2.752-1.722 3.23.33-153.8 0 0-3.044-1.13m-29.759 7.74a5.83.38-158.3 0 0 5.277 2.51 5.83.38-158.3 0 0 5.557 1.802 5.83.38-158.3 0 0-5.276-2.51 5.83.38-158.3 0 0-5.558-1.802M278.13 272.89l20.49 12.37a.06.06 0 0 0 .09-.02 8.29 1.12 31.1 0 0-6.52-5.24l-6.41-3.87a8.29 1.12 31.1 0 0-7.67-3.32.06.06 0 0 0 .02.08"/><rect width="10.86" height=".76" x="-5.43" y="-.38" fill="#fff" rx=".36" transform="rotate(23.1 -427.604 901.176)"/><path fill="#fff" d="M218.95 243.56a.05.05 0 0 1 .02.06l-.02.05a5.72 1.06 26.1 0 1-5.6-1.57l-.35-.16a5.72 1.06 26.1 0 1-4.67-3.47l.03-.05a.05.05 0 0 1 .06-.02z"/><rect width="1.48" height="8.72" x="-.74" y="-4.36" fill="#fff" rx=".72" transform="rotate(-43.8 375.632 -57.436)"/><ellipse fill="#fff" rx="3.23" ry=".33" transform="rotate(206.2 194.964 84.592)"/><ellipse fill="#fff" rx="5.83" ry=".38" transform="rotate(201.7 177.096 98.261)"/><path fill="#63a3ea" d="M401.56 316.74q-5.48 1.64-9.05 6.22a2.48 2.38-84.9 0 1-.72.63l-2.09 1.22-1.26-4.94a.07.07 0 0 0-.07-.06l-.31.02a.23.23 0 0 0-.21.26l.76 6.05q-3.19 2.07-6.02 4.45c-6.59 5.56-14.42 10.91-19.94 15.07q-2.46 1.85-4.53 4.07a5.29 5.1-85.8 0 1-.67.6q-4.58 3.41-14.67 11.94c-2.71 2.3-5.28 4.28-7.38 6.33q-7.94 7.74-13.17 13.05c-3.16 3.2-4.39 5.64-7.07 9.91a7.8 7.8 0 0 1-.97 1.26q-2.27 2.37-4.72 5.63-1.73 2.3-3.98 3.14a.54.54 0 0 1-.6-.86l2.26-2.61a.33.33 0 0 0-.41-.5q-2.45 1.47-3.17 3.88a2.66 2.5-20.6 0 1-.36.73c-3.87 5.52-9.42 9.51-13.59 15.11q-1.83 2.45-3.42 4.75c-1.71 2.47-3.72 4.2-6.13 6.44a3.44 3.33-8.9 0 0-.71.94c-.84 1.69-1.02 3.68-2.08 5.16q-1.29 1.81-3.22 2.31-10.52 2.95-21.02 4.89-3.65.68-6.51 1.56c-4.24 1.32-8.09.53-12.84 1.26q-4.59.71-10.41-.27-1.15-.2-1.86.46a.33.32-60.2 0 0 .15.56q3.43.7 5.68.54 9-.62 17.99-1.13c5.7-.32 9.95-3.43 16.47-1.69a.33.33 0 0 0 .34-.52l-.21-.28a.53.52 63.7 0 1 .28-.83l9.56-2.45q.2 1.52-1.08 2.06-3.05 1.28-3.92 2.81-1.76 3.08-4.08 5.77a6.89 6.5 80.2 0 0-.9 1.36q-1.63 3.32-4.51 5.93l-15.75.4a.94.94 0 0 0-.85.57l-.43 1.02a.89.88 10.5 0 1-.78.53c-3.68.16-6.16-1.65-8.86-2.32q-.71-.18-6.03-.43c-4.06-.2-8.05-1.36-12.26.12a3.98 3.84 35.1 0 1-1.41.22q-7.59-.28-14.32-2.85a7.7 7.5 58 0 0-1.83-.45q-7.56-.89-14.33-3.83l4.25-6.61 1.07-.04a.35.34 65.6 0 0 .22-.6q-.53-.48-1.38-.53l1.54-2.72q.41.2.83.11.46-.1.56-.51.09-.35-.08-.79 1.29-2.43 1.24-4.59l12.81 3.06a7.58 7.51-38.1 0 0 1.89.22l5.95-.05a.39.39 0 0 0 .34-.58q-.58-1.09-2.11-.94-4.61.44-7.99-1.75c-.52-2.42.84-3.7 1.53-5.43q2.05-5.15 2.71-6.63a.8.46-30.1 0 1 .08-.14l2.32-3.42a.54.53 26.5 0 0-.28-.81q-2.92-1-2-3.08a.29.29 0 0 0-.31-.4q-1.64.28-3.27-.73a.32.32 0 0 1 .15-.6l2.63-.17a1.27 1.26-70.5 0 0 .87-.42q2.9-3.24 4.17-6.93 2.61.24 5.77 1.3 1.41.48 7.89.77a.85.83-78.8 0 0 .83-.57q.02-.07.09-.27a.89.89 0 0 1 .69-.59l20.99-3.71a.29.29 0 0 0 .13-.5l-.88-.76a.26.24-30.6 0 0-.24-.05l-9.16 2.4a2.46 2.27 37.1 0 1-.72.07l-12.51-.76q.03-.06-.31-.2.42-.8 1.47-1.31a1.57 1.45-81.9 0 0 .53-.43l4.52-5.84a2.18 2.18 0 0 1 2.54-.68q1.67.67 5.06.62a.37.36-87.2 0 0 .35-.32l.03-.25a.09.09 0 0 0-.08-.1l-5.71-.69a.41.41 0 0 1-.27-.67l14.81-17.13a.19.17-45.3 0 0 .01-.23q-.41-.49-.43-1.05l4.42.82a6.43 6.36 48.5 0 0 1.51.1q4.67-.25 9.31-.06c2.51.1 4.55-1.47 7.15-1.51a.54.54 0 0 1 .37.95l-1.69 1.48a.74.74 0 0 0 .83 1.22l3.84-1.97a2 1.99 28.1 0 1 .7-.21q.01 0 .32.09a1.56 1.53 41.1 0 0 1.05-.06q2.27-.97 7.02-2.29 1.1-.3 2.26.4a3 2.61-47.7 0 0 3.23-.38q.57-.48 1.95-2a7.98 7.72 2.8 0 1 1.39-1.22q8.51-5.84 10.61-7.52c2.52-2.02 4.43-4.08 5.6-7.5 1.43-4.2 2.63-6.34 1.82-9.55a6.7 6.63 42.4 0 1-.13-2.58q.68-4.54.53-5.63-.85-6.64-4.09-12.69a.94.49 27.5 0 0-.07-.1l-7.64-10.24q3.14-2.06 5.94-4.76 6.74-6.51 14.1-12.86a2.22 2.18 42.5 0 1 2.73-.1q.93.68 1.92.82a1.79 1.75 37 0 0 .94-.12q2.48-1.01 6.17-4.7a.98.97-59.2 0 1 .96-.25q.02.01-.05.39a.93.92 83 0 1-.51.66q-.66.29-.76.43-2.08 2.94-5.23 4.72l-.02.02-11.71 11.3a.35.34-45 0 0-.01.49l.22.22a.36.35 50.5 0 0 .45.05q1.43-.95 2.7-2.18 8.16-7.9 17.38-13.33a4.54 4.43-83.6 0 0 1.1-.9q7.23-8.1 14.1-12.68 9.45-6.29 16.31-11.97.69-.57 2.68-.43 2.85 1.56 4.3 4.42a1.69 1.64-84 0 0 .44.56l2.28 1.97a1.18 1.14 18.2 0 1 .39.74q.34 2.77 2.91 5.47a.65.65 0 0 0 1.12-.4c.17-2.57-2.27-5.79-4.57-9.57-1.44-2.36-3.59-4.55-5.3-6.95q4.9-1.76 7.36-5.4l7.96 9.26a.33.33 0 0 0 .57-.29q-.18-.78-.69-1.13a.21.21 0 0 1 .12-.39q.6 0 1.06.32.98.7 3.09 2.94a7.85 7.82 83.3 0 0 1.84 1.46q2.81 1.63 3.61 3.07 1.53 2.72 6.24 11.87a13.01 12.49-68.1 0 1 .88 2.19q1.76 6.01 4.64 11.66c1.1 2.17 2.43 6.14 2.85 7.92a4.78 4.61-52.7 0 1 .13 1.1q.03 3.99.36 4.82 2.85 7.18 4.07 14.63a.49.49 0 0 1-.68.53l-.37-.16a1.42 1.41 4.1 0 1-.8-.92c-2.34-8.73-3.61-14.68-6.37-20.6a.49.49 0 0 0-.87-.04q-.46.79-.17 1.85 1.07 3.99 1.98 7.52m-26.301-28.898a.27.27 0 0 0-.355-.141l-.239.102a.27.27 0 0 0-.142.355l6.138 14.32a.27.27 0 0 0 .355.141l.239-.102a.27.27 0 0 0 .142-.354zm9.161 16.788q.3-.19-.96-2.37-.36-.63-.72-.41t.02.83q1.36 2.13 1.66 1.95m.938 3.313a1.21.57-111.4 0 0-.089 1.335 1.21.57-111.4 0 0 .972.919 1.21.57-111.4 0 0 .09-1.335 1.21.57-111.4 0 0-.973-.919m-47.656 11.458a7.8.4-100.1 0 0 .974 7.75 7.8.4-100.1 0 0 1.762 7.608 7.8.4-100.1 0 0-.974-7.75 7.8.4-100.1 0 0-1.762-7.608m-22.01 29.358a4.65.3-66.4 0 0-2.137 4.14 4.65.3-66.4 0 0-1.587 4.382 4.65.3-66.4 0 0 2.137-4.14 4.65.3-66.4 0 0 1.587-4.382m-6.608 12.76a4 .49-56.9 0 0-2.594 3.083 4 .49-56.9 0 0-1.774 3.619 4 .49-56.9 0 0 2.594-3.083 4 .49-56.9 0 0 1.774-3.619m-56.393 15.11a1.51.75-6.1 0 0-1.58-.585 1.51.75-6.1 0 0-1.422.906 1.51.75-6.1 0 0 1.58.586 1.51.75-6.1 0 0 1.422-.906m50.95 11.713a2.4.56-29.4 0 0-2.366.69 2.4.56-29.4 0 0-1.816 1.666 2.4.56-29.4 0 0 2.366-.69 2.4.56-29.4 0 0 1.816-1.666m-33.731 1.428q-1.43-.04-3.83.6a.33.33 0 0 0 .1.64q1.07-.05 3.77-.98a.13.13 0 0 0-.04-.26m-54.531 19.068a.3.3 0 0 0-.037-.422l-.322-.27a.3.3 0 0 0-.423.037l-6.376 7.599a.3.3 0 0 0 .037.422l.322.27a.3.3 0 0 0 .422-.037zm22.195 4.886a.27.27 0 0 0-.278-.262l-5.917.176a.27.27 0 0 0-.262.278l.009.28a.27.27 0 0 0 .278.262l5.917-.176a.27.27 0 0 0 .262-.278zm-43.585 27.072a.82.6-2.4 0 0-.844-.565.82.6-2.4 0 0-.794.633.82.6-2.4 0 0 .844.566.82.6-2.4 0 0 .794-.634m4.3-.238a1.16.87-36 0 0-1.45-.022 1.16.87-36 0 0-.428 1.386 1.16.87-36 0 0 1.45.022 1.16.87-36 0 0 .428-1.386m-.479 5.392-7.01-1.76a.1.1 0 0 0-.12.07v.03a3.43 1.07 14.1 0 0 3.06 1.87l.55.14a3.43 1.07 14.1 0 0 3.58-.2l.01-.03a.1.1 0 0 0-.07-.12m11.215-1.457a3.9.41-167.3 0 0 3.715 1.257 3.9.41-167.3 0 0 3.895.457 3.9.41-167.3 0 0-3.715-1.257 3.9.41-167.3 0 0-3.895-.457m-6.957 3.182a1.38.29-170.6 0 0 1.315.511 1.38.29-170.6 0 0 1.409-.06 1.38.29-170.6 0 0-1.315-.512 1.38.29-170.6 0 0-1.409.06"/><ellipse fill="#fff" rx="2.2" ry=".66" transform="rotate(206.3 142.988 104.26)"/><path fill="#fff" d="M364.75 264.53c1.71 2.4 3.86 4.59 5.3 6.95 2.3 3.78 4.74 7 4.57 9.57a.65.65 0 0 1-1.12.4q-2.57-2.7-2.91-5.47a1.18 1.14 18.2 0 0-.39-.74l-2.28-1.97a1.69 1.64-84 0 1-.44-.56q-1.45-2.86-4.3-4.42.59-.71 1.56-.32a.58.58 0 0 0 .6-.96l-7.23-6.64a.46.45-49.9 0 1-.05-.61l.02-.02a.6.57-48.7 0 1 .79-.07zm-86.62 8.36a.06.06 0 0 1-.02-.08 8.29 1.12 31.1 0 1 7.67 3.32l6.41 3.87a8.29 1.12 31.1 0 1 6.52 5.24.06.06 0 0 1-.09.02z"/><rect width=".8" height="16.12" x="-.4" y="-8.06" fill="#fff" rx=".27" transform="rotate(-23.2 907.934 -773.059)"/><path fill="#fff" d="M384.42 304.63q-.3.18-1.66-1.95-.38-.61-.02-.83t.72.41q1.26 2.18.96 2.37"/><ellipse fill="#fff" rx="1.21" ry=".57" transform="rotate(248.6 298.317 22.948)"/><path fill="#ab72df" d="M401.56 316.74q2.46 6.45 3.23 13.54a1.47 1.44 21.9 0 0 .34.78l1.64 1.86a1.48 1.43 19 0 1 .31.61l1.31 5.87a.9.88 59.6 0 1-.19.76l-.35.4a.37.36 54.9 0 1-.62-.11q-.46-1.23-.78-5.13-.08-.96-.68-1.62a.22.22 0 0 0-.39.16q.39 4.91 1.1 7.11a3.76 3.65 36.6 0 1 .17 1.04q.08 5.16-.25 13.72c-.1 2.41-.93 4.97-1.06 7.08a.27.26-34.9 0 0 .52.09q1.43-4.64 1.52-8.78a.8.8 0 0 1 .77-.78l.04.01a.92.92 0 0 1 .77 1.1l-1.79 8.49a.13.04-61.8 0 0-.01.05q-.03 5.77-1.34 8.16-4.11 7.5-6.23 15.5a4.31 4.17-22.8 0 1-.5 1.17q-2.29 3.76-4.02 7.14c-2.7 5.27-5.65 8.26-9.18 13.33-2.99 4.29-7.61 8.54-10.93 12.37-4.77 5.53-11.96 11.24-17.32 14.75q-2.47 1.62-13.7 8.05c-2.17 1.25-4.69 3.57-6.56 4.62a.72.72 0 0 1-1.07-.58l-.04-.64a.67.67 0 0 0-1.03-.53l-7.36 4.69a.47.46 57.7 0 1-.64-.15l-.21-.32a.34.33-35.2 0 1 .08-.45l4.86-3.64a.14.14 0 0 0-.13-.25q-3.5 1.13-5.22 1.92-8.88 4.1-17.73 7.91c-4.26 1.84-9.07 2.54-13.47 4.55a9.97 9.58-62.4 0 1-2.09.7q-4.31.92-9.03 2.95a1.56 1.21-52 0 1-.28.07l-6.06.75a2.33 2.26-57.2 0 0-.47.11c-7.72 2.79-12.65 2.39-21.12 2.13q-.54-.01-.52-.58.02-.47.6-.78.6-.32 4.04-1.22a.24.24 0 0 0 .02-.45q-3.8-1.4-7.81.43a1.09.96-55.8 0 1-.39.1l-4.95.27a.18.18 0 0 1-.19-.16l-.01-.01a.34.33 9.3 0 1 .27-.19l5.73-.62a.76.75-10.6 0 0 .65-.94l-.21-.81a.76.76 0 0 1 .5-.91c3.93-1.24 8.9-2.64 12.4-1.3q2.02.77 3.69-.05 2.75-1.35 7.46-1.93.87-.11 1.64-.52a.69.69 0 0 0-.37-1.3l-5.23.33a.48.47 83.9 0 1-.49-.4l-.07-.36a.22.21 77.8 0 1 .15-.24c3.5-1.08 6.38-1.26 9.44-2.43q1.05-.4 10.5-3.47a2.89 2.3-62.7 0 0 .47-.21l1.69-1.02a.42.42 0 0 0-.36-.76l-12.16 4.13a3.51 3.45-56.8 0 1-.82.18c-3.47.35-6.12 1.7-9.11 2.69a2.68 2.67-44.2 0 1-1.77-.02q-2.4-.86-3.93.6c-2.01 1.92-7.4 1.76-10.04 1.62q2.88-2.61 4.51-5.93a6.89 6.5 80.2 0 1 .9-1.36q2.32-2.69 4.08-5.77.87-1.53 3.92-2.81 1.28-.54 1.08-2.06 1.67-.75 2.38-2.1 1.93-.5 3.22-2.31c1.06-1.48 1.24-3.47 2.08-5.16a3.44 3.33-8.9 0 1 .71-.94c2.41-2.24 4.42-3.97 6.13-6.44q1.59-2.3 3.42-4.75c4.17-5.6 9.72-9.59 13.59-15.11a2.66 2.5-20.6 0 0 .36-.73q.72-2.41 3.17-3.88a.33.33 0 0 1 .41.5l-2.26 2.61a.54.54 0 0 0 .6.86q2.25-.84 3.98-3.14 2.45-3.26 4.72-5.63a7.8 7.8 0 0 0 .97-1.26c2.68-4.27 3.91-6.71 7.07-9.91q5.23-5.31 13.17-13.05c2.1-2.05 4.67-4.03 7.38-6.33q10.09-8.53 14.67-11.94a5.29 5.1-85.8 0 0 .67-.6q2.07-2.22 4.53-4.07c5.52-4.16 13.35-9.51 19.94-15.07q2.83-2.38 6.02-4.45.2.6.7.45a.38.38 0 0 0 .25-.25q.22-.71.14-1.53l2.09-1.22a2.48 2.38-84.9 0 0 .72-.63q3.57-4.58 9.05-6.22m-11.2 16.64q.39-.05.12-2.88-.09-.84-.58-.78-.5.06-.37.9.44 2.81.83 2.76m9.315-1.281a.27.27 0 0 0-.295-.244l-.258.025a.27.27 0 0 0-.244.294l1.547 16.367a.27.27 0 0 0 .295.244l.258-.025a.27.27 0 0 0 .244-.294zm.79 19.072a2.76.43-80.1 0 0-.899 2.645 2.76.43-80.1 0 0-.05 2.793 2.76.43-80.1 0 0 .898-2.645 2.76.43-80.1 0 0 .05-2.793M344.31 363.7l-19.78 18.44.03.03a13.32 1.92-43 0 0 11.05-7.68l.29-.27a13.32 1.92-43 0 0 8.44-10.49zm52.498 10.91a.33.33 0 0 0-.182-.43l-.037-.016a.33.33 0 0 0-.43.182l-3.047 7.505a.33.33 0 0 0 .182.43l.037.015a.33.33 0 0 0 .43-.182zm-16.503 25.102a3.95.55-54.3 0 0-2.752 2.887 3.95.55-54.3 0 0-1.858 3.529 3.95.55-54.3 0 0 2.752-2.887 3.95.55-54.3 0 0 1.858-3.529M360.75 423.02q2.18-1.14 2.67-1.89 3-4.55 7.55-7.84c.91-.65 1.79-1.97 1.27-3.14a.51.51 0 0 0-.87-.1l-4.74 6.37a9.76 8.42-32.3 0 1-.89 1.03l-5.24 5.23a.21.21 0 0 0 .25.34m-2.46-5.12-18.11 14.82a.07.07 0 0 0-.01.1l.35.43a11.55.46-39.3 0 0 9.23-6.96l.34-.28a11.55.46-39.3 0 0 8.65-7.67l-.35-.43a.07.07 0 0 0-.1-.01m-50.864 11.969a.39.39 0 0 0-.497-.24l-10.816 3.788a.39.39 0 0 0-.239.497l.02.057a.39.39 0 0 0 .497.24l10.816-3.788a.39.39 0 0 0 .239-.497zM285.28 455.58a.45.44-19.5 0 0 .54.25l11.04-3.5a2.27 1.84-65 0 0 .37-.18q3.6-2.29 7.36-3.01c3.67-.71 7.17-2.65 10.8-4.22q.79-.34 1.46-1.52a.38.38 0 0 0-.45-.55l-5.38 1.78a1.69 1.44-63.5 0 0-.33.14q-6.69 3.67-11.95 5.09c-4.94 1.33-8.21 3.4-13.16 5.07a.5.5 0 0 0-.31.63zm-.99-12.34q-5.42 1.27-6.78 1.91-1.14.54-1.72 1.43a.23.23 0 0 0 .29.34c2.21-1.07 2.83-1.61 5-1.9q2.2-.29 3.46-1.24a.3.3 0 0 0-.25-.54m4.756 15.028a1.67.4-25.6 0 0-1.679.361 1.67.4-25.6 0 0-1.333 1.083 1.67.4-25.6 0 0 1.679-.361 1.67.4-25.6 0 0 1.333-1.083m-23.376 4.662.22 1.14a.22.22 0 0 0 .26.17l13.85-2.67a2.23.8-10.9 0 0 2.04-1.21 2.23.8-10.9 0 0-2.34-.36l-13.86 2.67a.22.22 0 0 0-.17.26"/><path fill="#f8d44d" d="M183.94 330.76q-6.25 8.29-13.21 15.77c-5.48 5.89-9.78 11.34-14.46 17.23q-10.67 13.4-20.12 30.38-1.55 2.79-3.08 6.93l-3.55-3.22a.38.37-88.7 0 0-.54.52l4 4.94q-.52 2.95 1.39 6.01a.2.2 0 0 1-.11.29q-.1.04-.32.06a.25.24-19.5 0 1-.22-.1c-1.8-2.4-3.12-.98-4.4.96q-1.22 1.84-3.07 2.9l-3.39-4.45a.44.44 0 0 1 .32-.7l1.03-.06a.86.86 0 0 0 .59-1.42l-9.39-10.68a1.63 1.54-80.3 0 1-.22-.33c-1.31-2.58-1.82-6.53-4.14-8.85q-6-6.02-10.24-13.91c-1.5-2.79-1.11-4.83-.1-7.42a1.08 1.04 48.7 0 0 .03-.68l-2.12-7.38a.28.28 0 0 1 .1-.31l.02-.01a.4.39 65 0 1 .53.2c1.29 2.78 2.11 5.99 4.72 7.92a.77.77 0 0 0 1.22-.72q-.26-1.81-1.63-6.72-1.14-4.09 1.68-7.2a.45.45 0 0 1 .78.22l.14.81a.94.94 0 0 0 1.82.15l.41-1.15a.81.81 0 0 1 1.57.23q.08 1.57 1.05 3.69a.84.84 0 0 0 1.54-.03q.4-.97.7-4.49c.33-3.85 2.33-7.49 4.93-10.32q1.77-1.93 1.14-4.1-.4-1.34.52-2.3 2.84-2.97 4.46-4.45a.6.6 0 0 1 .77-.04l.02.02a.53.53 0 0 1 .08.76l-2.32 2.8a2.23 1.97-14.9 0 0-.24.36l-4.19 8.37a1.12 1.09 46.9 0 0-.02.94l.07.15a.62.62 0 0 0 1.06.05l4.92-7.53a1.05 1.05 0 0 1 1.1-.46l1.17.25a1.37 1.36-55.9 0 0 1.02-.2q4.67-3.14 5.78-7.39a.85.84 81.1 0 0-1.27-.93l-2.19 1.39a.36.36 0 0 1-.43-.04l-.36-.31a.08.08 0 0 1 .01-.13l5.61-3.58a.96.92-64.5 0 1 .32-.12l3.51-.62a1.2 1.2 0 0 0 .36-.12c5.52-2.76 15.74-5.54 21.72-2.98q1.8.77 4.56 1.38c3.09.69 6.32 3.3 9.58 2.53a3.63 3.54 63.8 0 1 3.61 1.28q2.48 3.1 5.37 5.96m-27.92-6.41a5.48 1.15-18.4 0 0-5.563.639 5.48 1.15-18.4 0 0-4.837 2.82 5.48 1.15-18.4 0 0 5.563-.638 5.48 1.15-18.4 0 0 4.837-2.82m-50.403 43.44a2.49.74-109.3 0 0 .125 2.595 2.49.74-109.3 0 0 1.521 2.105 2.49.74-109.3 0 0-.125-2.595 2.49.74-109.3 0 0-1.521-2.105"/><ellipse fill="#fff" rx="7.8" ry=".4" transform="rotate(259.9 306.518 21.535)"/><path fill="#fff" d="M389.7 324.81q.08.82-.14 1.53a.38.38 0 0 1-.25.25q-.5.15-.7-.45l-.76-6.05a.23.23 0 0 1 .21-.26l.31-.02a.07.07 0 0 1 .07.06z"/><ellipse fill="#fff" rx="5.48" ry="1.15" transform="rotate(-18.4 1082.05 -302.555)"/><path fill="#fff" d="M389.9 329.72q.49-.06.58.78.27 2.83-.12 2.88t-.83-2.76q-.13-.84.37-.9"/><path fill="#8dca63" d="M183.94 330.76q3.22.98 4.87 5.33a1.59 1.55-75.3 0 0 .21.37l6.3 7.83a.66.65-9.7 0 0 .27.19l.96.34a.71.71 0 0 0 .88-.98l-.97-1.99a.38.38 0 0 1 .32-.54l.31-.02a.89.88-18.3 0 1 .79.39q3.7 5.58 4.63 6.32 3.81 3.05 7.5 7.47.64.78 7.03 5.95a7.49 7 1.1 0 1 1 .97c3.47 4.06 8.19 5.61 13.29 6.68a12.39 11.6 60.3 0 1 2.17.67l9.98 4.18q.02.56.43 1.05a.19.17-45.3 0 1-.01.23l-14.81 17.13a.41.41 0 0 0 .27.67l5.71.69a.09.09 0 0 1 .08.1l-.03.25a.37.36-87.2 0 1-.35.32q-3.39.05-5.06-.62a2.18 2.18 0 0 0-2.54.68l-4.52 5.84a1.57 1.45-81.9 0 1-.53.43q-1.05.51-1.47 1.31-1 .13-2.2-.23.9-3.36 3.25-6.04c1.16-1.33 1-2.8 1.93-3.88 2.19-2.54 3.69-6.03 5.6-8.85a.19.18 36.9 0 0-.04-.25l-.01-.01a.2.19-52.5 0 0-.27.04q-3.83 4.61-3.95 4.8-.55.91-4.39 4.35-5.19 4.66-6.37 6.04-.96 1.11-1.8 2.76a.62.62 0 0 0 .54.9l3.27.11q-.67-.14-1.11.02a.27.27 0 0 0 0 .5q1.9.7 4.08.7.32.83.21 1.42a.82.81 3.6 0 1-.75.65q-4.37.22-8.77-1.35a2.48 2.36 50.8 0 0-1.1-.14q-3.7.33-7.15-1.73a4.68 4.63 63.7 0 0-1.83-.63l-5.77-.69a.39.39 0 0 0-.2.74q1.6.67 5.41 1.82c2.55.77 5.84 1.09 8.85 1.82q-1.27 3.69-4.17 6.93a1.27 1.26-70.5 0 1-.87.42l-2.63.17a.32.32 0 0 0-.15.6q1.63 1.01 3.27.73a.29.29 0 0 1 .31.4q-.92 2.08 2 3.08a.54.53 26.5 0 1 .28.81l-2.32 3.42a.8.46-30.1 0 0-.08.14q-.66 1.48-2.71 6.63c-.69 1.73-2.05 3.01-1.53 5.43l-4.34-.42 5.06-7.58a2.64 2.59-26.5 0 0 .44-1.27q.2-2.67 1.18-4.11a.78.77-54.5 0 0-.17-1.05c-1.47-1.12-3.01-1.87-4.39.02q-1.17 1.59-1.47 3.05a1.61 1.3 69.7 0 1-.13.39l-4.53 10.04-5.95-2.33a.74.67 25.3 0 0-.89.27l-.02.03a.66.61-61.7 0 0 .23.89l4.09 2.11q.05 2.16-1.24 4.59c-3.11.7-5.4-2.32-8.95-2.61a.64.64 0 0 0-.25 1.24l7.89 2.56-1.54 2.72q-9.81-3.95-12.59-4.84-4.87-1.56-7.38-2.97c-1.53-.87-3.31-1.39-5.08-2.25a.43.43 0 0 0-.62.33l-.03.29a.3.3 0 0 0 .16.31l10.12 5.36a2.49 2.48-23.3 0 0 .48.19l15.03 4.75-4.25 6.61q-8.93-3.54-17.23-7.64-3.53-1.74-5.8-3.26-1.02-.69-1.36-1.64a.23.23 0 0 1 .34-.27c5.03 3.3 12.11 7.54 18.68 8.56a.37.37 0 0 0 .27-.67c-3.08-2.2-6.24-2.76-9.45-4.61q-4.56-2.64-10.44-4.87a6.01 5.44-15.8 0 1-.93-.46c-2.24-1.39-4.19-2.33-6.05-3.66q-7.37-5.26-12.61-8.95-3.99-2.81-9.51-9.05 1.85-1.06 3.07-2.9c1.28-1.94 2.6-3.36 4.4-.96a.25.24-19.5 0 0 .22.1q.22-.02.32-.06a.2.2 0 0 0 .11-.29q-1.91-3.06-1.39-6.01 4.48 3.03 7.48 6.72a3.83 3.6-1.7 0 0 .87.77l6.54 4.07a1.4 1.29 1.5 0 1 .38.37q1.48 2.25 3.66 3.55a.26.26 0 0 0 .33-.38q-1.92-2.33-3.44-3.35a3.66 3.62 87.8 0 1-.79-.74q-4.27-5.38-11.06-8.97a2.41 2.11 79.8 0 1-.69-.55l-3.19-3.73q1.53-4.14 3.08-6.93 9.45-16.98 20.12-30.38c4.68-5.89 8.98-11.34 14.46-17.23q6.96-7.48 13.21-15.77m3.34 3.59-.86-.72a.26.26 0 0 0-.37.04l-.12.14a25.01.8-50.1 0 0-15.43 19.7l.03.03a25.01.8-50.1 0 0 16.66-18.67l.12-.15a.26.26 0 0 0-.03-.37m-10.273 29.719a2.07.52-151.7 0 0 1.576 1.439 2.07.52-151.7 0 0 2.07.523 2.07.52-151.7 0 0-1.576-1.439 2.07.52-151.7 0 0-2.07-.523m22.272 35.523a.57.37-165 0 0 .455.505.57.37-165 0 0 .647-.21.57.37-165 0 0-.455-.504.57.37-165 0 0-.647.21m12.928 1.834a2.22.37-3.2 0 0-2.238-.245 2.22.37-3.2 0 0-2.195.493 2.22.37-3.2 0 0 2.237.245 2.22.37-3.2 0 0 2.196-.493M176.06 413.24c-2.56-2.29-5.9-5.17-9.37-5.47-2.67-.23-4.1-2.54-7.05-2.62a.33.33 0 0 0-.24.57q4.15 4.02 10.72 4.44a3.07 3.02 61.4 0 1 1.26.38c1.36.8 2.82 2.4 4.52 2.97a.16.16 0 0 0 .16-.27m-13.17 2.403a3.54.54-149.5 0 0 2.776 2.262 3.54.54-149.5 0 0 3.324 1.332 3.54.54-149.5 0 0-2.776-2.262 3.54.54-149.5 0 0-3.324-1.332m-8.326 4.166a.74.35-150.8 0 0 .475.666.74.35-150.8 0 0 .817.056.74.35-150.8 0 0-.475-.666.74.35-150.8 0 0-.817-.056m18.406 1.201q.59.61.98.79 2.3 1.02 12.91 5.71a5.61 5.47 59.7 0 0 1.45.4q3.19.42 1.81.82a.24.24 0 0 1-.3-.26l.1-.8a.37.37 0 0 0-.27-.39q-5.88-1.51-12.05-5.58-2.21-1.45-4.37-1.34a.39.38-23.5 0 0-.26.65m-10 3.12-3.81-2.2a.46.46 0 0 0-.65.6l.33.68a.29.27-1.8 0 0 .17.15l3.71 1.32a.3.3 0 0 0 .25-.55m-14.117 2.4a3.75.62-148.5 0 0 2.873 2.489 3.75.62-148.5 0 0 3.521 1.43 3.75.62-148.5 0 0-2.873-2.488 3.75.62-148.5 0 0-3.521-1.43m32.517 6.89c-3.18-.88-8.74-2.21-10.69-4.48q-1.08-1.25-2.1-2.03a.3.3 0 0 0-.43.08l-.03.04a.3.29 30.3 0 0 .11.41q2.21 1.25 3.7 3.36a2.04 1.96-6.4 0 0 .97.74l8.24 2.92a.31.31 0 0 0 .4-.19l.11-.31a.42.42 0 0 0-.28-.54"/><rect width=".8" height="16.98" x="-.4" y="-8.49" fill="#fff" rx=".27" transform="rotate(-5.4 3808.26 -4071.36)"/><path fill="#f8d44d" d="M187.28 334.35a.26.26 0 0 1 .03.37l-.12.15a25.01.8-50.1 0 1-16.66 18.67l-.03-.03a25.01.8-50.1 0 1 15.43-19.7l.12-.14a.26.26 0 0 1 .37-.04z"/><path fill="#ab72df" d="M408.34 344.1q.44 0 .45 2.72.01 2.73-.43 2.73t-.45-2.73q-.01-2.72.43-2.72"/><ellipse fill="#fff" rx="4.65" ry=".3" transform="rotate(-66.4 426.65 -63.281)"/><ellipse fill="#fff" rx="2.76" ry=".43" transform="rotate(-80.1 410.497 -60.978)"/><ellipse fill="#fff" rx="4" ry=".49" transform="rotate(-56.9 490.154 -100.774)"/><ellipse fill="#fff" rx="2.07" ry=".52" transform="rotate(208.3 135.431 159.983)"/><path fill="#63a3ea" d="m344.31 363.7.03.03a13.32 1.92-43 0 1-8.44 10.49l-.29.27a13.32 1.92-43 0 1-11.05 7.68l-.03-.03z"/><ellipse fill="#fff" rx="2.49" ry=".74" transform="rotate(250.7 184.5 147.318)"/><rect width=".7" height="8.76" x="-.35" y="-4.38" fill="#fff" rx=".33" transform="rotate(22.1 -770.92 1200.35)"/><ellipse fill="#fff" rx="1.51" ry=".75" transform="rotate(-6.1 3661.346 -2168.741)"/><path fill="#63a3ea" d="m218.45 401.77-2.24-.03-3.27-.11a.62.62 0 0 1-.54-.9q.84-1.65 1.8-2.76 1.18-1.38 6.37-6.04 3.84-3.44 4.39-4.35.12-.19 3.95-4.8a.2.19-52.5 0 1 .27-.04l.01.01a.19.18 36.9 0 1 .04.25c-1.91 2.82-3.41 6.31-5.6 8.85-.93 1.08-.77 2.55-1.93 3.88q-2.35 2.68-3.25 6.04"/><ellipse fill="#fff" rx="2.4" ry=".56" transform="rotate(-29.4 893.156 -379.96)"/><path fill="#fff" d="M269.95 390.03q-2.7.93-3.77.98a.33.33 0 0 1-.1-.64q2.4-.64 3.83-.6a.13.13 0 0 1 .04.26m-136.88 11.04 3.19 3.73a2.41 2.11 79.8 0 0 .69.55q6.79 3.59 11.06 8.97a3.66 3.62 87.8 0 0 .79.74q1.52 1.02 3.44 3.35a.26.26 0 0 1-.33.38q-2.18-1.3-3.66-3.55a1.4 1.29 1.5 0 0-.38-.37l-6.54-4.07a3.83 3.6-1.7 0 1-.87-.77q-3-3.69-7.48-6.72l-4-4.94a.38.37-88.7 0 1 .54-.52z"/><ellipse fill="#fff" rx=".57" ry=".37" transform="rotate(195 126.228 186.716)"/><ellipse fill="#fff" rx="3.95" ry=".55" transform="rotate(-54.3 581.842 -167.085)"/><path fill="#fff" d="M219.18 402.96q.57-1.03 1.78-.76l12.51.76a2.46 2.27 37.1 0 0 .72-.07l9.16-2.4a.26.24-30.6 0 1 .24.05l.88.76a.29.29 0 0 1-.13.5l-20.99 3.71a.89.89 0 0 0-.69.59q-.07.2-.09.27a.85.83-78.8 0 1-.83.57q-6.48-.29-7.89-.77-3.16-1.06-5.77-1.3c-3.01-.73-6.3-1.05-8.85-1.82q-3.81-1.15-5.41-1.82a.39.39 0 0 1 .2-.74l5.77.69a4.68 4.63 63.7 0 1 1.83.63q3.45 2.06 7.15 1.73a2.48 2.36 50.8 0 1 1.1.14q4.4 1.57 8.77 1.35a.82.81 3.6 0 0 .75-.65q.11-.59-.21-1.42"/><ellipse fill="#fff" rx="2.22" ry=".37" transform="rotate(-3.2 7292.851 -3558.104)"/><path fill="#f8d44d" d="m216.21 401.74 2.24.03q1.2.36 2.2.23.34.14.31.2-1.21-.27-1.78.76-2.18 0-4.08-.7a.27.27 0 0 1 0-.5q.44-.16 1.11-.02"/><path fill="#fff" d="M175.9 413.51c-1.7-.57-3.16-2.17-4.52-2.97a3.07 3.02 61.4 0 0-1.26-.38q-6.57-.42-10.72-4.44a.33.33 0 0 1 .24-.57c2.95.08 4.38 2.39 7.05 2.62 3.47.3 6.81 3.18 9.37 5.47a.16.16 0 0 1-.16.27"/><rect width="1.02" height="10.52" x="-.51" y="-5.26" fill="#8dca63" rx=".3" transform="rotate(40 -460.506 497.113)"/><path fill="#fff" d="m360.5 422.68 5.24-5.23a9.76 8.42-32.3 0 0 .89-1.03l4.74-6.37a.51.51 0 0 1 .87.1c.52 1.17-.36 2.49-1.27 3.14q-4.55 3.29-7.55 7.84-.49.75-2.67 1.89a.21.21 0 0 1-.25-.34"/><rect width="6.46" height=".82" x="-3.23" y="-.41" fill="#fff" rx=".27" transform="rotate(-1.7 14068.01 -7690.832)"/><ellipse fill="#fff" rx="3.54" ry=".54" transform="rotate(210.5 139.874 186.1)"/><path fill="#fff" d="M358.29 417.9a.07.07 0 0 1 .1.01l.35.43a11.55.46-39.3 0 1-8.65 7.67l-.34.28a11.55.46-39.3 0 1-9.23 6.96l-.35-.43a.07.07 0 0 1 .01-.1z"/><path fill="#63a3ea" d="M195.14 433.21q-1.96.18-4.01-.51l4.53-10.04a1.61 1.3 69.7 0 0 .13-.39q.3-1.46 1.47-3.05c1.38-1.89 2.92-1.14 4.39-.02a.78.77-54.5 0 1 .17 1.05q-.98 1.44-1.18 4.11a2.64 2.59-26.5 0 1-.44 1.27z"/><ellipse fill="#fff" rx=".74" ry=".35" transform="rotate(209.2 132.328 189.87)"/><path fill="#fff" d="M172.97 421.01a.39.38-23.5 0 1 .26-.65q2.16-.11 4.37 1.34 6.17 4.07 12.05 5.58a.37.37 0 0 1 .27.39l-.1.8a.24.24 0 0 0 .3.26q1.38-.4-1.81-.82a5.61 5.47 59.7 0 1-1.45-.4q-10.61-4.69-12.91-5.71-.39-.18-.98-.79m-10 3.12a.3.3 0 0 1-.25.55l-3.71-1.32a.29.27-1.8 0 1-.17-.15l-.33-.68a.46.46 0 0 1 .65-.6z"/><ellipse fill="#fff" rx="3.75" ry=".62" transform="rotate(211.5 136.448 192.804)"/><path fill="#fff" d="M181.37 433.42a.42.42 0 0 1 .28.54l-.11.31a.31.31 0 0 1-.4.19l-8.24-2.92a2.04 1.96-6.4 0 1-.97-.74q-1.49-2.11-3.7-3.36a.3.29 30.3 0 1-.11-.41l.03-.04a.3.3 0 0 1 .43-.08q1.02.78 2.1 2.03c1.95 2.27 7.51 3.6 10.69 4.48"/><rect width="12.24" height=".84" x="-6.12" y="-.42" fill="#fff" rx=".39" transform="rotate(-19.3 1420.92 -671.092)"/><path fill="#fff" d="M191.13 432.7q2.05.69 4.01.51l4.34.42q3.38 2.19 7.99 1.75 1.53-.15 2.11.94a.39.39 0 0 1-.34.58l-5.95.05a7.58 7.51-38.1 0 1-1.89-.22l-12.81-3.06-4.09-2.11a.66.61-61.7 0 1-.23-.89l.02-.03a.74.67 25.3 0 1 .89-.27zm-6.63 9.47q.85.05 1.38.53a.35.34 65.6 0 1-.22.6l-1.07.04-15.03-4.75a2.49 2.48-23.3 0 1-.48-.19l-10.12-5.36a.3.3 0 0 1-.16-.31l.03-.29a.43.43 0 0 1 .62-.33c1.77.86 3.55 1.38 5.08 2.25q2.51 1.41 7.38 2.97 2.78.89 12.59 4.84m2.85-3.91q.17.44.08.79-.1.41-.56.51-.42.09-.83-.11l-7.89-2.56a.64.64 0 0 1 .25-1.24c3.55.29 5.84 3.31 8.95 2.61m86.71-1.32q-.71 1.35-2.38 2.1l-9.56 2.45a.53.52 63.7 0 0-.28.83l.21.28a.33.33 0 0 1-.34.52c-6.52-1.74-10.77 1.37-16.47 1.69q-8.99.51-17.99 1.13-2.25.16-5.68-.54a.33.32-60.2 0 1-.15-.56q.71-.66 1.86-.46 5.82.98 10.41.27c4.75-.73 8.6.06 12.84-1.26q2.86-.88 6.51-1.56 10.5-1.94 21.02-4.89"/><ellipse fill="#fff" rx=".82" ry=".6" transform="rotate(-2.4 10619.087 -4390.505)"/><ellipse fill="#fff" rx="1.16" ry=".87" transform="rotate(-36 777.674 -83.07)"/><path fill="#fff" d="m285.28 455.58-.01-.02a.5.5 0 0 1 .31-.63c4.95-1.67 8.22-3.74 13.16-5.07q5.26-1.42 11.95-5.09a1.69 1.44-63.5 0 1 .33-.14l5.38-1.78a.38.38 0 0 1 .45.55q-.67 1.18-1.46 1.52c-3.63 1.57-7.13 3.51-10.8 4.22q-3.76.72-7.36 3.01a2.27 1.84-65 0 1-.37.18l-11.04 3.5a.45.44-19.5 0 1-.54-.25"/><path fill="#63a3ea" d="M284.29 443.24a.3.3 0 0 1 .25.54q-1.26.95-3.46 1.24c-2.17.29-2.79.83-5 1.9a.23.23 0 0 1-.29-.34q.58-.89 1.72-1.43 1.36-.64 6.78-1.91"/><path fill="#fff" d="M197.81 445.95a.1.1 0 0 1 .07.12l-.01.03a3.43 1.07 14.1 0 1-3.58.2l-.55-.14a3.43 1.07 14.1 0 1-3.06-1.87v-.03a.1.1 0 0 1 .12-.07z"/><ellipse fill="#fff" rx="3.9" ry=".41" transform="rotate(192.7 131.195 210.833)"/><ellipse fill="#fff" rx="1.38" ry=".29" transform="rotate(189.4 120.127 215.588)"/><ellipse fill="#fff" rx="1.67" ry=".4" transform="rotate(-25.6 1153.896 -403.311)"/><path fill="#fff" d="M265.67 462.93a.22.22 0 0 1 .17-.26L279.7 460a2.23.8-10.9 0 1 2.34.36 2.23.8-10.9 0 1-2.04 1.21l-13.85 2.67a.22.22 0 0 1-.26-.17z"/></svg>