<svg xmlns="http://www.w3.org/2000/svg" viewBox="0 0 316 307"><g fill="none" stroke-width="2"><path stroke="#ffa001" d="M223.04 124.38q-17.32-11.79-36.63-20.15" vector-effect="non-scaling-stroke"/><path stroke="#fecf5f" d="M222.71 187.17c-2.81-1.83-5.28-3.99-7.93-5.51q-24.34-13.89-46.34-24.59-15.56-7.57-31.42-15.09-1.42-.67-3.84-1.54-1.97-.71-3.81-1.61" vector-effect="non-scaling-stroke"/></g><path fill="#ff8401" d="M223.04 124.38q-17.32-11.79-36.63-20.15 2.01-4.57 4.16-8.44 24.82-44.76 41.95-76.29 4.33-7.96 7.02-10.19c8.04-6.64 17.88-7.4 26.57-1.37q9.88 6.85 8.7 19.89-.37 4.12-2.15 7.32-25.88 46.55-46.34 83.51-1.46 2.62-3.28 5.72"/><path fill="#febc01" d="M89.52 70.7q-1 3.3-4.08 13.68c-.9 3.05-4.05 4.19-6.55 2.47q-1.21-.82-2.04-3.39-1.4-4.32-3.66-12.77a1.4 1.4 0 0 0-.98-.98q-6.75-1.82-11.38-3.31c-2.2-.71-4.14-1.98-3.98-4.41q.22-3.21 3.24-4.18 4.45-1.44 12.58-3.64a1.32 1.32 0 0 0 .94-.95q1.55-6.1 4.01-13.62c1.38-4.21 6.45-4.7 8.05-.44q1.93 5.12 4.09 13.85a1.46 1.45-88.6 0 0 .98 1.04l12.78 3.9a2.28 2.12 69.8 0 1 .67.34c4.47 3.41 1.22 7.46-3.19 8.45q-1.14.26-10.54 3.02a1.41 1.38-89.4 0 0-.94.94m96.89 33.53q19.31 8.36 36.63 20.15 3.66 3.14 7.14 6.41c7.78 7.31 10 16.41 8.85 26.83q-.43 3.91-3.51 10.38-2.94 6.16-5.48 13.1-1.1 2.98-2.59 4.43-2.01 1.94-4.74 1.64c-2.81-1.83-5.28-3.99-7.93-5.51q-24.34-13.89-46.34-24.59-15.56-7.57-31.42-15.09-1.42-.67-3.84-1.54-1.97-.71-3.81-1.61c-1.06-1.91-.19-4.91.81-6.42q5.48-8.24 11.96-19.48c6.22-10.79 20.1-14.85 31.83-12.83q4.59.79 12.44 4.13M52.88 129.3q-.02 2.66-2.7 3.65-5.69 2.09-11.99 3.96a1.79 1.77 1.2 0 0-1.17 1.11q-1.06 2.94-4.4 13.61c-1.12 3.56-5.15 3.67-7.34.58a1.41 1.37-70.7 0 1-.18-.39l-3.81-14.02a1.99 1.98-89.2 0 0-1.33-1.37q-6.95-2.08-10.98-3.59-2.78-1.04-2.75-3.97.02-2.92 2.82-3.91 4.06-1.44 11.05-3.39a1.99 1.98-89.8 0 0 1.35-1.35l4.07-13.95a1.41 1.37 71.7 0 1 .18-.38c2.25-3.05 6.28-2.87 7.33.71q3.15 10.73 4.15 13.69a1.79 1.77-.2 0 0 1.15 1.13q6.27 1.99 11.92 4.18 2.66 1.04 2.63 3.7"/><path fill="#fee1bc" d="M129.37 138.83q1.84.9 3.81 1.61 2.42.87 3.84 1.54 15.86 7.52 31.42 15.09 22 10.7 46.34 24.59c2.65 1.52 5.12 3.68 7.93 5.51q-9.89 46.96-26.2 92.34c-1.57 4.36-4.66 11.8-8.35 15.27-5.32 5-11.29 8.78-18.67 7.82-5.46-.71-9.76-2.15-11.59-7.73-1.55-4.72-.76-8.27.69-12.79a.55.55 0 0 0-.35-.69l-.28-.1a.24.23-67.9 0 0-.28.12q-3.18 6.29-6.96 9.56-10.98 9.5-24.45 4.06c-9.66-3.91-8.34-15.3-4.29-22.63a.39.39 0 0 0-.6-.49q-1.08.95-1.99 2.32a3.28 3.05-88.6 0 1-.83.85q-2.68 1.87-5.33 4.18c-5.56 4.85-13.22 6.18-20.44 5.45-5.57-.56-13.48-3.56-15.41-9.32q-2.23-6.68.77-12.67c.97-1.94 2.99-3.79 4.06-5.39a.43.42-3.1 0 0-.63-.56q-5.12 4.22-12.79 7.39-6.55 2.7-11.57 2.77-6.25.08-11.84-1.57c-11.13-3.28-18.14-15.36-8.57-25.07q3.03-3.07 5.93-4.93a.39.39 0 0 0 .14-.51l-.01-.01a.43.41 63.4 0 0-.54-.19q-8.52 3.86-18.56 4.16c-7.42.22-12.51-2.01-17.14-7.67-5.5-6.73-5.77-15.21-1.15-22.4 1.14-1.77 3.73-3 5.97-3.51 18.63-4.18 35.69-12.52 53.4-22.29q20.45-11.29 34.77-21.59 8.63-6.2 17.14-12.14 2.89-2.02 6.38-5.09 3.14-2.75 6.23-5.29"/><path fill="#febc01" d="M280.57 188.89a1.35 1.33 1 0 0-.86-.88l-13.61-4.45a.9.87-14.1 0 1-.35-.2c-3.74-3.46-.22-7.55 3.73-8.5q3.04-.73 9.98-2.69a.88.86-87.8 0 0 .59-.56q2.99-8.67 3.91-11.77.84-2.81 1.73-3.62c2.81-2.54 5.78-.6 6.85 2.61q1.69 5.12 4.06 12.14a1.68 1.65 1.3 0 0 1 1.03q5.62 2.12 12.45 4.19c3.03.92 4.48 4.32 1.93 6.83q-1.06 1.04-3.52 1.75-4.96 1.41-10.6 3.13a2.33 2.33 0 0 0-1.54 1.5q-2.01 6.19-4.03 13.08c-1.01 3.41-4.79 4.46-7.28 1.37a.76.64 21.6 0 1-.14-.26z"/></svg>