<svg xmlns="http://www.w3.org/2000/svg" version="1.1" viewBox="0.00 0.00 316.00 307.00">
<g stroke-width="2.00" fill="none" stroke-linecap="butt">
<path stroke="#ffa001" vector-effect="non-scaling-stroke" d="
  M 223.04 124.38
  Q 205.72 112.59 186.41 104.23"
/>
<path stroke="#fecf5f" vector-effect="non-scaling-stroke" d="
  M 222.71 187.17
  C 219.90 185.34 217.43 183.18 214.78 181.66
  Q 190.44 167.77 168.44 157.07
  Q 152.88 149.50 137.02 141.98
  Q 135.60 141.31 133.18 140.44
  Q 131.21 139.73 129.37 138.83"
/>
</g>
<path fill="#ff8401" d="
  M 223.04 124.38
  Q 205.72 112.59 186.41 104.23
  Q 188.42 99.66 190.57 95.79
  Q 215.39 51.03 232.52 19.50
  Q 236.85 11.54 239.54 9.31
  C 247.58 2.67 257.42 1.91 266.11 7.94
  Q 275.99 14.79 274.81 27.83
  Q 274.44 31.95 272.66 35.15
  Q 246.78 81.70 226.32 118.66
  Q 224.86 121.28 223.04 124.38
  Z"
/>
<path fill="#febc01" d="
  M 89.52 70.70
  Q 88.52 74.00 85.44 84.38
  C 84.54 87.43 81.39 88.57 78.89 86.85
  Q 77.68 86.03 76.85 83.46
  Q 75.45 79.14 73.19 70.69
  A 1.40 1.40 0.0 0 0 72.21 69.71
  Q 65.46 67.89 60.83 66.40
  C 58.63 65.69 56.69 64.42 56.85 61.99
  Q 57.07 58.78 60.09 57.81
  Q 64.54 56.37 72.67 54.17
  A 1.32 1.32 0.0 0 0 73.61 53.22
  Q 75.16 47.12 77.62 39.60
  C 79.00 35.39 84.07 34.90 85.67 39.16
  Q 87.60 44.28 89.76 53.01
  A 1.46 1.45 -88.6 0 0 90.74 54.05
  L 103.52 57.95
  A 2.28 2.12 69.8 0 1 104.19 58.29
  C 108.66 61.70 105.41 65.75 101.00 66.74
  Q 99.86 67.00 90.46 69.76
  A 1.41 1.38 -89.4 0 0 89.52 70.70
  Z"
/>
<path fill="#febc01" d="
  M 186.41 104.23
  Q 205.72 112.59 223.04 124.38
  Q 226.70 127.52 230.18 130.79
  C 237.96 138.10 240.18 147.20 239.03 157.62
  Q 238.60 161.53 235.52 168.00
  Q 232.58 174.16 230.04 181.10
  Q 228.94 184.08 227.45 185.53
  Q 225.44 187.47 222.71 187.17
  C 219.90 185.34 217.43 183.18 214.78 181.66
  Q 190.44 167.77 168.44 157.07
  Q 152.88 149.50 137.02 141.98
  Q 135.60 141.31 133.18 140.44
  Q 131.21 139.73 129.37 138.83
  C 128.31 136.92 129.18 133.92 130.18 132.41
  Q 135.66 124.17 142.14 112.93
  C 148.36 102.14 162.24 98.08 173.97 100.10
  Q 178.56 100.89 186.41 104.23
  Z"
/>
<path fill="#febc01" d="
  M 52.88 129.30
  Q 52.86 131.96 50.18 132.95
  Q 44.49 135.04 38.19 136.91
  A 1.79 1.77 1.2 0 0 37.02 138.02
  Q 35.96 140.96 32.62 151.63
  C 31.50 155.19 27.47 155.30 25.28 152.21
  A 1.41 1.37 -70.7 0 1 25.10 151.82
  L 21.29 137.80
  A 1.99 1.98 -89.2 0 0 19.96 136.43
  Q 13.01 134.35 8.98 132.84
  Q 6.20 131.80 6.23 128.87
  Q 6.25 125.95 9.05 124.96
  Q 13.11 123.52 20.10 121.57
  A 1.99 1.98 -89.8 0 0 21.45 120.22
  L 25.52 106.27
  A 1.41 1.37 71.7 0 1 25.70 105.89
  C 27.95 102.84 31.98 103.02 33.03 106.60
  Q 36.18 117.33 37.18 120.29
  A 1.79 1.77 -0.2 0 0 38.33 121.42
  Q 44.60 123.41 50.25 125.60
  Q 52.91 126.64 52.88 129.30
  Z"
/>
<path fill="#fee1bc" d="
  M 129.37 138.83
  Q 131.21 139.73 133.18 140.44
  Q 135.60 141.31 137.02 141.98
  Q 152.88 149.50 168.44 157.07
  Q 190.44 167.77 214.78 181.66
  C 217.43 183.18 219.90 185.34 222.71 187.17
  Q 212.82 234.13 196.51 279.51
  C 194.94 283.87 191.85 291.31 188.16 294.78
  C 182.84 299.78 176.87 303.56 169.49 302.60
  C 164.03 301.89 159.73 300.45 157.90 294.87
  C 156.35 290.15 157.14 286.60 158.59 282.08
  A 0.55 0.55 0.0 0 0 158.24 281.39
  L 157.96 281.29
  A 0.24 0.23 -67.9 0 0 157.68 281.41
  Q 154.50 287.70 150.72 290.97
  Q 139.74 300.47 126.27 295.03
  C 116.61 291.12 117.93 279.73 121.98 272.40
  A 0.39 0.39 0.0 0 0 121.38 271.91
  Q 120.30 272.86 119.39 274.23
  A 3.28 3.05 -88.6 0 1 118.56 275.08
  Q 115.88 276.95 113.23 279.26
  C 107.67 284.11 100.01 285.44 92.79 284.71
  C 87.22 284.15 79.31 281.15 77.38 275.39
  Q 75.15 268.71 78.15 262.72
  C 79.12 260.78 81.14 258.93 82.21 257.33
  A 0.43 0.42 -3.1 0 0 81.58 256.77
  Q 76.46 260.99 68.79 264.16
  Q 62.24 266.86 57.22 266.93
  Q 50.97 267.01 45.38 265.36
  C 34.25 262.08 27.24 250.00 36.81 240.29
  Q 39.84 237.22 42.74 235.36
  A 0.39 0.39 0.0 0 0 42.88 234.85
  L 42.87 234.84
  A 0.43 0.41 63.4 0 0 42.33 234.65
  Q 33.81 238.51 23.77 238.81
  C 16.35 239.03 11.26 236.80 6.63 231.14
  C 1.13 224.41 0.86 215.93 5.48 208.74
  C 6.62 206.97 9.21 205.74 11.45 205.23
  C 30.08 201.05 47.14 192.71 64.85 182.94
  Q 85.30 171.65 99.62 161.35
  Q 108.25 155.15 116.76 149.21
  Q 119.65 147.19 123.14 144.12
  Q 126.28 141.37 129.37 138.83
  Z"
/>
<path fill="#febc01" d="
  M 280.57 188.89
  A 1.35 1.33 1.0 0 0 279.71 188.01
  L 266.10 183.56
  A 0.90 0.87 -14.1 0 1 265.75 183.36
  C 262.01 179.90 265.53 175.81 269.48 174.86
  Q 272.52 174.13 279.46 172.17
  A 0.88 0.86 -87.8 0 0 280.05 171.61
  Q 283.04 162.94 283.96 159.84
  Q 284.80 157.03 285.69 156.22
  C 288.50 153.68 291.47 155.62 292.54 158.83
  Q 294.23 163.95 296.60 170.97
  A 1.68 1.65 1.3 0 0 297.60 172.00
  Q 303.22 174.12 310.05 176.19
  C 313.08 177.11 314.53 180.51 311.98 183.02
  Q 310.92 184.06 308.46 184.77
  Q 303.50 186.18 297.86 187.90
  A 2.33 2.33 0.0 0 0 296.32 189.40
  Q 294.31 195.59 292.29 202.48
  C 291.28 205.89 287.50 206.94 285.01 203.85
  A 0.76 0.64 21.6 0 1 284.87 203.59
  L 280.57 188.89
  Z"
/>
</svg>
