<?xml version="1.0" encoding="UTF-8" standalone="no"?>
<!DOCTYPE svg PUBLIC "-//W3C//DTD SVG 1.1//EN" "http://www.w3.org/Graphics/SVG/1.1/DTD/svg11.dtd">
<svg xmlns="http://www.w3.org/2000/svg" version="1.1" viewBox="0.00 0.00 635.00 635.00">
<g stroke-width="2.00" fill="none" stroke-linecap="butt">
<path stroke="#fee383" vector-effect="non-scaling-stroke" d="
  M 431.17 123.95
  Q 424.60 120.14 417.06 118.02
  Q 408.07 115.49 406.23 114.86
  Q 400.13 112.76 394.44 110.96"
/>
<path stroke="#fee383" vector-effect="non-scaling-stroke" d="
  M 292.94 78.75
  L 253.95 66.03"
/>
<path stroke="#f69505" vector-effect="non-scaling-stroke" d="
  M 213.14 553.94
  C 222.58 553.46 230.42 545.93 229.99 536.11
  Q 226.43 453.54 221.59 349.45
  Q 220.97 336.13 220.52 334.59
  C 218.02 326.11 210.24 320.58 201.20 321.04
  C 192.16 321.51 184.99 327.80 183.37 336.50
  Q 183.08 338.07 183.82 351.38
  Q 189.65 455.43 194.55 537.93
  C 195.13 547.74 203.69 554.42 213.14 553.94"
/>
<path stroke="#f69505" vector-effect="non-scaling-stroke" d="
  M 323.32 338.37
  A 17.19 17.19 0.0 0 0 306.13 321.18
  L 305.29 321.18
  A 17.19 17.19 0.0 0 0 288.10 338.37
  L 288.10 536.67
  A 17.19 17.19 0.0 0 0 305.29 553.86
  L 306.13 553.86
  A 17.19 17.19 0.0 0 0 323.32 536.67
  L 323.32 338.37"
/>
<path stroke="#f69505" vector-effect="non-scaling-stroke" d="
  M 397.72 553.93
  C 407.16 554.44 415.76 547.79 416.37 537.98
  Q 421.59 455.50 427.81 351.48
  Q 428.60 338.17 428.32 336.60
  C 426.74 327.90 419.58 321.57 410.55 321.07
  C 401.51 320.58 393.70 326.08 391.18 334.55
  Q 390.72 336.08 390.05 349.40
  Q 384.81 453.47 380.94 536.03
  C 380.48 545.85 388.28 553.41 397.72 553.93"
/>
</g>
<path fill="#fefefe" d="
  M 431.17 123.95
  Q 424.60 120.14 417.06 118.02
  Q 408.07 115.49 406.23 114.86
  Q 400.13 112.76 394.44 110.96
  Q 395.18 104.99 396.99 99.42
  Q 398.99 93.25 399.09 91.58
  C 399.64 82.51 393.50 75.38 385.04 72.69
  Q 335.62 56.98 324.81 53.33
  Q 316.78 50.61 312.86 50.94
  C 299.27 52.06 297.17 62.85 293.17 74.11
  Q 292.63 75.65 292.94 78.75
  L 253.95 66.03
  Q 254.35 61.74 254.83 59.86
  Q 257.88 47.89 260.93 40.19
  C 269.65 18.16 288.99 5.91 312.84 7.54
  Q 317.71 7.87 327.03 11.18
  Q 331.66 12.82 342.64 16.32
  Q 378.55 27.74 402.67 35.52
  Q 416.08 39.84 420.93 43.10
  C 441.54 57.01 445.62 80.38 438.26 103.03
  Q 433.49 117.69 431.17 123.95
  Z"
/>
<path fill="#fec808" d="
  M 253.95 66.03
  L 292.94 78.75
  Q 338.15 93.55 383.52 108.21
  Q 389.69 110.21 394.44 110.96
  Q 400.13 112.76 406.23 114.86
  Q 408.07 115.49 417.06 118.02
  Q 424.60 120.14 431.17 123.95
  Q 487.14 142.45 543.59 160.21
  C 554.35 163.59 560.81 172.08 561.57 183.04
  Q 561.84 186.86 559.63 193.57
  Q 558.00 198.56 551.74 218.80
  Q 549.60 225.73 547.04 229.04
  Q 539.11 239.32 524.71 237.61
  Q 523.08 237.42 516.81 235.02
  Q 512.06 233.19 508.97 232.33
  Q 495.29 228.49 486.39 225.29
  C 477.79 222.20 470.55 220.47 462.24 217.47
  Q 458.05 215.95 452.62 214.22
  Q 414.19 201.98 394.44 195.39
  C 382.24 191.32 373.50 188.92 362.64 185.06
  Q 356.33 182.82 341.72 178.31
  Q 330.71 174.91 320.74 171.68
  Q 221.23 139.53 186.53 128.23
  C 159.99 119.58 133.28 111.23 104.43 101.87
  Q 103.01 101.42 99.82 99.13
  C 94.48 95.32 90.83 86.17 91.83 79.65
  Q 92.17 77.48 92.83 75.40
  Q 95.12 68.25 102.63 46.55
  Q 105.55 38.11 107.97 35.51
  C 114.33 28.69 124.06 25.14 133.29 28.04
  Q 183.33 43.77 217.85 54.97
  Q 233.09 59.92 248.14 64.86
  Q 251.00 65.80 253.95 66.03
  Z"
/>
<path fill="#fec808" d="
  M 492.83 556.89
  Q 491.30 571.49 489.58 588.84
  Q 488.67 598.09 481.96 607.98
  Q 471.97 622.72 455.32 627.09
  Q 449.36 628.65 433.08 628.61
  Q 355.86 628.39 167.24 628.52
  Q 156.34 628.53 145.80 623.22
  Q 138.97 619.79 134.66 615.33
  C 127.67 608.10 122.17 598.82 121.10 588.97
  Q 120.61 584.48 112.82 505.99
  Q 110.25 480.05 104.98 422.98
  C 100.52 374.65 95.73 328.69 90.21 274.27
  Q 89.08 263.14 90.19 257.76
  C 92.70 245.60 100.85 235.68 113.16 231.59
  Q 117.29 230.21 126.11 230.15
  Q 134.79 230.09 139.25 230.09
  Q 320.27 230.18 477.00 230.10
  C 482.79 230.09 489.93 229.30 495.00 230.28
  C 503.94 232.00 514.17 238.68 518.23 246.74
  Q 520.79 251.83 522.40 259.35
  Q 523.21 263.13 522.15 272.62
  Q 517.79 311.48 514.25 346.75
  Q 501.23 476.65 492.83 556.89
  Z
  M 213.14 553.94
  C 222.58 553.46 230.42 545.93 229.99 536.11
  Q 226.43 453.54 221.59 349.45
  Q 220.97 336.13 220.52 334.59
  C 218.02 326.11 210.24 320.58 201.20 321.04
  C 192.16 321.51 184.99 327.80 183.37 336.50
  Q 183.08 338.07 183.82 351.38
  Q 189.65 455.43 194.55 537.93
  C 195.13 547.74 203.69 554.42 213.14 553.94
  Z
  M 323.32 338.37
  A 17.19 17.19 0.0 0 0 306.13 321.18
  L 305.29 321.18
  A 17.19 17.19 0.0 0 0 288.10 338.37
  L 288.10 536.67
  A 17.19 17.19 0.0 0 0 305.29 553.86
  L 306.13 553.86
  A 17.19 17.19 0.0 0 0 323.32 536.67
  L 323.32 338.37
  Z
  M 397.72 553.93
  C 407.16 554.44 415.76 547.79 416.37 537.98
  Q 421.59 455.50 427.81 351.48
  Q 428.60 338.17 428.32 336.60
  C 426.74 327.90 419.58 321.57 410.55 321.07
  C 401.51 320.58 393.70 326.08 391.18 334.55
  Q 390.72 336.08 390.05 349.40
  Q 384.81 453.47 380.94 536.03
  C 380.48 545.85 388.28 553.41 397.72 553.93
  Z"
/>
<path fill="#ee6202" d="
  M 213.14 553.94
  C 203.69 554.42 195.13 547.74 194.55 537.93
  Q 189.65 455.43 183.82 351.38
  Q 183.08 338.07 183.37 336.50
  C 184.99 327.80 192.16 321.51 201.20 321.04
  C 210.24 320.58 218.02 326.11 220.52 334.59
  Q 220.97 336.13 221.59 349.45
  Q 226.43 453.54 229.99 536.11
  C 230.42 545.93 222.58 553.46 213.14 553.94
  Z"
/>
<rect fill="#ee6202" x="288.10" y="321.18" width="35.22" height="232.68" rx="17.19"/>
<path fill="#ee6202" d="
  M 410.55 321.07
  C 419.58 321.57 426.74 327.90 428.32 336.60
  Q 428.60 338.17 427.81 351.48
  Q 421.59 455.50 416.37 537.98
  C 415.76 547.79 407.16 554.44 397.72 553.93
  C 388.28 553.41 380.48 545.85 380.94 536.03
  Q 384.81 453.47 390.05 349.40
  Q 390.72 336.08 391.18 334.55
  C 393.70 326.08 401.51 320.58 410.55 321.07
  Z"
/>
</svg>
