<svg xmlns="http://www.w3.org/2000/svg" viewBox="0 0 652 652"><g fill="none" stroke-width="2"><path stroke="#ffe384" d="m437.86 122.03-41.33-.09m-141.62.04-41.02-.02" vector-effect="non-scaling-stroke"/><path stroke="#f69505" d="M231.26 565.83c7.18-.36 13.38-4.52 16.02-11.03q1.26-3.12.85-12.25-7.32-163.8-8.64-193.78c-.48-11.11-9.61-18.73-20.25-18.19-10.64.55-18.95 9.06-18.3 20.16q1.75 29.96 11.17 193.65.52 9.13 2.1 12.1c3.29 6.21 9.88 9.71 17.05 9.34M343.03 348.3a17.61 17.61 0 0 0-17.61-17.61h-.88a17.61 17.61 0 0 0-17.61 17.61v199.98a17.61 17.61 0 0 0 17.61 17.61h.88a17.61 17.61 0 0 0 17.61-17.61V348.3m57.87 200.16c-.31 5.03 3.16 10.65 6.91 13.75 9.16 7.54 23.95 3.26 28.52-7.5q.85-1.98 1.22-8.43c3.87-66.64 7.61-125.14 11.45-191.21q.43-7.46-.68-10.98-2.79-8.86-11.17-12.18c-9.16-3.64-18.52-.31-24.06 7.77q-2.49 3.65-2.54 8.83-.02 1.85-.44 11.24-.67 15.23-5.05 101.43c-1.52 29.83-2.53 61.14-4.16 87.28" vector-effect="non-scaling-stroke"/></g><path fill="#fff" d="m437.86 122.03-41.33-.09q-1.58-15.57-1.49-31.63.04-6.31-.89-8.9c-3.39-9.45-11.8-16.59-21.87-17.08q-6.85-.33-24.45-.04-22.6.37-67.07-.1c-14.37-.16-25.27 10.53-24.83 25.06q.5 16.68-1.02 32.73l-41.02-.02q-1.77-7.2-1.66-14.81c.17-11.67-.16-23.15.34-30.42 1.82-26.29 20.51-48.3 46.21-53.79q5.73-1.23 27.09-1.25 58.15-.05 94.84.04c11.6.03 22.31 4.08 32.14 10.65 15.43 10.31 24.35 28.03 24.92 46.33q.52 16.5.09 43.32"/><path fill="#fec708" d="M254.91 121.98q3 .51 7.84.51 61.13-.09 122.25.05 6.73.01 11.53-.6l41.33.09q5.71.53 14.39.47 3.11-.02 78.71-.05 16.37-.01 19.03.65c9.99 2.5 17.92 9.82 20.79 20.14q.86 3.09.85 11.13-.04 40.49-.13 43.56c-.35 12.08-10.09 22.31-21.33 24.9q-2.92.67-18.36.68-96.39.09-387.81.05-29.16 0-32.67-.05-10.61-.14-14.02-1.45c-7.79-2.98-15.35-9.92-17.55-18.05q-1-3.72-.97-11.62.06-18.92-.07-37.15-.08-9.82 1.53-14.29 3.18-8.84 11.74-14.23c6.76-4.25 11.76-4.15 20.95-4.19q39.37-.16 88.81.06 6.31.03 12.14-.63zm258.34 115.53c5.99.07 13.62 3.71 18.75 7.45q2.92 2.14 6.29 7 7.66 11.06 5.9 26.97-3.6 32.52-21.19 204.86-8.46 82.82-11.55 115.69-1.52 16.12-14.02 28.47-13.51 13.36-32.93 13.4-125.84.26-272.74.04c-6.73-.01-11.06.29-15.93-.83q-10.41-2.41-17.13-6.97-13.36-9.08-19.18-24.82-1.71-4.65-2.48-14.7-.68-8.81-2.16-23.8-7.65-77.58-14.33-147.74c-4.59-48.09-9.76-96.87-13.99-139.07q-1.22-12.2-.4-16.43c3.21-16.53 14.83-28.71 31.91-29.38q6.32-.25 18.43-.26 64.01-.03 335.75 0 10.44 0 21 .12M231.26 565.83c7.18-.36 13.38-4.52 16.02-11.03q1.26-3.12.85-12.25-7.32-163.8-8.64-193.78c-.48-11.11-9.61-18.73-20.25-18.19-10.64.55-18.95 9.06-18.3 20.16q1.75 29.96 11.17 193.65.52 9.13 2.1 12.1c3.29 6.21 9.88 9.71 17.05 9.34M343.03 348.3a17.61 17.61 0 0 0-17.61-17.61h-.88a17.61 17.61 0 0 0-17.61 17.61v199.98a17.61 17.61 0 0 0 17.61 17.61h.88a17.61 17.61 0 0 0 17.61-17.61zm57.87 200.16c-.31 5.03 3.16 10.65 6.91 13.75 9.16 7.54 23.95 3.26 28.52-7.5q.85-1.98 1.22-8.43c3.87-66.64 7.61-125.14 11.45-191.21q.43-7.46-.68-10.98-2.79-8.86-11.17-12.18c-9.16-3.64-18.52-.31-24.06 7.77q-2.49 3.65-2.54 8.83-.02 1.85-.44 11.24-.67 15.23-5.05 101.43c-1.52 29.83-2.53 61.14-4.16 87.28"/><path fill="#ee6202" d="M219.24 330.58c10.64-.54 19.77 7.08 20.25 18.19q1.32 29.98 8.64 193.78.41 9.13-.85 12.25c-2.64 6.51-8.84 10.67-16.02 11.03-7.17.37-13.76-3.13-17.05-9.34q-1.58-2.97-2.1-12.1-9.42-163.69-11.17-193.65c-.65-11.1 7.66-19.61 18.3-20.16"/><rect width="36.1" height="235.2" x="306.93" y="330.69" fill="#ee6202" rx="17.61"/><path fill="#ee6202" d="M407.81 562.21c-3.75-3.1-7.22-8.72-6.91-13.75 1.63-26.14 2.64-57.45 4.16-87.28q4.38-86.2 5.05-101.43.42-9.39.44-11.24.05-5.18 2.54-8.83c5.54-8.08 14.9-11.41 24.06-7.77q8.38 3.32 11.17 12.18 1.11 3.52.68 10.98c-3.84 66.07-7.58 124.57-11.45 191.21q-.37 6.45-1.22 8.43c-4.57 10.76-19.36 15.04-28.52 7.5"/></svg>