<svg xmlns="http://www.w3.org/2000/svg" viewBox="0 0 635 635"><g fill="none" stroke-width="2"><path stroke="#fee383" d="M431.17 123.95q-6.57-3.81-14.11-5.93-8.99-2.53-10.83-3.16-6.1-2.1-11.79-3.9m-101.5-32.21-38.99-12.72" vector-effect="non-scaling-stroke"/><path stroke="#f69505" d="M213.14 553.94c9.44-.48 17.28-8.01 16.85-17.83q-3.56-82.57-8.4-186.66-.62-13.32-1.07-14.86c-2.5-8.48-10.28-14.01-19.32-13.55-9.04.47-16.21 6.76-17.83 15.46q-.29 1.57.45 14.88 5.83 104.05 10.73 186.55c.58 9.81 9.14 16.49 18.59 16.01m110.18-215.57a17.19 17.19 0 0 0-17.19-17.19h-.84a17.19 17.19 0 0 0-17.19 17.19v198.3a17.19 17.19 0 0 0 17.19 17.19h.84a17.19 17.19 0 0 0 17.19-17.19v-198.3m74.4 215.56c9.44.51 18.04-6.14 18.65-15.95q5.22-82.48 11.44-186.5.79-13.31.51-14.88c-1.58-8.7-8.74-15.03-17.77-15.53-9.04-.49-16.85 5.01-19.37 13.48q-.46 1.53-1.13 14.85-5.24 104.07-9.11 186.63c-.46 9.82 7.34 17.38 16.78 17.9" vector-effect="non-scaling-stroke"/></g><path fill="#fefefe" d="M431.17 123.95q-6.57-3.81-14.11-5.93-8.99-2.53-10.83-3.16-6.1-2.1-11.79-3.9.74-5.97 2.55-11.54 2-6.17 2.1-7.84c.55-9.07-5.59-16.2-14.05-18.89q-49.42-15.71-60.23-19.36-8.03-2.72-11.95-2.39c-13.59 1.12-15.69 11.91-19.69 23.17q-.54 1.54-.23 4.64l-38.99-12.72q.4-4.29.88-6.17 3.05-11.97 6.1-19.67c8.72-22.03 28.06-34.28 51.91-32.65q4.87.33 14.19 3.64 4.63 1.64 15.61 5.14 35.91 11.42 60.03 19.2 13.41 4.32 18.26 7.58c20.61 13.91 24.69 37.28 17.33 59.93q-4.77 14.66-7.09 20.92"/><path fill="#fec808" d="m253.95 66.03 38.99 12.72q45.21 14.8 90.58 29.46 6.17 2 10.92 2.75 5.69 1.8 11.79 3.9 1.84.63 10.83 3.16 7.54 2.12 14.11 5.93 55.97 18.5 112.42 36.26c10.76 3.38 17.22 11.87 17.98 22.83q.27 3.82-1.94 10.53-1.63 4.99-7.89 25.23-2.14 6.93-4.7 10.24-7.93 10.28-22.33 8.57-1.63-.19-7.9-2.59-4.75-1.83-7.84-2.69-13.68-3.84-22.58-7.04c-8.6-3.09-15.84-4.82-24.15-7.82q-4.19-1.52-9.62-3.25-38.43-12.24-58.18-18.83c-12.2-4.07-20.94-6.47-31.8-10.33q-6.31-2.24-20.92-6.75-11.01-3.4-20.98-6.63-99.51-32.15-134.21-43.45c-26.54-8.65-53.25-17-82.1-26.36q-1.42-.45-4.61-2.74c-5.34-3.81-8.99-12.96-7.99-19.48q.34-2.17 1-4.25 2.29-7.15 9.8-28.85 2.92-8.44 5.34-11.04c6.36-6.82 16.09-10.37 25.32-7.47q50.04 15.73 84.56 26.93 15.24 4.95 30.29 9.89 2.86.94 5.81 1.17m238.88 490.86q-1.53 14.6-3.25 31.95-.91 9.25-7.62 19.14-9.99 14.74-26.64 19.11-5.96 1.56-22.24 1.52-77.22-.22-265.84-.09-10.9.01-21.44-5.3-6.83-3.43-11.14-7.89c-6.99-7.23-12.49-16.51-13.56-26.36q-.49-4.49-8.28-82.98-2.57-25.94-7.84-83.01c-4.46-48.33-9.25-94.29-14.77-148.71q-1.13-11.13-.02-16.51c2.51-12.16 10.66-22.08 22.97-26.17q4.13-1.38 12.95-1.44 8.68-.06 13.14-.06 181.02.09 337.75.01c5.79-.01 12.93-.8 18 .18 8.94 1.72 19.17 8.4 23.23 16.46q2.56 5.09 4.17 12.61.81 3.78-.25 13.27-4.36 38.86-7.9 74.13-13.02 129.9-21.42 210.14m-279.69-2.95c9.44-.48 17.28-8.01 16.85-17.83q-3.56-82.57-8.4-186.66-.62-13.32-1.07-14.86c-2.5-8.48-10.28-14.01-19.32-13.55-9.04.47-16.21 6.76-17.83 15.46q-.29 1.57.45 14.88 5.83 104.05 10.73 186.55c.58 9.81 9.14 16.49 18.59 16.01m110.18-215.57a17.19 17.19 0 0 0-17.19-17.19h-.84a17.19 17.19 0 0 0-17.19 17.19v198.3a17.19 17.19 0 0 0 17.19 17.19h.84a17.19 17.19 0 0 0 17.19-17.19zm74.4 215.56c9.44.51 18.04-6.14 18.65-15.95q5.22-82.48 11.44-186.5.79-13.31.51-14.88c-1.58-8.7-8.74-15.03-17.77-15.53-9.04-.49-16.85 5.01-19.37 13.48q-.46 1.53-1.13 14.85-5.24 104.07-9.11 186.63c-.46 9.82 7.34 17.38 16.78 17.9"/><path fill="#ee6202" d="M213.14 553.94c-9.45.48-18.01-6.2-18.59-16.01q-4.9-82.5-10.73-186.55-.74-13.31-.45-14.88c1.62-8.7 8.79-14.99 17.83-15.46 9.04-.46 16.82 5.07 19.32 13.55q.45 1.54 1.07 14.86 4.84 104.09 8.4 186.66c.43 9.82-7.41 17.35-16.85 17.83"/><rect width="35.22" height="232.68" x="288.1" y="321.18" fill="#ee6202" rx="17.19"/><path fill="#ee6202" d="M410.55 321.07c9.03.5 16.19 6.83 17.77 15.53q.28 1.57-.51 14.88-6.22 104.02-11.44 186.5c-.61 9.81-9.21 16.46-18.65 15.95-9.44-.52-17.24-8.08-16.78-17.9q3.87-82.56 9.11-186.63.67-13.32 1.13-14.85c2.52-8.47 10.33-13.97 19.37-13.48"/></svg>