<svg xmlns="http://www.w3.org/2000/svg" viewBox="0 0 266 288"><path fill="#ff7c01" d="M110.6 48.23q9.63-.63 12.91-.88c16.18-1.2 32.41.35 48.32 4.31 24.38 6.06 46.81 19.21 62.7 38.38q14.59 17.59 21.31 38.1 13.27 40.51-.36 80.84-4.47 13.21-14.45 26.6-29.72 39.88-78.46 46.18c-20.62 2.67-42.13-1.12-61.09-9.72-16.37-7.43-24.18-25.71-15.03-41.98 4.48-7.96 15.12-12.7 23.81-10.86q6.44 1.35 12.27 2.21c16.33 2.39 34.73.17 48.48-9.15q14.38-9.74 18.84-25.34c6.06-21.26.14-40.37-16.72-54.64q-5.39-4.56-13.01-7.86-13.97-6.03-28.88-6.33-13.33-.27-20.52.09a.3.3 0 0 0-.29.31q.22 21.33.45 35.69.06 3.96-2.6 8.12c-6.05 9.47-16.31 11.1-24.86 4.09q-3.98-3.26-7.26-6.03-19.34-16.31-60.89-50.6-6.52-5.39-8.13-8.12c-4.38-7.43-2-16.45 3.99-22.26q25.03-24.32 61.2-60.55 4.9-4.91 11.47-11.26a5.02 4.76-80.2 0 1 1.06-.79c8.86-4.91 19.98-2.35 24.09 7.45q.98 2.32.85 7.72-.33 12.74 0 25.55a.75.75 0 0 0 .8.73"/></svg>