<svg xmlns="http://www.w3.org/2000/svg" version="1.1" viewBox="0.00 0.00 266.00 288.00">
<path fill="#ff7c01" d="
  M 110.60 48.23
  Q 120.23 47.60 123.51 47.35
  C 139.69 46.15 155.92 47.70 171.83 51.66
  C 196.21 57.72 218.64 70.87 234.53 90.04
  Q 249.12 107.63 255.84 128.14
  Q 269.11 168.65 255.48 208.98
  Q 251.01 222.19 241.03 235.58
  Q 211.31 275.46 162.57 281.76
  C 141.95 284.43 120.44 280.64 101.48 272.04
  C 85.11 264.61 77.30 246.33 86.45 230.06
  C 90.93 222.10 101.57 217.36 110.26 219.20
  Q 116.70 220.55 122.53 221.41
  C 138.86 223.80 157.26 221.58 171.01 212.26
  Q 185.39 202.52 189.85 186.92
  C 195.91 165.66 189.99 146.55 173.13 132.28
  Q 167.74 127.72 160.12 124.42
  Q 146.15 118.39 131.24 118.09
  Q 117.91 117.82 110.72 118.18
  A 0.30 0.30 0.0 0 0 110.43 118.49
  Q 110.65 139.82 110.88 154.18
  Q 110.94 158.14 108.28 162.30
  C 102.23 171.77 91.97 173.40 83.42 166.39
  Q 79.44 163.13 76.16 160.36
  Q 56.82 144.05 15.27 109.76
  Q 8.75 104.37 7.14 101.64
  C 2.76 94.21 5.14 85.19 11.13 79.38
  Q 36.16 55.06 72.33 18.83
  Q 77.23 13.92 83.80 7.57
  A 5.02 4.76 -80.2 0 1 84.86 6.78
  C 93.72 1.87 104.84 4.43 108.95 14.23
  Q 109.93 16.55 109.80 21.95
  Q 109.47 34.69 109.80 47.50
  A 0.75 0.75 0.0 0 0 110.60 48.23
  Z"
/>
</svg>
