<svg xmlns="http://www.w3.org/2000/svg" version="1.1" viewBox="0.00 0.00 1845.00 1703.00">
<g stroke-width="2.00" fill="none" stroke-linecap="butt">
<path stroke="#b97074" vector-effect="non-scaling-stroke" d="
  M 827.06 884.57
  L 808.14 871.37
  A 1.60 1.58 -39.3 0 0 806.59 871.22
  Q 730.16 904.33 626.61 950.37
  Q 615.76 955.20 603.23 955.46
  Q 576.39 956.03 557.47 937.70
  Q 543.88 924.53 538.73 907.37
  Q 538.42 906.32 537.87 902.83
  Q 537.52 900.57 536.78 898.35"
/>
<path stroke="#b98ae4" vector-effect="non-scaling-stroke" d="
  M 1469.61 1493.75
  Q 1469.39 1503.97 1473.16 1513.56
  C 1477.44 1524.45 1489.20 1532.11 1500.48 1533.41
  C 1529.37 1536.73 1544.63 1516.19 1544.67 1489.50
  Q 1544.84 1379.74 1544.91 1248.79
  Q 1544.92 1241.11 1544.24 1236.75
  C 1541.92 1221.77 1533.21 1210.74 1518.07 1207.68
  C 1509.38 1205.93 1498.04 1206.26 1490.02 1209.83
  C 1473.90 1217.00 1469.78 1231.87 1469.72 1248.25
  Q 1469.59 1281.72 1469.69 1441.59
  Q 1469.72 1488.46 1469.61 1493.75"
/>
<path stroke="#b98ae4" vector-effect="non-scaling-stroke" d="
  M 1233.11 1248.29
  Q 1213.40 1295.60 1195.19 1343.44"
/>
<path stroke="#b98ae4" vector-effect="non-scaling-stroke" d="
  M 1180.89 1380.98
  C 1168.17 1415.08 1154.51 1451.64 1143.80 1483.57
  Q 1140.71 1492.79 1140.60 1497.27
  Q 1140.20 1514.65 1151.62 1524.73
  Q 1165.96 1537.39 1184.90 1532.17
  C 1197.30 1528.75 1205.03 1518.59 1209.67 1507.40
  Q 1218.30 1486.61 1225.77 1463.20
  A 1.53 1.51 -81.0 0 1 1227.21 1462.14
  L 1338.16 1462.14
  A 1.92 1.91 81.0 0 1 1339.98 1463.47
  Q 1346.79 1484.20 1353.65 1503.05
  C 1355.64 1508.52 1358.57 1515.48 1361.68 1519.86
  C 1368.93 1530.04 1382.46 1535.04 1394.70 1533.41
  C 1409.66 1531.41 1422.56 1521.41 1425.37 1506.52
  C 1427.34 1496.10 1422.90 1486.37 1419.00 1475.75
  Q 1386.67 1387.84 1351.75 1299.21
  Q 1339.12 1267.15 1324.70 1233.55
  Q 1316.77 1215.05 1296.93 1211.34
  Q 1284.92 1209.10 1271.70 1210.92
  Q 1256.35 1213.04 1246.17 1223.56"
/>
<path stroke="#b98ae4" vector-effect="non-scaling-stroke" d="
  M 1283.81 1293.45
  A 0.50 0.49 67.5 0 0 1283.12 1293.16
  Q 1282.83 1293.31 1282.69 1293.67
  Q 1280.17 1300.31 1272.80 1322.51
  Q 1260.17 1360.58 1246.94 1398.49
  A 1.31 1.30 -62.1 0 0 1247.39 1399.97
  C 1251.86 1403.28 1261.13 1403.28 1266.50 1403.28
  Q 1267.01 1403.28 1318.62 1403.15
  A 0.76 0.75 -8.2 0 0 1319.34 1402.19
  Q 1317.24 1394.82 1311.67 1377.56
  Q 1302.23 1348.31 1283.81 1293.45"
/>
</g>
<path fill="#7325e3" d="
  M 1507.58 126.09
  A 1.50 1.48 0.1 0 0 1508.59 127.09
  Q 1537.39 135.55 1572.88 146.43
  C 1579.81 148.56 1587.37 150.04 1592.62 152.41
  Q 1606.38 158.60 1608.65 173.31
  C 1610.54 185.54 1603.02 197.22 1591.32 201.38
  Q 1558.30 213.12 1507.13 231.80
  C 1504.84 232.63 1503.99 235.63 1503.06 238.68
  Q 1497.44 257.11 1479.07 318.06
  C 1476.23 327.50 1471.92 335.16 1462.64 339.10
  C 1451.66 343.77 1439.58 338.95 1432.87 329.61
  Q 1429.99 325.61 1427.42 315.33
  Q 1424.87 305.16 1422.22 295.77
  Q 1413.79 265.95 1405.25 233.50
  C 1404.81 231.81 1403.56 230.91 1401.86 230.22
  Q 1353.86 210.82 1323.80 198.50
  C 1308.99 192.43 1305.22 172.63 1314.88 160.67
  Q 1320.78 153.35 1330.16 150.63
  Q 1358.80 142.34 1404.25 128.82
  A 4.02 3.99 89.9 0 0 1406.96 126.08
  C 1412.68 106.24 1417.58 91.86 1423.39 72.10
  Q 1428.72 53.96 1434.07 38.80
  C 1437.98 27.71 1444.30 20.27 1456.52 19.03
  C 1466.15 18.05 1476.00 24.27 1480.40 32.87
  Q 1482.38 36.74 1484.08 42.92
  Q 1491.55 70.20 1499.36 96.64
  C 1502.39 106.91 1505.21 117.90 1507.58 126.09
  Z"
/>
<ellipse fill="#7325e3" cx="0.00" cy="0.00" transform="translate(418.46,164.61) rotate(-44.8)" rx="79.71" ry="79.42"/>
<path fill="#febb04" d="
  M 827.06 884.57
  L 808.14 871.37
  A 1.60 1.58 -39.3 0 0 806.59 871.22
  Q 730.16 904.33 626.61 950.37
  Q 615.76 955.20 603.23 955.46
  Q 576.39 956.03 557.47 937.70
  Q 543.88 924.53 538.73 907.37
  Q 538.42 906.32 537.87 902.83
  Q 537.52 900.57 536.78 898.35
  Q 535.80 888.82 536.68 880.97
  Q 537.41 874.42 539.43 866.18
  C 546.23 838.38 552.35 816.51 559.32 787.53
  C 565.90 760.18 576.22 721.87 581.33 701.07
  Q 582.38 696.80 584.17 691.03
  A 1.92 1.92 0.0 0 0 583.79 689.20
  C 576.27 680.45 568.76 673.31 561.40 664.66
  C 542.92 642.97 522.92 621.69 505.45 601.64
  Q 495.62 590.36 482.47 575.76
  Q 472.02 564.16 459.48 549.51
  C 440.89 527.81 435.62 498.68 445.83 472.07
  Q 450.09 461.00 458.62 451.60
  C 469.70 439.41 484.44 429.86 500.77 428.31
  Q 512.81 427.16 522.18 426.16
  C 565.61 421.49 595.50 418.68 629.27 414.97
  Q 665.59 410.97 701.76 407.24
  A 1.61 1.57 -64.1 0 0 702.48 406.98
  Q 703.75 406.09 704.72 404.22
  Q 758.93 299.39 789.75 239.73
  Q 792.96 233.50 796.00 228.02
  Q 808.88 204.74 831.84 196.45
  Q 853.29 188.70 874.70 195.17
  Q 899.34 202.61 912.26 224.86
  Q 916.61 232.36 920.00 242.17
  Q 924.27 254.54 933.70 280.24
  Q 939.40 295.76 965.10 367.06
  C 971.25 384.12 977.41 402.14 983.90 419.43
  A 2.45 2.42 85.6 0 0 985.65 420.95
  C 989.66 421.83 993.21 422.31 997.64 423.29
  C 1040.94 432.88 1073.41 440.35 1116.95 449.74
  Q 1139.67 454.64 1171.86 461.78
  Q 1185.14 464.73 1191.73 467.85
  C 1217.65 480.09 1232.67 506.16 1230.84 534.71
  C 1229.70 552.38 1219.36 571.04 1206.31 582.81
  Q 1199.03 589.38 1178.41 606.17
  C 1170.28 612.81 1159.25 622.61 1149.84 630.24
  Q 1133.62 643.39 1116.61 657.99
  C 1104.72 668.18 1091.39 678.14 1081.84 686.58
  Q 1066.53 700.11 1049.46 713.41
  A 2.63 2.63 0.0 0 0 1048.46 715.74
  Q 1054.17 771.14 1058.13 817.50
  Q 1060.88 849.73 1062.43 864.74
  Q 1064.76 887.29 1066.40 912.02
  C 1067.73 932.06 1057.89 953.36 1042.78 966.12
  Q 1017.58 987.39 985.13 983.41
  Q 973.19 981.94 962.43 975.29
  Q 940.55 961.77 919.27 947.09
  C 908.28 939.52 897.73 933.08 886.05 924.99
  Q 873.98 916.63 832.63 889.11
  Q 830.82 887.91 827.06 884.57
  Z"
/>
<ellipse fill="#7325e3" cx="0.00" cy="0.00" transform="translate(182.16,371.65) rotate(-62.8)" rx="73.33" ry="73.10"/>
<path fill="#fe4580" d="
  M 1649.72 472.67
  A 1.59 1.58 -0.7 0 0 1650.81 471.56
  C 1654.98 455.68 1659.13 440.71 1664.51 423.12
  Q 1669.70 406.16 1670.89 401.43
  Q 1673.49 391.07 1682.64 385.73
  C 1692.41 380.02 1705.30 383.46 1711.37 392.41
  Q 1714.26 396.67 1716.24 403.54
  Q 1724.93 433.79 1735.96 469.72
  Q 1736.65 471.96 1737.81 472.83
  Q 1739.21 473.87 1741.19 474.36
  C 1753.22 477.34 1768.33 482.43 1778.63 485.17
  Q 1790.12 488.23 1798.80 490.70
  Q 1805.91 492.72 1810.59 496.97
  C 1818.91 504.51 1820.42 517.22 1813.88 526.41
  C 1809.81 532.12 1805.19 534.25 1798.53 536.52
  Q 1793.07 538.38 1781.52 541.99
  Q 1750.29 551.75 1737.61 556.07
  C 1734.95 556.98 1734.35 559.60 1733.46 562.45
  Q 1724.40 591.44 1715.12 624.38
  Q 1714.42 626.88 1713.06 630.80
  C 1709.41 641.33 1698.31 648.88 1687.16 645.83
  Q 1679.01 643.60 1674.09 636.78
  Q 1671.67 633.41 1668.59 621.77
  Q 1656.07 574.50 1652.23 558.78
  Q 1651.41 555.45 1648.27 554.42
  C 1637.33 550.82 1613.93 543.33 1591.44 536.08
  Q 1581.43 532.86 1578.51 530.59
  C 1564.32 519.56 1569.17 495.50 1586.43 490.64
  Q 1613.39 483.05 1649.72 472.67
  Z"
/>
<ellipse fill="#fe4580" cx="0.00" cy="0.00" transform="translate(138.78,670.29) rotate(-75.3)" rx="76.89" ry="75.86"/>
<path fill="#1fb228" d="
  M 1483.47 872.95
  A 2.07 2.04 89.6 0 0 1482.14 874.32
  C 1478.93 885.24 1471.21 908.31 1466.13 926.52
  Q 1463.51 935.90 1461.64 943.12
  C 1456.42 963.23 1432.05 967.76 1421.09 949.74
  Q 1419.24 946.69 1417.72 940.29
  C 1411.61 914.57 1406.47 895.77 1400.83 873.21
  A 2.56 2.54 2.9 0 0 1399.20 871.42
  Q 1376.77 863.49 1345.54 854.51
  C 1334.04 851.21 1326.90 848.33 1323.28 837.55
  C 1319.84 827.27 1323.91 816.83 1332.93 810.99
  Q 1336.33 808.79 1344.32 806.89
  Q 1352.19 805.02 1399.19 792.77
  A 1.83 1.81 0.8 0 0 1400.48 791.53
  C 1403.62 780.99 1406.20 770.90 1409.53 760.38
  Q 1416.39 738.74 1420.35 724.43
  C 1421.10 721.69 1423.51 717.33 1425.89 714.89
  Q 1434.78 705.76 1447.48 709.00
  Q 1452.81 710.36 1456.35 713.79
  C 1460.07 717.40 1461.51 720.29 1463.00 725.53
  Q 1466.46 737.68 1468.99 745.04
  C 1474.83 762.05 1477.02 769.77 1483.81 791.18
  C 1484.27 792.65 1485.69 792.97 1487.06 793.37
  Q 1519.47 802.79 1544.76 809.40
  C 1558.99 813.12 1566.15 828.81 1559.28 842.06
  Q 1555.49 849.37 1545.52 852.71
  C 1532.31 857.14 1519.35 860.64 1506.99 865.06
  Q 1499.03 867.91 1483.47 872.95
  Z"
/>
<ellipse fill="#febb04" cx="0.00" cy="0.00" transform="translate(1758.33,932.45) rotate(-62.2)" rx="70.47" ry="70.35"/>
<path fill="#7325e3" d="
  M 827.06 884.57
  Q 816.86 903.11 806.35 921.34
  C 803.74 925.88 800.93 931.60 797.91 936.93
  Q 776.79 974.20 742.81 1034.90
  Q 720.72 1074.36 688.24 1132.62
  Q 656.52 1189.49 633.57 1230.31
  Q 529.98 1414.56 499.11 1469.15
  Q 445.84 1563.32 439.47 1575.15
  Q 429.94 1592.83 422.99 1601.73
  Q 397.63 1634.23 360.48 1648.19
  Q 315.14 1665.24 268.51 1646.31
  Q 262.29 1643.78 250.25 1636.73
  C 233.20 1626.74 218.88 1611.37 208.73 1594.50
  C 193.64 1569.42 189.22 1538.90 194.07 1509.99
  Q 196.47 1495.69 202.07 1482.50
  Q 206.13 1472.94 215.52 1457.16
  Q 222.36 1445.64 230.39 1431.14
  Q 234.70 1423.36 267.80 1366.01
  Q 315.20 1283.85 336.89 1245.86
  Q 364.07 1198.25 374.01 1180.81
  Q 379.93 1170.42 385.99 1160.07
  Q 393.03 1148.07 405.03 1127.50
  Q 411.17 1116.98 426.16 1090.51
  Q 437.31 1070.82 442.88 1061.40
  Q 454.27 1042.16 459.72 1032.38
  C 473.49 1007.63 487.98 983.47 504.24 955.01
  Q 508.37 947.79 509.85 945.26
  Q 523.18 922.40 536.78 898.35
  Q 537.52 900.57 537.87 902.83
  Q 538.42 906.32 538.73 907.37
  Q 543.88 924.53 557.47 937.70
  Q 576.39 956.03 603.23 955.46
  Q 615.76 955.20 626.61 950.37
  Q 730.16 904.33 806.59 871.22
  A 1.60 1.58 -39.3 0 1 808.14 871.37
  L 827.06 884.57
  Z"
/>
<path fill="#0c7ff6" d="
  M 179.33 1072.04
  A 3.99 3.99 0.0 0 0 177.21 1074.53
  Q 175.41 1080.73 174.50 1084.26
  Q 161.59 1134.17 158.48 1145.74
  C 156.93 1151.52 151.86 1157.40 146.19 1159.73
  C 135.81 1164.01 124.65 1160.02 118.78 1150.45
  Q 117.24 1147.93 115.44 1141.22
  Q 113.97 1135.68 108.32 1112.07
  C 105.35 1099.63 101.34 1086.45 97.88 1072.66
  Q 97.48 1071.05 95.25 1070.30
  Q 94.61 1070.08 85.12 1066.78
  Q 70.60 1061.73 38.77 1052.03
  Q 24.90 1047.81 22.30 1034.24
  Q 20.72 1026.02 25.38 1018.14
  C 31.04 1008.57 42.01 1006.52 54.03 1003.02
  Q 60.17 1001.23 69.68 998.10
  Q 88.76 991.83 92.79 990.30
  C 94.49 989.65 94.79 988.26 95.30 986.62
  Q 100.39 970.13 101.60 966.45
  C 106.88 950.42 111.41 933.73 115.90 920.38
  C 119.71 909.05 131.11 902.05 142.92 905.47
  C 153.61 908.57 156.28 916.19 159.74 927.49
  C 165.56 946.53 172.09 969.40 177.97 987.84
  A 2.56 2.54 89.9 0 0 179.62 989.50
  Q 208.14 998.57 240.83 1007.89
  C 251.42 1010.90 259.47 1020.20 258.60 1031.62
  Q 257.61 1044.78 246.41 1050.26
  Q 241.29 1052.77 225.18 1057.64
  Q 210.59 1062.06 187.12 1069.12
  Q 182.65 1070.47 179.33 1072.04
  Z"
/>
<path fill="#7325e3" d="
  M 1640.10 1635.06
  Q 1617.61 1650.86 1591.46 1655.22
  Q 1582.40 1656.73 1558.53 1656.73
  Q 1311.43 1656.67 1139.83 1656.71
  Q 1116.37 1656.71 1106.77 1655.16
  Q 1076.37 1650.25 1051.53 1630.01
  Q 1025.14 1608.51 1015.35 1574.68
  Q 1010.89 1559.27 1010.88 1543.50
  Q 1010.74 1311.86 1010.91 1221.50
  Q 1010.94 1209.51 1011.27 1201.52
  Q 1012.93 1161.68 1038.86 1131.64
  Q 1048.99 1119.90 1060.85 1112.18
  C 1079.54 1100.00 1100.71 1092.59 1123.50 1092.58
  Q 1218.76 1092.51 1368.81 1092.38
  C 1416.73 1092.34 1503.44 1092.85 1559.58 1092.37
  Q 1584.40 1092.15 1593.12 1093.61
  C 1642.61 1101.91 1680.37 1139.94 1686.49 1190.07
  Q 1687.12 1195.24 1687.13 1210.97
  Q 1687.27 1522.32 1687.08 1546.75
  C 1686.95 1563.33 1682.65 1580.54 1674.26 1595.76
  Q 1668.06 1606.99 1662.04 1614.53
  Q 1652.72 1626.19 1640.10 1635.06
  Z
  M 1469.61 1493.75
  Q 1469.39 1503.97 1473.16 1513.56
  C 1477.44 1524.45 1489.20 1532.11 1500.48 1533.41
  C 1529.37 1536.73 1544.63 1516.19 1544.67 1489.50
  Q 1544.84 1379.74 1544.91 1248.79
  Q 1544.92 1241.11 1544.24 1236.75
  C 1541.92 1221.77 1533.21 1210.74 1518.07 1207.68
  C 1509.38 1205.93 1498.04 1206.26 1490.02 1209.83
  C 1473.90 1217.00 1469.78 1231.87 1469.72 1248.25
  Q 1469.59 1281.72 1469.69 1441.59
  Q 1469.72 1488.46 1469.61 1493.75
  Z
  M 1246.17 1223.56
  Q 1243.08 1227.08 1241.60 1229.85
  Q 1237.57 1237.38 1233.11 1248.29
  Q 1213.40 1295.60 1195.19 1343.44
  L 1180.89 1380.98
  C 1168.17 1415.08 1154.51 1451.64 1143.80 1483.57
  Q 1140.71 1492.79 1140.60 1497.27
  Q 1140.20 1514.65 1151.62 1524.73
  Q 1165.96 1537.39 1184.90 1532.17
  C 1197.30 1528.75 1205.03 1518.59 1209.67 1507.40
  Q 1218.30 1486.61 1225.77 1463.20
  A 1.53 1.51 -81.0 0 1 1227.21 1462.14
  L 1338.16 1462.14
  A 1.92 1.91 81.0 0 1 1339.98 1463.47
  Q 1346.79 1484.20 1353.65 1503.05
  C 1355.64 1508.52 1358.57 1515.48 1361.68 1519.86
  C 1368.93 1530.04 1382.46 1535.04 1394.70 1533.41
  C 1409.66 1531.41 1422.56 1521.41 1425.37 1506.52
  C 1427.34 1496.10 1422.90 1486.37 1419.00 1475.75
  Q 1386.67 1387.84 1351.75 1299.21
  Q 1339.12 1267.15 1324.70 1233.55
  Q 1316.77 1215.05 1296.93 1211.34
  Q 1284.92 1209.10 1271.70 1210.92
  Q 1256.35 1213.04 1246.17 1223.56
  Z"
/>
<path fill="#feefe5" d="
  M 1469.61 1493.75
  Q 1469.72 1488.46 1469.69 1441.59
  Q 1469.59 1281.72 1469.72 1248.25
  C 1469.78 1231.87 1473.90 1217.00 1490.02 1209.83
  C 1498.04 1206.26 1509.38 1205.93 1518.07 1207.68
  C 1533.21 1210.74 1541.92 1221.77 1544.24 1236.75
  Q 1544.92 1241.11 1544.91 1248.79
  Q 1544.84 1379.74 1544.67 1489.50
  C 1544.63 1516.19 1529.37 1536.73 1500.48 1533.41
  C 1489.20 1532.11 1477.44 1524.45 1473.16 1513.56
  Q 1469.39 1503.97 1469.61 1493.75
  Z"
/>
<path fill="#feefe5" d="
  M 1180.89 1380.98
  Q 1181.25 1381.48 1180.88 1381.97
  A 0.60 0.60 0.0 0 0 1180.98 1382.79
  Q 1181.38 1383.12 1182.00 1383.08
  C 1185.38 1382.86 1188.25 1373.65 1189.15 1370.60
  Q 1189.88 1368.11 1192.22 1363.60
  C 1193.04 1362.02 1202.43 1342.14 1195.19 1343.44
  Q 1213.40 1295.60 1233.11 1248.29
  C 1242.09 1243.71 1248.16 1233.85 1246.17 1223.56
  Q 1256.35 1213.04 1271.70 1210.92
  Q 1284.92 1209.10 1296.93 1211.34
  Q 1316.77 1215.05 1324.70 1233.55
  Q 1339.12 1267.15 1351.75 1299.21
  Q 1386.67 1387.84 1419.00 1475.75
  C 1422.90 1486.37 1427.34 1496.10 1425.37 1506.52
  C 1422.56 1521.41 1409.66 1531.41 1394.70 1533.41
  C 1382.46 1535.04 1368.93 1530.04 1361.68 1519.86
  C 1358.57 1515.48 1355.64 1508.52 1353.65 1503.05
  Q 1346.79 1484.20 1339.98 1463.47
  A 1.92 1.91 81.0 0 0 1338.16 1462.14
  L 1227.21 1462.14
  A 1.53 1.51 -81.0 0 0 1225.77 1463.20
  Q 1218.30 1486.61 1209.67 1507.40
  C 1205.03 1518.59 1197.30 1528.75 1184.90 1532.17
  Q 1165.96 1537.39 1151.62 1524.73
  Q 1140.20 1514.65 1140.60 1497.27
  Q 1140.71 1492.79 1143.80 1483.57
  C 1154.51 1451.64 1168.17 1415.08 1180.89 1380.98
  Z
  M 1283.81 1293.45
  A 0.50 0.49 67.5 0 0 1283.12 1293.16
  Q 1282.83 1293.31 1282.69 1293.67
  Q 1280.17 1300.31 1272.80 1322.51
  Q 1260.17 1360.58 1246.94 1398.49
  A 1.31 1.30 -62.1 0 0 1247.39 1399.97
  C 1251.86 1403.28 1261.13 1403.28 1266.50 1403.28
  Q 1267.01 1403.28 1318.62 1403.15
  A 0.76 0.75 -8.2 0 0 1319.34 1402.19
  Q 1317.24 1394.82 1311.67 1377.56
  Q 1302.23 1348.31 1283.81 1293.45
  Z"
/>
<path fill="#7325e3" d="
  M 1283.81 1293.45
  Q 1302.23 1348.31 1311.67 1377.56
  Q 1317.24 1394.82 1319.34 1402.19
  A 0.76 0.75 -8.2 0 1 1318.62 1403.15
  Q 1267.01 1403.28 1266.50 1403.28
  C 1261.13 1403.28 1251.86 1403.28 1247.39 1399.97
  A 1.31 1.30 -62.1 0 1 1246.94 1398.49
  Q 1260.17 1360.58 1272.80 1322.51
  Q 1280.17 1300.31 1282.69 1293.67
  Q 1282.83 1293.31 1283.12 1293.16
  A 0.50 0.49 67.5 0 1 1283.81 1293.45
  Z"
/>
</svg>
