<svg xmlns="http://www.w3.org/2000/svg" viewBox="0 0 1845 1703"><g fill="none" stroke-width="2"><path stroke="#b97074" d="m827.06 884.57-18.92-13.2a1.6 1.58-39.3 0 0-1.55-.15q-76.43 33.11-179.98 79.15-10.85 4.83-23.38 5.09-26.84.57-45.76-17.76-13.59-13.17-18.74-30.33-.31-1.05-.86-4.54-.35-2.26-1.09-4.48" vector-effect="non-scaling-stroke"/><path stroke="#b98ae4" d="M1469.61 1493.75q-.22 10.22 3.55 19.81c4.28 10.89 16.04 18.55 27.32 19.85 28.89 3.32 44.15-17.22 44.19-43.91q.17-109.76.24-240.71.01-7.68-.67-12.04c-2.32-14.98-11.03-26.01-26.17-29.07-8.69-1.75-20.03-1.42-28.05 2.15-16.12 7.17-20.24 22.04-20.3 38.42q-.13 33.47-.03 193.34.03 46.87-.08 52.16m-236.5-245.46q-19.71 47.31-37.92 95.15m-14.3 37.54c-12.72 34.1-26.38 70.66-37.09 102.59q-3.09 9.22-3.2 13.7-.4 17.38 11.02 27.46 14.34 12.66 33.28 7.44c12.4-3.42 20.13-13.58 24.77-24.77q8.63-20.79 16.1-44.2a1.53 1.51-81 0 1 1.44-1.06h110.95a1.92 1.91 81 0 1 1.82 1.33q6.81 20.73 13.67 39.58c1.99 5.47 4.92 12.43 8.03 16.81 7.25 10.18 20.78 15.18 33.02 13.55 14.96-2 27.86-12 30.67-26.89 1.97-10.42-2.47-20.15-6.37-30.77q-32.33-87.91-67.25-176.54-12.63-32.06-27.05-65.66-7.93-18.5-27.77-22.21-12.01-2.24-25.23-.42-15.35 2.12-25.53 12.64" vector-effect="non-scaling-stroke"/><path stroke="#b98ae4" d="M1283.81 1293.45a.5.49 67.5 0 0-.69-.29q-.29.15-.43.51-2.52 6.64-9.89 28.84-12.63 38.07-25.86 75.98a1.31 1.3-62.1 0 0 .45 1.48c4.47 3.31 13.74 3.31 19.11 3.31q.51 0 52.12-.13a.76.75-8.2 0 0 .72-.96q-2.1-7.37-7.67-24.63-9.44-29.25-27.86-84.11" vector-effect="non-scaling-stroke"/></g><path fill="#7325e3" d="M1507.58 126.09a1.5 1.48.1 0 0 1.01 1q28.8 8.46 64.29 19.34c6.93 2.13 14.49 3.61 19.74 5.98q13.76 6.19 16.03 20.9c1.89 12.23-5.63 23.91-17.33 28.07q-33.02 11.74-84.19 30.42c-2.29.83-3.14 3.83-4.07 6.88q-5.62 18.43-23.99 79.38c-2.84 9.44-7.15 17.1-16.43 21.04-10.98 4.67-23.06-.15-29.77-9.49q-2.88-4-5.45-14.28-2.55-10.17-5.2-19.56-8.43-29.82-16.97-62.27c-.44-1.69-1.69-2.59-3.39-3.28q-48-19.4-78.06-31.72c-14.81-6.07-18.58-25.87-8.92-37.83q5.9-7.32 15.28-10.04 28.64-8.29 74.09-21.81a4.02 3.99 89.9 0 0 2.71-2.74c5.72-19.84 10.62-34.22 16.43-53.98q5.33-18.14 10.68-33.3c3.91-11.09 10.23-18.53 22.45-19.77 9.63-.98 19.48 5.24 23.88 13.84q1.98 3.87 3.68 10.05 7.47 27.28 15.28 53.72c3.03 10.27 5.85 21.26 8.22 29.45"/><ellipse fill="#7325e3" rx="79.71" ry="79.42" transform="rotate(-44.8 408.917 -425.325)"/><path fill="#febb04" d="m827.06 884.57-18.92-13.2a1.6 1.58-39.3 0 0-1.55-.15q-76.43 33.11-179.98 79.15-10.85 4.83-23.38 5.09-26.84.57-45.76-17.76-13.59-13.17-18.74-30.33-.31-1.05-.86-4.54-.35-2.26-1.09-4.48-.98-9.53-.1-17.38.73-6.55 2.75-14.79c6.8-27.8 12.92-49.67 19.89-78.65 6.58-27.35 16.9-65.66 22.01-86.46q1.05-4.27 2.84-10.04a1.92 1.92 0 0 0-.38-1.83c-7.52-8.75-15.03-15.89-22.39-24.54-18.48-21.69-38.48-42.97-55.95-63.02q-9.83-11.28-22.98-25.88-10.45-11.6-22.99-26.25c-18.59-21.7-23.86-50.83-13.65-77.44q4.26-11.07 12.79-20.47c11.08-12.19 25.82-21.74 42.15-23.29q12.04-1.15 21.41-2.15c43.43-4.67 73.32-7.48 107.09-11.19q36.32-4 72.49-7.73a1.61 1.57-64.1 0 0 .72-.26q1.27-.89 2.24-2.76 54.21-104.83 85.03-164.49 3.21-6.23 6.25-11.71 12.88-23.28 35.84-31.57 21.45-7.75 42.86-1.28 24.64 7.44 37.56 29.69 4.35 7.5 7.74 17.31 4.27 12.37 13.7 38.07 5.7 15.52 31.4 86.82c6.15 17.06 12.31 35.08 18.8 52.37a2.45 2.42 85.6 0 0 1.75 1.52c4.01.88 7.56 1.36 11.99 2.34 43.3 9.59 75.77 17.06 119.31 26.45q22.72 4.9 54.91 12.04 13.28 2.95 19.87 6.07c25.92 12.24 40.94 38.31 39.11 66.86-1.14 17.67-11.48 36.33-24.53 48.1q-7.28 6.57-27.9 23.36c-8.13 6.64-19.16 16.44-28.57 24.07q-16.22 13.15-33.23 27.75c-11.89 10.19-25.22 20.15-34.77 28.59q-15.31 13.53-32.38 26.83a2.63 2.63 0 0 0-1 2.33q5.71 55.4 9.67 101.76 2.75 32.23 4.3 47.24 2.33 22.55 3.97 47.28c1.33 20.04-8.51 41.34-23.62 54.1q-25.2 21.27-57.65 17.29-11.94-1.47-22.7-8.12-21.88-13.52-43.16-28.2c-10.99-7.57-21.54-14.01-33.22-22.1q-12.07-8.36-53.42-35.88-1.81-1.2-5.57-4.54"/><ellipse fill="#7325e3" rx="73.33" ry="73.1" transform="rotate(-62.8 395.51 36.612)"/><path fill="#fe4580" d="M1649.72 472.67a1.59 1.58-.7 0 0 1.09-1.11c4.17-15.88 8.32-30.85 13.7-48.44q5.19-16.96 6.38-21.69 2.6-10.36 11.75-15.7c9.77-5.71 22.66-2.27 28.73 6.68q2.89 4.26 4.87 11.13 8.69 30.25 19.72 66.18.69 2.24 1.85 3.11 1.4 1.04 3.38 1.53c12.03 2.98 27.14 8.07 37.44 10.81q11.49 3.06 20.17 5.53 7.11 2.02 11.79 6.27c8.32 7.54 9.83 20.25 3.29 29.44-4.07 5.71-8.69 7.84-15.35 10.11q-5.46 1.86-17.01 5.47-31.23 9.76-43.91 14.08c-2.66.91-3.26 3.53-4.15 6.38q-9.06 28.99-18.34 61.93-.7 2.5-2.06 6.42c-3.65 10.53-14.75 18.08-25.9 15.03q-8.15-2.23-13.07-9.05-2.42-3.37-5.5-15.01-12.52-47.27-16.36-62.99-.82-3.33-3.96-4.36c-10.94-3.6-34.34-11.09-56.83-18.34q-10.01-3.22-12.93-5.49c-14.19-11.03-9.34-35.09 7.92-39.95q26.96-7.59 63.29-17.97"/><ellipse fill="#fe4580" rx="76.89" ry="75.86" transform="rotate(-75.3 503.8 245.203)"/><path fill="#1fb228" d="M1483.47 872.95a2.07 2.04 89.6 0 0-1.33 1.37c-3.21 10.92-10.93 33.99-16.01 52.2q-2.62 9.38-4.49 16.6c-5.22 20.11-29.59 24.64-40.55 6.62q-1.85-3.05-3.37-9.45c-6.11-25.72-11.25-44.52-16.89-67.08a2.56 2.54 2.9 0 0-1.63-1.79q-22.43-7.93-53.66-16.91c-11.5-3.3-18.64-6.18-22.26-16.96-3.44-10.28.63-20.72 9.65-26.56q3.4-2.2 11.39-4.1 7.87-1.87 54.87-14.12a1.83 1.81.8 0 0 1.29-1.24c3.14-10.54 5.72-20.63 9.05-31.15q6.86-21.64 10.82-35.95c.75-2.74 3.16-7.1 5.54-9.54q8.89-9.13 21.59-5.89 5.33 1.36 8.87 4.79c3.72 3.61 5.16 6.5 6.65 11.74q3.46 12.15 5.99 19.51c5.84 17.01 8.03 24.73 14.82 46.14.46 1.47 1.88 1.79 3.25 2.19q32.41 9.42 57.7 16.03c14.23 3.72 21.39 19.41 14.52 32.66q-3.79 7.31-13.76 10.65c-13.21 4.43-26.17 7.93-38.53 12.35q-7.96 2.85-23.52 7.89"/><ellipse fill="#febb04" rx="70.47" ry="70.35" transform="rotate(-62.2 1652.035 -991.183)"/><path fill="#7325e3" d="M827.06 884.57q-10.2 18.54-20.71 36.77c-2.61 4.54-5.42 10.26-8.44 15.59q-21.12 37.27-55.1 97.97-22.09 39.46-54.57 97.72-31.72 56.87-54.67 97.69-103.59 184.25-134.46 238.84-53.27 94.17-59.64 106-9.53 17.68-16.48 26.58-25.36 32.5-62.51 46.46-45.34 17.05-91.97-1.88-6.22-2.53-18.26-9.58c-17.05-9.99-31.37-25.36-41.52-42.23-15.09-25.08-19.51-55.6-14.66-84.51q2.4-14.3 8-27.49 4.06-9.56 13.45-25.34 6.84-11.52 14.87-26.02 4.31-7.78 37.41-65.13 47.4-82.16 69.09-120.15 27.18-47.61 37.12-65.05 5.92-10.39 11.98-20.74 7.04-12 19.04-32.57 6.14-10.52 21.13-36.99 11.15-19.69 16.72-29.11 11.39-19.24 16.84-29.02c13.77-24.75 28.26-48.91 44.52-77.37q4.13-7.22 5.61-9.75 13.33-22.86 26.93-46.91.74 2.22 1.09 4.48.55 3.49.86 4.54 5.15 17.16 18.74 30.33 18.92 18.33 45.76 17.76 12.53-.26 23.38-5.09 103.55-46.04 179.98-79.15a1.6 1.58-39.3 0 1 1.55.15z"/><path fill="#0c7ff6" d="M179.33 1072.04a4 4 0 0 0-2.12 2.49q-1.8 6.2-2.71 9.73-12.91 49.91-16.02 61.48c-1.55 5.78-6.62 11.66-12.29 13.99-10.38 4.28-21.54.29-27.41-9.28q-1.54-2.52-3.34-9.23-1.47-5.54-7.12-29.15c-2.97-12.44-6.98-25.62-10.44-39.41q-.4-1.61-2.63-2.36-.64-.22-10.13-3.52-14.52-5.05-46.35-14.75-13.87-4.22-16.47-17.79-1.58-8.22 3.08-16.1c5.66-9.57 16.63-11.62 28.65-15.12q6.14-1.79 15.65-4.92 19.08-6.27 23.11-7.8c1.7-.65 2-2.04 2.51-3.68q5.09-16.49 6.3-20.17c5.28-16.03 9.81-32.72 14.3-46.07 3.81-11.33 15.21-18.33 27.02-14.91 10.69 3.1 13.36 10.72 16.82 22.02 5.82 19.04 12.35 41.91 18.23 60.35a2.56 2.54 89.9 0 0 1.65 1.66q28.52 9.07 61.21 18.39c10.59 3.01 18.64 12.31 17.77 23.73q-.99 13.16-12.19 18.64-5.12 2.51-21.23 7.38-14.59 4.42-38.06 11.48-4.47 1.35-7.79 2.92"/><path fill="#7325e3" d="M1640.1 1635.06q-22.49 15.8-48.64 20.16-9.06 1.51-32.93 1.51-247.1-.06-418.7-.02-23.46 0-33.06-1.55-30.4-4.91-55.24-25.15-26.39-21.5-36.18-55.33-4.46-15.41-4.47-31.18-.14-231.64.03-322 .03-11.99.36-19.98 1.66-39.84 27.59-69.88 10.13-11.74 21.99-19.46c18.69-12.18 39.86-19.59 62.65-19.6q95.26-.07 245.31-.2c47.92-.04 134.63.47 190.77-.01q24.82-.22 33.54 1.24c49.49 8.3 87.25 46.33 93.37 96.46q.63 5.17.64 20.9.14 311.35-.05 335.78c-.13 16.58-4.43 33.79-12.82 49.01q-6.2 11.23-12.22 18.77-9.32 11.66-21.94 20.53m-170.49-141.31q-.22 10.22 3.55 19.81c4.28 10.89 16.04 18.55 27.32 19.85 28.89 3.32 44.15-17.22 44.19-43.91q.17-109.76.24-240.71.01-7.68-.67-12.04c-2.32-14.98-11.03-26.01-26.17-29.07-8.69-1.75-20.03-1.42-28.05 2.15-16.12 7.17-20.24 22.04-20.3 38.42q-.13 33.47-.03 193.34.03 46.87-.08 52.16m-223.44-270.19q-3.09 3.52-4.57 6.29-4.03 7.53-8.49 18.44-19.71 47.31-37.92 95.15l-14.3 37.54c-12.72 34.1-26.38 70.66-37.09 102.59q-3.09 9.22-3.2 13.7-.4 17.38 11.02 27.46 14.34 12.66 33.28 7.44c12.4-3.42 20.13-13.58 24.77-24.77q8.63-20.79 16.1-44.2a1.53 1.51-81 0 1 1.44-1.06h110.95a1.92 1.91 81 0 1 1.82 1.33q6.81 20.73 13.67 39.58c1.99 5.47 4.92 12.43 8.03 16.81 7.25 10.18 20.78 15.18 33.02 13.55 14.96-2 27.86-12 30.67-26.89 1.97-10.42-2.47-20.15-6.37-30.77q-32.33-87.91-67.25-176.54-12.63-32.06-27.05-65.66-7.93-18.5-27.77-22.21-12.01-2.24-25.23-.42-15.35 2.12-25.53 12.64"/><path fill="#feefe5" d="M1469.61 1493.75q.11-5.29.08-52.16-.1-159.87.03-193.34c.06-16.38 4.18-31.25 20.3-38.42 8.02-3.57 19.36-3.9 28.05-2.15 15.14 3.06 23.85 14.09 26.17 29.07q.68 4.36.67 12.04-.07 130.95-.24 240.71c-.04 26.69-15.3 47.23-44.19 43.91-11.28-1.3-23.04-8.96-27.32-19.85q-3.77-9.59-3.55-19.81m-288.72-112.77q.36.5-.01.99a.6.6 0 0 0 .1.82q.4.33 1.02.29c3.38-.22 6.25-9.43 7.15-12.48q.73-2.49 3.07-7c.82-1.58 10.21-21.46 2.97-20.16q18.21-47.84 37.92-95.15c8.98-4.58 15.05-14.44 13.06-24.73q10.18-10.52 25.53-12.64 13.22-1.82 25.23.42 19.84 3.71 27.77 22.21 14.42 33.6 27.05 65.66 34.92 88.63 67.25 176.54c3.9 10.62 8.34 20.35 6.37 30.77-2.81 14.89-15.71 24.89-30.67 26.89-12.24 1.63-25.77-3.37-33.02-13.55-3.11-4.38-6.04-11.34-8.03-16.81q-6.86-18.85-13.67-39.58a1.92 1.91 81 0 0-1.82-1.33h-110.95a1.53 1.51-81 0 0-1.44 1.06q-7.47 23.41-16.1 44.2c-4.64 11.19-12.37 21.35-24.77 24.77q-18.94 5.22-33.28-7.44-11.42-10.08-11.02-27.46.11-4.48 3.2-13.7c10.71-31.93 24.37-68.49 37.09-102.59m102.92-87.53a.5.49 67.5 0 0-.69-.29q-.29.15-.43.51-2.52 6.64-9.89 28.84-12.63 38.07-25.86 75.98a1.31 1.3-62.1 0 0 .45 1.48c4.47 3.31 13.74 3.31 19.11 3.31q.51 0 52.12-.13a.76.75-8.2 0 0 .72-.96q-2.1-7.37-7.67-24.63-9.44-29.25-27.86-84.11"/><path fill="#7325e3" d="M1283.81 1293.45q18.42 54.86 27.86 84.11 5.57 17.26 7.67 24.63a.76.75-8.2 0 1-.72.96q-51.61.13-52.12.13c-5.37 0-14.64 0-19.11-3.31a1.31 1.3-62.1 0 1-.45-1.48q13.23-37.91 25.86-75.98 7.37-22.2 9.89-28.84.14-.36.43-.51a.5.49 67.5 0 1 .69.29"/></svg>