<svg xmlns="http://www.w3.org/2000/svg" version="1.1" viewBox="0 0 2265 1388">
  <g fill="none" stroke-linecap="round" stroke-linejoin="round" vector-effect="non-scaling-stroke">
    <path d="M 376 468 L 358 446 L 344 438 L 326 433 L 284 435 L 279 414 L 266 393 L 233 368 L 204 359 L 176 359 L 153 366" stroke="#86aed3" stroke-width="14.0"/>
    <path d="M 864 364 L 885 362 L 940 365" stroke="#86aed3" stroke-width="14.0"/>
    <path d="M 2081 461 L 1828 453" stroke="#86aed3" stroke-width="14.0"/>
    <path d="M 378 468 L 393 463 L 412 464 L 431 473 L 450 493 L 489 495 L 519 501 L 552 514 L 558 525" stroke="#86aed3" stroke-width="14.0"/>
    <path d="M 1630 218 L 1672 219 L 1716 234 L 1737 247 L 1758 267 L 1778 298" stroke="#86aed3" stroke-width="14.0"/>
    <path d="M 982 364 L 1296 371 L 1299 368 L 1290 354 L 1251 335 L 1221 329 L 1174 328 L 1163 311 L 1141 294 L 1120 287 L 1084 289 L 1052 261 L 1022 248 L 989 244 L 966 246 L 936 257 L 919 270" stroke="#86aed3" stroke-width="14.0"/>
    <path d="M 1904 346 L 1882 318 L 1854 302 L 1813 293 L 1780 298" stroke="#86aed3" stroke-width="14.0"/>
    <path d="M 1904 346 L 1925 343 L 1947 345 L 1967 353 L 1976 361" stroke="#86aed3" stroke-width="14.0"/>
    <path d="M 184 521 L 555 529 L 558 526" stroke="#86aed3" stroke-width="14.0"/>
    <path d="M 512 720 L 516 725 L 726 808 L 807 833 L 872 846" stroke="#95c274" stroke-width="17.6"/>
    <path d="M 1502 1081 L 1603 1083 L 1775 1078 L 2014 1087 L 2204 1084" stroke="#95c274" stroke-width="17.6"/>
    <path d="M 1030 726 L 1022 718 L 955 704 L 840 670 L 750 654 L 699 655 L 624 669 L 517 709 L 512 718" stroke="#95c274" stroke-width="17.6"/>
    <path d="M 856 787 L 955 759 L 1023 735 L 1030 727" stroke="#95c274" stroke-width="17.6"/>
    <path d="M 1031 727 L 1058 722 L 1186 667 L 1262 640 L 1322 625 L 1435 608" stroke="#95c274" stroke-width="17.6"/>
    <path d="M 511 719 L 374 690 L 321 686 L 257 688 L 205 696 L 146 712 L 90 733 L 41 758" stroke="#95c274" stroke-width="17.6"/>
    <path d="M 52 1074 L 317 1070 L 590 1075 L 726 1071" stroke="#95c274" stroke-width="17.6"/>
    <path d="M 1623 620 L 1692 634 L 1782 665 L 1860 698 L 2111 817 L 2214 853" stroke="#95c274" stroke-width="17.6"/>
    <path d="M 1133 1121 L 1204 1129 L 1279 1123" stroke="#b57cd0" stroke-width="17.2"/>
    <path d="M 1377 1099 L 1373 1104 L 1368 1141 L 1367 1193 L 1381 1261" stroke="#b57cd0" stroke-width="17.2"/>
    <path d="M 972 1105 L 961 1108 L 880 1159 L 835 1180 L 779 1199 L 708 1213 L 639 1215 L 577 1208 L 513 1191 L 494 1182 L 489 1173 L 494 1164 L 563 1167 L 639 1156 L 694 1138 L 741 1114 L 780 1085 L 819 1046 L 862 992 L 924 904 L 985 837 L 1030 805 L 1075 784 L 1143 770 L 1204 771 L 1271 786 L 1358 824 L 1383 828 L 1404 822 L 1424 804 L 1435 789 L 1458 730 L 1472 667 L 1485 521 L 1496 469" stroke="#b57cd0" stroke-width="17.2"/>
    <path d="M 1275 1069 L 1280 1098 L 1280 1122" stroke="#b57cd0" stroke-width="17.2"/>
    <path d="M 973 1104 L 970 1083 L 959 1051 L 954 1012" stroke="#b57cd0" stroke-width="17.2"/>
    <path d="M 1073 1254 L 1070 1270 L 1065 1275 L 1048 1281 L 1007 1280 L 988 1275 L 978 1268 L 972 1248 L 972 1210 L 979 1150 L 978 1114 L 974 1105" stroke="#b57cd0" stroke-width="17.2"/>
    <path d="M 1381 1263 L 1375 1280 L 1356 1287 L 1309 1287 L 1291 1283 L 1284 1277 L 1279 1265 L 1276 1239 L 1280 1124" stroke="#b57cd0" stroke-width="17.2"/>
    <path d="M 1097 1107 L 1086 1114 L 1073 1134 L 1062 1170 L 1063 1203 L 1073 1252" stroke="#b57cd0" stroke-width="17.2"/>
    <path d="M 1592 543 L 1579 570 L 1571 607 L 1566 656 L 1563 824 L 1559 858 L 1545 919 L 1527 968 L 1508 1002 L 1481 1036 L 1442 1068 L 1433 1082" stroke="#b57cd0" stroke-width="17.2"/>
    <path d="M 1117 958 L 1125 995 L 1125 1029 L 1116 1063 L 1100 1095 L 1098 1106" stroke="#b57cd0" stroke-width="17.2"/>
    <path d="M 1396 1043 L 1379 1081 L 1377 1098" stroke="#b57cd0" stroke-width="17.2"/>
    <path d="M 1432 1083 L 1378 1099" stroke="#b57cd0" stroke-width="17.2"/>
    <path d="M 1566 524 L 1592 542" stroke="#b57cd0" stroke-width="17.2"/>
    <path d="M 1382 1262 L 1429 1258 L 1440 1247 L 1440 1230 L 1427 1173 L 1427 1138 L 1433 1084" stroke="#b57cd0" stroke-width="17.2"/>
    <path d="M 1635 404 L 1673 422 L 1703 447 L 1718 471 L 1720 504 L 1712 521 L 1701 532 L 1680 542 L 1645 548 L 1593 543" stroke="#b57cd0" stroke-width="17.2"/>
    <path d="M 1074 1253 L 1115 1253 L 1132 1244 L 1133 1232 L 1123 1188 L 1123 1167 L 1132 1122" stroke="#b57cd0" stroke-width="17.2"/>
    <path d="M 1132 1120 L 1098 1107" stroke="#b57cd0" stroke-width="17.2"/>
    <path d="M 1468 250 L 1458 277" stroke="#dd6158" stroke-width="16.0"/>
    <path d="M 1576 359 L 1567 356 L 1526 359 L 1493 350" stroke="#dd6158" stroke-width="16.0"/>
    <path d="M 1482 213 L 1483 232 L 1476 239" stroke="#dd6158" stroke-width="16.0"/>
    <path d="M 1507 254 L 1494 251 L 1487 244" stroke="#dd6158" stroke-width="16.0"/>
    <path d="M 1487 244 L 1504 227" stroke="#dd6158" stroke-width="16.0"/>
    <path d="M 1532 315 L 1502 316 L 1490 309" stroke="#dd6158" stroke-width="16.0"/>
    <path d="M 1450 222 L 1465 229 L 1475 239" stroke="#dd6158" stroke-width="16.0"/>
    <path d="M 1439 256 L 1451 247 L 1468 248" stroke="#dd6158" stroke-width="16.0"/>
    <path d="M 1607 394 L 1589 401 L 1553 405 L 1531 404 L 1499 395" stroke="#dd6158" stroke-width="16.0"/>
    <path d="M 1482 295 L 1480 272 L 1487 270 L 1496 273 L 1526 302 L 1539 307 L 1545 320" stroke="#e79255" stroke-width="15.6"/>
    <path d="M 1546 321 L 1565 340 L 1577 346 L 1585 359" stroke="#e79255" stroke-width="15.6"/>
    <path d="M 1586 360 L 1618 388 L 1618 400 L 1584 426 L 1530 449 L 1500 452 L 1494 448 L 1492 413 L 1486 402 L 1488 380" stroke="#e79255" stroke-width="15.6"/>
    <path d="M 1488 378 L 1488 367 L 1482 349 L 1484 336" stroke="#e79255" stroke-width="15.6"/>
    <path d="M 1481 297 L 1479 315 L 1484 327" stroke="#e79255" stroke-width="15.6"/>
    <path d="M 746 491 L 729 448" stroke="#e8cf77" stroke-width="14.0"/>
    <path d="M 546 314 L 441 312" stroke="#e8cf77" stroke-width="14.0"/>
    <path d="M 550 364 L 505 382" stroke="#e8cf77" stroke-width="14.0"/>
    <path d="M 841 493 L 775 420" stroke="#e8cf77" stroke-width="14.0"/>
    <path d="M 576 409 L 507 471" stroke="#e8cf77" stroke-width="14.0"/>
    <path d="M 682 187 L 685 98" stroke="#e8cf77" stroke-width="14.0"/>
    <path d="M 630 196 L 614 152" stroke="#e8cf77" stroke-width="14.0"/>
    <path d="M 919 333 L 819 330" stroke="#e8cf77" stroke-width="14.0"/>
    <path d="M 623 443 L 602 488" stroke="#e8cf77" stroke-width="14.0"/>
    <path d="M 855 174 L 787 235" stroke="#e8cf77" stroke-width="14.0"/>
    <path d="M 857 263 L 810 279" stroke="#e8cf77" stroke-width="14.0"/>
    <path d="M 553 264 L 506 245" stroke="#e8cf77" stroke-width="14.0"/>
    <path d="M 761 156 L 739 200" stroke="#e8cf77" stroke-width="14.0"/>
    <path d="M 806 379 L 853 400" stroke="#e8cf77" stroke-width="14.0"/>
    <path d="M 678 458 L 677 553" stroke="#e8cf77" stroke-width="14.0"/>
    <path d="M 586 222 L 521 152" stroke="#e8cf77" stroke-width="14.0"/>
    <path d="M 715 420 L 679 425 L 641 417 L 616 403 L 602 390 L 589 373 L 579 352 L 574 330 L 574 306 L 584 272 L 610 239 L 643 220 L 679 216 L 721 227 L 743 239 L 763 258 L 781 289 L 787 325 L 786 341 L 776 370 L 764 388 L 749 402 L 715 420" stroke="#e8cf77" stroke-width="14.0"/>
    <circle cx="1604.8" cy="455.9" r="5.0" fill="none" stroke="#b57cd0" stroke-width="8.0"/>
  </g>
</svg>