<svg xmlns="http://www.w3.org/2000/svg" width="1024" height="1536" fill="#fff" viewBox="0 0 1024 1536"><path d="M704.45 148.21a.49.49 0 0 0 .55.6q24-3.68 41.45 13.02 14.92 14.26 12.41 34.86c-1 8.22-5.31 17.4-11.63 23.81q-7.04 7.14-13.18 10.57c-8.66 4.83-19.24 8.05-29.85 8.87q-23.14 1.77-43.81-7.87a.3.3 0 0 0-.36.08c-2.07 2.59-4.19 5.9-6.49 8.38-11.06 11.89-28.78 17.18-44.79 16.28q-17.58-.99-32.12-10.33a1.98 1.95-45.8 0 0-2.19.05c-2.4 1.68-4.55 3.45-7.21 4.88-17.63 9.46-37.91 12.9-57.66 9.4-19.27-3.42-37.26-10.54-50.01-26.29a1.45 1.44-31.9 0 0-1.74-.4q-24.98 11.59-50.7 1.21-14.79-5.97-21.8-18.85c-7.19-13.19-5.59-28.43 4.93-39.55q9.13-9.65 23.09-11.04a1.01 1.01 0 0 0 .9-1.12q-2.01-17.31 10.07-29.98c16.28-17.06 40.48-20.73 61.27-10.45a.82.82 0 0 0 1.18-.7c.63-14.3 8.04-29.12 17.41-39.97q19.92-23.08 49.94-28.01 7.65-1.26 17.42-.85c22 .92 42.01 10.37 56.5 26.8q11.2 12.68 14.56 28.56a.46.46 0 0 0 .71.29q13.16-8.73 28.31-7.08 9.93 1.09 17.02 5.84c13.19 8.84 19.69 23.25 15.82 38.99m-284.41 22.8q-5.1-.27-11.45 1.34-16.91 4.3-21.22 20.95c-1.61 6.21-.69 14.07 2.75 20.37 10.13 18.49 33.92 23.58 53.3 19.58 5.61-1.16 9.74-3.11 14.78-5.98a2.48 2.47-33.7 0 1 3.17.63c3.28 4.2 5.17 6.84 8.76 9.92 24.47 20.96 64.65 24.84 92.92 9.59 4.25-2.29 7.19-4.83 11.01-7.76a2.04 2.03-46.8 0 1 2.35-.08c4.02 2.67 7.05 4.96 11.39 6.79q19.68 8.28 40.62 2.58 19.81-5.38 28.63-23.11a1.69 1.68 29 0 1 2.39-.68c13.22 8.06 28.9 9.98 44 9.07 14.97-.91 30.95-6.96 40.83-18.7 12.66-15.04 12.41-35.82-1.64-49.69q-10.86-10.72-26.66-11.85-4.67-.33-14.73.9-1.32.17-3.2.2a1.03 1.03 0 0 1-1.01-1.33q1.03-3.46 1.64-5.41c3.53-11.21.04-22.72-8.35-30.63q-6.91-6.52-14.32-8.08-19.97-4.23-34.62 9.54a.75.75 0 0 1-.85.13q-1.6-.76-2.02-2.61c-1.14-4.97-1.72-9.23-3.63-13.64-4.47-10.35-11.25-19.93-20.5-26.98q-24.56-18.71-56.07-15.31c-6.39.69-14.26 2.76-19.81 4.97-26.88 10.75-45.61 34.85-46.64 64.08q-.06 1.58-.38 1.91c-1.53 1.57-2.31 1.39-4.36.12q-12.25-7.57-24.6-7.68c-16.12-.14-34.17 8.63-40.63 24.27-2.75 6.65-2.36 14.14-.94 21.53a.89.88-4.1 0 1-.91 1.05M107.17 258.6c-1.47-15.24 6.8-30.8 19.2-39.45 23.36-16.3 56.55-14.63 74.98 8.59q8.05 10.15 8.88 24.3a.46.45-8.1 0 0 .56.41q.71-.17 3.97-1.2c9.93-3.14 21.78-1.5 29.97 5.48q13.21 11.26 9.25 29.84a.77.77 0 0 0 .76.93q14.93-.18 24.78 11.03 5.84 6.65 7.08 14.17 3.84 23.39-13.11 38.56c-13.5 12.07-32.1 15.3-49.45 11.56-3.54-.77-7.13-2.28-9.88-3.1a2.08 2.07 27.9 0 0-2.19.67c-13.33 16.39-35.81 23.42-56.46 23.06-8.24-.14-17.75-1.17-25.42-3.73q-10.6-3.54-19.52-9.49c-4.04-2.69-7.4-6.07-10.61-9.79a.88.88 0 0 0-1.08-.2c-19.53 10.37-44.45 6.81-59.72-8.71-9.86-10-12.22-26.08-5.1-38.56q7.57-13.28 23.87-15.58a1.14 1.14 0 0 0 .98-1.14q-.06-15.2 10.56-25.95 15.48-15.67 37.18-11.23a.43.43 0 0 0 .52-.47m-5.85 95.1c1.62 1.51 3.42 4.53 5.44 6.55 10.03 10.01 24.76 15.74 38.46 17.26 22.71 2.51 51.12-3.05 64.97-23.38a2.46 2.46 0 0 1 2.92-.91q.98.38 5.39 2.29c16.3 7.09 40.51 3.13 53.15-9.88 7.32-7.53 11.49-18.45 9.93-28.87-2.16-14.55-12.19-24.07-27.31-23.74-2.05.04-4.83.87-7.02.96a1.68 1.67-76.9 0 1-1.54-2.48q4.18-7.62 3.25-16.2c-1.1-10.12-8.99-18.17-18.71-19.73q-11.64-1.87-21.32 4.23c-2.15 1.35-3.4 1.19-4.41-1.09a1.38 1.36 41.1 0 1-.07-.92q.9-3.41-.12-9.09c-5.14-28.43-33.2-39.89-59.12-32.74q-19.53 5.38-28.77 22.99c-4.08 7.78-4.34 16.76-2.66 25.49q.4 2.06-1.58 2.37a1.83 1.82 50.7 0 1-.86-.09c-1.71-.63-3.98-1.83-6.57-2.2q-9.29-1.34-15.22.07-7.72 1.84-14.81 8.1-10.03 8.85-9.88 21.93.05 4.19-.01 6.89a1.23 1.22 87.6 0 1-1.1 1.2c-3.76.36-7.74.02-11.41 1.43-10.93 4.2-16.89 13.27-16.72 25.03q.2 13.17 10.81 21.81c11.94 9.71 28.03 11.65 42.53 7.74 4.08-1.11 7.34-3.37 10.76-5.22a1.39 1.39 0 0 1 1.6.2m851.7-24.79q.25.05 3.23.13c6.4.18 12.02 1.36 17.62 4.6 6.42 3.72 13.03 10.37 15.78 17.54 7.91 20.61-4.06 40.84-22.22 50.49-17.74 9.43-40.84 11.34-58.85 1.29a.67.66-56.3 0 0-.84.17q-5.5 7.07-14.27 11.77-24.79 13.28-53.01 7.39c-12.44-2.6-21.87-7.69-31.17-15.42a1.08 1.07 49.3 0 0-1.24-.1c-6.79 4.01-13.06 6.88-20.87 7.43q-9.12.64-15.7-.66c-14.69-2.88-28.05-11.43-32.3-26.38q-3.98-13.98 5.18-25.9 6.92-9 20.11-11.52a.63.62-3.6 0 0 .51-.57q.05-.67.14-3.15.66-16.85 14.48-25.89c8.69-5.69 17.63-6.81 27.65-5.12a.56.55 87.9 0 0 .63-.68q-.8-3.3-.63-7.76c1.09-28.98 25.65-50.27 54.14-51.36 13.38-.5 27.85 5.32 36.67 15.45q8.92 10.25 10.17 24.99a.39.38 70.6 0 0 .59.29c19.2-13.05 45.54-1.78 45.84 22.38q.02 1.72-2.02 9.98a.5.5 0 0 0 .38.61m-181.86 26.08c-3.63-.03-6.72-.26-10.45 1.01-11.25 3.86-17.93 13.35-17.07 25.13q.86 11.67 10.99 19.49c11.61 8.95 28.82 10.64 42.24 5.8 3.91-1.42 7.66-3.64 11.55-6.08a2.22 2.21 52.6 0 1 2.81.38q7.57 8.19 17.21 12.33c11.08 4.76 24.46 6.61 37.09 5.23q24.97-2.71 39.5-19.95 1.83-2.17 3.75-1.01c10.98 6.58 23.6 7.83 36.73 6.09 14.72-1.96 28.47-9.64 36.3-22.41q6.59-10.76 3.98-23.64c-2.88-14.19-16.47-23.05-30.59-23.14q-4.17-.03-8.19.85-.48.1-1.83-.08a1.31 1.31 0 0 1-.99-1.93c3.6-6.58 5.73-12.23 4.32-20.05-1.7-9.47-10.24-16.66-19.74-17.1q-7.24-.35-12.95 2.01c-3.31 1.37-6.7 4.06-10.18 6.69a1.52 1.52 0 0 1-2.34-.66q-.57-1.48-.6-2.45c-.12-4.71-.24-11.88-2.37-16.93-7.16-16.94-23.94-25.16-42.02-23.68-29.19 2.4-52.2 29.76-43.51 59.34q.63 2.15-1.88 2.65a1.35 1.32-35.7 0 1-.92-.14c-5.32-2.92-11.81-3.14-17.7-2.62-9.69.85-18.99 8.41-22.17 17.53-2 5.76-.97 10.79-.15 16.39a.82.82 0 0 1-.82.95M1024 941.45v3.76q-1.25 1.13-3.53.67-16.82-3.38-28.7-4.58a.51.5-83.2 0 0-.56.45l-4.25 41.28a.76.75-75.4 0 0 .45.78q1.82.79 3.82 1.05 16.5 2.1 32.77 5.34v3.42q-.3 1.06-1.74.82-8.24-1.35-34.53-5.31a.61.6 13.6 0 0-.67.4q-.56 1.63-.73 3.55-1.95 22.48-4.13 42.24a1.04 1.04 0 0 0 .86 1.14l40.94 6.97v4.59l-41.46-7.03a.69.69 0 0 0-.8.6l-4.33 42.02a1.2 1.19-82.2 0 0 .98 1.3l45.61 8.17v3.93q-7.68-.63-15.3-2.07-12.29-2.31-12.32-2.32-12.83-2.11-18.34-2.91a1.07 1.07 0 0 0-1.22.95l-4.66 45.2a.57.56 76.2 0 0 .87.53c4.33-2.91 14.59-8.21 19.18-5.89a1.6 1.59 28.3 0 1 .67 2.22l-5.2 9a.8.8 0 0 0 .64 1.19c9.39.63 18.01 1.45 26.76 3.92q4.48 1.26 8.92 2.66v3.65q-14.65-3.48-29.25-5.62-4.21-.62-7.23.3t-5.62 1.1a.86.86 0 0 1-.9-1.02c.91-4.77 4.24-9.21 6.21-13.45a.44.44 0 0 0-.51-.61c-6.77 1.83-13.06 6.11-17.96 10.82a1.03 1.02 26.1 0 1-.84.28q-1.98-.26-1.78-1.96 2.12-17.85 3.32-31.39c1.35-15.31 3.27-29.56 4.65-44.28q2.45-26.2 5.11-52.4c1.43-14.21 2.44-29.09 4.1-44.64q1.18-11.19 4-44.02c.5-5.8 2.14-20.78-.71-23.78-7.08-7.45-19.34-8.48-28.8-6.7-4.09.77-7.77 2.52-9.7 6.23q-.67 1.31-1.06 5.16-4.05 40.56-6.66 74.58-1.27 16.58-2.96 31.45-.42 3.64-.62 10.32a.66.65 72.8 0 0 1.04.55l8.99-6.62a.94.93 43 0 1 1.05-.03c3.2 1.99 3.35 5.26 3.36 9.11.04 11.76-4.17 22.98-12.55 31.3q-3.54 3.51-3.68 3.69a5.6 5.6 0 0 0-.8 1.31q-.3.69-.64 4.69-1.93 22.49-3.76 44.76-.94 11.51-.89 17.65a1.72 1.71-80.2 0 0 1.12 1.6l9.91 3.63a.58.58 0 0 0 .75-.73q-.9-2.72-.8-6.21a1.21 1.21 0 0 1 1.03-1.16q1.83-.27 3.44.57 9.07 4.69 14.43 13.66a1.62 1.61-36.9 0 1-.29 2.01l-.03.04a1.27 1.27 0 0 1-1.86-.15c-4.04-5.16-7.46-9.42-12.49-12.41a.57.57 0 0 0-.84.64q1.24 4.53.61 9.6a.89.89 0 0 1-1.38.63q-4.03-2.73-8.6-4.31-15.21-5.27-30.93-7.29a2.92 2.91-61.5 0 0-2.25.67c-4.23 3.61-7.63 6.61-12.51 9.36q-17.66 9.92-39.03 7.61-3.64-.39-6.21-2.31a2.46 2.46 0 0 1-.24-3.73q1.19-1.16 3.7-3.39c4.31-3.85 6.37-9.59 6.58-15.24a.87.87 0 0 0-.72-.89q-14.8-2.62-30.05-3.91-5.74-.49-11.48-.29a.61.6-88.9 0 0-.58.56c-.91 13.28-2.15 23.84-2.2 35.73q-.07 18.56-.04 27.57c.04 12.65 2.05 27.86 3.49 36.77q1.67 10.29-2.56 18.91a5.99 5.98-37.6 0 0-.5 3.85q3.13 15.43 2.61 31.19c-.28 8.45-2.65 14.61-9.9 19.41q-3.27 2.18-7.57 3.58-29.79 9.76-59.74 1.05c-5.15-1.5-10.66-4.57-12.87-9.37q-1-2.17-.35-6.88.91-6.66 3.87-16.1 4.78-15.22 8.64-23.62a9.28 9.1-30.1 0 0 .79-2.86q.1-.89.62-6.96.31-3.57 2.2-10.52c9.03-33.37 9.21-69.68 4.2-104a1.58 1.57 2.2 0 0-1.21-1.3q-3.7-.83-7.93-1.41-18.96-2.63-38.33-3.31a.95.94-83.2 0 0-.96.76c-1.58 7.91-3.94 15.76-5.93 24.67q-3.39 15.21-4.37 20.04-1.35 6.74-3.44 25.52c-.89 8-.66 17.13-.63 24.25.02 5.98-1.27 9.27-4.16 14.91a7.91 7.87 55.5 0 0-.81 4.45q1.54 13.96-.8 27.57c-1.34 7.83-4.36 12.06-11.32 14.94-17.28 7.16-40.19 8.09-57.82 3.52-5.67-1.47-11.13-3.45-14.73-7.7-2.55-3.02-2.55-5.62-1.61-9.62q2.94-12.6 9.05-26.65 3.54-8.13 4.2-9.3a7.14 7.05 63.8 0 0 .85-2.55q.7-5.45 5.9-19.4 10.83-29.1 15.08-61.15 1.78-13.38.94-26.69a.79.79 0 0 0-.66-.73q-4.48-.75-8.44-.86-19.83-.56-38.93-.08a.92.91 86.2 0 0-.88 1.01q.94 9.41.97 10.37c.25 8.19-.73 16.21-2.82 25.14q-2.48 10.66-2.59 11.12-1.09 4.72-1.56 19.56-.42 13.55-.7 15.19-.29 1.72.33 6.52.34 2.57.39 6.51.22 15.57.79 21.49 1.74 17.88 2.37 31.98.4 8.85-2.84 17.79c-1.26 3.45-3.69 7.26-3.12 11.01q2.8 18.35 1.72 37.89c-.41 7.36-3 14.73-9.34 18.82q-6.36 4.1-15.04 6.49c-21.71 6-44.67 6.4-66.14-.83q-4.45-1.5-9.31-5.36c-4.65-3.71-3.34-11.67-2.19-16.74q2.33-10.17 6.34-21.97c2.15-6.31 4.86-11.72 7.08-17.98a10.35 10.23-31.9 0 0 .5-2.09q1.2-8.75 1.61-10.1 3.34-11.04 7.13-24.63 1.87-6.69 5.27-26.67c2.01-11.77 2.68-26.56 3.14-36.63q.59-12.89-1.52-29.88-.5-4.02-2.92-13.05c-2.77-10.35-4.26-22.47-2.91-33.28a1.54 1.53-86.4 0 0-1.52-1.73q-5.11.02-7.74-.3-4.79-.6-7.67-.34-6.28.54-13.99.58a.77.77 0 0 0-.77.72q-.8 10.82-3.42 21.76-2.49 10.39-3.19 16.22c-1.44 12.01-1.14 21.75-1.79 33.55-.39 7.07.39 13.94.44 20.67q.07 10.17.99 25.52.79 13.31-4.86 24.49a9.14 9.03-32.1 0 0-.97 4.12q0 6.63.5 13.69.97 13.79-.74 27.31-.85 6.76-2.39 9.78c-3.15 6.21-9.04 9.9-15.65 12.23-13.35 4.73-27.57 5.8-42.04 5.08q-11.85-.59-20.72-3.16c-6.5-1.89-18.68-6.27-18.18-13.72q.6-8.94 4.02-18.64 4.93-13.97 6.37-17.14 5.22-11.53 5.92-13.13a11.49 11.26 62.2 0 0 .74-2.47c.68-3.87 1.23-7.78 2.62-11.77 4.21-12.05 8.52-24.24 10.71-35.08q3.09-15.28 4.01-21.01 3.06-19.08 2.76-39.87-.12-8.45-1.02-14.26c-1.73-11.23-3.01-19.66-3.21-27.06a.96.96 0 0 0-.82-.93q-23.04-3.59-46.68-2.73c-7.07.26-12.58.88-17.77 3.43a1.75 1.75 0 0 1-2.52-1.59q.03-2.9 1.25-5.77 2.02-4.76 4.02-9.88a.32.32 0 0 0-.39-.43c-7.95 2.31-12.77 8.13-18.9 14.64a1.63 1.63 0 0 1-2.82-1.03l-1.29-23.34a.33.33 0 0 0-.59-.18c-5.63 7.4-7.43 15.43-10.23 24.23a1.28 1.28 0 0 1-2.2.44q-1.38-1.62-3.82-5.56c-2.94-4.74-6.94-8.93-11.4-12.12a.48.48 0 0 0-.76.37q-.05 1.1.42 2.57 1.69 5.3 3.54 13.53.44 1.99-.76 3.16a1.13 1.12-44.8 0 1-1.59 0q-6.66-6.54-15.64-9.52-1.27-.42-2.35-.25a.39.38 65.2 0 0-.23.63c2.39 2.87 4.98 5.93 5.91 9.29a.97.97 0 0 1-1.31 1.15c-3.88-1.66-6.14-2.58-9.83-2.85-6.31-.46-10.53-1.2-16.06-1.08-5.55.12-11.31-.81-16.96-.5q-11.71.63-22.92.5c-1.69-.01-3.95.53-5.63.63q-33.44 2.01-65.7 9.59-8.95 2.1-15.56 5.62a1.03 1.03 0 0 1-1.49-1.14l2.82-12.36a.42.42 0 0 0-.65-.44q-6.06 4.19-9.86 10.34-1.62 2.63-3.27 5.27a1.13 1.13 0 0 1-1.81.15q-1.08-1.24-1.26-2.66-.71-5.68-2.98-18.81a.35.35 0 0 0-.66-.1q-5.31 9.97-5.25 21.12.02 2.19-1.68 3.29a1 1 0 0 1-1.28-.16c-5.36-5.74-12.75-10.79-20.54-11.83a.3.3 0 0 0-.28.49q5.49 6.93 9.52 14.5a1.63 1.62 75.6 0 1-1.41 2.39c-8.85.11-15.79.74-24.73 2.95q-16.82 4.16-33.39 10.17v-3.95q16.71-7.04 34.79-11.07 8.24-1.84 17.7-2.24a.82.82 0 0 0 .74-1.1c-1.74-4.75-7.11-10.41-8.98-13.02a1.6 1.6 0 0 1 .83-2.47q1.85-.56 4.46-.4c7.54.47 13.63 4.37 19.79 9.1a.39.38-69.9 0 0 .61-.29q.66-12.3 7.94-22.19 1.35-1.83 3.33-1.22a1.7 1.69-86.9 0 1 1.17 1.31l3.33 17.74a.51.51 0 0 0 .92.19c2.78-4.13 11.26-13.56 16.94-12.22a1.47 1.47 0 0 1 1.07 1.85l-2.88 9.63a.62.62 0 0 0 .8.76q13.44-4.82 27.81-6.96 1.97-.29 1.73-2.73-1.19-12.26-1.16-34.2 0-5.46-.71-10.52a1.38 1.37 83.5 0 0-1.46-1.17q-32.98 2.58-66.26 6.92c-11.34 1.48-14.63-2.12-16.7-12.55-1.74-8.77-6.52-32.94 2.78-38.59q3.09-1.87 8.5-2.56 39.57-5.05 66.68-6.88 1.76-.12 4.13-.31a1.11 1.11 0 0 0 1-1.28q-.69-4.38-.8-10.09c-.22-11.43.37-19.67-.73-30.04q-.44-4.07-.36-12.62a.99.98 89.2 0 0-1.02-1c-4.56.15-7.98.16-11.29.41q-36.07 2.73-59.21 4.67c-6.43.54-12.11-.32-13.94-7.49q-3.85-15.1-3.48-30.68.07-2.67 1.17-7.27c1.46-6.07 6.54-7.78 12.14-8.35q27.57-2.85 52.35-4.57c8.41-.59 14.49-.6 21.57-1.67a.96.95 82 0 0 .8-1.07q-1.47-11.23-1.01-22.83c.09-2.4 1.11-8.16 2.48-10.47 4.2-7.09 12.72-11.13 20.53-12.73 14.26-2.92 37.34-.81 37.92 18.7q.29 9.94.27 23.61a1.97 1.96 87.7 0 0 2.12 1.96q12.24-.93 19.92-1.03c6.88-.1 12.07-1.02 18.29-1.01q8.57.01 18.51 0c5.13-.01 11.6-1.03 17.37-1.03l81.94-.01a.53.52 2.3 0 0 .53-.48q1.07-13.73 4.09-28.72.71-3.52 1.7-6.12a.34.34 0 0 0-.48-.43q-2.14 1.1-5.64 3.17-14.17 8.36-30.95 5.88-19.88-2.94-29.62-20.92c-1.29-2.39-2.89-5.66-1.23-8.04 1.53-2.17 4.13-1.11 6.43-.03 4.6 2.17 10.52 2.02 14.88.32 6.61-2.58 10.21-8.02 12.88-15.09q1.05-2.8.9-5.43a.29.28-13 0 0-.39-.24c-3.58 1.34-7.04 2.95-10.73 3.6-21.07 3.75-40.64-6.59-49.1-26.17-2.1-4.88-5.96-19.01-.26-22.09a1.01 1.01 0 0 1 1.12.11c5.48 4.57 9.11 8.45 16.92 7.88 10.5-.76 17.09-9.62 18.79-19.48q1.86-10.75-2.25-19.98-4.44-9.98-6.4-15.07-10.2-26.5-2.53-52.63c3.95-13.44 12.14-27.23 21.21-37.73q6.63-7.67 16.95-18.67a.33.33 0 0 0-.24-.56q-1.35-.01-5.77.04-19.68.24-28.67-17.46c-1.52-2.99-3.37-10.34 2.66-9.44 2.82.42 5.33 1.38 8.39 1.37 20.25-.1 30.13-24.31 33.5-40.21q3.31-15.6 6.51-31.45.51-2.53 3.58-11.34c10.03-28.82 29.83-51.18 57.11-65.03a.72.71 66 0 0 .34-.9c-1.63-4.12-3.3-8.57-4.29-12.91-7.24-31.77 2.16-65.39 23.24-89.85 4.64-5.38 17.54-17.25 24.49-9.24q.94 1.08 2.55 5.73 5.08 14.65 12.12 24.62 9.48 13.42 16.14 27.38a.88.87-34.7 0 0 1.4.25q23.84-22.89 57.21-27.44 10.52-1.43 18.21-1.02 29.61 1.6 52.44 19.52a1.41 1.41 0 0 0 1.91-.15q7.99-8.61 17.73-18.72 5.9-6.11 17.27-21.22.83-1.11 2.84-2.66c8.27-6.36 15.84 5.32 19.1 11.51 8.87 16.89 11.63 35.21 9.57 53.98q-2.36 21.5-15.36 39.64a1.49 1.49 0 0 0 .42 2.13q5.89 3.64 12.82 3.89c3.49.12 8.71.35 10.92-.94q5.13-3.01 7.33-3.86c4.2-1.63 5.46 4.38 5.16 7.29-.86 8.41-3.66 16.18-8.3 23.32q-8.2 12.6-19.28 21.41a1.05 1.04 54.2 0 0-.22 1.39c2.36 3.59 4.55 6.81 6.02 10.76 4.28 11.56 5.91 22.61 5.99 35.24.04 5.8 1.2 10.15 2.11 16.06q.78 5.09.88 10.82.15 7.64.97 10.8c4.72 18.13 16.29 30.63 28.9 44.02q17.47 18.53 19.12 42.4c2.36 34.18-18.28 63.45-48.88 76.93q-6.15 2.71-18.21 5.44-.99.23-3.96 2.11c-6.66 4.21-12.68 7.33-20.12 9.15q-24.92 6.07-47.59-3.26-20.49-8.44-34.73-26.74a.68.68 0 0 0-1.16.15q-.12.27.07 1.42c.96 6 2.87 14.89 5.79 21.04q12.03 25.36 39.75 32.94 5.95 1.63 16.97 2.04c16.61.63 29.79-1.85 47.5-5.41 22.82-4.59 47.74-5.66 69.71.24q30.06 8.07 51.61 30.92a1.77 1.76-38.7 0 0 2.28.25c5.14-3.49 11.71-6.46 17.53-8.03 35.6-9.64 72.95 3.92 96.01 32.34q24.74 30.49 25.25 70.7.17 13.42-2.12 26.49a1.28 1.27-82.2 0 0 1.12 1.49l13.86 1.43a1.03 1.02 6 0 0 1.12-.9q1.12-10.04 1.79-18.56.4-5.04 1.42-8.14c1.9-5.81 8.92-9.35 14.69-10.32q15.56-2.61 28.27 5.01c6.81 4.08 7.78 10.38 7.26 17.98q-1.19 17.24-1.43 21.59a1.38 1.38 0 0 0 1.16 1.44zM675.23 575.63q-2.33 4.68-6.36 8.51c-6.18 5.87-15.19 5.54-21.4.11-12.4-10.84-15.03-30.64-10.5-46.06 3.27-11.13 12.96-20.96 25.2-15.7 2.52 1.09 5.17 3.5 7.33 5.44a.33.33 0 0 0 .55-.25q-.12-14.5-5.37-27.32c-2.31-5.64-5.33-6.23-10.48-6.91q-2.36-.31-3.9.09-9.05 2.33-11.35 2.82-22.34 4.77-43.2-2.87a2.96 2.94 41.4 0 0-2.37.14q-3.65 1.87-8.35 2.66c-17.06 2.86-34.92-1.82-50.35-10.74q-23.23-13.43-36.1-36.12-.84-1.47-7.05-12.69c-2.68-4.85-7.49-9.96-12.98-11.87a.79.79 0 0 0-1.03.56c-1.2 4.86-1.85 8.93-5.3 12.14a1.23 1.23 0 0 1-2.06-.73q-.32-2.16.26-4.4 1.05-4.06 1.99-12.23 3.2-27.89-11.54-52.08-2.44-3.99-10.83-16.43-7.17-10.63-12.19-26.91a.94.93 86.2 0 0-.72-.64c-4.58-.86-9.65 3.83-13 7.24-10.66 10.82-17.7 25.17-22.44 40.06q-2.45 7.72-3.28 18.05-2.73 34.01 16.49 59.68c4.13 5.52 8.17 9.43 13.39 14.54a1.3 1.29-35.6 0 1-.35 2.09l-3.62 1.72a1.62 1.58-.4 0 0-.73.72q-13.83 28.01-19.81 58.02-5.24 26.33-4.85 54.47.13 8.96.15 26.31 0 .37.56 17.88.45 13.95.49 17.88.32 29.02-.88 46.46c-1.97 28.69-7.37 57.05-15.2 84.66q-2.84 10.03-9.28 26.47-10.66 27.18-11.17 28.4-5.48 13.27-8.09 23.79-3 12.05-4.11 24.78-2.75 31.41 2.79 61.43 1.76 9.56 7.92 27.81c2.85 8.43 4.94 14.87 6.36 21.89q6.19 30.54 11.15 59.35c3.08 17.84 4.06 36.72 4.34 54.34.25 16.27 4.29 31.59 4.06 47.56q-.18 12.24-1.94 27.91-3.03 26.86-11.02 50.45c-3.97 11.72-6.68 17.16-7.19 25.43a3.97 3.96 23.4 0 0 1.25 3.15c2.36 2.22 5.14 3.93 8.23 5.22 12.71 5.35 26.15 5.82 39.54 5.09 5.53-.29 14.75-2.05 20.12-5.6a1.87 1.86-15.4 0 0 .83-1.45l.49-9.62a1.93 1.77 61 0 1 .16-.66c2.34-5.07 4.59-9.3 5.11-14.33 1.21-11.89-.6-24.18-.64-36.01-.02-6.23-.84-12.55-.45-19.07q.43-7.21.48-13.57.15-19.89 4.37-37.3c1.69-6.99 3.11-15.56 3.39-20.64q2.21-40.34 5.3-76.45a1.47 1.45-78.9 0 0-1.01-1.52c-16.08-5.11-30.92-11.54-44.17-21.89-11.5-8.98-21.69-21.14-25.71-34.92a.78.77-85.3 0 1 1.08-.92q.68.33.98.86c8.19 14.54 17.29 25.28 31.61 34.78 16.17 10.72 34.63 17.1 53.59 20.64q3.88.73 7.05.91a.65.65 0 0 0 .68-.73q-.33-2.67-1.35-6.76-4.82-19.46-6.42-27.59-.79-4.03-.3-8.19a.8.8 0 0 1 1.56-.15q5.57 17.38 9.77 32.2 3.5 12.33 5.52 22.66c4.56 23.24 7.16 45.59 5.38 69.51q-.51 6.81.41 16.4.26 2.76 3.39 15.41 3.84 15.51 3.85 32.26c.01 31.72-4.67 64.75-15.03 94.97q-.6 1.74-1.96 9.28-.33 1.82.25 2.91c2.38 4.39 10.32 7.37 15.02 8.59q21.87 5.7 43.85.27 7.02-1.74 14.15-6.08a1.34 1.33-12.9 0 0 .65-1.03l.48-5.13a1.28 1.2 61.6 0 1 .1-.38q2.59-5.79 3.78-9.14c2.44-6.8 2.07-15.86 1.42-23.77q-1.23-14.87-2.33-29.72c-.55-7.39-.1-15.53-.59-22.13q-.49-6.53-.11-14.29.26-5.15.69-14.3.38-7.95 3.45-20.95c2.34-9.87 3.65-18.1 2.96-26.61q-1.89-23.48 1.72-47.76 3.73-25.13 10.77-51.52 4.04-15.13 10.92-39.84 1.37-4.94 2.93-8.22a.88.88 0 0 1 1.58-.04q.45.84.3 2.44c-.77 8.41-4.01 20.43-5.7 27.97-2.33 10.36-5.33 20.59-7.22 30.4a.75.74 5.3 0 0 .74.89q8.59-.13 17.71-1.57c22.44-3.55 44.12-10.59 63.83-22.19 14.3-8.41 26.56-21.29 34.53-35.71 8.63-15.62 12.86-32.89 15.98-50.77a1.03 1.02-58.4 0 1 1.83-.44q.25.34.33 1.15c.58 6.04-.57 12.07-2.06 19.42q-6.67 32.91-30.67 57.3-1.83 1.87-.74 4.96 7.31 20.76 20.16 38.91 7.05 9.98 18.93 24.79c9.63 12 16.91 25.67 20.51 41.19q2.39 10.37 3.21 18.08 3.74 35.12-.89 70.54-.78 5.98-6.31 28.78c-.68 2.81-2.57 11.51.11 13.63q5.93 4.67 13.54 6.35 16.67 3.68 32.67.42c3.56-.72 12.87-3.46 14.39-7.38l3.08-7.93a8.8 8.66-29.6 0 0 .45-1.58q1-5.68.04-12.01-2.14-14.21-3.13-28.61c-.66-9.59-.18-19.39-.31-30.65q-.13-10.73.96-22.96 1.67-18.72 3.33-37.29c.97-10.86.84-21.09-3.57-30.44-3.78-8.01-7.86-14.46-9.53-21.67q-2.76-11.9-2.1-20.15 1.29-16.25 6.33-34.31c5.92-21.21 9.86-34.8 12.84-50.17q4.15-21.39 3.92-44.07c-.16-16.05-2.66-31.22-7.59-45.94-14.12-42.2-49.51-73.38-94.62-76.41q-27.32-1.84-54.51 4.42-22.15 5.09-42.63 4.38c-26.87-.94-49.6-14.28-61.04-39.13-4.28-9.29-5.85-20.18-6.75-30.17a3.97 3.95-75.2 0 0-1.66-2.87c-11.78-8.29-23.06-16.25-37.34-17.73-10.1-1.04-20.28-2.12-29.93-5.77-28.97-10.95-49.86-35.08-55.73-65.25q-1.51-7.78-1.32-14.23a1.1 1.1 0 0 1 1.82-.8q.85.74 1.01 1.61c2.75 14.6 7.8 29.34 15.96 41.38q19.32 28.49 52.78 35.16c9.3 1.85 21.42 1.65 31.28 6.02q13.01 5.77 23.92 14.68a.33.33 0 0 0 .53-.33c-3.84-17.94-.06-36.07 8.87-52.08q18.51-33.2 52.37-46.76c21.33-8.55 46.03-9.99 68.76-5.65 5.14.98 10.03 2.59 15 4.71a.34.34 0 0 0 .39-.52q-3.9-4.83-8.39-10.72-4.97-6.52-9.68-20.03a.23.23 0 0 0-.42-.03m-52.61-186.3 23.71-39.23a1.48 1.48 0 0 1 2.19-.39q1.9 1.54 2.69 4.12 4.61 14.96 2.9 31.21c-1.35 12.69-6.23 23.37-13.58 33.83a1.82 1.81-44.9 0 0-.01 2.08q3.02 4.39 7.74 8.26a.79.79 0 0 0 .93.04q2.22-1.52 4.24-4.86c7.96-13.22 11.99-27.83 11.74-43.23q-.11-6.55-.9-13.16-2.15-18.08-12.23-33.28-.97-1.46-3.76-3.44a1.54 1.52-31.6 0 0-1.16-.27q-2.03.33-3.44 2.19c-7.33 9.61-12.28 15.8-19.22 23.14q-9.96 10.54-15.95 17.25a1.15 1.15 0 0 0 0 1.52l12.79 14.35a.82.82 0 0 0 1.32-.13m62.65 50.97-4.3 2.23a4.11 3.73 21.2 0 1-.78.3q-13.15 3.43-23.96-1.58c-11.52-5.34-19.87-14.17-25.76-24.46q-10.38-18.15-12.1-20.65c-13.02-18.84-31.51-33.46-53.82-38.13-31.17-6.54-63.33 3.07-86.49 24.56q-2.54 2.36-1.75 6.34 1.65 8.29 2.49 13.53a.52.52 0 0 0 .79.35q19.04-12.29 40.76-14.47c30.59-3.06 57.7 9.54 75.26 34.57q2.82 4.03 14.74 22.13 6.69 10.15 16.28 16.92 11.43 8.06 25.84 8.27 8.51.13 17.16-3.55c10.09-4.28 15.41-15.29 16.24-25.97a.41.41 0 0 0-.6-.39m-38.19-83.19q-9.62 17.6-20.68 34.56-1.21 1.85-1.27 3.29a1.94 1.91-59.5 0 0 .26 1.04l10.8 18.71a.91.91 0 0 0 1.53.08c12.09-16.58 14.8-38.13 9.81-57.62a.24.24 0 0 0-.45-.06m-60.44 132.83a.29.29 0 0 0 .09-.53q-11.74-7.53-20.06-19.56c-6.43-9.29-11.64-21.59-19.24-32.23-2.41-3.38-4.59-5.32-7.9-8.71q-.48-.49-.56-1.07a.68.67 13 0 1 1.05-.65c5.61 3.76 8.94 7.12 13.2 12.96 3.96 5.43 5.58 8.83 10.27 17.11 10.99 19.38 28.39 32.55 51.11 34.64 21.06 1.95 41.06-3.9 55.52-19.77a.24.24 0 0 0-.24-.39c-28.07 7.98-49.49-4.54-64.22-27.37q-8.04-12.44-11.36-17.4-13.64-20.28-35.34-29.73c-12.68-5.53-26.32-6.19-40.01-5-11.81 1.04-24.01 5.4-33.92 11.52q-3.8 2.34-5.02 3.66a7.1 5.6-33.1 0 0-.63.75q-.24.32-.37 3.58-.14 3.31.06 5.86a1.71 1.7 8.1 0 0 1.11 1.47q8.52 3.19 14.3 11.72c1.07 1.58 2.65 3.77 3.53 5.44q7.86 15.02 16.93 25.85 9.41 11.25 24.94 19.55c14.34 7.65 31.13 11.97 46.76 8.3m-294.52 97.72c2.59 7.36 12.3 13.31 19.86 13.5 4.97.13 10.74.42 15.89-2.12 13.68-6.73 23.79-19.98 29.39-34.01 6.24-15.63 10.88-36.19 14.61-47.69 7.46-22.97 20.29-45.78 40.05-60.59a1.27 1.26 52.3 0 0 .23-1.8c-4.35-5.49-7.87-9.58-10.03-15.22a1.15 1.14-23.1 0 0-1.56-.62c-19.21 9.1-35.03 24.39-45.39 42.82q-8.89 15.84-12.41 32.83-2.5 12.1-6.11 28.63c-2.82 12.91-8.01 25.27-17.62 34.88q-6.38 6.37-14.93 8.25c-3.37.74-8.42.54-11.56.55a.44.44 0 0 0-.42.59M297 727.08q.78-2.64 2.05-7.56 3.29-12.66 11.46-25.04c10.54-15.98 26.03-28.34 38.42-42.41q7.57-8.59 10.17-11.99 20.43-26.71 30.8-59.67c2.96-9.4 2.95-16.16 3.9-27.4 2.58-30.46 11.35-60.61 24.81-88.45a2.75 2.72 42 0 0-.15-2.65q-2.12-3.37-5.3-1.01-10.48 7.77-17.82 17.71-12.23 16.57-18.81 36.15-3.7 11.01-4.59 14.43c-4.45 17.05-7.05 28.51-13.67 42.35-5.4 11.31-13.28 20.02-22.86 27.99a22.93 22.91-.8 0 0-3.29 3.38c-8.11 10.3-18.01 20.76-24.06 27.9-8.81 10.41-16.24 23.47-19.66 36.86-5.27 20.66-1.43 40.41 7.99 59.46a.33.33 0 0 0 .61-.05m364.55-143.52a.38.38 0 0 0 .48.55q5.35-2.59 8.2-7.84c4.22-7.75 4.22-15.23 3.58-23.9q-.6-8.14-4.13-15.59c-3-6.35-9.52-12.25-17.01-10.62-5.3 1.15-9.35 6.32-11.59 11.02a.39.38-8.8 0 0 .61.44q6.91-6.34 15.26-1.43c10.65 6.26 12.66 23.14 11.03 33.89-.75 5.01-3.63 9.12-6.43 13.48m-16.8-7.55c3.54 4.97 9.37 9.51 14.38 3.08 5.57-7.15 5.9-17.15 3.98-25.42-1.58-6.85-7.64-16.75-15.87-12.98q-5.34 2.45-7.7 9.05c-2.93 8.23.39 19.49 5.21 26.27m-252.39 9.24c-1.59 3.85-3.22 8.59-4.67 12.18q-14.04 34.66-42.22 63.8-16.93 17.51-19.57 20.16c-13.14 13.2-22.24 30.1-24.38 49.61q-.32 2.9-.53 15.24c-.2 11.61-6.57 24.97-17.79 29.24q-11.83 4.49-21.98-2.9a.45.45 0 0 0-.71.38q.12 2.54 1.02 5.54c4.23 14.09 16.16 26.03 31.19 27.49 8.74.84 18.43.27 25.32-5.6a4.31 4.3-19 0 0 1.52-3.1c.57-12.84 2.19-25.04 6.32-36.67 5.04-14.21 14.61-27.25 24.97-38.77q12.02-13.37 17.24-20.53 14.67-20.11 21.34-45.99c2.91-11.29 3.49-21.1 3.57-32.83q.03-5.66-.03-37.13a.32.32 0 0 0-.61-.12m254.2 155.02a.16.16 0 0 0-.1-.29c-14.64-.1-28.79-3.64-41.23-11.75q-20.37-13.27-27.33-36.88a1.08 1.08 0 0 0-1.71-.54q-2.1 1.69-3.95 2.21a1.05 1.05 0 0 1-1.32-1.16c.22-1.66 1.18-2.45 1.96-3.6 2.5-3.62 8.23-6.61 12.66-4.24a.9.89-48.9 0 1 .1 1.51l-2.7 1.99a2.44 2.42 63.1 0 0-.87 2.7c10.85 34.06 44.24 49.09 78 43.1 37.71-6.68 66.16-40.33 61.71-79.48-1.25-11.05-5.53-20.37-12.33-29.73q-6.12-8.4-15.88-12.43-7.08-2.92-11.63-3.89c-24.47-5.2-51.88-3.86-74.67 6.24q-31.59 13.99-47.69 46.19-9.9 19.79-7.35 41.78.73 6.24 3.98 11.05 8.72 12.91 22.86 22.04 28.5 18.43 61.27 8.29 3.77-1.16 6.22-3.11m-253.05-87.41q-3.34 17.04-11.13 32.08-8.39 16.19-18.72 27.76-13.59 15.23-19.86 23.34-13.98 18.1-18.14 41.41c-1.17 6.59-.33 17.76-1.12 26.54q-.64 7.19-1.33 9.48c-3.61 12.12-10.96 20.93-24.26 22.12-2.6.24-6.12-.31-8.42-.52a.61.61 0 0 0-.55.98c5.77 7.69 13.62 13.92 23.29 15.39q19.7 2.99 35.5-9.64 4.15-3.32 5.14-5.65 8.83-20.8 18.06-44.97c2.67-7 4.36-13.19 6.26-19.04q2.44-7.57 4.12-14.45 10.31-42.17 11.64-83.7.38-12 .05-21.09a.27.27 0 0 0-.53-.04m551.84 372.87q-.84.36-4.14 2.29c-10.36 6.09-22.4 1.96-29.98-6.53q-9.39-10.52-9.55-25.74-.14-12.85 2.46-22.39 3.04-11.11 8.06-26.11 8.09-24.2 7.63-50.44-.52-28.8-15.42-53.01c-14.46-23.5-36.85-40.32-64.41-44.1-16.72-2.29-35.42-.45-49.65 9.19a.43.43 0 0 0-.1.6l7 9.51a2.73 2.71 69.9 0 0 2.35 1.1c23.74-1.46 45.25 8.34 61.57 25.41q19.23 20.11 25.05 48.25 3.26 15.79 2.16 29.38-1.15 14.34-5.52 32.09c-1.94 7.87-4.59 18.04-6.34 26.76-2.97 14.84-3.95 30.26-.55 44.99q2.64 11.46 9.69 21.53 5.28 7.55 13.98 12.02c8.76 4.49 17.07 4.25 25.99.35 12.99-5.7 19.58-21.56 20.23-34.8a.36.36 0 0 0-.51-.35m-78.97 115.9q6.95-1.24 13.74-3.99c8.79-3.56 15.19-8.98 21.41-16.53q8.08-9.81 10.45-21.61c2.04-10.14.63-21.75-5.76-30.09a5.08 4.98-2.9 0 0-1.4-1.24c-2.91-1.71-6.65-3.33-9.4-5.29-22.29-15.85-28.43-44.92-24.31-70.85q2.59-16.35 6.88-31.31c1.68-5.87 2.38-10.52 4-17.51 1.78-7.69 2.67-17.33 2.87-25.19.87-35.48-17.12-71.41-49.71-87.41q-16.06-7.89-33.64-6.63a.55.55 0 0 0-.46.79l8.18 17.15a5.26 5.25-2.6 0 0 2.93 2.67q9.74 3.6 17.42 10.84c20.38 19.24 26.64 46.22 23.57 73.55-1.95 17.43-8.37 38.48-11.37 52.78-5.56 26.47-3.26 51.72 10.76 75.24 5.58 9.36 14.49 19.67 20.14 29.08 7.45 12.41 9.62 25.13 4.97 38.82q-3.34 9.8-11.55 16.09a.36.36 0 0 0 .28.64m-684.37-46.51q-.02-42.49-.01-156.89 0-17.24-.64-36.35-.65-19.2-.33-36.38c.07-3.92-.43-10.91-3.3-13.2q-5.68-4.55-13.2-5.25c-12.24-1.14-35.09 1.99-34.01 19.27q.4 6.4.5 34.42c.02 5.37.79 11.22.86 16.01q.25 16.49.16 19.92c-.16 6.67.95 14.31.95 21.84q-.01 22.33.08 23.99c.29 4.99.96 9.22.95 14.01-.04 9.76-.23 18.28.61 26.65.82 8.32.19 16.85.59 26.12q1.3 30.05 1.93 50.97a.6.6 0 0 0 .7.57q20.45-3.44 43.46-4.96a.74.74 0 0 0 .7-.74m669.74 46.71q5.61 1 10.3-2.31c10.08-7.11 14.81-19.17 13.96-31.27-1.3-18.52-14.98-31.46-24.45-45.99q-20.55-31.51-15.05-69.53 2.45-17 5.55-27.97 2.38-8.46 5.18-20.77 4.41-19.41 2.48-39.63-1.81-19.04-13.19-35.89-8.85-13.09-23.58-19.57a.56.55-87.4 0 0-.75.69q4.21 12.57 6.1 26.31c.33 2.41 1.11 5.89 2.27 7.52q5.7 8.02 7.88 16.98c1.53 6.31 2.65 13.26 2.46 19.61q-.42 13.92-3.97 28.46c-4.28 17.52-12.35 37.6-15.52 56.28-3.95 23.3-1.23 45.7 11.87 65.18 1.71 2.53 3.68 4.74 5.91 7.35 10.15 11.88 25.4 21.16 29.13 37.99 2.07 9.32-.2 19.37-6.78 25.93a.38.37 27.6 0 0 .2.63M344 889.03q-30.29-.13-77.02.04c-4.46.02-8.89.8-13.64.89q-1.1.02-25.23.09c-3.32.01-6.54.86-9.95.9q-2.82.04-18.79.06a11.73 11.44 37.9 0 0-2.58.29q-4.07.94-8.82.67a1.04 1.04 0 0 0-1.11 1.04v43.54a.51.51 0 0 0 .51.51q3.61.03 16.79-.04c7.54-.03 14.95-.97 22.35-1 19.17-.06 28.66.28 44.72-.54q9.02-.47 20.52-.47l54.69-.01a.72.71-4.3 0 0 .7-.81q-3.17-21.78-2.48-44.48a.66.66 0 0 0-.66-.68m475.89 5.9q-.05.24-.01 1.32c.59 13.54-.74 28.04-2.69 39.98-2.1 12.88-5.57 27.29-9.69 41.12q-.18.61-4.2 14.7c-2.7 9.47-4.51 18.66-5.72 27.96q-2 15.3 2.78 29.4c1.64 4.82 4.6 9.38 7.1 14.38 7.6 15.22 5.37 32.03 3.56 48.4a.73.72-85.5 0 0 .68.8q19.75 1.06 39.85 4.45a.85.85 0 0 0 .97-1.03q-2.12-9.34-9.17-16.52-4.06-4.13-15.25-15.25-13.37-13.29-19.84-31.64c-6.68-18.94-5.39-41.29-.1-61.12 2.97-11.15 7.12-22.71 9.95-33.1q3.76-13.75 4.13-15.8 2.5-13.77 2.69-21.99.31-13.91-4.07-26.12a.51.5 41.3 0 0-.97.06m-692.93 44.41q.31-4.74-.58-16.98c-.65-8.86-.29-17.47-.41-26.4a1.03 1.03 0 0 0-1.11-1.01q-16.14 1.25-33.85 2.39-13.21.86-37.63 3.4c-5.18.55-8.6.63-9.5 5.93q-.94 5.56-.9 8.58c.14 8.44 1.1 18.84 4 27.02 1.17 3.3 4.86 3.01 8.03 2.85 13.05-.65 33.69-3.01 50.8-4.07q18.76-1.15 20.42-1.07a.69.68 3.3 0 0 .73-.64m797.05-7.77a1.36 1.36 0 0 0-1.44.96l-11.91 39.85a1.36 1.36 0 0 0 1.16 1.74l22.48 2.31a1.36 1.36 0 0 0 1.5-1.24l3.43-40.71a1.36 1.36 0 0 0-1.22-1.47zm-737 11.16v52.47a.73.73 0 0 0 .7.73c2.81.14 6.49.2 9.68-.23 6.66-.9 16.01-.88 19.7-.69q3.49.18 12.8-.61 7.02-.61 15.83-.4c8.79.21 17.25-1 26.45-.99q80.19.04 90.16-.02a.65.65 0 0 0 .64-.77c-1.34-6.84-3.5-14.92-6.28-22.94q-4.28-12.32-8.06-28.34a.86.85-89.5 0 0-.61-.63q-1.57-.43-3.52-.41-13.79.12-52.16.1c-8.78-.01-17.41.85-26.85.94q-10.31.1-43.84.06c-4.4-.01-8.42 1.06-13.24 1.03q-13.65-.09-20.7-.01a.71.71 0 0 0-.7.71m747.34 38.45-23.87-2.69a1.5 1.49-81.6 0 0-1.64 1.22q-1.63 9.25-.91 19.82.26 3.71 2.23 9.03 4.73 12.75 16.33 15.95 2.22.61 4.49.43a.69.69 0 0 0 .64-.63q.8-10.18 3.38-39.05.25-2.82-.01-3.56a.78.78 0 0 0-.64-.52m-747.13 20.32v42.74a1.8 1.79 83.3 0 0 2.21 1.75c6.51-1.56 13.19-.45 19.12-1.37 6.38-.98 16.17-.25 24.84-1.02 12.27-1.08 27.72-.03 42.14-.95q10.02-.63 13-.64 42.94-.06 82.98.07a1 1 0 0 0 .98-1.18l-7.84-41.79a1.42 1.41 86.1 0 0-1.31-1.15q-5.64-.33-6.34-.33-50.52.4-93.71.38c-7.59 0-14.74.99-22.97 1-10.81.01-14.69-.42-23.9.72-5.51.68-14.16-.34-20.09.6q-4.42.7-8.6.67a.5.5 0 0 0-.51.5m-57.32 46.84q.47-14.44-.56-27.11c-.45-5.55-.14-11.66-.41-16.02a.58.56-5.3 0 0-.64-.52c-3.47.44-7.12.3-11.03.66q-31.77 2.93-57.15 5.99-4.43.54-7.98 1.63a4.27 4.26 89.8 0 0-2.85 2.88c-.99 3.39-.82 6.54-.81 10.04q.04 14.24 3.86 27.07c1.19 3.97 6.97 3.33 10.45 2.9q33.8-4.17 66.66-7.03a.52.51 88.8 0 0 .46-.49m549.16-42.37c-5.79 2.91-13.75 8.41-21.22 12.09-17.12 8.45-35.51 14.03-54.07 17.24a1.05 1.05 0 0 0-.81 1.39q1.05 2.95 2.03 4.8 4.9 9.23 10.11 18.86 6.49 12.02 8.17 17.62 6.29 20.96 5.8 38.55-.56 20.15-6.14 45.48-4.64 21.09-14.82 46.63-1.42 3.57-1.3 7.15c.27 8.12 26.02 10.88 31.95 11.2q11.55.6 24.18-3.24c3.82-1.16 5.26-4.79 7.22-8.33 1.66-3 2.22-6.38 2.16-9.42q-.59-32.02 6.34-61.67c2.27-9.72 3.67-16.35 6.04-25.32q3.73-14.13 5.65-24.33c1.19-6.33 1.48-14.84-.99-21.36-4.08-10.73-11.15-19.24-12.88-30.55q-2.84-18.47 3.38-36.09a.57.57 0 0 0-.8-.7m4.13 10.13q-.36.63-.49 1.39c-2.17 13.06-1.92 27.01 4.83 38.79 4.1 7.17 7.51 13.35 8.91 20.71 1.78 9.29-.12 18.48-2.33 28.46a.33.33 0 0 0 .31.4c14.26.24 29.08 1.96 43.71 4.26a.86.85 87.3 0 0 .96-1.06q-4.84-18.78-16.75-34.43-10.05-13.21-14.35-18.59-14.77-18.45-24.26-39.9a.3.3 0 0 0-.54-.03m-221.45 17.73-4.7 66.52a.9.9 0 0 0 .94.97c9.7-.45 19.92-.81 29.87.54a.96.95 4.3 0 0 1.09-.93q.28-24.03-3.79-46.86-.28-1.6-2.27-12.9-.41-2.31-1.1-4.03a1 .99 83.5 0 0-.76-.61l-18.55-3.27a.62.62 0 0 0-.73.57m159.96 68.03a.74.72-11.7 0 0 .52-.77q-1.2-13.22-6.33-26.18-.93-2.37-13.57-26.08-3.42-6.42-5.33-11.02a1.42 1.41-10.4 0 0-1.26-.87q-5.77-.15-12.65 1.27a1.06 1.05 6.2 0 0-.74.59q-.81 1.82-1.69 6.35c-3.67 18.97-6.57 37.1-6.63 55.68a.89.89 0 0 0 .98.88q12.67-1.25 27.26-.58 15.37.71 17.24.86 1.41.12 2.2-.13m-359.62-6.89q-1.13-5.29-3.44-12.32-.83-2.51-.25-4.67a1.31 1.31 0 0 1 1.82-.85c7.8 3.66 12.86 8.92 18.05 15.63a.62.62 0 0 0 1.09-.23q3.02-12.41 11.61-21.29.97-1 1.43-1.1a2.16 2.15-12.9 0 1 2.54 1.59c1.47 5.99 1.09 12.32 1.22 21.03a.61.61 0 0 0 1.03.44c5.65-5.21 12.26-10.15 19.32-11.99q2.11-.55 4.08 1.32a.81.8-56.3 0 1 .18.91l-5.76 13.39a.69.68-84.8 0 0 .78.94c10.06-2.23 19.17-2.06 31.14-1.88 10.44.16 21.03 1.86 30.27 2.06a.48.48 0 0 0 .49-.49q-.44-25.21-3.94-49.5a.78.78 0 0 0-.59-.64q-1.47-.34-3.9-.34-72.6.03-76.69.05c-6.7.02-12.75.98-20.14.97q-19.74-.01-29.41.01c-4.68.01-9.13.97-14.03.99-10.41.04-15.48-.24-24.58.68q-5.28.53-15.27.25a1.5 1.5 0 0 0-1.54 1.5v43.64a.53.53 0 0 0 .6.52q3.36-.42 7.81-.54 22.9-.6 46.25 1.96 1.1.12 1.31.03a.87.86-32.6 0 0 .3-1.34l-3.43-4.06a1.54 1.54 0 0 1 .39-2.32c4.64-2.75 16.35 3.32 20.63 6.09a.42.42 0 0 0 .63-.44m661.29 33.65 5.22-62.06a.55.54 81.1 0 0-.75-.55q-6.49 2.73-13.13 3.4a.94.93-16.3 0 0-.74 1.35c3.86 7.61 5.38 15.56 4.51 24.21q-1.72 17.09-12.61 30.14a.66.66 0 0 0 .39 1.08l16.5 2.9a.52.52 0 0 0 .61-.47m-256.22 98.36c-6.65 1.9-12.31 3.62-19.63 4.12q-15.45 1.06-30.72-3.28-6.2-1.76-11.65-5.86a.58.57 31.1 0 0-.86.21q-8.06 16.79-12.01 33.37c-.89 3.74 1.75 5.51 4.94 7.2q3.95 2.09 11.22 3.55 20.44 4.12 41.73-1.12c6.88-1.69 14.67-4.4 16.25-11.73q2.56-11.87 1.34-26.04a.48.48 0 0 0-.61-.42m135.15 18.55q-7.46 4.32-15.52 5.94c-16.39 3.3-33.52 1.18-48.02-7.29a.72.71-63.3 0 0-1.02.34q-7.59 17.71-11.49 35.73-1.3 6.04 3.72 8.52 4.62 2.28 10.12 3.63 22.55 5.54 45.16-.3c7.85-2.03 17.17-4.73 19.01-14.1 1.26-6.46.88-12.06.59-19.01q-.28-6.58-1.51-12.99a.7.7 0 0 0-1.04-.47m-364.03 20.61c-3.39.86-8.09 2.98-11.66 3.78q-11.32 2.57-23.34 1.84c-12.99-.78-26.51-3.36-36.99-11.53a.69.69 0 0 0-1.05.25q-5.87 12.29-10.82 26.41-1.71 4.88-3.19 12.12c-.64 3.17-1.14 6.72 1.91 8.71 7.27 4.74 15.01 6.1 24.42 7.28q18.48 2.32 38.37-1.85 9.43-1.97 16.42-7.03c4.22-3.05 5.45-9.53 5.93-14.62q1.21-12.65.65-24.87a.53.52 81.5 0 0-.65-.49m121.76 23.79a.44.44 0 0 0-.64-.34c-8.05 4.08-13.78 6.43-22.64 7.67-17.52 2.44-38.23 1.35-52.81-9.34a.67.67 0 0 0-1.02.28c-3.13 7.28-16.79 41.72-12.63 47.46 3.95 5.45 14.72 7.67 21.07 8.65q14.71 2.27 28.6.95c11.68-1.11 21.76-3.2 32.11-8.17 7.58-3.63 8.7-10.66 9.02-18.61q.65-15.84-1.06-28.55"/><path d="M442.98 445.83q-1.4-.51-3.35-2.18-8.5-7.28-14.27-18.03-13.89-25.85-6.14-54.56c1.87-6.93 4.8-14.45 9.61-19.72a1.91 1.91 0 0 1 2.49-.29c1.82 1.23 3.34 6.32 5.08 10.77 3.65 9.36 8.55 18.54 11.42 27.35q1.32 4.02 2.91 12.24c2.34 12.05.64 24.12-2.46 36.12q-.88 3.43-2.73 7.26a2.05 2.04 22.8 0 1-2.56 1.04m-.36-7q1.26-3.13 1.89-6.33c1.48-7.57 2.84-15.24 2.26-23.07-1.05-14.24-5.89-26.16-11.99-39.28-1.79-3.86-3.12-7.74-4.71-11.77a.51.51 0 0 0-.93-.04c-4.46 8.59-7.05 17.84-7.3 27.69-.29 11.32.02 19.67 4.16 29.89 3.65 9.01 8.42 16.76 15.75 23.12a.55.55 0 0 0 .87-.21m31.84 72.1c-2.96.31-2.69-3.57-1.96-5.66q3.97-11.33 14.42-17.08c6.63-3.64 17.62-5.96 22.8 1.11a2.58 2.57 45.1 0 1 0 3.05q-.65.87-2.2.98c-6.06.41-10.13.34-14.32 2.12-6.17 2.62-11.88 6.73-15.71 12.2q-1.51 2.15-2.14 2.84a1.47 1.43 17.9 0 1-.89.44m33.835 14.797a39.31 31.15-91.1 0 1 31.9 38.705 39.31 31.15-91.1 0 1-30.39 39.9 39.31 31.15-91.1 0 1-31.9-38.704 39.31 31.15-91.1 0 1 30.39-39.9m7.585 73.553c10.52-2.69 18.15-15.9 19.34-26.31 1.52-13.29-1.11-26.99-10.62-36.08-4.34-4.14-11.42-7.44-17.72-6.46-12.81 2.01-21.02 12.92-23.94 24.88a.38.37-24.4 0 0 .7.26c4.15-7.74 9.66-14.17 19.04-14.87q6.66-.5 11.8 2.83c11.5 7.45 15.36 22.53 13.13 35.64-1 5.88-4.03 13.11-8.84 17.02q-2.49 2.03-3.11 2.75a.21.21 0 0 0 .22.34m-12.803-53.1a25.24 19.26-92.8 0 0-18.004 26.15 25.24 19.26-92.8 0 0 20.47 24.27 25.24 19.26-92.8 0 0 18.004-26.15 25.24 19.26-92.8 0 0-20.47-24.27"/><ellipse rx="8.08" ry="6.6" transform="rotate(-93.8 584.94 -28.898)"/><ellipse rx="8.7" ry="7.78" transform="rotate(-79.7 590.344 -23.418)"/><path d="M700.773 642.729a16.19 9.34-82.5 0 1 7.147 17.27 16.19 9.34-82.5 0 1-11.373 14.832 16.19 9.34-82.5 0 1-7.147-17.27 16.19 9.34-82.5 0 1 11.373-14.832m-.654 5.045a11.33 4.64-82.6 0 0-6.06 10.638 11.33 4.64-82.6 0 0 3.142 11.834 11.33 4.64-82.6 0 0 6.06-10.638 11.33 4.64-82.6 0 0-3.142-11.834m-86.057 2.042a17.01 11.11-114.7 0 1 17.202 10.812 17.01 11.11-114.7 0 1-2.986 20.096 17.01 11.11-114.7 0 1-17.202-10.812 17.01 11.11-114.7 0 1 2.986-20.096m2.086 4.66a12.24 6.54-115.1 0 0-.73 13.858 12.24 6.54-115.1 0 0 11.114 8.31 12.24 6.54-115.1 0 0 .73-13.858 12.24 6.54-115.1 0 0-11.114-8.31M121.19 1386.48a.27.27 0 0 0 .27.26.16.16 0 0 0 .16-.15c1.39-27.83 15.38-56.44 42.5-67.46a1.33 1.33 0 0 1 1.62.51q1.35 2.12 1.72 4.89 1.14 8.51.74 20.02c-.64 18.22-6.91 34.96-18.91 48.53q-9.68 10.95-21.09 19.09c-1.87 1.33-2.51 3.36-2.22 5.68 1.23 9.96 3.28 17.95 4.78 25.97a1.67 1.66 88.2 0 1-1.84 1.96l-.06-.01a3.2 3.19-4.1 0 1-2.7-2.34q-7.18-26.86-9.59-54.28c-.87-9.88-.59-19.61-.53-28.64.02-3.26-.15-5.9-3.49-7.05q-1.44-.5-6.85-1.93-25.25-6.66-36.45-29.36-3.77-7.65-5.82-18.96-1.72-9.58-2.25-19.79c-.13-2.58-.19-5.45.95-7.12 1.14-1.65 3.73-.66 5.5-.16 10.92 3.07 21.99 9.26 30.13 17.18q17.66 17.19 20.05 42.86a.47.47 0 0 0 .93.05q1.72-8.06 2.13-10.9.89-6.17 2.49-10.81c1.7-4.92 3.97-14.7 6.69-22.05 2.68-7.21 3.58-9.93 6.55-16.08q2.16-4.47 3.4-7.88a.38.38 0 0 0-.64-.39c-8.42 9.41-20.51 13.93-32.61 8.39-6.42-2.95-12.88-10.08-14.82-16.98-3.47-12.33 2.95-25.29 13.35-32.1a.48.48 0 0 0-.18-.88q-5.44-.98-10.87-3.34c-15.92-6.93-20.81-25.07-12.13-39.66 5.22-8.77 14.51-14.32 24.68-14.5 8.01-.14 13.17 2.34 19.78 5.03a.34.34 0 0 0 .45-.44q-4.08-10.81.14-22.13c5.57-14.89 24.71-21.81 38.91-15.41q9.83 4.42 14.03 14.83c1.99 4.95 2.18 9.69 1.77 14.63a.41.41 0 0 0 .71.3q10.28-11.58 25.59-11.59c10.56-.01 19.85 7.73 23.88 17.43 2.5 6.02 2.72 11.26.51 17.32q-4.4 12.04-16.45 18.35a.16.16 0 0 0 .03.29c13.46 4.23 24.21 15.99 22.13 30.88-1.6 11.35-10.99 22.73-22.8 24.31-6.3.84-12.91-.28-18.49-3.49q-2.13-1.23-2.36-1.27a.49.49 0 0 0-.55.4c-.31 1.9 1.12 6.59.91 9.58q-1.06 14.99-13.46 22.34-7.57 4.5-16.03 3.32-16.91-2.35-21.97-18.42a.59.58 50.8 0 0-1.07-.11q-1.52 2.72-2.67 5.54-2.45 6.02-6.45 17.81-6.62 19.49-10.56 43.08c-2.42 14.53-1.92 30.93-1.57 44.85m22.24-193.5c3.86-2.09 6.17-3.69 9.94-4.48q8.09-1.69 16.44.34a1.18 1.18 0 0 0 1.4-.77l5.2-15.01a4.53 4.2 61.2 0 0 .18-.72q.82-5.04.43-13.51c-.47-10.01-9.09-19.32-18.71-20.43q-12.31-1.43-21.12 6.52c-5.76 5.21-7.85 12.19-7.25 20.07q.59 7.69 3.26 12.6 4.41 8.12 9.34 15.18a.69.69 0 0 0 .89.21m34.26 43.17a.5.5 0 0 1 .85-.32c10.86 10.72 18.89 25 36.8 22.06 6.47-1.06 11.49-4.77 14.58-10q7.09-12.03 1.15-23.28c-4.45-8.42-12.96-12.63-22.2-13.45q-9.2-.81-16.96.76a.76.76 0 0 1-.92-.78v-.06a1.35 1.34 83.7 0 1 .98-1.23c6.95-1.95 14.33-3.16 21.13-6.2q6.08-2.72 12.15-10.4 2.23-2.81 3.19-7.32 2.67-12.47-6.48-20.89-8.83-8.12-20.76-5.36-4.99 1.15-7.8 2.96-9.57 6.16-14.72 16.55-2.6 5.26-5.45 9.97a.71.71 0 0 0 .24.97c7.44 4.61 13.75 11.73 14.44 20.62q.54 7.11-.31 9.85-4.03 12.97-15.32 18.17c-12.79 5.89-26.35 2.12-35.04-8.83-6.73-8.49-6.34-20.99-.35-29.52q2.28-3.26 3.94-5.27a.95.94-45.3 0 0 0-1.21c-6.58-7.91-14.28-15.71-23.88-18.88-17.4-5.74-35.13 6.01-34.33 24.59q.41 9.5 7.73 15.75c11.04 9.44 24.96 6.59 38.36 4.62a.94.93-22 0 1 .89.37l.25.35a.75.75 0 0 1-.39 1.17c-9.77 2.91-18.97 5.8-26 13.03-10.82 11.14-10.31 27.31 3.03 36.25 8.25 5.53 19.99 3 27.22-3.4q6.14-5.45 9.28-12.57 4.54-10.34 6.54-13.68.27-.47.86-.39a.62.61 10.8 0 1 .52.76q-1.92 7.35-3.46 14.48c-1.94 8.95-1.22 18.44 4.61 25.48q6.84 8.24 18.97 7.25c10.25-.85 18.44-10.25 19-20.32q.52-9.57-3.52-17.06-4.03-7.45-8.55-13.78a1.7 1.7 0 0 1-.32-1.14zm5.536-26.853a23.44 22.54-12.6 0 0-27.793-16.884 23.44 22.54-12.6 0 0-17.958 27.11 23.44 22.54-12.6 0 0 27.792 16.884 23.44 22.54-12.6 0 0 17.959-27.11M66 1280.83c-.29 9 .67 14.8 2.58 25.4q.79 4.41 3.65 11.58 4.33 10.82 12.68 18.06c8.76 7.61 18.18 10.84 29.29 13.3a.57.57 0 0 0 .69-.6q-.7-9.17-1.68-15.31c-4.26-26.75-21.04-45-46.58-52.88a.49.49 0 0 0-.63.45m60.6 127.18q12.56-8.95 22.58-21.51 7.23-9.06 10.91-21.12 5.99-19.63 3.15-39.91a.74.74 0 0 0-1.01-.59q-3.82 1.56-7.04 3.8c-25.33 17.63-31.53 50.36-29.09 79.1a.32.31 69.5 0 0 .5.23m810.46-175.35a.36.35-28.1 0 0 .61.18c7.03-7.32 18.95-14.88 29.5-13.81a.7.69-2.1 0 1 .62.57q.38 2.11-.17 3.05-5.01 8.54-8.57 16.18a.77.77 0 0 0 .61 1.09q.47.06 1.18-.33 9.13-5.09 19.16-3.06c1.5.3 4.03 1.55 2.56 3.42-2.45 3.12-6.12 5.35-8.74 7.94q-3.68 3.63-4.38 4.06a.99.99 0 0 1-1.48-1.07q.32-1.37.98-2.23c2.48-3.25 4.51-5.88 7.89-8.09a.28.28 0 0 0-.12-.51c-8.59-.93-14.35 2.21-21.93 6a1.3 1.3 0 0 1-1.76-.62q-.28-.61.07-1.6 3.86-11.11 9.76-20.43a.39.39 0 0 0-.39-.59c-6.99 1.03-15.52 6.16-19.85 10.6q-2.84 2.89-7.51 8.15a1.06 1.06 0 0 1-1.54.04q-.61-.62-.71-1.99-.24-3.34-.01-5.32.73-6.51 1.77-25.6a.58.58 0 0 0-1-.43q-9.82 10.59-14.65 24.94-.77 2.29-1.2 5.33a1.07 1.03-22.9 0 1-.21.49l-.51.61a1.24 1.24 0 0 1-2.12-.33q-5.89-15.08-17.45-26.28-1.69-1.63-3.82-2.54a.36.36 0 0 0-.46.48c4.18 9.31 7.38 18.73 7.98 29.16a.92.91.8 0 1-1 .97c-1.26-.12-1.85-.92-2.15-2.16-1.56-6.53-2.35-11.3-4.5-17.06q-2.81-7.52-5.75-14.59a1.77 1.77 0 0 1 1.26-2.41c2.93-.62 7.38 2.79 9.7 4.65q9.67 7.79 15.67 19.81.42.84 1.23 1.59a.53.53 0 0 0 .88-.25q.63-2.37 1.17-4.23c2.17-7.36 7.71-14.92 12.96-20.31q2.21-2.26 4.97-3.61a.98.98 0 0 1 1.21.3q1.16 1.55 1.21 3.93.27 11.92-1.1 24-.08.71.13 1.91m-662.8 8.43a.33.33 0 0 0-.28.56c2.78 2.68 5.56 4.74 6.29 7.95a.7.7 0 0 1-1.12.69l-11.7-9.56a1.16 1.15 46 0 1 .03-1.82c3.28-2.46 12.68-.18 16.53 1.22a.5.5 0 0 0 .62-.68l-5.5-11.52a1.28 1.28 0 0 1 1.07-1.82c6.59-.45 13.88 5.85 18 10.74a.75.74-59.1 0 0 1.3-.33c1.69-7.82 4.63-14.71 10.52-20.05a1.83 1.83 0 0 1 2.82.45q.93 1.62 1.09 4.09.24 3.6.08 12.47a.49.48 65.9 0 0 .85.33c4.47-5.2 9.06-9.81 15.92-11.61a1.8 1.8 0 0 1 2.15 2.36l-6.92 18.91a.96.96 0 0 1-1.86-.22c-.55-4.58 2.37-11.35 4.07-15.79a.31.31 0 0 0-.45-.38c-2.86 1.67-6.69 3.97-9.09 7.22q-1.8 2.45-4.59 6.27a1.21 1.21 0 0 1-1.83.15c-2.19-2.18-2.12-14.6-2.11-18.33a.49.49 0 0 0-.89-.27q-5.86 8.67-7.89 20.73-.07.43-.35.68a1 .99 47.7 0 1-1.4-.07c-6.14-6.68-8.93-10.15-15.1-13.08a.25.25 0 0 0-.33.33c2 4.16 4.95 9.55 5.2 14.01a1.28 1.28 0 0 1-1.95 1.16q-6.18-3.85-13.18-4.79m554.1 123.86c-7.79-.79-14.94-5.02-19.24-11.52-3.68-5.54-4.82-10.85-3.85-17.54q1.51-10.47 9.03-17.29c9.84-8.92 21.9-9.82 33.57-3.57a.39.39 0 0 0 .56-.41c-.95-5.13-1.43-11.6.64-16.74q6.06-15.08 21.57-19.01c9.77-2.47 20.45.45 27.22 8.28q7.85 9.08 5.66 22.49a.58.58 0 0 0 .91.56c7.04-5.11 16.28-7.6 24.81-5.5 9.82 2.42 17.37 10.75 18.97 20.6 2.5 15.42-7.71 27.16-21.64 31.75a.49.49 0 0 0-.19.82c3 2.84 5.39 4.88 7.14 7.96q7.61 13.43-1.27 27.18-4.38 6.78-11.8 10.91c-5 2.78-8.61 4.21-14.17 4.17q-4.34-.03-5.23-.04a.51.51 0 0 0-.51.55q.19 2.32 3.97 18.88 5.48 23.96 4.34 53.28a2.05 2.05 0 0 1-2.1 1.97h-.07a2.03 2.02-89.7 0 1-1.97-2c-.36-27.33-2.59-48.77-9.42-72.44a3.21 3.2 3.7 0 0-1.81-2.05q-9.74-4.23-15.03-13.97a.37.36 46.4 0 0-.64-.02l-5.51 9.11a3.42 3.41-39.6 0 0-.28 2.91c7.52 20.79 12.94 41.7 13.46 63.22q.2 8.42-.85 13.99-.23 1.22-1.27 1.45-.55.12-1.04-.24c-6.29-4.65-10.58-8.37-18.41-8.01q-8.04.38-12.65.12-23.84-1.31-40.16-14.68c-13.73-11.24-23.18-26.01-31.6-41.58-1.11-2.04.5-4.23 2.8-4.44q1.23-.11 1.46-.18 3.82-1.08 13.72-.68 27.69 1.11 49.38 17.41 9.71 7.3 16.08 16.9 6.39 9.64 9.45 16.2c2.06 4.41 4.6 11.09 8.01 12.94a.37.36 18.3 0 0 .54-.27q.77-6.31-.84-21.18-1.26-11.68-3.06-19-3.6-14.64-7.54-26-.65-1.86-1.51-3.4a.62.62 0 0 0-.94-.17q-11.24 9.57-25.52 6.61c-13.71-2.85-24.82-14.22-23.34-28.63q.85-8.22 5.86-14.34c1.02-1.24 3.98-3.56 4.64-4.73a.42.42 0 0 0-.33-.63m63.31-37.56c5.69-10.6 11.74-22.94 4.91-34.43q-6.16-10.36-19.45-10.28-12.51.08-20.19 9.89c-9.42 12.03-4.02 26.31 4.15 36.93a1.08 1.08 0 0 0 1.48.22q10.33-7.25 23.14-3.81c2.02.55 3.43 1.4 4.99 1.88a.82.82 0 0 0 .97-.4m2.29 2.34c9.39 7.04 12.62 19.13 7.78 29.85-4.19 9.28-11.76 14.15-21.95 16.35a.86.84 87.6 0 0-.65.72c-.77 6.12 1.59 11.73 5.13 16.78 8.45 12.05 24.57 13.63 36.18 5.26 7.75-5.59 12.33-13 11.72-22.6-.54-8.53-7.35-15.88-15.7-18.32q-4.21-1.23-8.93-2.08a1.73 1.71-9.7 0 1-1.2-.84l-.33-.57a.86.86 0 0 1 .74-1.29c3.77-.01 7.62.99 11.04.89q13.53-.4 21.58-10.78 5.21-6.72 4.49-15.67c-.78-9.64-8.65-17.94-18.03-18.76q-13.36-1.17-22.78 8.43-5.52 5.63-9.32 11.17a1.07 1.06-54.3 0 0 .23 1.46m-34.67 1.31q-2.98-3.09-6.68-7.11c-6.27-6.81-18.31-10.86-27.18-7.2q-16.94 7-15.49 25.99c.74 9.72 9.18 16.67 18.6 17.77 7.08.83 14.33-1.21 20.34-2.25a.86.85 82.7 0 1 1 .78v.03a1.18 1.18 0 0 1-.81 1.21q-7.69 2.52-12.41 4.92c-5.76 2.93-11.77 9.81-13.29 16.38q-2.25 9.73 3.16 17.34c6.18 8.67 15.17 11.43 25.77 10.02q3.76-.51 5.48-1.47 17.51-9.84 18.16-30.42a.77.76 10.2 0 0-.53-.75q-.86-.29-2.18-.44c-7.71-.89-14.07-4.55-18.68-10.71q-4.32-5.78-4.38-13.03c-.07-7.9 3.63-14.87 9.1-20.1a.67.67 0 0 0 .02-.96m38.806 10.806a22.64 20.99-21.9 0 0-28.835-11.031 22.64 20.99-21.9 0 0-13.177 27.92 22.64 20.99-21.9 0 0 28.835 11.03 22.64 20.99-21.9 0 0 13.177-27.92M871 1470.31c-3.56-8.76-10.37-19.52-16.33-26.67q-4.73-5.66-12.74-11.25-12.72-8.89-26.04-12.04c-10.2-2.42-21.21-4-31.57-2.19a.24.24 0 0 0-.16.35q6.91 12.54 15.26 23.58 8.5 11.26 19.39 18.39 10.34 6.77 24.18 8.97c6.15.98 13.44.62 20.15.65 2.55.01 5.29.61 7.43.79a.43.42-8.6 0 0 .43-.58"/><path d="M206.43 1427.25a.41.4 47.1 0 0 .79.03q7.23-27.73 17.19-48.41.68-1.4 1.03-3.2a.4.4 0 0 0-.73-.3c-3.61 5.64-12.42 8.25-18.72 7.42-12.82-1.69-21.83-15.3-16.13-27.77q2.88-6.29 8.7-10.23a.86.85-57.4 0 0-.34-1.55q-6.95-1.19-11.9-7.19c-4.2-5.08-5.03-9.71-4.3-16.05q.5-4.32 3.51-8.47c5.82-8.01 15.76-11.65 25.14-7.67q2 .85 4.93 2.29a.56.56 0 0 0 .81-.59c-2.23-14.22 7.16-26.73 22.03-26.21 12.18.42 19.27 10.48 19.59 22.06a.36.36 0 0 0 .59.26q9.24-7.98 19.89-6.21c7.4 1.22 12.95 6 15.39 13.27q3.22 9.63-3.77 18.33c-1.68 2.08-4.44 3.93-6.01 5.48a.74.73-57.2 0 0 .26 1.21c7.96 2.97 13.44 9.11 13.84 17.96q.42 9.4-6.73 15.95c-2.84 2.61-9.89 5.82-14.32 5.21-3.62-.5-7.05-1.9-9.8-2.66a.47.47 0 0 0-.59.53q1.67 10.68-4.25 17.62c-8 9.41-20.99 9.95-30.2 1.87q-1.45-1.28-4.59-6.58a.31.31 0 0 0-.55.01c-2.42 4.74-4.21 9.73-6.96 16.86-2.79 7.2-4.24 13.61-6.66 21.7q-1.09 3.63-2.26 8.82-3.27 14.53-5.11 27.57-.17 1.2-1.13 1.43-1.44.34-2.53-.76a1.54 1.52 22 0 1-.42-.97l-.23-4.11a1.86 1.85 11.6 0 0-1.03-1.56q-6.71-3.36-9.63-5.07c-12.36-7.23-20.47-18.92-23.92-32.77q-3.1-12.43-2.25-24.25.35-4.8 5.64-3.93c4.71.78 8.55 2.49 12.92 4.62 11.76 5.74 20.06 17.82 21.95 30.39q.75 5 .86 5.62m42.11-108.21a.62.61 19.1 0 0 .73-.35c4.1-9.63 7.26-24.76-2.32-31.94-4.16-3.12-11.29-3.75-16.26-1.55-8.17 3.61-11.05 10.93-9.59 19.72.95 5.75 3.89 10.84 7.3 15.93a.76.75 58.4 0 0 .99.24q9.08-4.91 19.15-2.05m6.41 33.72q2.22 1.78 7.71 8.1c5.19 5.98 15.38 9.8 22.77 5.62 8.01-4.52 11.42-15.05 5.61-22.75q-6.91-9.17-25-7.63a.87.86-88.4 0 1-.93-.99v-.04a1.5 1.48-2.4 0 1 1.14-1.22q8.43-1.91 10.73-2.74 7.34-2.63 11.86-9.92a5.58 5.53-22.6 0 0 .69-1.65q2.5-10.26-3.92-15.84c-5.09-4.42-11.39-5.34-17.65-2.69-8.47 3.58-12.42 10.48-16.67 18.33a1.12 1.12 0 0 0 .37 1.47q10.73 7.01 9.41 19.69c-.54 5.18-3.05 7.7-6.2 11.45a.57.57 0 0 0 .08.81m-28.46-30.66q-4.43-5.3-9.24-9.6c-5.52-4.94-14.89-7.75-21.66-3.86-5.29 3.05-8.88 7.21-9.37 13.39-.47 6.09 2.32 11.94 7.73 15.02 4.31 2.45 7.31 3.15 12.92 2.97q4.41-.14 10.08.05a.93.93 0 0 1 .81.54l.17.34a.71.7 73.5 0 1-.54 1c-6.94.99-16.55 4.48-20.81 10.33-4.29 5.88-5.28 13.48-.97 19.54 4.51 6.34 11.53 7.3 18.61 5.47 5.2-1.35 10.73-6.97 13.15-11.41q1.13-2.07 2.97-6.58a1.54 1.51-2.3 0 1 .77-.82l.79-.37a.74.73 85.7 0 1 1.02.88q-2.25 7.42-2.88 12.78-.46 3.86 1.63 9.49c1.88 5.09 5.85 8.54 10.91 9.6q10.78 2.25 17.15-6.29c3.03-4.06 2.93-9.97 2.27-14.76-.63-4.59-5.78-11.79-8.34-15.51a.89.88-31.6 0 0-1.15-.27q-11.64 6.32-21.93.72c-7.26-3.95-11.73-12.45-10.03-20.58q1.11-5.31 5.95-11.26a.64.63-45.8 0 0-.01-.81m30.748 15.373a16.37 15.51-.9 0 0-16.612-15.251 16.37 15.51-.9 0 0-16.124 15.765 16.37 15.51-.9 0 0 16.612 15.251 16.37 15.51-.9 0 0 16.124-15.765M201.88 1447.73q.19-.31.31-1.05c2.44-16.1-.38-38.61-15.5-48.63q-7.48-4.96-16.51-7.12a.79.78-82.3 0 0-.97.74q-.42 15.34 4.61 29.16c4.71 12.93 14.54 21.28 27.24 27.15a.65.64-61.9 0 0 .82-.25m456.73-92.55a.2.2 0 0 0-.38.06c-1.25 7.83-2.06 14.69-2.22 24.43q-.17 11.19-1.1 16.32-.15.82-.42 1.19a.91.9 44.9 0 1-1.47 0c-3.37-4.64-5.96-8.85-9.58-12.2q-5.91-5.46-14.22-8.86a.27.27 0 0 0-.37.29q.19 1.29.86 2.22 7.28 10.05 10.23 20.2a1.68 1.67 68.3 0 1-.83 1.95l-.06.02a1.31 1.3 64.5 0 1-1.79-.64q-5.44-12.67-14.21-24.76c-.99-1.37-1.33-3.35.52-4.1q.54-.22 2.38.26 15.43 4.03 25.21 16.45a.49.49 0 0 0 .87-.31q-.21-7.85.28-15.69.88-14.28 2.38-20.34.55-2.21 1.84-3.26a1.71 1.71 0 0 1 2.44.31c7.15 9.68 11.02 22.27 13.25 34.61a.39.39 0 0 0 .74.1q2.15-4.71 3.23-6.97c3.9-8.15 12.69-20.25 21.68-23.34a2.22 1.94-19.9 0 1 2.7 1.05q.4 1.05-.04 2.84-3.06 12.6-6.16 29.73a.24.23 8.9 0 0 .21.28q.25.04.55-.04.34-.1.48-.26 9.53-10.3 24.29-12.9a1.79 1.79 0 0 1 2.07 1.44q.27 1.46-.89 3.15-6.19 8.96-11.33 20.05-.52 1.13-1.4 1.6a1.04 1.04 0 0 1-1.53-.99q.19-2.67 1.48-5.52 3.1-6.88 7.61-14.17a.45.45 0 0 0-.51-.67c-10.21 3.04-16.62 9.64-23.56 17.08a.99.99 0 0 1-1.71-.59q-.31-3.55.3-7.75 2.07-14.33 5.4-27.77a.56.56 0 0 0-.88-.58c-9.98 7.48-16.81 19.68-20.6 31.75q-.69 2.23-1.94 3.64a1.21 1.21 0 0 1-2.11-.63q-1.92-12.82-5.9-25.3-2.23-6.99-5.79-13.38m-539.74 80.43a1 1 0 0 1-1.17.68c-6.67-1.53-16.19-3.52-22.56-6.54-16.78-7.94-28.14-22.27-34.58-39.84q-1.6-4.37-4.82-15.67-.83-2.93-.61-6.16a1.93 1.91 87.3 0 1 1.59-1.76q4.49-.77 8.76.02 16.96 3.15 28.96 15.22c13.39 13.47 21.08 32.13 24.51 50.73q.35 1.89-.08 3.32m-4.78-5.32q-2.43-11.5-6.46-20.78c-7.37-16.94-17.23-30-34.61-36.75-4.17-1.62-7.73-2.03-12.16-2.7a.81.8-87 0 0-.92.83c.13 3.02.92 5.45 1.7 8.24q4.14 14.88 11.65 26.31c6.79 10.33 17.7 19.19 29.86 22.74q5.63 1.65 10.29 2.74a.54.53.7 0 0 .65-.63m826.52 27.25q5.5-1.98 7.92-2.76 10.49-3.38 22.85-2.93 2.98.11 5.08.88a1.65 1.65 0 0 1 .78 2.49q-.8 1.15-3.05 3.47c-6.87 7.06-16.67 16.08-25.93 22.57q-1.5 1.05-3.16 1.32a.84.84 0 0 1-.8-1.35c.78-.98 2.36-2.97 3.77-4.14q11.82-9.88 22.75-20.33a.47.47 0 0 0-.31-.81c-21.52-.94-41.35 9.8-56.53 24.55a.87.87 0 0 1-1.32-.13c-.53-.77-.72-1.95-.56-2.89q1.44-8.63 2.77-18.11.94-6.73 4.82-20.81c.92-3.32 2.06-5.63 3.85-10q12.19-29.74 39.9-45.17c2.84-1.58 7.29-3.43 10.04-4.16a2.15 2.14-17.9 0 1 2.54 1.29q1.22 3.11 1.18 6.99-.13 13.3-3.29 24.68-2.88 10.4-10.34 20.95-9.59 13.55-23.38 23.61a.45.45 0 0 0 .42.79m-22.29 13.37c1.66-1.14 2.97-2.95 4.72-4.45q14.45-12.4 16.61-14.16 9.63-7.89 15.74-15.1 15.9-18.73 17.52-46.18.2-3.28-.26-6.47a.57.56-16.1 0 0-.79-.43c-3 1.33-7.25 3.04-10.51 5.27q-11.75 8.04-18.18 15.27c-8.61 9.68-15.7 22.74-19.71 36.55q-4.34 14.96-5.75 29.34a.39.39 0 0 0 .61.36m-507.26-52.43a.39.39 0 0 0 .67.27c6.82-7.03 13.99-11.93 23.87-13.45a1.89 1.89 0 0 1 2.11 2.35q-.21.78-.96 1.86-7.03 10.21-10.33 20.4a2.77 2.77 0 0 1-2.13 1.87l-.17.03a1.07 1.07 0 0 1-1.23-1.3q2.59-10.66 8.95-19.83a.48.48 0 0 0-.36-.75q-.92-.07-2.06.46-12.54 5.79-20 17.12-.47.72-1.22.29-.9-.51-1.1-1.85-.4-2.55-.11-6.69.75-10.95 2.73-21.71a.54.54 0 0 0-.9-.5c-8.66 7.79-12.8 18.07-15.75 28.98q-.07.28-.47.82a1.11 1.11 0 0 1-1.85-.09q-1.84-3.05-3.41-5.64-6.41-10.59-16.41-16.99-1.48-.95-2.49-1.21a.56.56 0 0 0-.61.84q6.74 10.87 10.75 24.09a2.61 2.61 0 0 1-.76 2.7l-.19.17a1.08 1.08 0 0 1-1.73-.44q-4.87-13.63-7.91-19.01-4.15-7.35-6.23-11.35a1.96 1.96 0 0 1 1.82-2.86q.76.04 1.85.49 15.59 6.54 24.73 21.13a.77.76 36.7 0 0 1.39-.2c2.59-9.76 9.94-22.81 19.71-27.45a1.96 1.95 69.6 0 1 2.72 1.25q.25.93-.1 3.04c-1.37 8.12-2.94 15.68-2.82 23.16"/><path d="M209.95 1459.03q-.18-1.46.45-3.41c5.25-16.28 17.4-33.63 32.23-42.24q10.72-6.22 22.87-8.2 4.03-.65 11.8-.35 2.53.1 4.19.7a2.33 2.31 18 0 1 1.45 2.83c-7.19 24.71-27.15 44.72-53.44 47.37-4.47.45-9.08.2-13.16 1.83q-1.99.79-4.59 2.35a1.19 1.19 0 0 1-1.8-.88m7.38-6.69q11.5-.23 21.87-3.03c19.05-5.14 32.57-21.48 38.81-39.59a.5.5 0 0 0-.44-.66q-9.91-.7-19.04 1.99c-16.42 4.83-27.52 14.62-36.49 29.52-2.22 3.68-4.3 7.41-5.17 11.21a.46.46 0 0 0 .46.56"/></svg>