<svg xmlns="http://www.w3.org/2000/svg" viewBox="0 0 96 96">
  <g transform="translate(24 2) scale(0.8)">
    <g transform="rotate(45 48 48)">
      <path fill="currentColor" d="M41 8h14q6 0 6 6v54H35V14q0-6 6-6z"/>
      <path fill="currentColor" d="M35 68h26c0 5-3 8.5-6.5 11.5-3 2.5-5 5.5-6.5 9.5-1.5-4-3.5-7-6.5-9.5C38 76.5 35 73 35 68z"/>
      <rect x="35" y="63.5" width="26" height="4" fill="#000" opacity=".12"/>
      <rect x="32.5" y="26" width="31" height="22" rx="4" fill="#ecdcbf"/>
      <rect x="32.5" y="30.5" width="31" height="2.5" fill="#c9b891" opacity=".8"/>
      <rect x="32.5" y="41" width="31" height="2.5" fill="#c9b891" opacity=".8"/>
    </g>
  </g>
  <path fill="none" stroke="currentColor" stroke-width="7" stroke-linecap="round" d="M10 84c8-12 14-13 18-4s12 8 17-3"/>
</svg>
