<svg xmlns="http://www.w3.org/2000/svg" width="1024" height="1536" fill="#fff" viewBox="0 0 1024 1536"><path d="M699.95 93.32q5.47-13.2 9.29-18.08 22.58-28.83 59.74-29.34 7.93-.11 19.45 2.98 19.93 5.33 34.48 21.24 15.91 17.4 18.19 41.23a.63.63 0 0 0 .86.52c7.42-3.02 14.81-4.88 22.79-2.95q17.18 4.16 22.7 20.85 3.08 9.31.6 18.36a.62.61-81.2 0 0 .56.77c2.65.14 7.52-.25 10.86.29 13.51 2.21 25.07 13.47 27.19 27.31 4.32 28.23-20.28 46.15-45.18 51.14q-22.48 4.5-42.04-6.2a.58.57 29.7 0 0-.76.2q-9.05 14.6-22.68 21.64-24.64 12.72-52.27 6.99-16.72-3.47-29.92-14.35-2-1.65-3.96-.11c-6.08 4.77-11.55 8.01-18.92 10.25q-20.27 6.17-40.88-.6c-14.88-4.89-26.99-14.36-33.18-28.79a.88.87 65 0 0-1.19-.44c-6.78 3.42-12.22 6.1-19.45 7q-16.93 2.09-32.33-5.86c-15.16-7.82-26.01-22.9-25.94-40.13.05-10.73 5.52-22.46 13.25-29.99 12.77-12.43 31.08-17.77 48.32-11.73a.53.52 14.1 0 0 .69-.41c1.44-8.58 3.11-16.54 7.9-23.97q12.62-19.59 33.99-24.44 19.87-4.51 37.36 6.77a.33.33 0 0 0 .48-.15m-76 49.63c-3.65-1.39-6.29-3.14-10.63-3.83q-15.05-2.37-26.97 3.6c-15.77 7.9-24.51 22.5-22.22 40.45q1.01 7.88 5.59 14.87c10.22 15.61 29.29 22.21 47.31 19.68 7.72-1.08 14.21-4.62 20.95-8.96a1.2 1.2 0 0 1 1.81.7c5.37 19.91 24.1 31.73 44.03 33.84q8.81.92 16.52-.39c11.98-2.05 21.44-5.73 29.66-14.11a2.36 2.35 44 0 1 3.32-.05q14.94 14.37 36.2 17.07 6.06.77 14.99.45 6.84-.25 11.1-1.11c14.43-2.92 26.98-9.98 35.75-21.92 1.89-2.58 3.26-5.89 5.1-8.35a1.45 1.45 0 0 1 2.02-.3c10.33 7.6 21.21 9.2 33.75 8.72q22.3-.85 38.69-15.87 6.97-6.39 9.52-16.27 2.57-9.93-.12-17.89c-4.86-14.38-17.77-21.21-32.8-18.66q-2.43.42-5.76 1.38-.65.18-1.24-.07a.82.81 18.3 0 1-.48-.95c.61-2.42 2.27-5.31 2.82-8.17 3.13-16.22-4.35-30.61-21.65-33.01-7.89-1.1-14.91 1.25-21.61 5.48q-1.34.85-2.19.58-1.16-.36-1.18-1.85-.36-27.58-19.58-46.91c-14.41-14.5-35.43-21.4-55.36-19.4-24.36 2.45-44.79 16.56-54.72 38.94-1.54 3.47-2.56 7.99-3.6 10.7a.48.48 0 0 1-.7.23c-4.69-2.94-10.31-7.3-15.91-8.81q-18.9-5.13-35.28 3.61-18.79 10.02-24.49 31.68c-1.27 4.84-1.24 9.72-1.7 14.32a.69.69 0 0 1-.94.58m-284.78 1.29a.66.66 0 0 0 .7.74q12.69-.93 21.95 7.56c5.42 4.97 8.43 14.7 6.64 22.2-2.76 11.58-12.68 19.76-23.97 22.76q-14.14 3.77-27.88-1.48a2.35 2.33 38.2 0 0-2.16.25c-1.56 1.06-2.87 2.91-4.36 4.23q-5.47 4.84-13.81 7.8c-12.63 4.49-25.53 3.48-38.03-1.28-3.67-1.39-6.86-3.59-9.8-5.89a.91.91 0 0 0-1.23.1c-3.98 4.34-7.29 8.19-11.57 11.01q-6.63 4.37-15.15 6.93-25.58 7.68-48.9-4.73-8.81-4.68-14.35-12.69a.76.76 0 0 0-.98-.25q-20.81 10.8-43.82 3.23-9.83-3.24-16.31-10.92c-6.64-7.88-5.94-19.02.77-26.75 9.07-10.45 23.03-13.14 36.27-10.04a.52.52 0 0 0 .63-.5c.01-13.26 7.69-25.74 19.01-32.65q23.4-14.29 46.63.05a.41.41 0 0 0 .62-.27q4.24-21.83 21.28-34.69c13.47-10.16 30.64-13.79 46.62-7.28q20.06 8.17 24.48 30.24a1.08 1.07 74.8 0 0 1.41.81q2.55-.9 6.09-1.99 13.98-4.32 25.85 3.64 15.91 10.66 13.37 29.86m-200.91 19.87q-1.17.12-2.09-.29-10.7-4.78-22.2-1.81c-16.39 4.25-24.6 23.16-8.04 33.9 8.14 5.28 17.42 6.71 27.26 6.35 8.73-.32 16.22-2.35 23.13-7.02a2.08 2.08 0 0 1 2.98.73q3.24 5.91 8.11 9.63c18.52 14.16 43.19 14.8 63.15 3.66q9.49-5.29 15.21-14.54a1.31 1.31 0 0 1 1.96-.31c12.04 10.26 28.57 13.99 43.83 9.87 9.01-2.43 16.53-6.41 21.24-14.71a.97.97 0 0 1 1.29-.38q18.05 9.37 36.55.18c6.53-3.25 11.89-9.67 12.76-17.25q.94-8.15-3.89-14.07c-6.41-7.85-15.84-9.76-25.17-6.21a1.4 1.4 0 0 1-1.84-1.71q3.47-11.43-.45-20.64c-7.06-16.59-28.18-19.01-41.47-8.84a1.23 1.23 0 0 1-1.96-.76c-.73-4.02-.92-8.68-2.64-12.89-6.88-16.91-21.89-25.16-39.72-23.04q-10.15 1.21-18.9 6.94-19.84 12.99-23.02 38.48-.15 1.25-.52 2.06a1.34 1.34 0 0 1-2.1.45c-11.9-10.43-28.03-13.14-42.18-5.91-10.62 5.44-18.14 13.65-20.29 25.3-.65 3.55-.33 7.35-.24 11.97a.86.85 86.3 0 1-.75.86M1024 1073.5v3.08l-9.65 1.84a1 1 0 0 1-1.06-1.47q2.62-4.75 3.99-10.09c2.36-9.27-1.5-21.5-13.05-21.96q-8.57-.34-15.88 5.54a6.64 6.62 81.1 0 0-2.03 2.79c-2.76 7.29-4.41 12.11-7.64 18.39q-9.46 18.35-24.92 33.89-.08.09-12.07 12.17c-5.33 5.37-9.67 16.44-2.52 22.16 1.8 1.45 4.45 3.24 6.91 3.05q5.33-.41 9.61-4.14c2.08-1.82 3.45-4.42 5.08-6.14q1.3-1.36 2.96-.86c2.46.73 2.55 5.81 2.39 8.19-.9 14.13-11.89 25.6-25.25 29.41q-1.99.57-3.98.53a.31.31 0 0 0-.16.58q1.15.65 3.41 1.35 43.54 13.47 83.86 34.67v4q-29.8-14.92-60.23-25.93-5.26-1.9-15.11-5.7-3.97-1.53-22.64-7.09a13.49 12.99-33.7 0 0-2.89-.52q-12.24-.76-24.14-4.96c-4.45-1.57-9.79-4.99-13.55-5.71q-5.25-1.01-12.66-2.96c-9.54-2.52-16.2-3.39-25.04-5.55q-3.98-.98-12.4-2.52c-14.19-2.59-22.06-4.35-30.37-5.1a.77.77 0 0 0-.84.83q1.06 13.8.9 29.38c-.03 3.18.72 6.7.71 9.36q0 8.02-.93 45.19-.14 5.43-.86 12.59c-.91 9.13-2.12 17.82-5.04 24.89-3.15 7.62-11.9 14.14-19.46 17.26q-23.05 9.53-47.49 7.89c-13.12-.88-24.07-2.57-34.74-8.31q-4.93-2.65-8.93-7.95c-4.02-5.33-3.76-13.25-2.61-19.41q2.15-11.6 5.93-26.2 5.28-20.42 9.49-45.77c2.74-16.43 3.6-34.4 1.65-51.65q-.14-1.19-2.48-1.57-14.83-2.45-30.07-4.03a1.61 1.59 15.4 0 0-1.62.91q-.42.9-.75 2.7-3.14 16.98-8.09 35.44-1.83 6.79-12.63 60.95-2.36 11.86-4.98 19.45c-3.1 8.99-11.01 14.4-20.52 17.6-19.41 6.55-43.12 6.44-62.03.91-9.97-2.91-22.41-9.88-21.61-22.17.48-7.26 2.49-14.75 4.89-21.93q15.66-46.75 18.83-57.08c4.92-16.02 8.61-32.95 8.2-49.58a2.02 2.02 0 0 0-1.88-1.96l-58.38-4.09a.73.72 6.7 0 0-.76.59c-.4 2.22-.05 4.5-.02 7.01q.12 10.12.11 42.58c0 5.55-.89 10.99-.86 15.66q.17 27.29-3.26 59.31-2.12 19.73-5.76 35.68c-2.37 10.36-4.65 18.73-11.28 26.65-6.17 7.38-17.77 11.76-26.99 13.78q-31.34 6.87-61.94-3.22c-10.31-3.4-23.16-11.28-22.15-24.13q.01-.11.22-5.03a.49.48-8.4 0 0-.65-.48q-5.17 1.86-10.59 2.67-26.07 3.89-50.12-2.51-11.12-2.95-19.32-9.91c-10.23-8.67-7.8-20.14-4.15-31.66q5.04-15.93 8.66-25.76 5-13.58 11.46-39.28 8.8-35.02 10.64-72.12a1.05 1.05 0 0 0-1.13-1.1c-12.09.94-24.81 1.21-36.65 2q-51.15 3.42-102.9 10.86-.56.08-.84.26a.48.48 0 0 0 .06.84c12.18 5.61 20.96 19.42 15.86 32.73-4.1 10.68-14.28 19.06-26.07 18.82q-16.97-.35-28.44-13.1a.38.37 20 0 0-.65.3c2.6 17.56-6.78 36-24.7 40.74a2.4 2.39-2.2 0 0-1.74 1.87q-5.4 27.97-5.71 56.71a.36.36 0 0 0 .7.11q5.49-16.99 17.91-29.88 17.8-18.47 43.64-20.88 3.42-.32 6.8 0 4.52.42 4.1 5.06c-1.39 15.35-5.89 30.48-15.46 41.89q-14.11 16.81-35.33 23.19-9.62 2.89-20.73 5.18a.62.61-5.8 0 0-.5.6q0 8.6-.24 14.44-.1 2.31-.76 3.81a.91.91 0 0 1-1.73-.2q-4.27-23.25-3.25-48.17.36-8.76 1.36-21.09.89-10.97 4.32-29.81a1.24 1.23 7.3 0 0-1.13-1.45l-2.85-.2a1.94 1.93-82.2 0 0-2.03 1.55q-5.93 29.37-5.76 59.27c.06 11.7-.14 17.81.7 27.36q.56 6.33.15 12.79a.84.77-82.7 0 1-.93.78q-.45-.09-.7-.63-1.54-3.34-2.37-10.6-.91-8.01-1.79-17.78a1.04 1.03-86.6 0 0-.81-.92q-7.91-1.7-15.9-5.14c-15.6-6.72-28.68-15.48-37.21-30q-9.88-16.79-10.32-39.62c-.08-4.33.63-8.86 6.41-8.19 27.17 3.15 47.76 19.8 57.13 45.45.38 1.05.44 3.02 1.14 4.27a.37.36 33 0 0 .68-.14c1.14-13.37 2.25-26.6 5.61-39.08a.35.35 0 0 0-.24-.43q-15.76-4.37-20.36-18.84c-2.63-8.27-.62-17 3.07-25.05a.32.32 0 0 0-.41-.43c-1.17.47-2.84 1.56-3.57 1.8q-8.29 2.75-12.54 2.9-15.9.53-24.55-12.06a1.77 1.76 68.9 0 0-1.66-.74q-3.33.41-6.31 1.3-17.11 5.11-34.24 10.79v-3.81q19.24-7.45 39.53-12.63a.5.49-16 0 0 .35-.63q-3.04-9.63 1.7-18.65c4.73-9 16.38-15.28 26.25-16.04a.23.23 0 0 0 .11-.42q-3.45-2.38-7.95-6.41c-5.87-5.25-10.01-14.8-8.63-23.12q1.47-8.87 7.72-15.06c5.47-5.41 13.6-8.88 21.39-7.83 10.17 1.39 16.67 6.22 22.93 13.6a.29.29 0 0 0 .51-.19q-.09-2.08.18-7.39c.54-10.55 9.39-23.84 20.42-26.5q16.25-3.92 25.82 7.29c7.49 8.76 8.16 20.39 4.69 31.01a.41.41 0 0 0 .64.45c8.37-6.35 19.88-10.61 30.33-7.51q.97.28 7.63 3.71a5.61 5.4-8.2 0 1 1.28.92q8.1 7.67 8.66 16.93c.67 11.01-4.74 20.19-14.1 26.06a.27.27 0 0 0 .16.5q4.32-.28 9.48-1.02 23.79-3.38 39.29-4.94 37.26-3.73 72.48-5.5a1.55 1.54-81.9 0 0 1.39-1.05q3.53-10.2.39-20.58c-1.32-4.34-6.28-10.52-11.03-11.16q-10.67-1.46-18.61 3.95a.87.87 0 0 1-1.31-1q.05-.16 1.95-4.87c3.52-8.75-.67-18.71-9.86-21.49-6.98-2.12-16.24 1-22.13 5.11a.67.67 0 0 1-1.04-.69c.93-4.32 2.82-9.42 3.22-13.85q.68-7.51-3.5-15.21c-5.97-10.99-19.51-13.87-30.77-11.02-3.78.96-8.78 2.55-12.18 4.62q-6.85 4.18-12.75 9.18a.46.45 60.3 0 1-.72-.2q-.21-.61.08-1.35c3.29-8.4 5.41-17.35 1.01-25.48-4.83-8.9-13.49-8.42-22.23-4.96a.79.79 0 0 1-1.07-.86q.32-1.94 1.15-3.62c3.21-6.44 4.18-14.03 3.47-21.07-1.13-11.04-8.8-21.21-20.29-22.33-9.17-.9-14.19 2.09-21.7 6.91a.79.79 0 0 1-1.21-.61c-.86-13.22-7.19-26.86-20.39-31.71q-9.12-3.35-18.47-.47c-11.57 3.56-17.16 11.87-20.7 22.82-1.58 4.89-2.23 10.38-1.24 15.29q.47 2.31.65 4.98a1.27 1.27 0 0 1-2.03 1.09c-10.22-7.72-25.09-7.64-32.19 4.55-2.47 4.24-2.15 11.01-1.42 15.64a3.67 3.24-65.8 0 0 .27.87l3.28 6.92a.92.92 0 0 1-1.12 1.26q-11.34-3.84-21.25 2.54c-4.12 2.65-7.77 8.35-8.98 12.7-1.3 4.72-.67 11.85.59 16.97a.57.56-88 0 1-.72.68L0 1012.39v-3.84q2.34.15 4.42 1.08a.39.39 0 0 0 .55-.38c-.5-9.43 1.43-18.33 8.13-24.72q8.6-8.21 21.41-6.82a.35.35 0 0 0 .36-.48c-6.9-16.51 3.28-33.21 21.63-33.13 3.99.02 8.33 1.48 11.91 2.91a.25.24 8.2 0 0 .34-.25q-1.99-17.96 8.68-30.9c12.08-14.67 34.16-16.5 47.91-2.66q7.69 7.73 10.32 19.14.42 1.81.79 2.86a.59.59 0 0 0 .84.32c2.71-1.48 5.79-3.07 8.68-3.79 14.81-3.68 28.57 4.29 32.95 18.78q3.97 13.14-1.11 25.55a.65.64 7.5 0 0 .68.88q12.28-1.66 18.59 6.94c4.35 5.91 4.63 13.5 3.56 20.66a.4.39 77.2 0 0 .61.39c15.2-10.52 35.34-13.33 49.19.64 4.52 4.56 6.49 10.68 7.32 17.15q.7 5.41-1.75 11.56a.43.43 0 0 0 .59.55q5.11-2.56 11.37-2.76c9.6-.31 18.88 5.96 20.24 15.72q.56 4.03-.27 8.53a.48.48 0 0 0 .6.55c23.32-6.42 34.67 15.94 27.24 35.29a.57.57 0 0 0 .52.77l5.08.08a1.38 1.38 0 0 0 1.32-.9q.16-.43.21-2.36.73-28.96-1.6-51.03-2.88-27.38-4.88-43.71c-.61-4.93-1.23-7.67-3.44-12.51-11.3-24.73-15.21-51.91-13.63-78.94q1.32-22.58 8.95-49.74.96-3.42 6.51-19.53 3.18-9.24 11.9-29.89c5.98-14.16 11.17-26.89 14.85-37.34q2.19-6.23 6.05-19.42a.5.49-77.8 0 0-.4-.63q-2.08-.31-2.94-.32-12.13-.11-32.03.34-5.36.12-31.25 3.51-6.81.9-17.77.35-21.57-1.07-40.14-13.05a4.63 4.58 66.8 0 0-1.53-.62q-19.8-4.03-35.35-15.73-13.23-9.95-21.15-25.23-14.46-27.93-6.42-59.17c3.96-15.4 13.08-28.48 24.53-39.18q8.4-7.85 14.91-15.1 13.73-15.3 19.76-36.49 3.56-12.5 6.19-23.3a.57.57 0 0 0-.46-.7q-12.49-2.07-24.77-7.14c-28.51-11.77-47.15-39.55-47.05-70.43q.01-3.67.42-6.48a1.98 1.97 70.6 0 1 .49-1.03c2.09-2.35 3.9-1.71 5.82.49 7.12 8.15 13.73 13.97 24.37 15.14 10.77 1.18 19.64-1.69 28.82-6.77a.56.55-31 0 0 .2-.79q-.24-.35-.87-.55c-17.63-5.52-31.68-18.47-37.68-36.09-6.09-17.89-3.15-38.33 9.12-53.24 1.79-2.16 10.62-10.76 13.58-7.81q1.73 1.73 1.35 3.91-1.16 6.55-1.28 8c-1.41 17.45 11.55 31.09 29.48 26.95q5.06-1.17 11.04-4.4c7.52-4.07 18.85-12.27 29.72-17.12a.53.53 0 0 0 .22-.78c-5.71-8.24-7.76-18.03-5.55-27.76a3.08 3.06 27 0 0-.98-3c-10.21-8.9-13.86-23.07-10.31-36.37a1.05 1.03 30.4 0 0-.27-1.01c-9.99-9.83-12.44-29.54-11.42-42.77.17-2.22 1.12-5.11 2.67-6.84 6.37-7.12 14.04-3.83 20.7.91q11.96 8.52 18.88 21.34a3.76 3.68 1.6 0 0 1.39 1.44c8.69 5.13 17.79 14.35 20.36 24.63a2.83 2.82-82.2 0 0 1.34 1.78q16.82 9.57 22.54 28.06a1.85 1.84-84.2 0 0 .88 1.08q15.37 8.41 22.59 24.46.98 2.18 1.87 4.15a.27.26-21.8 0 0 .33.14l17.86-5.96a.5.49 83.9 0 0 .34-.43q1.76-21.96 8.12-38.18 4.29-10.93 9.89-17.63c7.68-9.21 18.24-5.28 26.11 1.31q12.86 10.75 20.86 22.84 9.27 14.02 14.46 29.83a1.16 1.16 0 0 0 .85.76q23.77 4.98 42.99 19.59a.75.75 0 0 0 1.04-.14c11.27-14.87 23.42-27.77 38.81-37.99 7.46-4.96 21.73-12.58 29.85-6.36q2.9 2.23 5.5 7.05 6.44 11.97 10.15 25.93c5.57 21 6.33 42.93.68 64.26a1.91 1.9-70.2 0 0 1.04 2.22q19.4 9.08 35 24.38 8.47 8.32 16.97 22.22 7.13 11.66 11.06 25.64 7.72 27.47 2.14 56.07-1.7 8.75-5.49 25.2c-3.1 13.47-4.36 31.37 9.2 40.09 6.23 4 14.02 3.82 20.62.47 10.41-5.27 16.17-16.96 15.73-28.28-.15-3.78-1.74-11.48 3.96-10.38 3.98.77 9 6.73 11.34 10.23q12.59 18.82 8.24 40.8-3.09 15.55-13.56 26.65a.77.77 0 0 0 .13 1.17c9.74 6.55 19.8 16.58 25.56 27.09 8.74 15.96 12.75 36.02 9.82 54-4.04 24.72-16.76 46.21-35.66 62.47a.25.25 0 0 0 .13.44q3.71.6 7.18 1.74 16.61 5.45 30.54 14.11a.43.43 0 0 0 .64-.25q4.47-15.58 5.59-18.38c14.73-36.65 48.33-63.49 87.39-69.07 65.87-9.41 125.12 38.68 126.27 106.07.16 9.43-2.05 20.34-4.89 30.59-3.05 10.97-5.94 17.1-11.3 30.65q-1.49 3.76-.9 11.03.52 6.44 5.2 10.76 5.25 4.85 12 4.61c8.65-.31 14.76-5.15 18.86-12.52 2.28-4.09 2.62-8.79 3.29-13.97a2.58 2.14-88.1 0 1 1.94-2.18q2.6-.31 4.54 2.15c9.51 12.03 11.29 30.96 5.56 45.06q-8 19.69-27.93 27.06a.4.39 51.1 0 0-.07.7c21.8 14.18 32.36 40.11 30.19 65.81q-.45 5.37-1.61 11.49a.46.46 0 0 0 .71.46q7.88-5.5 16.78-4.74c11.01.94 17.26 11.36 16.57 21.76q-.29 4.55-2.31 9.64a.32.32 0 0 0 .4.42q2.36-.77 4.05.72M247.04 249.58q-3 2.06-2.86 6.21.35 10.82 2.41 19.68c.85 3.62 5.28 17.94 10.71 16.33q8.69-2.59 13.97-9.88c2.92-4.04 4.01-8.44 1.64-12.64q-3.63-6.45-11.87-13.62c-2.71-2.35-10.27-8.66-14-6.08m32.93 27.38a.61.6 17 0 0-.68.36q-6.67 16.37-22.51 19.98a.98.97 89.1 0 0-.74.77q-2.23 11.78 1.8 21.59c1.61 3.92 6.33 10.47 11.66 9.56q9.17-1.56 15.96-8.03c5.37-5.1 10.12-11.67 10.71-18.76q.4-4.69-.93-7.65-4.47-9.96-13.57-16.94-.93-.71-1.7-.88m97.56 69.71 11.11-1.85a1.37 1.35-2.5 0 0 1.13-1.22c.56-6.08 4.95-36.06 17.48-19.84q6.42 8.32 9.63 18.41a.99.99 0 0 0 .9.69q9.78.38 22.32 2.11.31.04.63-.06t.61-.23a.42.42 0 0 0 .22-.53q-8.75-23.45-25.96-40.7-6.72-6.72-13.99-9.78c-4.12-1.73-8.21.83-10.36 4.29q-7.14 11.49-10.34 24.41c-2.21 8.94-4.49 16.15-3.94 23.86a.49.48-6.6 0 0 .56.44m-74.43-42.8a.54.54 0 0 0-.82.21c-1.71 3.82-3.11 7.64-5.29 11.12-6.42 10.23-16.21 17.93-28.36 20.09a.71.7 1.2 0 0-.57.54q-3.15 13.56 4.25 25.12c3.77 5.9 7.44 7.72 14.01 6.14 12.07-2.92 22.11-11.09 28.43-21.6q3.44-5.73 4.46-9.88c3.22-13.08-6.65-24.63-16.11-31.74m108.83 38.3q-3.52-10.07-10.92-17.98a.79.79 0 0 0-1.28.18q-4.03 7.99-5.28 18.64a.79.79 0 0 0 .83.88l16.2-1.04a.52.51-11.7 0 0 .45-.68M235.48 737.72c6.31 2.56 11.85 4.69 18.87 5.7q13.35 1.93 24.58.69 16.49-1.83 27.83-3.08c15.45-1.71 36.7-.97 49.25-1.04q13.96-.08 31.75-1.97 8.18-.87 21.89-4.07 22.24-5.18 41.38-15.44 18.75-10.06 34.65-27.33 1.22-1.32 2.49-2.07a.41.41 0 0 1 .58.53q-.56 1.18-1.46 2.43c-9.3 13-21.55 23.72-35.77 31.68q-11.29 6.32-20.65 9.84c-24.11 9.05-50.15 12.5-75.72 12.6a.99.99 0 0 0-.97.78c-2.89 13.45-7.57 26.18-13.31 40.46-6.52 16.23-13.78 32.03-19.15 47.14q-5.86 16.5-7.52 22.59c-1.38 5.06-4.34 16.18-5.47 22.99-5.07 30.74-4.28 65.23 7.69 93.38q9.63 22.64 25.65 39.47 25.72 27.03 61.48 40.24a.88.88 0 0 0 1.17-.97l-6.25-37.53a.49.49 0 0 1 .77-.47q1.37 1.02 1.98 2.72 12.08 33.22 12.75 69.27.21 11.49.05 15.74c-.26 7.13-.69 12.27-1.17 20.75q-1.08 19.09-3.88 40.99-2.73 21.43-12.46 65.01c-.76 3.42-1.43 4.99 1.04 7.46q2.97 2.97 6.44 4.83c15 8.03 32.08 9.47 49.72 9.09 14.47-.32 30.62-3.65 42.57-11.51a2.68 2.63 88.1 0 0 .83-.9q.96-1.76 1.18-3.72c1.4-12.19 1.98-24.01 2.97-41.98q.86-15.44.79-32.05-.03-9.02-.05-56.61c0-11.9 1.02-24.96 2.06-36.35q2.1-22.99 8.18-42.57a.84.84 0 0 1 1.63.09q.41 2.09.15 4.72-.63 6.57-2.57 24-.68 6.15-.53 12a.7.69-88.1 0 0 .62.67q14.9 1.56 25.21 1.03 16.48-.85 22.52-1.65 15.05-1.99 29.24-5.94c19.69-5.49 38.71-12.55 56.71-22.96a1.49 1.48 65.5 0 0 .66-1.77c-6.52-18.71-6.48-37.91 1.35-56.55q.11-.28.47-.55.45-.33.49-.35a.6.6 0 0 1 .82.74q-.65 1.77-.88 3.4-2.02 14.62-1.17 27.67c1.49 23.08 12.95 44.28 27.64 61.66q9.92 11.75 14.26 16.75 10.95 12.65 16.51 28.19 3.58 10 4.42 23.34c1.64 26.41-2.81 51.07-8.33 78.05-.52 2.53-1.31 5.21 1.08 7.01q7.14 5.39 17.34 7.97 25.79 6.54 53.24-.19 11.02-2.7 23.04-9.58 2.81-1.61 2.82-5.4.05-19.98-.01-44.6-.02-6.31-.57-10.87-.16-1.34-.35-10.91-.14-7.08-.87-16.31-2.05-25.79-2.86-33.37c-.87-8.19-3.16-18.28-7.79-24.92q-.78-1.12-6.3-8.18-7.85-10.03-9.61-20.93-1.55-9.57-1.27-15.19c.5-9.96 1.88-20.66 3.95-31.08q2.48-12.51 5.7-29.68 5.54-29.44 3.08-58.4c-.85-10.01-3.51-20.85-6.36-29.58-13-39.78-43.72-68.35-84.91-77.62q-3.09-.7-4.8.45c-5.1 3.44-9.88 6.2-13.95 10.03q-11.61 10.89-19.98 20.2c-7.09 7.89-12.35 17.55-13.02 28.12-.91 14.42 7.5 28.74 23.45 28.45 11.73-.22 17.39-7.36 22.63-17.17a1.61 1.59 28.5 0 1 2.19-.64c2.47 1.39 3.34 5.64 3.64 8.69q.85 8.66-2.03 17.93c-8.16 26.32-31.93 42.73-58.68 47.07q-17.04 2.76-36.51.2c-19.97-2.61-39.84-10.19-53.45-23.72q-24.61-24.47-18.8-60.48 1.02-6.28 1.76-8.66a.43.43 0 0 0-.43-.56c-23.53 1.12-51.29-13.22-52.01-39.73q-.14-5.36 1.06-7.37 2.12-3.56 4.73-.83c4.66 4.88 8.79 8.07 15.19 8.04 7.18-.03 14.05-5.45 17.96-11.19q1.74-2.54 3.53-7.61 2.23-6.3 2.55-8.03c1.99-10.83.81-18.42-1.14-32.79-.72-5.31-1.8-13.73-1.61-20.75q.72-25.88 10.03-49.34a8.13 8.1 51.3 0 0 .46-4.25q-1.44-8.99-1.98-17.45-.97-15.21 3.15-33.56 1.04-4.61 3.17-12.25 2.07-7.41 3.69-12.09 5.03-14.58 10.11-30.4 5.28-16.44 6.27-35.44 1.75-33.69-14.74-62.41a.61.61 0 0 0-.67-.28l-9.08 2.38a1.04 1.04 0 0 1-1.06-1.67c1.81-2.13 6.14-4.57 11.6-8.24q11.51-7.74 21.16-19.23c13.04-15.53 19.84-33.95 20.8-54.06q1.48-31.3-11.04-59.71c-2.53-5.73-5.73-12.73-13.12-10.45-4.83 1.49-10.14 3.91-14.27 6.63q-30.71 20.22-47.27 52.83-8.1 15.97-10.09 34.78c-.49 4.64-.12 9.4-.24 14.65q-.04 1.88-.76 2.31a.86.85 62.9 0 1-1.22-.4l-3.9-8.73a.31.3 60.9 0 0-.44-.13q-7.74 4.95-14.68 11.48c-11.96 11.27-21.5 25.75-33.17 37.36-7.81 7.78-16 15.17-25.1 21.07q-21.89 14.22-47.36 20.13c-5.54 1.29-12.75 2.25-17.52 2.86-7.2.91-15.88 3.76-22.34 5.01q-20.19 3.89-40.29-.94-8.3-2-15.87-4.26a5.77 5.75 50.4 0 0-2.2-.21l-22.94 2.35a2.3 2.29 3.1 0 0-2.01 1.8q-2.89 13.71-7.46 27.8-5.25 16.21-15.69 29.68c-6.37 8.21-16.72 17.57-22.87 23.73-16.85 16.85-24.83 40.47-20.87 64.04 3.12 18.62 12.44 35.31 27.57 46.65q13.35 10.01 29.45 13.3c12.13 2.49 26.1.82 37.66-5.05q21.66-10.99 30.81-34.18a1.13 1.12-72.8 0 0-.79-1.51q-2.47-.58-3.73-.99a2.14 1.86 22.5 0 1-1.38-2.76c.69-1.25 2.21-1.84 3.74-1.89q8.02-.28 12.56 6.89 1.14 1.8.65 3.54a1.71 1.4 25.3 0 1-2.42.6q-1.6-1.01-2.83-2.38a.62.61 34.1 0 0-1.04.2q-7.93 22.73-28.54 35.4-13.35 8.21-29.43 9.22a.26.25 54.4 0 0-.08.49m90.83-404.81a.68.68 0 0 0-1 .45q-2.07 9.65-7.8 17.43c-8.78 11.91-20.75 20.41-35.66 22.37a1.37 1.37 0 0 0-1.17 1.11q-2.8 15.4 7.02 27.27 4.19 5.07 11.68 4.62 11.26-.67 19.73-5.82c13.04-7.93 22.66-19.53 26.26-33.7q1-3.92.62-5.62c-2.55-11.63-9.27-22.19-19.68-28.11m29.78 27.84c4.85 4.63 9.32 8.32 12.74 14.7q3.08 5.76 4.4 10.43a.73.72 66.4 0 0 1.08.43q9.67-6.01 20.57-10.47c27.28-11.17 60.15-10.12 86.62 1.65q1.95.87 3.52 2.13a1.13 1.12-57.6 0 0 1.72-.39l2.86-5.92a1.58 1.57-58.6 0 0-.47-1.95q-10.29-7.68-21.68-12.27-10.78-4.33-18.5-5.95-23.15-4.85-46.08-3.31-9.76.65-23.56 3.04-11.23 1.94-22.89 6.29a.96.96 0 0 0-.33 1.59m-166.42-3.7q-2.14 1.82-3.71 4.02-9.36 13.16-9.2 28.71.13 12.74 5.63 23.37 10.56 20.4 33.93 26.59c5.71 1.51 9.1-2.57 12.45-5.97q9.25-9.39 17.89-17.86 12.84-12.57 28.75-20.06a1 1 0 0 0 .52-1.22q-2.73-7.98-2.11-16.89.34-4.79.35-5.31a1.44 1.44 0 0 0-.36-.98q-1.7-1.92-4.67-.81-5.78 2.17-10.07 4.95-10.26 6.65-17.01 10.68-6.16 3.67-10.39 5.11c-14.03 4.76-29.44 1.67-37.23-11.78q-3.74-6.47-4.34-11.65-.49-4.3-.09-10.73a.21.21 0 0 0-.34-.17m103.47 54.74c-.83 8.35 1.68 17.3 10.42 20.39 7.88 2.79 17.97 1.43 24.92-1.23a7.51 7.42-81.6 0 0 3.27-2.46c10.35-13.65 20.9-25.9 34.48-36.24a2.76 2.75 64.6 0 0 1.01-2.85q-.78-3.16-1.93-6.8c-2.04-6.44-7.75-12.42-13.01-16.49a.9.9 0 0 0-1.42.47q-5.01 18.03-18.81 30.53-5.5 4.99-14.62 9.64c-7.57 3.87-15.22 4.82-23.57 4.41a.7.7 0 0 0-.74.63m-47.42 94.24a.36.36 0 0 0-.13.63q8.1 6.33 18.52 9.71 30.01 9.72 60.18.39c22.02-6.82 39.86-25.85 50.87-45.37q8.02-14.22 13.15-24.37c11.96-23.65 29.62-46.21 56.41-53.73q16.88-4.73 34.48-.6a.64.63 19.5 0 0 .72-.34l4.29-8.86a.84.83 26.1 0 0-.39-1.11c-29.67-14.47-65.76-13.78-95.27.7q-17.43 8.56-32.16 23.06-13.56 13.36-22.25 26.49-10.47 15.84-16.23 24.79c-13.89 21.57-33.11 38.64-58.18 45.93-5 1.45-10 1.67-14.01 2.68m95.4 8.38q51.45-8.13 85.46-47.32 6.38-7.35 14.73-17.23c9.12-10.8 19.32-21.48 32.09-28.08a1.15 1.15 0 0 0 .62-.95q.64-10.67 4.49-23.31a1.07 1.07 0 0 0-.74-1.34q-3.72-1-7.8-1.24-29.68-1.74-51.08 17.45-12.41 11.12-20.99 26.26-7.27 12.82-12.76 23.72c-10.25 20.36-24.64 39.79-44.2 51.55a.27.27 0 0 0 .18.49m-180.81-65.29q11.12 20.11 32.7 28.6 7.56 2.97 13.98 3.91 27.29 3.96 51.15-8.97c16.36-8.88 29.39-21.94 42.38-34.75a.38.38 0 0 0-.11-.62q-14.14-6.28-14.2-21.67c-.01-1.75.66-3.75.71-5.27a1.14 1.13 20.3 0 0-.42-.9q-4.72-3.81-7.87-9.04a1.76 1.75 60.8 0 0-2.32-.66q-16.02 8.4-26.93 19.37-16.81 16.91-21.67 21.58-9.11 8.75-21.37 14.62-14.28 6.82-29.18 2.85-9.57-2.56-16.31-9.46a.34.34 0 0 0-.54.41m531.42 137.19c-.42 10.51-3.2 20.24-10.39 28.02-11.02 11.91-29.16 13.79-40.94 1.94-10.3-10.37-10.41-25.87-7.54-39.2q2.84-13.2 5.09-22.81 3.22-13.76 3.09-30.24-.21-26.07-12.28-48.78c-10.9-20.51-29.79-38.02-50.9-47.84a1.23 1.22 25.2 0 0-1.62.58l-6.9 14.26a.69.68-60.5 0 0 .24.88c23.49 15.81 37.84 42.62 42.01 70.03q3.49 22.97.35 48.11-2.84 22.82-3.69 39.24c-1 19.4 4.03 40.81 18.52 54.22q7.24 6.71 14.29 8.75c12.27 3.57 25.34 2.71 36.79-3.19q18.51-9.54 24.34-30.57 1.09-3.96 1.32-11.19.59-18.56-11.27-32.39a.29.29 0 0 0-.51.18m-532.2-132.46a.43.43 0 0 0-.78.29q2.68 19.26 14.61 34.24c12.2 15.31 31.14 24.87 50.58 27.22q6.37.77 20.34.3.24-.01 1.45.05.78.04 1.38-.26a.79.79 0 0 0 .06-1.37q-5.98-3.72-9.71-8.5a1.85 1.84 51.8 0 1 .3-2.56q1.7-1.39 3.86-1.64c5.15-.61 10.33-.77 15.88-2.15 16.79-4.17 32.54-14.58 43.96-27.5 9.51-10.76 15.06-20.13 24.37-34.34a.37.37 0 0 0-.42-.55q-7.95 2.39-16.68 1.9c-3.9-.21-7.19 3.03-9.58 5.42-11.35 11.41-20.74 20.42-33.02 28.21-33.85 21.47-79.45 18.85-104.53-14.92-.98-1.32-1.54-3.06-2.07-3.84m525.25 434.42a.53.53 0 0 0-.93-.19c-12.15 15.51-35.35 13.61-45.69-2.52-8.88-13.85-6.73-30.9 2.28-44.22 7.72-11.4 18.75-20.88 27.47-30.16 16.41-17.45 27.94-42.03 29.06-66.19 1.33-28.89-13.78-50.19-38.08-63.89-11.72-6.61-18.9-10.05-28.5-17.25q-19.64-14.71-24.42-39.09c-2.79-14.19-2.29-26.45-.59-41.47q2.79-24.57 3.55-38.28.69-12.42-1.42-30.94-.67-5.9-2.71-12.86c-6.13-20.86-17.72-42.75-36.87-54.31a1.48 1.47-57 0 0-1.97.42q-9.93 14.2-24.6 24.8a.75.75 0 0 0 .01 1.22q15.92 11.26 23.78 29.22 6.45 14.76 7.69 29.67.83 9.97.06 24.75c-.64 12.26-3.04 24.38-4.83 38.02-1.9 14.55-2.87 28.19-1.36 42.25q1.87 17.44 10.2 32.48c9.71 17.52 27.2 30.12 42.87 41.99 14.29 10.84 27.4 25.66 31.8 42.67q6.28 24.25-2.88 49.53c-4.2 11.59-10.97 22.4-19.54 32.84-5.75 7-12.25 15.12-15.86 23.04q-7.14 15.61-2.07 31.22c2.64 8.16 8.97 16.08 15.89 19.87 11.56 6.33 21.97 8 34.56 4.3 12.01-3.53 21.75-11.88 23.16-24.61q.17-1.48-.06-2.31M540.84 478.22c-.02.12 3.63 6.79 4.5 8.89q10.24 24.78 9.61 51.22c-.38 15.88-5.11 32.29-9.73 47.67-3.18 10.59-7.98 22.73-10.19 30.51q-4 14.08-5.42 22.26-2.78 16.01-.91 31.97c2.09 17.84 9.94 33.26 21.81 46.86 5.91 6.77 16.22 14.98 23.02 22.6q18.29 20.54 15.69 48.27-.43 4.59-2.1 9.91-3.62 11.62-9.16 20.1-9.05 13.87-9.9 15.29-3.34 5.6-7.2 17.05c-11.68 34.68 1.82 71.88 35.95 86.72q11.31 4.92 24.92 4.69 21.72-.37 40.2-13.57 9.88-7.05 15.86-17.37a.13.13 0 0 0-.2-.17c-6.92 5.55-13.97 8.29-23.35 9.63-12.44 1.77-26.71-2.91-35.94-11.51q-8.34-7.78-11.45-17.79c-5.24-16.89.32-32.81 10.84-46.51q6.67-8.68 11.87-15.38c12.99-16.73 20.42-36.57 19.83-58.3q-.68-25.55-17.24-42.74-8.14-8.45-13.32-12.39c-14.92-11.35-23.91-17.72-33.49-28q-14.33-15.39-20.22-35.72c-4.67-16.14-4.06-35.11-2.08-52.39q.45-3.92 3.02-20.66c2.8-18.24 4.52-38.57.85-57.5q-4.74-24.41-22.44-41.57-1.44-1.39-3.06-2.37a.38.38 0 0 0-.57.3m105.7 191.13q5.74 3.61 11.62 6.76c10.05 5.37 19.84 12.35 27.07 21.29q5.28 6.51 6.16 8.05 13.03 22.79 8.92 48.87-1.58 9.98-3.92 16.59-4.05 11.46-10.44 22.88c-1.44 2.57-3.94 5.37-5.22 7.6a.37.37 0 0 0 .53.49q3.79-2.5 6.04-4.33c17.02-13.87 30.41-32.24 35.47-53.5q5.42-22.77-1.66-44.64c-5.41-16.69-16.54-32.04-32.16-40.05a1.5 1.5 0 0 0-1.54.1q-12.76 8.84-28.3 10.23c-4.72.42-7.5-.07-12.39-.81a.26.26 0 0 0-.18.47m-119.27 23.22q-2.47 6.24-3.81 12.4-3.6 16.62-3.56 30.97c.07 25.53 10.59 51.6-6.98 73.94-3.45 4.38-7.45 6.87-12.63 8.96a.37.37 0 0 0 .14.71q11.98.04 21.09-4.29c13.12-6.25 23.44-20.26 27.92-34.31 4.18-13.1 5.35-28.64 3.02-42.69q-.33-1.99-1.73-9.18c-.62-3.14-1.82-5.17-3.93-7.29q-12.61-12.64-19.25-29.22a.15.15 0 0 0-.28 0m-50.22 123.84q-.21 1.86.4 4.13c3.04 11.21 11.36 19.54 22 24.08q20.01 8.52 40.9.68c19.03-7.15 32.63-23.18 39.79-41.39 5.56-14.13 5.97-30.76-.05-44.76-5.22-12.13-14.22-20.24-24.31-29.09a.38.38 0 0 0-.63.37q4.32 17.95 2 35.29c-2.61 19.44-10.32 35.41-25.37 47.76-12.45 10.23-30.38 12.37-45.41 7.08-3.1-1.1-5.51-2.63-8.51-4.53a.53.53 0 0 0-.81.38m502.86 87.96q-.21.44-2.75 6.76c-2.73 6.79-7.04 10.71-13.72 14.37-13.6 7.46-30.11-1.67-33.52-15.39-2.21-8.9.89-17.98 4.68-26.96 6.38-15.12 11.41-31.53 11.61-47.05q.39-30.64-15.14-54.88-21.83-34.06-60.26-44.42c-21.75-5.86-42.68-4.68-64.18 2.84-11.2 3.92-20.21 9.58-29.21 16.47q-7.18 5.51-13.88 13.29c-11.49 13.32-20.06 29.43-23.39 46.76-.72 3.76.71 6.25 3.92 7.51a.66.65-67 0 0 .83-.34q7.06-15.42 15.43-25.51c18.04-21.77 45.52-36.82 74.59-37.11 13.06-.13 24.42 1.42 36.73 6.41q22.65 9.19 35.57 29.91c17.33 27.78 13.22 60.77 4.31 90.74q-3.06 10.29-3.83 13.42c-4.4 17.89-5.24 40.92 11.23 53.52 9.61 7.36 19.9 9.58 32.05 8.23q8.47-.94 16.16-6.61c16.72-12.33 20.83-33.05 13.29-51.95a.29.28-43.5 0 0-.52-.01m-42.92 241.12q-.35-.45-2.91-2.62c-3.38-2.86-5.08-7.8-4.93-11.84.42-11.47 10.62-20.78 18.67-28.38q11.72-11.09 22.17-28.52 7.26-12.12 10.83-27.34c6.95-29.62-1.06-57.37-26.75-75.34q-3.79-2.65-5.78-3.02c-4.14-.76-8.19-.53-12.33-1.55-13.92-3.41-24.32-10.45-30.93-23.22q-4.16-8.02-4.17-20.34-.02-13.08 2.54-22.22 5.94-21.28 8.32-30.82 3.89-15.58 3.15-33.95c-.95-23.58-12.11-46.05-32.06-58.89q-15.2-9.78-32.26-11.81-40.94-4.87-73.43 20.8-14.44 11.41-23.98 29.05c-2.31 4.29-4.21 7.72-4.92 11.14a1.76 1.73 28.8 0 0 .47 1.58l5.51 5.51a1.09 1.08 45.2 0 0 1.52.01q6.53-6.41 9.46-8.8c15.02-12.32 35.31-18.7 54.52-16.34q15.82 1.94 26.83 9.77 20.55 14.62 19.44 43.64-.27 7.09-.98 11.5-2.31 14.34-4.38 28.27c-4.48 30.24-.24 64.98 32.68 77.47q4.37 1.65 20.46 7.02c14.43 4.81 28.62 15.48 35.3 29.68q8.24 17.53 5.28 36.85c-1.7 11.04-4.61 18.82-9.43 28.57-3.89 7.85-11.07 17.97-15.34 24.99-4.42 7.27-8.09 16.19-6.92 24.57 1.11 7.96 6.27 13.4 13.89 15.29a.45.45 0 0 0 .46-.71m22.25-3c-18.61 17.55-47.84 2.72-39.75-23.61q2.52-8.18 5.61-12.88c11.23-17.05 20.65-31.26 24.44-50.49q2.64-13.39-.33-26.25-5.37-23.33-26.93-34.78c-8.36-4.45-17.61-7.14-28.76-10.74q-6.56-2.12-14.5-7.45c-12.59-8.46-20.46-23.44-22.83-38.29-2.98-18.7-.25-38.03 3.28-56.25 2.35-12.13 4.1-25.43.36-37.84q-6.01-19.94-25.63-27.34-6.33-2.39-10.92-3.06-18.93-2.76-37.6 3.91-2.59.92-4.24 1.84c-3.79 2.12-7.01 3.53-10.01 5.74q-6.95 5.11-12.92 12.17a.72.71-43.6 0 0-.03.89l6.32 8.35a1.55 1.54-35.1 0 0 2.09.36c15.19-9.95 36.1-7.77 47.42 6.66 2.84 3.63 5.82 10.26 6.82 14.55q1.7 7.37 2.77 18.57.26 2.77.1 17.13c-.15 13.27-2.09 28.28-2.83 39.82q-.81 12.71.73 25.99c.77 6.63 3.1 13.74 5.62 19.48 7.62 17.33 22.33 27.1 40.03 32.21q8.64 2.49 16.51 4.79 13.45 3.95 23.12 14.31c14.57 15.59 9.82 37.97-.48 53.95-7.96 12.34-13.46 23.07-12.23 38 1.05 12.72 9.16 24.99 21.2 29.86 13.43 5.43 28.38 2.94 38.09-7.92q4.26-4.78 6.46-11.05a.6.6 0 0 0-.98-.63M597.66 942.71a.23.22-26.3 0 0 .14-.41c-2.6-1.76-7.93-3.5-11.33-5.52q-19.65-11.63-28.06-32.12-5.83-14.24-6.03-26.2-.33-20.35 8.5-38.71a.46.45-76.1 0 0-.39-.65q-.46-.03-.85.3c-7.92 6.63-16.93 10.48-26.84 13.62q-2.07.66-2.81 2.74-1.75 4.92-2.36 10.08c-1.44 12-.99 24.44 3.95 35.29 9.74 21.36 31.14 35.55 53.96 39.45 4.23.73 8.33 1.9 12.12 2.13m266.61 166.3q2.74-7.52 6.26-18.2 3-9.09-1.58-16.74c-1.9-3.16-6.37-5.88-9.23-7.53q-4.58-2.64-15.43-7.32c-16.9-7.28-30.71-18.49-39.15-34.61q-8.97-17.16-10.35-37.1c-.89-12.86.29-26.56 3.42-40.34q3.44-15.21 3.57-15.67 2.32-8.08 6.49-21.39 2.28-7.27 3.29-11.59c2.12-9.12 3.99-15.99 3.57-24.63q-.75-15.75-13.35-23.6c-9.26-5.77-22.1-3.87-31.37 1.13a1.28 1.27-22.3 0 0-.62 1.48q.49 1.69 1.25 3.05 16.99 30.24 18.09 64.6.74 22.94-2.84 45.22-2.94 18.27-5.77 32.29-1.88 9.27-2.9 16.76c-1.74 12.7-2.86 24.07.75 36.13 2.86 9.56 11.42 17.29 14.76 22.94 6.28 10.64 7.4 22.68 8.34 34.89a.39.39 0 0 0 .68.22c5.62-6.8 14.14-9.22 22.03-5.14q2.32 1.2 5.83 3.29a.48.48 0 0 0 .71-.3q.81-3.38 2.67-6.9c3.96-7.45 13.8-9.67 20.44-4.49 5.39 4.2 7.03 8.16 9.74 13.59a.38.38 0 0 0 .7-.04m43.16 52.69q-7-4.55-11.56-12.12c-8.65-14.34-7.62-31.18.62-45.62 8.93-15.66 22.32-34.9 12.17-54.34-5.01-9.58-13.27-15.17-23.1-18.69q-9.67-3.46-20.35-6.13c-9.86-2.46-22.57-9.14-29.97-17.15q-6.95-7.52-9.9-13.49-5.62-11.4-7.19-21.58c-2.66-17.29-.67-34.01 1.1-53.33q1.27-13.89.98-28.66a.23.23 0 0 0-.45-.08q-.67 1.81-.68 1.86c-2.78 12.86-7.1 27.27-11.15 40.8-2.85 9.52-5.02 20.09-6.2 29.33-1.48 11.64-1.69 25.64 1.38 37.76q2.12 8.37 2.69 9.99c7.09 20.43 21.31 34.63 40.94 43.21 10.01 4.38 19.92 8.16 26.16 15.9 9.25 11.49 4.19 22.78-.35 35.43-6.22 17.31-.95 34.35 12.83 46.52q9.32 8.24 21.84 10.86a.26.26 0 0 0 .19-.47m-583.96-160.99q2.9 22.27 4.1 35.75 2.21 24.79 2.38 35.55.64 40.63-6.72 78.15-5.76 29.38-12.89 50.55-1.65 4.91 2.25 8.01c11.79 9.38 27.24 13.33 42.04 14.16 8.38.47 17.94.55 26.49-.53q3.43-.44 9.43-1.99a1.74 1.73 5.7 0 0 1.12-.91q.81-1.67 1.23-4.07c1.57-8.81 4.29-19.14 5.92-28.87q3-17.83 4.29-27.83 1.26-9.85 3.25-35.38.7-9.03.68-14.23c-.06-9.82.48-16.28.14-25.9-.31-8.94-.32-14.77-1.52-21.41a1.81 1.8-85.8 0 0-1.2-1.39q-33.63-11.39-59-35.27c-7.65-7.2-15.4-15.34-21.48-24.58a.28.28 0 0 0-.51.19m-184.79 84.31c6.13-8.87 11.57-18.54 13-29.31 1.54-11.58-3.54-25.03-16.47-26.62-10.36-1.26-18.59 4-23.35 12.83q-2.78 5.15-2.95 13.63c-.18 9.17.91 18.26 4.8 26.54a1.33 1.31 72.4 0 0 1.43.75c8.08-1.37 15.42-1.45 22.75 2.38a.62.61-58.9 0 0 .79-.2m420.3-12.94a.48.48 0 0 0-.26.75c8.02 11.01 15.26 21.84 17.11 35.27 2.33 16.99-1.71 36.39-6.89 54.09q-6.18 21.11-11.65 36.35c-2.04 5.67 3.82 8.94 8.05 11.13 16.12 8.35 35 9.33 53.47 8.19q12.52-.77 23.33-5.79a3.39 3.37 83 0 0 1.9-2.45q5.66-30.78 13.72-63.1.58-2.3 2.41-10.99c2.63-12.45 6.81-27.84.29-40.2q-4.53-8.57-5.58-11.37c-3.11-8.29-3.6-17.41-2.47-26.92q.52-4.46-.14-6.47-1.16-3.52-3.46-7.21a1.23 1.23 0 0 0-1.49-.49q-1.85.71-3.38 1.55c-18.27 10.03-38.46 17.39-58.38 22.39q-7.92 1.99-13.24 2.88-11.77 1.97-13.34 2.39m-448.22 11.38q-2.86-7.16-7.45-15.75c-3.15-5.92-9.36-12.49-16.08-15.14q-5.08-2-7.22-2.12c-12.59-.73-23.25 7.61-23.86 20.51-.62 13.33 12.14 23.84 24.05 27.05q.34.09 13.13 3.96a1.07 1.07 0 0 0 1.28-.58q5.02-10.94 15.75-16.82a.88.88 0 0 0 .4-1.11m30.84 4.48q9.06 7.56 9.53 18.61a.82.82 0 0 0 .84.79c9.87-.22 20.62-.41 30.54-5.01 8.79-4.08 14.41-11.12 16.12-20.56 1.63-9.05-5.2-17.78-13.44-20.7-6.59-2.34-14.66-.4-20.63 2.72-9.9 5.17-17.24 13.65-23.13 23.07a.83.82 36.3 0 0 .17 1.08m516.63-25.72q-.29 6.2 1.19 14.12c1.13 6.01 3.93 10.4 7.03 16.81q2.83 5.87 3.16 8.3 1.33 9.69.03 20.23a.84.83-82.7 0 0 .71.93l31.07 4a.15.15 0 0 0 .17-.18q-3.67-17.99-15.65-32.4-7.07-8.5-15.3-17.72c-3.93-4.39-7.59-9.68-11.3-14.45a.62.62 0 0 0-1.11.36m-148.59 41.67q1.4.08 6.85.34 24.58 1.2 51.82 3.9a.61.6 87.8 0 0 .65-.71q-1.98-10.55-7.73-19.38-4.27-6.57-10.15-14.21a1.71 1.68-13.2 0 0-1.02-.62q-1.68-.32-3.31-.15-9.7.99-16.7.92c-6.37-.06-13.1-.92-19.33-1.12a.54.54 0 0 0-.56.49q-1.54 15.3-1.1 29.94a.62.61-89.5 0 0 .58.6m-366.031-6.393a24.9 23.06-30.3 0 0-33.133-7.347 24.9 23.06-30.3 0 0-9.864 32.473 24.9 23.06-30.3 0 0 33.132 7.347 24.9 23.06-30.3 0 0 9.864-32.473M879.23 1154.3c-1.56-2.59-4.06-4.34-6-6.99q-8.83-12.11-9.69-26.8-.22-3.83-.22-5.6a.69.69 0 0 0-.57-.67q-1.95-.37-2.79-3.17c-2.03-6.77-6.22-14.05-14.13-14.39-10.13-.43-12 10.83-11.91 18.54a.72.71 27 0 1-1.3.42c-7.94-11.17-21.21-14.09-29.78-1.53a2.42 2.37-30.2 0 0-.41 1.49l1.53 23.9a.39.39 0 0 0 .33.36q36.91 5.63 74.53 14.99a.37.37 0 0 0 .41-.55m-786.58-48.94a.81.79-88.3 0 0-.68-.74q-10.07-1.56-15.45-1.8c-10.76-.47-21.49 2.33-28.35 10.35-4.59 5.38-5.51 13.96-2.95 20.34 3.21 7.98 12.05 12.53 20.29 12.23 13.43-.48 22.41-7.62 32.17-16.28a1.33 1.33 0 0 0 .2-1.76q-5.21-7.26-5-16.45.06-2.35-.23-5.89m58.65 5.33c-.87 10.79-5.9 16.45-13.92 22.83a.83.83 0 0 0-.21 1.06q5.23 9.28 13.95 15.84c11.66 8.79 26.94 10.61 37.16-1.23 4.49-5.2 6.41-13.14 4.36-19.37-5.54-16.86-24.75-19.79-40.59-19.82a.75.74 2 0 0-.75.69m-17.48 25.79a.85.84 67.4 0 0-1.02-.43c-4.55 1.48-8.22 3.09-12.53 2.82q-10.17-.64-17.9-6.68a2.02 2.02 0 0 0-2.73.21q-3.75 4.02-6.4 7.31c-8.42 10.44-13.42 27.01-4.15 38.2 10.38 12.53 31.79 10.89 41.32-1.67q6.04-7.97 6.58-16.51c.59-9.25.37-16.07-3.17-23.25m-39.76 117.18q.11-1.94-.79-10.11c-1.13-10.22-5.65-21.59-10.71-29.54q-13.63-21.4-38.96-27.81-3.94-1-7.89-1.24a.58.57-86 0 0-.61.54c-1.57 22.91 7.7 46.46 27.23 59.44q13.54 9 29.18 12.98a.35.35 0 0 0 .39-.5q-13.51-25.07-33.98-46.12a.5.5 0 0 1 .47-.84q.33.07.45.18 10.01 8.78 20.23 20.69c5.58 6.49 10.7 15.21 14.44 22.44a.29.29 0 0 0 .55-.11m19.59 14.35c20.71-3.23 39.97-11.35 52.24-28.56 7.3-10.24 11.58-23.31 12.25-35.56a.84.83 4.3 0 0-.76-.87q-4.19-.38-10.23.66-26.52 4.57-42.18 27.13-10.11 14.56-13.49 32.33a.41.41 0 0 0 .74.32q3.93-5.48 9.12-11.68c7.85-9.39 18.76-17.99 28.04-24.15q.75-.5 1.77-.76a.28.28 0 0 1 .27.47q-6.77 6.22-12.33 11.25-14.62 13.23-25.62 29.12a.19.19 0 0 0 .18.3m528.14-50.94q-10.58 4.27-18.77 5.2-16.93 1.91-31.78-.02c-13.67-1.79-25.82-5.75-36.02-14.2a.74.74 0 0 0-1.16.29q-4.89 12.08-8.42 26.02-.97 3.81-.92 8.91c.06 7.26 5.56 11.26 11.62 13.64q9.61 3.79 19.91 4.75c13.42 1.26 28.07.9 41.33-3.05 9.92-2.95 16.17-6.58 19.39-16.95q4.04-13.02 5.34-24.19a.38.38 0 0 0-.52-.4m-251.94 8.46q-31.71 7.26-62.14-2.98-9.75-3.28-19.84-11.9a.38.38 0 0 0-.6.15q-5.39 14.65-10.52 31.21-1.23 3.97-1.49 8.47c-1.03 18.17 31.96 23.15 45 23.58 12.45.41 25.87-.03 36.66-4.24q1.71-.67 2.25-2.92 3.03-12.61 6.8-24.66 2.65-8.45 4.35-16.25a.39.39 0 0 0-.47-.46m407.64.77q-9.75 5.84-17.52 8.35-29.41 9.51-59.22 2.57-11.51-2.68-20.41-9.09a.96.95-65 0 0-1.48.54q-2.35 9.06-5.44 21.64c-1.4 5.68-2.33 12.05-1.61 16.98.99 6.8 7.39 10.67 13.66 12.98 13.87 5.12 27.62 5.54 41.91 4.83q18.78-.93 35.05-9.86 10.02-5.5 12.35-16.4 3.7-17.29 3.38-32.17a.44.44 0 0 0-.67-.37m-300.91 18.09a.35.34 78.4 0 0-.51-.34q-7.31 4.23-15.48 6.58-24.8 7.12-50.57 3.54c-13.1-1.83-25.5-5.79-35.68-14.08a.78.78 0 0 0-1.24.4c-3.35 12.4-7.29 24.57-9.79 37.08-2.11 10.54 4.5 17.34 13.48 20.92 18.44 7.33 38.28 8.74 57.9 5.69q10.9-1.69 20.35-6.64 9.74-5.11 13.32-15.23 6.18-17.48 8.22-37.92m328.64-881.31c.26-.75.02-2.06.23-2.87q4.13-15.72 15.24-24.54 17.5-13.88 39.88-10.8 9.65 1.33 17.9 6.42 19.83 12.23 21.12 35.87a.82.82 0 0 0 1.04.75q4.75-1.33 9.56-1.68 3.17-.23 8.85 1.68 18.63 6.29 21.02 25.86c2.55 20.95-16.8 35.57-35.69 38.08q-16.6 2.2-31.33-4.76a1.83 1.81-56.1 0 0-2.12.43c-6.58 7.27-14.6 11.92-24.58 13.88-14.67 2.87-30.08 0-42.1-9.27-2.48-1.91-3.96-4.48-6.08-6.46a.85.84-39.3 0 0-1.02-.1q-13.61 8.55-30.21 5.99c-12.04-1.86-25.48-10.18-26.96-23.61q-1.4-12.68 9.3-20.91 5.13-3.95 11.12-4.08a1.42 1.42 0 0 0 1.32-1.02c.59-2.09.98-4.99 1.85-6.9q3.28-7.21 10.44-11.38 14.97-8.71 30.46-.29a.53.53 0 0 0 .76-.29m3.69 8.3a.6.6 0 0 1-.93.48c-4.64-3.07-7.61-5.59-12.03-6.62q-11.46-2.67-20.71 3.37c-7.03 4.57-8.39 10.37-9.03 18.37a.97.96 1 0 1-.92.88c-2.87.11-6.24-.18-8.79.81q-6.67 2.59-9.99 9.07c-2.52 4.92-2.12 12.37.87 16.82 6.6 9.83 19.28 13.36 30.75 12.34q11.05-.97 19.45-7.68a1.15 1.15 0 0 1 1.58.14c2.18 2.48 4.11 5.6 6.62 7.73q9.69 8.25 22.12 9.78c11.34 1.4 22.99-.06 32.58-6.51 3.88-2.6 6.42-5.99 9.13-9.54a1.76 1.75 35.9 0 1 2.39-.38q7.17 4.91 14.59 6.06 18.7 2.89 33.05-5.11c11.42-6.38 17.49-17.61 14.84-30.65q-1.57-7.75-7.56-12.9c-8.97-7.73-20.44-7.88-30.94-3.21a.89.89 0 0 1-1.25-.89c1.36-17.06-6.02-31.88-21.22-39.65-8.73-4.47-19.6-5.5-28.76-3.99q-17.87 2.95-28.6 17.69c-5.03 6.92-7.03 15.34-7.24 23.59"/><path d="M510.23 454.71c-1.92.69-3.37-.81-4.14-2.08-8-13.17-7.38-30-2.94-44.25 6.35-20.38 21.21-40.75 41.18-50.04 3.85-1.8 5.65 7.58 6.09 9.96q3.58 18.97-1.79 37.78c-4.65 16.29-12.75 29.54-25.33 40.73-2.94 2.62-8.51 6.27-13.07 7.9m34.48-89.11a.94.93 72.8 0 0-1.26-.67c-10.72 4.37-20.38 15.68-26.65 25.59q-8.91 14.09-11.11 32.23c-.99 8.13-.33 18.93 3.93 26a.93.93 0 0 0 1.16.37q4.06-1.8 8.59-5.75 19.05-16.61 24.93-42.02 4.19-18.14.41-35.75M429.3 532.75l-.47-.37a1.77 1.5 89.4 0 1-.33-.38q-3.41-5.5-4.08-6.37-5.53-7.19-14.87-9.45c-3.82-.92-9.56.07-13.29.76q-1.49.27-2.02.1a1.88 1.87 30 0 1-.81-3.02c4.46-5 11.12-6.83 17.95-5.58q12.78 2.34 19.27 14.67 2.23 4.25 1 8.88a1.47 1.47 0 0 1-2.35.76m6.9 57.74q-.64 3.61.01 5.66a2.72 2.7.7 0 0 1.74 1.77q8.19 2.71 16.49-.98.78-.34 1.85-.35a.63.63 0 0 1 .52.99q-6.79 9.7-18.91 7.48-2.87-.52-3.08-.53a.67.67 0 0 0-.69.47q-1.45 4.61-2.59 7.55c-2.61 6.75-7.4 12.75-12.46 17.73q-13.31 13.13-32.8 13.82c-6.76.24-16.11-2.33-21.93-6.66-11.66-8.68-17.44-21.45-17.53-36.18q-.12-18.06 11.38-33.93c9.35-12.91 26.35-22.23 42.83-19.72 12.03 1.82 20.49 8.2 28.06 17.58a1.91 1.9-30.2 0 0 2.19.57q9.7-3.84 14.48-14.19a1.08 1.08 0 0 1 2.05.32c1.06 8.61-6.77 17.15-14.06 20.5a1.21 1.2-20.2 0 0-.66 1.42q1.06 3.77 2.19 6.4c1.91 4.45 9.6 2.29 13.14.73q4.85-2.14 9.39-5.72a.73.73 0 0 1 1.14.81c-3.04 9.15-12.67 14.16-21.88 13.76a.85.85 0 0 0-.87.7m-13.74 28.26q2.14-2.44 3.68-6.34 4.83-12.2 3.74-25.53-1.07-13.17-11.58-23.63c-8.58-8.54-19.69-10.98-31.15-8.65-12.54 2.54-23.74 12.35-29.59 23.68-5.9 11.44-8.1 26.42-2.95 38.46q2.41 5.63 3.63 7.53 8.52 13.28 24.19 14.68a.35.34-26.2 0 0 .22-.63c-2.72-1.69-5.26-2.86-7.2-4.79q-8.79-8.76-10.8-19.13c-1.88-9.68-.99-21.59 4.34-30.59q4.06-6.87 8.26-10.54c18.36-16.06 42.53-8.49 48.29 14.99q3.74 15.26-3.26 30.38a.11.1-12.7 0 0 .18.11m-12.84-42.507a13.01 11.18-81.2 0 0-13.038 11.147 13.01 11.18-81.2 0 0 9.058 14.567 13.01 11.18-81.2 0 0 13.038-11.147 13.01 11.18-81.2 0 0-9.058-14.567m-27.04 31.832a5.61 5.29-76.5 0 0-6.454 4.22 5.61 5.29-76.5 0 0 3.834 6.69 5.61 5.29-76.5 0 0 6.454-4.22 5.61 5.29-76.5 0 0-3.834-6.69m48.25 45.585a.45.45 0 0 0 .68.21q.16-.11 2.69-1.91c11.42-8.12 24.76 1.76 23.08 14.79-.86 6.73-3.86 11.92-8.99 16.65q-8.87 8.2-20.24 13.43c-5.67 2.6-7.41.12-11.26-4.09-8.53-9.33-17.97-22.58-13.97-35.11q3.19-10 13.8-12.41c2.66-.6 4.58.26 7.31 1.34q5.05 2 6.9 7.1m-1.13 6.55q-1.94-4.12-2.05-4.35c-2.21-4.56-7.26-8.05-12.31-6.23-8.3 2.99-10.77 11.86-8.42 19.79 2.64 8.93 8.8 16.86 15.58 23.63a2.28 2.27-34.1 0 0 2.51.48c11.88-5.13 30.91-16.34 27.92-32.07-1.3-6.84-8.37-9.98-14.68-7.23-2.87 1.26-5.1 4.22-7.4 6.22a.73.73 0 0 1-1.15-.24m-204.65 3.78a1.09 1.09 0 0 1-1.77.91q-5.13-4.16-3.7-9.91c1.53-6.13 5.95-10.24 12.56-9.05 5.67 1.02 8.04 7.32 6.31 12.32a1.1 1.1 0 0 1-2.08-.02l-1.44-4.3a2.86 2.84 88 0 0-1.97-1.85q-1.79-.46-4.59-.1c-4.58.59-3.49 9.02-3.32 12m-.34 520.5a.62.62 0 0 1-.82.8q-2.25-.96-3.89-2.5c-4.89-4.56-11.99-12.16-9.26-18.6 1.84-4.36 7.01-4.84 11.19-3.59q6.62 1.98 11.29 7.48a.5.5 0 0 0 .88-.34c-.28-7.27.91-15.97 8.2-19.52a2.09 2.05-53.7 0 1 1.17-.19c8.05 1.09 10.26 13.54 9.84 19.81a.55.54-19 0 0 .91.44c3.03-2.71 5.77-5.66 10.12-7.28 4.78-1.77 9.23-.9 10.41 4.43 1.17 5.3-5.77 17.19-11.12 18.92a.59.59 0 0 1-.77-.59q.08-1.53 1.29-3.11c3.47-4.59 6.78-9.71 6.78-14.67a1.05 1.04-72.8 0 0-.45-.86c-2.38-1.64-5.73-.63-7.94.97q-6.9 4.96-10.38 13c-.25.56-1.1 1.49-1.55 1.85a.55.55 0 0 1-.9-.48q.93-10.62-1-20.51c-.59-2.99-2.02-5.64-4.13-7.5a1.55 1.55 0 0 0-1.86-.14c-5.56 3.53-4.98 16.95-3.89 23.12q.54 3.04.18 5.09a.76.75-53.3 0 1-1.42.21q-.06-.11-3.12-5.39c-3.33-5.72-10.26-11.42-16.92-11.23-5.19.15-3.55 5.18-1.88 7.99q2.05 3.44 6.08 7.89 2.11 2.33 2.96 4.5m627.09 19.4a.5.5 0 0 0 .89-.25q.66-6.81 4.42-12.26c2.12-3.08 6.89-5.91 10.32-3.28q2.88 2.21 3.33 4.82 1.88 11.09-4.47 20.91a.67.67 0 0 1-1.22-.47c.96-6.34 2.21-10.77 2.45-16.86.2-4.91-3.49-8.04-7.2-3.27-4.49 5.77-4.84 12.89-4.3 19.94a.85.85 0 0 1-.99.9q-1.31-.22-1.97-1.41c-2.73-4.93-5.11-8.99-10.28-11.66q-2.28-1.18-4.48-1.08a2.13 2.12-87 0 0-2 1.81c-.66 4.51 4.64 12.05 7.51 15.65a.52.52 0 0 1-.3.83c-2.13.46-4.35-2.41-5.89-4.33-3.35-4.16-5.64-8.19-4.28-13.77q.43-1.8 2.31-2.98c5.38-3.4 12.96 2.62 16.15 6.76m77.46 196.7a.21.21 0 0 0 .41.03c1.3-4.29 3.41-7.48 6.16-11.6q18.24-27.39 51.39-33.16 1.21-.21 4.71 0c1.96.12 2.87 1.69 2.97 3.28.34 5.33-.6 11.36-1.49 17.15-3.35 21.72-15.27 39.49-34.65 49.99q-16.24 8.81-35.18 11.08a1.08 1.07 6.1 0 0-.89.71q-3.04 8.69-4.41 12.21-1.05 2.72-2.6 4.73a.84.83-18.9 0 1-1.47-.72q3.85-14.57 7.12-33.01 4.86-27.32 3.45-56.35a1.12 1.12 0 0 0-1.19-1.06l-3.49.23a1.05 1.05 0 0 0-.99 1.05q.06 19.47-.28 26.73-.57 12.15-3.76 29.61c-2.43 13.29-4.26 21.75-8.91 32.4q-.47 1.08-1.22 1.14a.76.75 2.9 0 1-.81-.88q.68-3.92 2.59-15.49a.75.74-74.6 0 0-.46-.82q-4.32-1.7-10.96-4.62c-17.58-7.72-32.49-22.33-37.96-40.91-2.58-8.78-4.02-18.18-3.22-27.45.31-3.55 4.91-3.43 7.58-2.82 26.41 6.11 43.92 24.35 49.72 50.52a.18.18 0 0 0 .35 0q1.45-6.38 2.07-13.13 1.65-18.03 1.14-35.26a1.24 1.23-82.4 0 0-.86-1.14c-4.59-1.46-9.25-3.82-12.62-7.13-6.92-6.83-8.95-18.52-7.75-28.21a.41.4 71.1 0 0-.69-.34c-9.58 9.8-21.95 14.89-35.22 9.36-11.02-4.6-17.19-16.52-13.61-28.41 2.98-9.94 9.95-15.16 18.72-19.82a.51.51 0 0 0-.01-.9c-2.19-1.12-4.84-1.8-6.79-2.98-5.78-3.51-11.65-9.46-12.96-16.32q-2.4-12.53 5.81-21.45 5.59-6.09 13.28-7.42c9.97-1.73 18.32.88 26.33 6.59a.39.38-78.5 0 0 .6-.4c-1.74-7.87-2.08-17.16 1.26-24.33 5.33-11.41 18.73-18.67 31.48-13.99 13.45 4.94 18.63 20.24 16.77 33.32a.47.47 0 0 0 .82.37q7.2-8.19 17.33-11.41 10.22-3.25 18.57.49 9.14 4.09 13.01 13.21c4.57 10.74-1.21 23.18-10.24 29.98q-2.2 1.65-5.88 4.05a.59.59 0 0 0 .18 1.06c16.22 4.01 27.34 17.53 20.55 34.66-3.33 8.4-10.9 13.63-19.57 15.61-8.03 1.84-18.28-2.5-25.17-6.97a.31.3 12.8 0 0-.47.29q.85 6.57.94 7.29c1.82 14.89-5.14 27.92-19.27 33.12a.76.75 80.1 0 0-.49.71c.04 4.94 1 10.55.86 15.27q-.17 5.28-.82 14.67-.33 4.71.19 7.59m-26.27-137.24c8.85-3.67 15.56-5.32 24.45-3.04a1.3 1.3 0 0 0 1.54-.79q1.39-3.54 3.31-10.16c1.74-6 1.87-9.87 1.76-16.39-.13-7.21-3.44-14.34-8.96-18.61-6.85-5.28-17.9-4.56-24.35 1.08q-5.63 4.92-7.12 11.21-2.88 12.22 2.94 26.08 1.17 2.77 5.57 10.33a.7.69 63.2 0 0 .86.29m28.55-1.24q10.53 5.91 13.08 17.25a.6.6 0 0 0 .68.47c7.87-1.22 14.41-2.49 20.66-4.8q10.07-3.7 16.23-13.34c8.84-13.81-3.13-30.63-18.7-28.73-15.54 1.9-25.84 15.24-32.19 28.4a.58.57-63 0 0 .24.75m-31.81 2.57q-6.4-11.23-16.89-16.99c-6.83-3.75-15.42-5.37-22.35-2.8q-11.2 4.14-12.87 15.27c-1.13 7.54 2.62 15.04 8.87 19.14 6.14 4.03 13.84 5.77 22.06 5.75q9.26-.03 10.01-.03a1.19 1.19 0 0 0 1.19-1.12c.48-8.07 4.9-12.57 9.9-18.38a.75.74 50.7 0 0 .08-.84m39.933 14.195a23.09 20.99-15.1 0 0-27.761-14.25 23.09 20.99-15.1 0 0-16.825 26.28 23.09 20.99-15.1 0 0 27.761 14.25 23.09 20.99-15.1 0 0 16.825-26.28m-3.113 25.035q4.72 5.47 7.19 8.07c8.07 8.51 22.89 15.74 34.33 10.01 9.34-4.68 13.67-13.14 11.61-23.67-1.28-6.53-8.12-11.95-13.99-14.23q-4.6-1.79-11.74-2.63c-6.31-.74-10.96.21-17.78.86a1.65 1.65 0 0 0-1.48 1.64q.07 10.64-8.11 18.98a.72.72 0 0 0-.03.97m-34.85 3.55a1 1 0 0 0-.37-1.29c-4.32-2.68-8.51-6.52-10.03-11.45q-.87-2.8-1.61-6.07a.8.79-5.1 0 0-.75-.62c-11.95-.31-25.69 3.18-34.39 11.77-4.91 4.85-7.95 13.09-5.77 20.1 4.98 15.98 23.89 17.77 35.62 8.77q10.97-8.42 17.3-21.21m2.51 1.49c-5.34 10.6-8.37 22.99-4.48 34.52q4.93 14.65 20.4 15.33c10.75.47 21.12-7.53 23.26-17.94q2.03-9.89-1.47-20.97c-1.6-5.03-4.96-9.57-7.61-14.54a.56.56 0 0 0-.79-.21q-5.7 3.65-12.93 5.34c-5.06 1.18-10.4-.64-15.28-2.02a.95.94-68.9 0 0-1.1.49m21.18 117.84q15.49-21.98 40.18-39.72a.75.75 0 0 1 .76-.07l.25.12a.48.48 0 0 1 .1.79q-12.87 11.27-19.34 17.93-11.52 11.85-21.14 25.7a.38.38 0 0 0 .37.59c13.76-1.91 28.46-7.31 38.97-15.8 16.3-13.15 24.53-33.72 24.56-54.48a.73.73 0 0 0-.69-.73q-2.48-.15-5.64.45c-23.73 4.51-43.07 22.43-52.03 44.43q-3.6 8.84-6.78 20.59a.24.24 0 0 0 .43.2m-45.53-35.32q2.1 1.54 2.75 2.18 8.31 8.21 14.88 17.11c4 5.41 7.82 13.44 10.79 18.8a.38.38 0 0 0 .72-.2c-.64-14.32-3.71-26.93-12.04-39.29-8.23-12.21-22.69-21.05-37.38-23.49a.54.54 0 0 0-.63.5c-1.11 20.17 6.63 40.17 22.79 52.66q10.79 8.34 23.69 13a.44.44 0 0 0 .55-.6q-9.88-21.68-25.95-38.91-.65-.69-.63-1.53a.29.29 0 0 1 .46-.23m-696.15-77.86c-.69-.86-1.67-1.42-2.6-2.55-12.99-15.97 1.4-35.8 20.13-32.63 9.11 1.53 15.19 7.92 18.63 16.06a.5.5 0 0 0 .92-.01c5.27-13.28 17.63-21.74 32.08-16.87q8.79 2.97 13.05 13.08 2.37 5.63-.21 12.26-2.39 6.14-4.5 8.29-2.39 2.44-3.48 3.75a.48.47 20.9 0 0 .35.78c3.6.1 6.55-.11 9.23.7 11.22 3.36 19.27 11.94 18.02 24.06-.96 9.4-8.94 18.13-18.41 19.35q-13.26 1.7-23.54-5.73a.31.31 0 0 0-.48.33c1.18 4.52 1.57 10.95.45 15.17-2.2 8.26-8.48 15.17-17.07 17.23q-1.9.45-4.45 1.09a1.54 1.53-1 0 0-1.14 1.17q-3.1 14.03-3.7 28.52a.38.38 0 0 0 .71.22q5.3-8.57 12.94-15.48c8.85-8 24.56-14.16 36.67-11.98q2.86.51 4.59 1.32a2.17 2.16-74.2 0 1 1.23 2.21q-.57 4.72-2.71 8.99-12.33 24.7-38.46 32.31c-4.93 1.43-10.37 1.95-15.22 2.7a.78.77-1.9 0 0-.66.7l-.87 12.42a.99.99 0 0 1-1.96.09q-1.9-11.56-1.17-21.71.66-9.29 1.08-17.4.53-10.04 2.91-21.63a2.13 2.13 0 0 0-1.86-2.55l-.27-.03a2.37 2.37 0 0 0-2.58 1.96c-2.63 15.46-4.39 30.62-4.32 46.05q.05 12.41-.01 15.64a.93.92-62.5 0 1-1.67.53q-.41-.55-.66-1.49-1.6-5.84-2.2-12.84a2.48 2.48 0 0 0-1.74-2.15q-7.33-2.24-12.21-4.33c-19.47-8.3-33.97-23.96-37.82-44.96-.92-5.03-2.47-13.92 4.22-15.02q1.71-.27 8.16 1.73c4.84 1.5 9.91 3.66 14.32 6.58q18.41 12.22 25.47 33.74a.58.57 38.3 0 0 1.12-.13q1.07-14.15 3.51-26.59a.94.92 26.5 0 0-.31-.89c-1.61-1.36-4.46-2.6-6.27-4.41-7.96-7.97-8.55-18.47-4.3-28.8a.33.32-1.2 0 0-.44-.42c-5.47 2.61-12.46 5.27-18.24 4.78-10.85-.93-19.69-7.69-21.67-18.34-1.94-10.51 6.79-20.56 16.87-23.09q3.35-.85 10.29-1.23a.34.34 0 0 0 .25-.55m38.79-2.8c6.99.59 13.27 3.62 16.97 9.89a.92.91 61.1 0 0 1.21.35c6.88-3.59 13.41-7.44 17.81-14.05q7.09-10.64.46-19.42c-7.48-9.92-20.89-7.74-28.79.07-5.41 5.35-6.98 14.58-8.24 22.42a.64.64 0 0 0 .58.74m-3.64-.64q-1.27-8.23-1.46-9.07c-2.9-12.88-15.26-23.28-28.53-15.99-4.84 2.66-8.08 7.16-7.96 12.76.27 12.2 11.68 18.43 21.25 23.12a.96.96 0 0 0 1.22-.34q5.03-7.75 14.81-9.54a.82.82 0 0 0 .67-.94m18.897 19.267a16.22 14.37-1 0 0-16.468-14.085 16.22 14.37-1 0 0-15.966 14.651 16.22 14.37-1 0 0 16.468 14.085 16.22 14.37-1 0 0 15.966-14.651m-33.907 12.333a.8.8 0 0 0 .15-1.07c-2.27-3.38-4.07-7.57-3.55-11.68q.29-2.33.82-4.96a.64.63 19.2 0 0-.34-.71c-8.63-4.16-19.83-6.15-29.02-2.74-5.19 1.93-10.13 6.95-10.85 12.79-1.63 13.33 11.6 20.88 23.14 18.17q10.8-2.54 19.65-9.8m37.17-17.7q3.36 10.15-4.19 18.33a.65.65 0 0 0-.02.88q9.82 11.17 23.41 12.08c5.75.39 10.68-.85 14.89-4.76 8.93-8.31 7.01-22.41-4.08-27.65q-4.37-2.07-10.68-2.73c-6.11-.64-12.84 1.47-19.04 3.31a.44.43-17.4 0 0-.29.54m-23.21 59.09q4.63.29 7.21-.49 14.49-4.39 14.27-19.43-.15-9.77-5.77-17.41a.8.79 56.9 0 0-1.03-.22c-3.73 2.07-8.62 3.2-12.48 2.96-3.86-.25-8.56-2-12-4.52a.8.79-49.6 0 0-1.05.09q-6.54 6.86-7.93 16.54-2.12 14.89 11.7 21.08 2.45 1.1 7.08 1.4m-15.95 44.1q-.02-2.34-.68-4.72c-1.8-6.51-4.05-12.92-7.22-18.71q-12.6-23.02-38.22-27.78a.75.74 5.6 0 0-.88.72c-.44 26.94 19.32 46.59 44.26 53.4a.46.46 0 0 0 .51-.7q-9.17-13.76-21.95-27.9-1.03-1.14-1.43-2.8a.32.32 0 0 1 .53-.32q15.22 14.07 24.72 28.92a.2.2 0 0 0 .36-.11m17.63 5.17a.33.32 17.3 0 0 .28.53c11.29-1.07 23.01-5.23 31.87-13.01q11.24-9.87 16.28-22.82a1.84 1.83 26.7 0 0-.75-2.23q-.02-.02-.93-.08c-22.48-1.61-41.91 14.13-49.13 34.74a.41.41 0 0 0 .69.41q11-12.17 26.57-19.97a.33.32 1.5 0 1 .43.45q-.49.86-1.36 1.5c-9.43 6.9-17.36 12.53-23.95 20.48m372.54 47.63a.31.3-34 0 0 .58.11q9.63-19.56 27.16-31.2c12.92-8.57 29.88-13.65 45.49-11.55q4.72.64 3.87 5.43-.64 3.64-1.73 6.31c-8.38 20.53-23.09 37.33-43.94 45q-14.64 5.39-30.32 6.07a2.45 2.44-84.1 0 0-2.26 1.84q-1.37 5.42-2.29 9.73-.27 1.26-1.02 2a.9.9 0 0 1-1.53-.57c-.6-8.46 1-19.99 1.23-27.92q.28-9.88-.82-24.73a1.91 1.9 89.8 0 0-1.77-1.77l-1.98-.14a1.65 1.64 89.1 0 0-1.75 1.81q1.23 12.27.7 20.45c-.66 10.06-.6 21.05-2.81 31.14q-.26 1.2-1.05 1.58a1.23 1.16 77.9 0 1-1.66-1.15q-.02-4.96-1-9.52a1.01 1.01 0 0 0-.88-.8q-5.31-.56-13.72-1.52c-27.37-3.11-50.8-16.9-64.07-41.62-1.67-3.11-5.34-9.93-2.42-12.9a1.84 1.83-74.2 0 1 .91-.51q4.01-.91 7.31-.79 32.43 1.08 55.38 22.36c7.15 6.63 13.66 15.84 18.59 24.58a.41.41 0 0 0 .77-.19q.16-14.5-.05-31.55c-.02-1.98-.5-3.18-2.42-4.06-9.12-4.18-13.8-13.75-14.38-23.54a.45.45 0 0 0-.79-.26c-6.63 7.85-17.22 14.39-27.7 12.3-11.88-2.37-20.96-10.98-20.79-23.46.12-9.8 6.65-18.06 14.65-23.24a.32.32 0 0 0-.15-.59q-12.79-1.07-20.75-9.95c-4.34-4.84-6.4-12.19-5.14-18.22q3.05-14.59 17.26-19.03c8.57-2.69 16.59-1.24 24.49 2.32a.48.48 0 0 0 .63-.66q-4.45-8.95-2.97-18.15c1.33-8.26 7.45-15.86 14.85-19.02q7.49-3.2 13.73-2.32c10.7 1.51 18.62 10.38 20.89 20.76q.89 4.08.97 8.63a.59.58-27.9 0 0 1.06.32q5.89-8.26 15.62-12.41c13.55-5.79 31.9.64 33.9 16.77 1.37 11.09-4.63 21.11-13.58 27.12a.25.25 0 0 0 .09.45q5.69 1.27 7.13 1.64c10.64 2.73 19.89 11.32 20.68 22.62q.6 8.57-3.05 14.52c-9.18 14.97-26.83 16.96-41.39 8.31a.46.46 0 0 0-.66.57c5.9 14.87-1.15 31.96-17.21 36.2a1.65 1.65 0 0 0-1.22 1.7zm-9.36-119.47q3.61-12.67 1.63-24.58c-1.64-9.88-8.5-18.88-19.29-19.16q-11.55-.31-18.32 9.37c-4.42 6.31-3.49 17.22-.81 23.66 2.75 6.65 7.98 12.57 12.13 17.52a.81.8-38.6 0 0 1.1.12q10.09-7.71 22.86-6.45a.67.66 10.5 0 0 .7-.48m20.74 17.89c11.07-2.86 20.03-6.22 27.41-15.9 5.29-6.94 6.56-17.87.09-24.43q-6.91-6.99-16.13-6.17c-3.45.3-9.4 2.52-12.12 4.38-8.34 5.73-13.92 14.8-16.67 24.28a1.27 1.27 0 0 0 .73 1.53c7.33 3.12 13.13 8.42 15.8 15.84a.76.74 72.3 0 0 .89.47m-52.42 10.69c-.23-7.75-.19-13.08 5.85-18.71a.62.61 41.5 0 0-.06-.95q-2.55-1.84-6.04-5.17c-9.48-9.02-22.63-14.24-34.46-9.3q-7.08 2.96-9.89 8.87-6.59 13.84 5.26 23.51c10.44 8.51 26.98 5.53 38.72 2.57a.82.82 0 0 0 .62-.82m47.792-6.593a21.83 19.96-6.9 0 0-24.07-17.192 21.83 19.96-6.9 0 0-19.274 22.438 21.83 19.96-6.9 0 0 24.07 17.192 21.83 19.96-6.9 0 0 19.274-22.438m4.458-.617q1.46 12.02-6.88 19.67a.83.83 0 0 0-.08 1.13q5.64 6.87 12.78 12.15 8.94 6.6 19.73 6.32 5.54-.14 9.48-2.31c7.27-3.99 11.96-11.98 11.2-20.19q-1.11-11.76-12.06-16.66-8.78-3.93-17.23-3.61-5 .2-16.39 2.73a.71.7 81 0 0-.55.77M566.32 1408c-6.96-3.62-11.21-7.1-14.39-14.23a1.46 1.43-14 0 0-1.44-.85c-4.34.33-7.68 1.82-12.73 3.61-11.42 4.04-23.88 13.99-21.75 27.55q1.91 12.24 14.47 15.31c13.49 3.3 25.31-7.4 30.93-18.74q3.46-6.99 5.28-11.66a.79.79 0 0 0-.37-.99m3.02 1.33q-2.52 6.72-3.88 13.37c-1.94 9.41.27 24.32 10.7 28.86q12.57 5.48 23.2-2.87c2.14-1.68 5.39-6.48 5.98-8.81q3.12-12.29-3.05-23.48-3.45-6.28-7.82-11.35a1.25 1.24 52.5 0 0-1.65-.22q-10.31 6.99-22.7 4.08a.67.66-72.8 0 0-.78.42m26.22 85.65q.69.17 1.7.14c16.27-.57 34.06-7.35 46.1-18.51q15.16-14.06 21.2-34.01a.38.37-79.1 0 0-.32-.48c-9.94-.86-19.29.11-28.79 3.92q-23.49 9.41-36.69 31.86c-2.76 4.69-4.77 10.55-6.54 14.57a.26.26 0 0 0 .42.29q2.29-2.2 6.87-6.74c7.62-7.55 16.32-13.7 25.2-19.56q6.07-4.01 13.57-7.43a.42.41-11.8 0 1 .59.38v.03a1.24 1.21 74.9 0 1-.58 1.03q-16.19 10.17-28.02 20.31-4.84 4.16-14.88 13.56a.38.38 0 0 0 .17.64m-25.9 1.34q-17.77-14.15-39.31-26.87a.62.61-73 0 1-.29-.56l.02-.31a.47.47 0 0 1 .68-.38q22.54 11.31 41.29 26.77.33.28.64.19a.38.38 0 0 0 .21-.58c-3.29-4.86-5.32-9.14-8.53-13.13q-8.8-10.95-17.7-17.36-12.49-9-30.49-13.23-2.97-.69-5.93-.92c-2.93-.23-8.07-1.09-12.04 0a.58.58 0 0 0-.38.78c12.32 29.75 40.34 44.82 71.62 46.15a.31.31 0 0 0 .21-.55m225.55-107.94a.36.36 0 0 0 .61.34q2.67-3.06 5.65-5.48c3.73-3.03 10.14-5.6 14.62-4.01 6.16 2.18 4.56 9.68 2.14 14.52q-4.56 9.09-13.04 15.19-1.29.93-2.07.89a.87.87 0 0 1-.64-1.4q6.69-8.59 9.39-12.31c2.7-3.73 4.56-7.24 4.1-11.95a.93.91-81.6 0 0-.56-.77c-4.94-2.06-12.06 3.04-15.42 6.63q-5.94 6.34-10.13 14.6a.96.96 0 0 1-1.81-.31q-.16-1.23.07-2.44.45-2.37 4.6-20.41 2.95-12.79 2.36-23.93-.12-2.33-1.04-3.76a2.56 2.38 65.1 0 0-2.75-1.12c-4.09 1.19-7.06 5.9-8.71 9.46-4.5 9.73-6.96 21.41-6.67 32.48q.2 7.55-.13 9.82a.49.49 0 0 1-.79.31c-2.25-1.74-4.06-8.07-6.24-11.31-5.31-7.92-10.82-14.26-19.71-15.24-4.51-.5-4.53 3.87-3.63 7.04q1.8 6.25 5.61 11.79 6.31 9.17 7.03 10.42a.98.98 0 0 1-.94 1.47q-.19-.02-.75-.46-11.33-8.93-15.34-22.21c-1.43-4.74.08-11.91 6.37-12.16q6.37-.25 10.85 2.55 8.14 5.08 13.08 13.79a.28.28 0 0 0 .52-.14c.1-12.05 3.04-25.28 10.12-35.31 2.56-3.63 8.58-9.03 13.21-6.1 5.14 3.26 4.86 11.79 4.41 16.89q-1 11.41-4.37 22.63m-414.4 13.74c-1.01-10.52-2.07-21.56 3.76-30.91q2.94-4.71 7.32-3.33c5.68 1.8 7.77 11.25 7.99 16.68q.21 5.28.2 11.02a.48.48 0 0 0 .89.26c3.39-5.29 7.49-9.77 13.72-11.15 5.05-1.12 8.6 2.18 8.68 7.29.11 7.89-3.69 14.52-8.29 20.86q-1.7 2.34-4.12 4.26a.92.91-43.4 0 1-1.17-.03q-.01 0-.17-.32a.24.2-57.8 0 1-.02-.16q.86-2.77 1.91-4.57c4.13-7.1 7.43-12.29 7.73-19.25q.09-2.03-.43-2.84a3.84 3-18.2 0 0-3.63-1.31c-8.44 1.42-15.58 15.64-17.36 22.96q-.28 1.11-1.27 1.61a.68.68 0 0 1-.99-.65q.87-13.93.07-29.6c-.14-2.83-1.73-9.38-4.61-11.13a1.53 1.52 37.8 0 0-1.87.23q-2.3 2.31-3.28 5.64-2.9 9.8-1.54 20.86.74 6.03 1.75 13.24.13.97-.17 2.63a.64.63 33 0 1-1.15.24q-2.37-3.42-3.45-4.97c-5.09-7.29-16.07-17.78-25.74-15.32a2.28 2.27-6.6 0 0-1.71 2.15c-.17 7.72 10.5 16.65 16.96 22.76a1.1 1.1 0 0 1-.14 1.71q-.5.34-1.29-.11-11.84-6.93-18.07-17.39c-2.76-4.64-2.57-11.6 3.88-13.16q2.91-.7 7.34.24 8.89 1.87 17.73 11.8a.31.31 0 0 0 .54-.24m-271.55 29.45a.2.2 0 0 0 .38.06c3.2-7.46 10.57-16.17 19.38-16.75 5.06-.34 7.37 2.53 8.02 7.32 1.14 8.48-6.89 24.3-13.91 29.72a.76.75 84.9 0 1-1.13-.95q3.92-7.63 8.54-18.17 2.61-5.94 1.19-12.59a1.5 1.49-7.8 0 0-1.56-1.17c-12.31.84-20.84 19.29-23.31 29.38a.9.89 23.7 0 1-1.36.52q-.55-.36-.62-1.69-.22-4.03-.8-18.14c-.43-10.54-1.98-19.11-5.37-27.56-1.14-2.85-8.85-19.05-13.44-9.97-3.79 7.5-3.49 15.02-2.64 24.4 1.08 11.83 3.49 22.14 5.39 32.63a.64.64 0 0 1-.78.74q-1.06-.25-1.84-1.46-6.14-9.62-11.7-15.57c-4.52-4.85-13.66-11.8-20.39-10.31a1.73 1.73 0 0 0-1.35 1.84c.56 6.5 4.98 12.96 9.12 18.33q3.95 5.11 8.75 10.55a.82.82 0 0 1-.77 1.34q-.88-.17-2.05-1.07-11.92-9.2-17.67-21.54c-2.75-5.91-3.53-14.51 5.96-14.29q2.2.05 3.77.56c8.87 2.88 15.14 8.23 21.04 15.17a.29.29 0 0 0 .51-.25q-3.28-14.77-2.8-29.39c.2-6.29 1.77-14.96 8.13-18.3 5.36-2.81 11.87 4.8 13.98 8.66q6.51 11.87 8.04 25.9 1.03 9.49 1.29 12.05"/></svg>