<svg xmlns="http://www.w3.org/2000/svg" width="1024" height="1536" fill="#fff" viewBox="0 0 1024 1536"><path d="M612.51 236.3a.44.44 0 0 0-.64.16c-10.84 20.74-37.3 24.77-57.82 19.26-23.95-6.44-43.67-26.61-41.99-52.58.18-2.74 1.55-5.62 1.92-8.08a.7.7 0 0 0-.49-.76c-14.61-4.25-24.93-18.48-24.58-33.78.45-19.84 14.74-35.8 34.1-38.87q13.09-2.07 24.19 5.31a1.26 1.25-57 0 0 1.76-.38q1.87-2.98 3.77-5.83c7.21-10.81 21.52-18.37 33.75-20.69q25.56-4.84 46.52 7.73 15.45 9.26 22.25 26.31c3.9 9.76 3.64 19.88-.07 29.52a1.31 1.31 0 0 0 .97 1.76q15.11 2.98 22.38 16.58c3.83 7.16 5.16 16.78 3.45 25.25-3.54 17.62-15.87 30.86-33.33 35.35q-19.71 5.06-36.14-6.26m-61.65-99.78q-.7-.22-1.08-.56-12.5-11.19-27.6-8.17c-13.48 2.7-24.42 13.68-26.73 27.02q-3.18 18.28 11.4 29.9 6.1 4.87 13.62 5.43a1.42 1.41-72.7 0 1 1.11 2.12q-3.49 6.04-3.67 12.75c-.22 8.6 1.45 15.77 6.48 23.22q10.99 16.3 30.56 21.81c14.2 4 30.89 2.77 43.17-6.05q8.25-5.93 11.44-15.08a1.37 1.36 33 0 1 2.28-.48c8.27 8.77 21.18 11.26 32.89 8.98q20.3-3.95 28.82-22.87c2.99-6.62 3.32-13.21 2.61-20.24-.79-7.84-5.31-15.46-11.7-19.67-5.53-3.65-11.92-3.98-18.27-3.61a.89.88-77.5 0 1-.82-1.3q.77-1.45 3.1-5.71c3.62-6.63 4.49-15.27 2.59-23.06q-4.05-16.48-18.09-26.17c-8.23-5.68-18.65-9.67-29.4-9.93q-9.8-.24-15.36.85c-17.35 3.41-31.28 13.16-36.54 30.39a.65.65 0 0 1-.81.43m-50.02 144.71c8.11-6.65 21.3-7.04 30.7-3.02q18.99 8.13 23.49 29.02 3.97 18.46-8.29 32.58c-5.36 6.18-12.42 9.22-20.31 9.73a1.19 1.18-84.2 0 0-1.07.88c-6.64 24.58-33.98 32.4-55.96 24.38-8.44-3.08-17.78-10.79-20.48-19.9a1.04 1.04 0 0 0-.93-.75c-2.61-.18-4.84-.21-7.53-.91q-11.88-3.11-16.76-12.86c-6.2-12.41-2.83-27.04 9.66-34.44 2.47-1.47 5.05-1.92 7.9-2.64a.95.95 0 0 0 .68-1.17q-1.88-7.14.88-14.02c4.5-11.2 14.42-17.9 26.36-19.44q13.21-1.71 24.13 6.28c2.33 1.7 4.54 4.54 6.39 6.25a.87.87 0 0 0 1.14.03M452.8 347.5c1.57 6.24 2.86 9.74 7 14.1 12.58 13.24 34.08 13.26 48.56 3.93 4.83-3.11 9.65-9.24 10.82-15.25q.7-3.54 1.12-5.85a1 .99-80 0 1 1.14-.8c10.24 1.72 20.26-4.07 24.86-13.16q3.23-6.38 3.63-14.39c.36-7.16-2.89-17.15-7.33-22.66-9.32-11.56-24.39-15-38.03-8.05a4.69 4.58-78.2 0 0-.91.61l-4.21 3.67a.98.98 0 0 1-1.52-.28q-7.61-14.66-24.4-14.96-13.36-.24-21.46 9.64c-3.63 4.43-6.19 12.05-4 18.02q1.29 3.5 2.76 6.28a1.25 1.24 77.7 0 1-1.17 1.83q-.87-.06-2.78-.6c-6.75-1.92-13.72 1.75-17.27 7.83-9.16 15.71 4.28 35.09 22.49 29.69a.56.55 74.7 0 1 .7.4M1024 521.46v22.41c-3.33 22.22-18.38 43.49-40.28 50.26a.99.97 83 0 0-.69.9c-.06 1.55.13 3.32.02 4.9q-.91 13.62-11.55 24.32-16.17 16.25-37.87 17.51c-4.24.25-6.8-.25-11.54-.75a.7.69-82.7 0 0-.76.59q-1.26 8.81-1.79 16.65-1.95 28.92-1.53 58.16a.21.21 0 0 0 .34.17q15.15-11.74 32.09-5.31c7.02 2.66 14.15 8.55 17.19 15.1 2.48 5.33 4.35 13.58 2.56 20.19a.33.32 84.2 0 0 .46.38c8.98-4.58 18.75-4.78 26.05 1.75 11.38 10.2 8.3 27.42.72 38.76a.21.21 0 0 0 .23.32q8.21-2.08 15.28 2.59c8.61 5.69 8.9 17.18 4.55 25.61q-4.57 8.87-13.33 14a.44.43-55.2 0 0 .14.8l19.71 3.45v5.24q-28.38-4.56-38.5-5.68-17.15-1.9-27.51-2.5-9.51-.56-10.38-.65-7.74-.82-10.36-.66c-4.15.26-9.08-.89-14.01-.92q-25.56-.17-43.87.05c-4.56.05-9.49.99-14.45.89q-2.48-.04-10.83.64c-14.54 1.2-26.54 1.81-43.52 3.63a1.46 1.44-1 0 0-1.3 1.33l-2.94 39.98a.74.74 0 0 0 .37.69q12.38 7.02 15.71 21.04 1.44 6.04 1.34 10.46-.6 25.52-3.77 48.89a1.68 1.68 0 0 0 1.01 1.77c10.64 4.41 21.63 11.96 25.1 23.58 5.35 17.86-4.84 36.84-15.62 50.24q-1.73 2.15-9.13 10.98a.4.4 0 0 0 .29.66c6.68.2 12.35.57 9.72 9.22q-1.6 5.25-3.22 10.78c-.89 3.04-2.34 6.6-5.71 7.06-3.12.42-7.58.17-11.23-.29q-7.55-.94-12.95-.72a3.35 3.33-71.1 0 0-2.42 1.19l-22.85 27.27a.29.29 0 0 0 .2.47q9.52.59 27.08 2.18c4.78.44 13.51.88 10.58 8.59q-4.85 12.75-9.86 23.17-2.28 4.76-8.44 4.13-24.1-2.45-43.51-4.11-1.93-.16-3.14 1.56-11.57 16.57-23.86 35.61a.72.72 0 0 0 .17.97q.77.58 1.91.7 15.8 1.61 42.65 4.61c2.85.32 8.93.42 10.89 2.76q2.2 2.64 1.03 5.93-2.4 6.77-8.35 20.82c-2.62 6.2-4 10.1-11.06 9.29q-28.38-3.27-58.25-6.18-2.68-.26-3.86 1.74-10.27 17.37-19.19 34.37a.61.61 0 0 0 .47.89q21.28 2.77 54.13 6.56c2.24.26 5.89.9 7.7 1.56q4.62 1.68 4.01 6.76-.7 5.84-2.04 10.21-5.13 16.82-10.28 33.69-1.38 4.51-4.98 6.3-2.12 1.05-6.01.56-36.13-4.59-57.96-7.24-7.19-.87-13.51-1.39a2.04 2.02 16.7 0 0-1.93 1.03c-2.41 4.29-3.95 8.43-6.03 12.8q-12.06 25.38-25.65 58.19a.52.51 37.4 0 0 .08.54q.17.19.54.24c3.87.6 7.82 1.39 11.19 1.82q30.9 3.87 61.61 8.13c7.94 1.11 10.5 4.67 8.17 12.6-1.69 5.76-4.59 16.47-6.61 22.14q-2.09 5.86-3.95 13.04-.52 2.01-6.77 21.22-1.72 5.26-6.9 5.48-5.45.23-13.5-.88-34.07-4.66-72.25-9.41a1.18 1.18 0 0 0-1.26.77q-11.71 32.68-21.12 62.27-3.65 11.46-6.56 23.12h-5.26q-.6-1.03-.14-2.58 19.21-64.31 43.82-126.89c3.21-8.17 6.16-14.69 9.17-22.4q2.93-7.52 6.91-16.76 12.37-28.8 13.43-31.11c35.47-77.44 72.83-146.44 120.31-211.99q17.19-23.73 43.53-54.53c3.44-4.03 5.71-5.96 8.47-9.29q2.79-3.37 6.33-7.01 9.93-10.21 17.17-18.38 3.66-4.14 9.82-12.15a.21.19 40.7 0 0-.03-.27.17.16 43.4 0 0-.21 0q-2.43 2.35-4.36 5a11.9 11.62-4.5 0 1-1.26 1.44q-4.16 4.01-7.5 7.86c-6.81 7.86-13.12 13.94-20.45 21.36-1.77 1.79-3.49 4.38-5.25 6.07q-3.34 3.2-17.44 19.26-18.19 20.71-23.38 27.35c-14.6 18.67-23.22 30.48-35.58 47.83q-6.42 9.02-13.39 19.65-37.38 56.95-70 117.56-2.8 5.22-21.54 42.22c-4.25 8.4-8.31 17.45-11.66 24.1q-5.63 11.2-8.64 18.11c-3.73 8.56-7.88 16.29-12.32 26.54q-22.89 52.91-31.9 76.92-8.99 23.96-16.98 45.72c-.79 2.14-1.16 4.19-1.61 6.37h-5.8q19.28-55.78 42.59-109.73c3.47-8.04 7.24-17.57 11.27-26.12q9.02-19.14 15.76-33.5 29.89-63.76 65.3-124.43 3.96-6.79 22.1-36.7c4.85-8.01 10.52-16.54 15.98-24.97q10.57-16.32 28.13-40.63 24.13-33.4 52.68-64.56 20.54-22.41 31.18-32.95c8.21-8.13 16.49-18.16 23.35-26.02 5.37-6.14 10.18-15.14 10.46-23.84.46-14.18-7.91-22.74-20.14-28.08a.13.13 0 0 0-.14.21q1.55 1.5 4.3 3.67c9.45 7.47 9.03 20.86 2.77 30.2q-7.63 11.36-18.24 20.38a7.2 7.15 78.3 0 0-2.2 3.37c-5.79 19.28-19.33 45.64-42.98 45.84q-8.14.07-15.07-2.07a2 1.99 32.2 0 0-1.96.44q-10.68 9.86-25.14 24.79-3.59 3.71-3.94 4.07-17.97 18.42-31.29 33.96c-7.36 8.59-20.71 24.28-29.49 35.45q-36.43 46.33-64.29 88.24-26.61 40.02-43.73 69.02-35.38 59.93-65.49 122.27-.57 1.18-10.54 22.37c-6.28 13.35-11.9 26.53-18.02 40.08q-5.06 11.2-11.64 29.24h-5.02q-.62-.7-.2-2.12.48-1.65 1.37-3.87 12.65-31.58 27.97-65.14a.54.54 0 0 0-.41-.76l-426.11-63.66a2.47 2.45 23.9 0 0-2.25.86L0 1449.06v-7.67q45.01-57.24 84.82-100.08 27.22-29.29 49.77-51.72 41.97-41.74 95.22-85.78 15.66-12.95 41.03-31.86a.73.72-53.2 0 0-.18-1.26l-5.75-2.12a3.13 3.11 37.2 0 0-2.87.38q-57.2 40.12-109.19 84.65-36.52 31.27-75.16 69.59c-9.97 9.88-19.67 19.78-28.6 28.97-16.09 16.58-34.12 36.61-47 51.18q-.93 1.05-2.09.4v-5.38q16.61-18.74 33.71-37.22c5.32-5.74 11.2-11.37 16.02-16.68 7.01-7.74 14.44-14.55 22.13-22.52q2.82-2.93 10.28-9.88c7.36-6.85 15.76-15.58 23.97-23.25q68.08-63.6 146.92-119.78 1.24-.88 2.79-2.34a.27.26 33.6 0 0-.09-.44l-27.09-9.97a3.02 3 38.4 0 0-2.68.3c-25.29 16.49-50.8 33.72-76.2 52.9q-23.4 17.67-33.49 25.55-29.15 22.73-61.08 50.6c-15.47 13.51-29.25 26.69-46.57 42.74q-2.43 2.25-5.33 5.58c-.95 1.08-2.12 1.54-3.29.58v-5.22q29.27-28.59 54.55-50.5 63.25-54.83 137.15-106.11 15.03-10.43 28.93-19.18a.45.45 0 0 0-.06-.79q-5.28-2.4-13.56-6.02-6.25-2.73-17.61-9.76-4.28-2.65-7.58-6.43-4.5-5.18-3.85-11.77.5-4.98 2.24-8.01 27.47-47.74 38.56-66.23.72-1.2 2.01-4.08a1.24 1.23-63.2 0 0-.51-1.57c-16.58-9.64-21.54-25.71-21.56-43.86-.02-16.94 5.05-33.48 16.97-45.59 9.74-9.9 22.24-16.44 35.64-20.81q13.14-4.29 25.47-5.93a.81.81 0 0 0 .57-1.26q-14.21-21.31-22.52-46.08c-2.87-8.55-3.76-14.01-6.16-23.75a1.65 1.65 0 0 0-1.35-1.24c-8.8-1.4-22.38-4.68-32.45-5.91q-12.98-1.59-30.49-2.5-5.58-.29-9.79-.07c-7.94.41-15.65-.08-24.42.57q-27.81 2.04-36.68 3.35c-13.49 1.98-24.99 3.32-36.61 5.67-10.58 2.14-19.93 3.75-30.75 6.46Q22.98 863.71 0 871.08v-5.49l28.46-8.92a.64.64 0 0 0 .28-1.05q-4.4-4.66-5.53-10.52c-1.03-5.36 1.66-11.13 7-13.54q5.25-2.37 11.2-.79a.59.58 83.4 0 0 .66-.84q-2.69-5.05-4.28-10.59c-1.47-5.13.06-11.85 5.09-14.32 7.06-3.47 14.25 2.54 19.07 7.16a.52.52 0 0 0 .88-.4q-.28-11.02 3.28-20.62 2.09-5.64 7.61-10.19c3.28-2.71 9.21-4.16 12.87-2.22 8.91 4.71 10.58 15.37 11.3 24.83a.43.43 0 0 0 .77.22c4.68-6.2 12.98-12.83 20.9-7.47 8.32 5.65 6.73 17.88 3.22 25.64a.62.62 0 0 0 .75.84c6.37-1.98 13.23-2.24 17.46 3.73q3.12 4.4 1.36 9.57a.66.66 0 0 0 .61.87q8.42.22 16.27-.52 5.35-.5 10.57-.48c6.51.02 10.17-.21 13.75.34q2.95.44 3.2.45c19.75.37 37.65 3.41 60.42 8.07a.34.33-87.6 0 0 .39-.37q-4.31-35.24 1.08-64.39 4.8-25.99 18.93-55.41c2.68-5.58 7.04-11.62 10.05-16.86a2.55 2.54 41.2 0 0-.19-2.8l-.94-1.23a1.18 1.18 0 0 0-1.84-.04q-3.53 4.22-8.49 7.64c-6.28 4.33-13.09 5.65-20.7 4.13q-6.72-1.34-9.76-2.72c-11.25-5.12-19.49-9.69-30.55-3.14a7.83 7.71 6.2 0 0-1.64 1.3c-8.34 8.53-15.7 16.79-25.31 17.93q-9.31 1.1-18.72-4.11-8.49-4.69-11.24-5.97-5.68-2.64-8.31-2.75-6.16-.28-12.63 2.78c-8.81 4.16-17.1 11.01-27.37 12.99q-22.39 4.32-36.58-14.18-3.92-5.12-5.76-8.03c-4.66-7.41-11.62-12.23-20.44-11.8-2.46.11-4.7.04-5.93 1.67q-13.98 18.36-24.3 33.7-3.1 4.61-4.75 6.24-1.29 1.27-2.17-.34v-5.1q18.12-26.93 38.28-52.45 19.95-25.26 44.25-44.97c15.59-12.64 35.31-23.03 55.33-26.54q37.11-6.5 69.76 14.66 15.16 9.82 28.71 23.02 25.19 24.52 44.79 53.93a.48.47-44.1 0 0 .78.01c20.02-27.75 47.69-50.4 79.94-62.06q10.55-3.82 19.52-5.75a.83.83 0 0 0 .65-.8c.37-18.22.73-35.13-2.25-52.51-2.63-15.28-4.78-26.33-9.29-38.97q-1.77-4.97-5.86-7.45c-7.09-4.28-10.76-9.56-10.78-18.61q-.02-12.31.06-14.29.4-8.86 2.48-12.62c4.43-7.98 12.22-12.19 20.87-14.85q15.28-4.7 34.02-6.39 15.99-1.44 27.48-1.35 8.75.06 23.53 1.66c16.18 1.74 31.49 3.97 46.35 9.73q5.02 1.95 10.08 5.17c9.31 5.92 10.8 13.85 10.22 25.14q-.62 11.95-1.28 16.7-.64 4.54-4.82 9.24c-2.27 2.56-6.18 3.9-8.18 6.63q-2.89 3.95-3.9 7.74a.32.32 0 0 0 .43.38q4.72-1.97 15.97-5.69 8.46-2.81 16.41-4.23 29.49-5.28 49.71-5.19 35.19.15 68.56 6.7 22.72 4.47 46.83 13.93 27.45 10.78 61.87 26.87 1.29.61 3.97 2.17a.37.37 0 0 0 .55-.39q-2.5-12.04 1.2-22.7a.54.52 15.1 0 0-.41-.69c-3.67-.69-9.67-1.46-13.72-2.82q-21.07-7.06-32.76-25.69c-9.85-15.71-13.25-35.73-7.98-53.5 4.65-15.7 16.81-30.63 33.21-34.58a.6.59 73.9 0 0 .42-.77c-10.61-31.39 5.07-66 37.38-75.65 6.08-1.81 13.71-1.42 19.92-.9a.36.36 0 0 0 .38-.43q-.7-3.18-.62-6.59.39-17.89 10.89-31.85c13.17-17.53 33.2-26.6 54.85-26.93q5.74-.09 14.33 1.77c16.82 3.62 32.56 16.71 37.79 33.61q1.39 4.5 2.11 8.78a.79.79 0 0 0 1.08.6q7.16-2.9 14.83-1.6 20.13 3.42 30.87 20.55 12.08 19.29 6.7 41.33-1.03 4.23-3.57 8.54a.5.49 24 0 0 .28.72c4.2 1.3 7.76 2.24 10.89 4.05 25.87 14.94 30.83 51.74 12.14 74.32a1.31 1.31 0 0 0 .38 1.98c10.13 5.57 16.17 16.31 18.37 27.36m-153.03 41.39q4.32-30.01 10.21-57.66 1.43-6.68 3.34-14.45.47-1.91 2.76-1.75 9.73.68 14.15 1.62 2.21.47 2.34 2.65c.46 7.77-.67 15.58-.71 23.67q-.11 22.73-.04 57.48c.01 6.77.75 12.85 1.11 19.3a.27.27 0 0 0 .49.14c11.19-16.14 21.31-28.23 36.51-46.19q2-2.37 3.98-.72 5.66 4.72 12.59 10.48a.97.95-53.4 0 1 .18 1.28q-6.12 9.2-10.65 16.26-9.16 14.28-16.99 33.74-5.27 13.12-7.33 25.4a1.35 1.34-82.2 0 0 1.18 1.57q22.67 2.4 39.78-12.05c6.78-5.73 12.8-13.98 13.1-22.87q.14-4.02.01-10.19a1.22 1.22 0 0 1 1.06-1.23q9.7-1.19 17.69-7.48c16-12.59 24.25-32.55 23.14-52.81q-1.02-18.79-14.94-29.59c-2.49-1.93-5.46-2.63-7.41-4.02a1.56 1.55 42.1 0 1-.13-2.43c7.81-6.87 12.97-16.84 13.72-27.32 1.02-14.18-1.84-26.21-11.76-36.52-4.45-4.62-10.66-8.59-17.13-9.39q-3.17-.39-6.06-.93a1.33 1.33 0 0 1-.93-1.92q3.16-6.09 5.14-13.86c4.72-18.54-1.65-38.21-17.04-48.94q-4.24-2.96-11.48-4.97c-8.35-2.33-14.29-.28-21.88 2.64a2.54 2.3 56.7 0 1-2.62-.68q-.3-.31-.26-1.14c1.03-21.92-16.43-39.72-37.02-43.35q-26-4.58-47.18 9.48-18.12 12.03-23.02 32.87c-1.13 4.82-1.38 12.12.22 18.04q.72 2.65.74 4.66a1.93 1.93 0 0 1-2.75 1.77c-1.92-.9-3.46-1.61-5.62-1.97q-18.97-3.24-33.97 8.51-11.56 9.06-16.28 22.2c-5.12 14.28-5 29.7 1.73 43.28a1.06 1.06 0 0 1-.73 1.51l-8.67 1.81a7.41 6.98-60.8 0 0-1.27.4q-16.52 7.12-23.22 23.94-9.12 22.9 1.14 46.58 10.79 24.88 37.22 32.09c4.84 1.32 10.8 1.27 15.98 1.41a1.58 1.57 16.2 0 1 1.31 2.38q-7.05 11.88-3.63 25.66c.76 3.1 1.39 5.55 3.94 6.78q18.75 9.01 33.74 18.97c10.56 7.03 19.53 16.58 22.28 29.69a1.58 1.56 85.6 0 0 1.44 1.25q8.27.5 15.43-.75a1.31 1.31 0 0 0 1.09-1.3c-.15-34.48-9.82-67.77-26.56-97.58q-3.63-6.46-6.72-10.78a1.36 1.35-41.5 0 1 .11-1.7l11.36-12.29a1.48 1.47 46.7 0 1 2.23.07q6.1 7.52 11.5 15.97 10.36 16.2 19.39 33.39a.36.36 0 0 0 .67-.11m-506.19-36.11a1.61 1.6-40.2 0 0 1.95.16c3.54-2.29 7.42-4.32 11.73-5.54q18.86-5.34 39.25-6.25 6.41-.28 21.62-.17c19.97.15 38.44 2.31 57.95 7.53q8.3 2.21 17.26 7.02c4.9 2.63 7.2-6.25 7.35-9.41q.36-7.24.47-19.06c.05-6.13-1.46-9.77-6.25-12.83-7.61-4.86-15.13-7.29-24.08-9.43q-24.11-5.77-51.26-5.87-19.09-.06-26.19.47-12.86.98-29.95 4.77-3.63.81-11.53 3.98-7.21 2.9-10.61 8.4-1.31 2.13-1.64 6.29-.97 12.17-.75 19.39.2 6.5 4.68 10.55m504.96 250.67q2.1-9.25 6.08-14.1c6.86-8.34 16.75-11.15 26.45-5.73a.37.37 0 0 0 .55-.29q.09-1.18.12-5.79.07-13.25 7.22-25.36 2.25-3.81 2.21-5.14-.43-15.57.04-26.52.38-8.67.65-21.48.21-10.08 1.34-21.51c1.69-17.14 5.38-33.59 12.22-49.11q7.67-17.41 17.06-31.99 6.75-10.48 6.93-11.06a1.24 1.23-61.4 0 0-.37-1.29l-5.79-5.03a.4.4 0 0 0-.56.04q-23.32 25.9-42.2 55.25a1.45 1.31-50.9 0 1-2.15.33q-.37-.39-.62-1.61c-1.25-6.07-1-12.36-.95-19.28q.02-4.24-.73-12.97-.28-3.35-.27-17.77 0-5.85.03-30.59c.01-10.09 1.35-21.21.91-29.76a1.38 1.38 0 0 0-1.28-1.31l-6.73-.5a.91.91 0 0 0-.94.68c-2.24 8.86-3.76 18.36-6.06 28.87q-1.41 6.48-2.14 11.16-2.94 19.04-5.74 39.95-.24 1.77-1.05 3.2a.89.89 0 0 1-1.57-.04q-15.03-29.51-33.22-56.83a1.51 1.5 50.9 0 0-2.3-.24l-3.66 3.56a2.55 2.54 52.5 0 0-.41 3.13c18.36 30.48 29.14 62.13 31.74 96.97q2.26 30.45 1.2 52.25-.69 14.33-.74 15.52-.48 13.24-2.59 33.84c-.96 9.33-3.15 19.21-4.7 29.43-.55 3.65-1.7 7.9-2.27 10.78a1.32 1.31-72.8 0 0 .77 1.47c5.81 2.47 8.66 4.86 12.82 9.07a.42.41-60.8 0 0 .7-.2M388.46 632.23c8.65-.98 19.31-2.44 29.2-2.06q28.17 1.08 52.43 11.51.89.38 10.79 4.69 1.62.71 3.49.55a.58.57-2.8 0 0 .52-.57c-.1-13.76 1.54-22.92 4.18-41.18 1.77-12.27 5.39-26.85 7.59-35.28q4.99-19.12 13.38-35.36a.94.94 0 0 0-.49-1.3c-6.84-2.72-11.37-4.56-17.91-6.13q-22.92-5.5-50.89-6.05-22.46-.44-38.09 1.46c-10.28 1.25-20.88 3.62-29.84 7.22a1.17 1.17 0 0 0-.55 1.7q2.96 4.69 4.63 9.69 3.56 10.68 4.87 16.35 7.01 30.22 6.93 60.28-.02 6.96-.81 13.91a.52.52 0 0 0 .57.57m110.71-44.62q17.82-6.28 34.65-9.46c10.62-2 25.68-3.52 35.93-4.01q2.84-.13 22.5-.19c17.08-.06 34.95 1.89 51.45 4.9 27.29 4.96 53.65 14.89 77.36 31.71 5.59 3.97 8.93 6.75 13.88 7.51a2.75 2.74-72.2 0 0 2.88-1.49q1.62-3.25 1.94-7.34c1.28-16.22-6.8-33.78-20.99-42.5-10.66-6.55-23.09-11.34-35.35-14.85-40.62-11.66-86.38-15.14-126.94-9.21q-25.62 3.75-47.97 13.68a1.99 1.92-82.6 0 0-.81.65q-1.07 1.44-1.83 3.87-3.94 12.6-7 26.46a.23.23 0 0 0 .3.27m234.03-16.26c1.36 2 3.65 4.18 5.11 6.66 6.39 10.89 9.73 24.72 6.8 36.88q-.65 2.73-1.91 4.83a.78.78 0 0 0 .42 1.14q9.78 3.28 12.12 4.17c19.43 7.4 46.69 18.31 69.14 29.54 3.72 1.86 6.08 2.22 8.7-1.25q1.47-1.94 1.6-4.34c.29-5.53.43-11.34-1.58-16.1-4.6-10.92-13.85-18.65-24.05-24.65-24.23-14.23-50.82-26.59-76.02-37.28a.27.27 0 0 0-.33.4m-44.93 304.61 15.84 1.16a.63.63 0 0 0 .68-.61c.92-23.55 2.86-49.13 4.27-76.03q1.66-31.68 3.43-64.23.51-9.51 1-18.76 1.47-28.05 3.28-58.43.29-4.85.25-7.12c-.09-6.12.81-12.66.97-17.77q.29-9.42.72-14.96c.15-1.94-.61-3.04-1.96-4.08q-5.22-4.02-12.14-7.99c-27.88-15.95-60.07-24.16-92.13-25.82-22.61-1.17-45.76-1.05-68.52 1.74-16.25 1.99-31.45 5.99-45.73 11.73a1.82 1.8 87.1 0 0-1.08 1.21q-.69 2.53-1.32 6.53-1.72 10.99-3.13 21.97-1.73 13.49-1.74 21.78a2.14 2.13 8.8 0 0 1.51 2.05l4.61 1.41a1.34 1.34 0 0 0 1.73-1.26q.15-8.06 1.87-17.28c1.56-8.36 6.51-18.49 12.22-24.53 15.91-16.81 40.29-20.71 60.14-8.11 7.53 4.77 14.53 13.61 17.68 21.71q4 10.24 4.32 21.73.36 12.83-.54 24.45a1.13 1.12 6.1 0 0 .98 1.21q28.79 3.71 52.06 20.65c17.59 12.8 31.31 32.46 39.81 52.58q9.34 22.07 11.73 44.09c2.39 21.9 1.47 46.12-4.35 68.1q-3.45 12.99-7.01 22.01a.64.64 0 0 0 .55.87M587.29 668.8a.95.93-.8 0 0 .83-.84q1.41-13.97.6-27.87c-.24-4.03-1.35-10.29-2.37-13.64-4.69-15.38-16.46-26.47-32.63-28.39q-19.27-2.28-33.06 9.66c-12.59 10.89-15.39 27.22-15.77 43.02a.93.92-82.2 0 0 .69.92q22.42 5.83 47.46 11.01 17.42 3.6 26.25 5.57 4.38.97 8 .56M36.66 692.65q14.31.34 22.85 11.55.02.03 7.7 10.61 8.85 12.17 22.9 12.85c7.01.34 14.33-1.58 20.6-5.19 13.36-7.69 24.86-16.52 40.5-7.69q1.17.67 10.34 5.88 11.81 6.71 22.73 1.01c4.52-2.36 9.36-7.57 12.81-11.19q10.81-11.31 25.75-8.14c7.08 1.5 15.3 6.88 22.18 8.21 10.92 2.1 20.27-2.57 26.77-10.98a1.55 1.55 0 0 0 .06-1.82c-10.3-15.21-22.48-29.22-35.32-42.34-8.67-8.85-19.52-17.75-29.07-24.36-15.6-10.81-34.92-17.65-54.16-16.98q-15.57.55-28.55 4.98c-19.14 6.53-36.4 18.45-50.94 32.01q-20.36 19-37.26 41.36a.14.14 0 0 0 .11.23m688.08-71.1q-.3 2.02-1.36 26.32-.93 21.26-1.2 26.35c-.85 16.52-1.07 28-2.07 41.7q-.99 13.48-1.91 32.08-2.87 57.78-7.45 128.76a1.08 1.07-88.8 0 0 1.09 1.14q3.96-.09 6.91-.44 27.2-3.28 46.65-4.82c11.96-.95 23.81-1.48 34.71 1.08a.57.56 8 0 0 .7-.52q.42-9.62 1.3-22.95 2.46-36.93 8.32-114.01 4.39-57.84 5.45-71.36.35-4.48 0-6.91a.98.96-80.3 0 0-.5-.72q-7.13-3.97-16.21-7.89c-21.95-9.47-46.06-19.33-69.49-26.23-1.71-.5-3-1.69-4.17-2.06a.6.59-76.4 0 0-.77.48M311.93 949.81c20.5 16.5 45.25 27.8 71.29 30.46 24.55 2.51 48.57-.29 71.34-9.68q56.86-23.47 82.57-79.66 9.18-20.08 13.32-39.67 9.24-43.75 1.2-87.96c-6.63-36.38-24.68-71.51-52.56-95.65q-32.55-28.2-76.37-30.6-23.07-1.26-43.91 3.86c-41.53 10.21-76.73 38.67-98.96 74.83-5.18 8.43-9.18 16.81-13.3 26.28q-7.53 17.31-11.07 36.23-8.49 45.37 3.16 87.57 5.96 21.55 15.74 38.89c9.6 17.01 22.26 32.79 37.55 45.1M819.4 810.69a.47.46-76.6 0 0 .71-.44q-1.11-11.16.86-18.7c3.42-13.05 12.79-23.46 27.23-23.99a2.05 2.04-85.5 0 0 1.93-1.66q3.52-17.96 6.02-35.42 1.74-12.26 2.9-37.64c.29-6.27.97-11.22.96-16.34q-.04-12.54.04-27.5.01-3.15-.36-6.19a.59.58-9.6 0 0-.7-.49q-8.26 1.76-16.39.86a.42.42 0 0 0-.46.39c-.46 6.94-1.23 13.66-7.71 17.58q-3.7 2.22-8.06 1.25-3.16-.71-3.73-1.06a.35.35 0 0 0-.54.27l-10.73 145.8a.97.96-87.5 0 0 .94 1.04q3.7.08 7.09 2.24M495.3 656.03a.32.32 0 0 0-.13.58q4.93 3.36 9.43 7.51 29.8 27.52 44 65.49 8.51 22.74 11.04 44.4 2.43 20.88 2.4 26.55-.2 29.56-6.23 55.35-2.74 11.74-9.44 29.14-3.03 7.88-6.74 14.71c-5.95 10.97-11.77 20.69-19.43 30.3-2.64 3.32-6.46 6.46-8.3 9.32a.46.46 0 0 0 .39.71c4.45-.1 11.38-2.45 20.08-4.7q8.24-2.12 63.85-13.45c5.75-1.17 8.7-7.46 11.88-12.11q9.29-13.63 15.48-29.22 9.82-24.7 12.71-50.97.75-6.83.78-17.8.03-14.14-.2-17.83-2.71-42.99-22.59-78.04-8.92-15.74-24.39-30.64c-4.28-4.13-9.55-7.76-14.48-11.08a10.36 10.33 68 0 0-3.64-1.55q-23.51-4.98-46.93-10.21c-9.67-2.16-18.86-4.78-28.03-6.33q-1.11-.19-1.51-.13m92.1 19.57q29.24 24.49 42.93 60.58 8.21 21.65 11.1 43.34 2.17 16.23 1.57 37.54c-.46 16.47-3.52 33.79-8.04 49.16q-4.88 16.62-14.95 35.31-4.89 9.08-11.89 17.41a.33.32 16.6 0 0 .29.53q7.95-.84 20.39-3.47 3.38-.71 5.31-1.83a3.35 3.29 4.3 0 0 .9-.76q1.42-1.76 2.26-4.38c5.14-15.95 12.08-28.96 30.19-31.59q7.23-1.05 12.25-1.41a1.38 1.37 9.5 0 0 1.17-.83q4.43-10.34 7.22-20.62c6.27-23.14 7.62-48.25 4.53-71.18-5.7-42.28-28.2-84.34-69-101.74-4.12-1.76-10.97-3.81-15.54-5.27q-3.36-1.06-11.25-2.4a3.75 3.62-47.5 0 0-1.65.1c-2.96.89-4.23 2.12-7.52 1.03a.28.28 0 0 0-.27.48m399.39 121.45a1.56 1.56 0 0 1-.65-2.29q1.93-2.93 5.58-7.77 1.95-2.57 4.8-9.71 3.03-7.6 1.56-16.12c-1.41-8.19-9.74-13.57-17.82-11.98q-9.19 1.81-14.39 8.36a1.18 1.18 0 0 1-1.18.42c-2.11-.49-2.09-2.85-1.33-4.88q2-5.32 1.82-13.14-.18-7.37-3.45-12.69-5.45-8.82-14.61-11.32-11.82-3.24-21.34 2.04c-11.5 6.36-17.09 20.53-17.9 33.53q-.34 5.36 1.05 13.55.23 1.33-.11 2.18a1.47 1.47 0 0 1-2.38.51q-3.12-3-4.35-4.02c-4.48-3.74-11.63-5.41-16.89-2.01-8.91 5.76-11.62 16.75-11.03 27.04q.1 1.66-.94 2.86a.97.97 0 0 1-1.44.03q-.83-.89-1.32-1.85c-4.88-9.51-10.92-17.16-22.67-16.89-14.61.33-21.34 13.86-22.75 26.44-.93 8.3 1.85 17.03 6.02 24.55q1.31 2.37 3.93 2.25 14.29-.6 25.58-1.55 7.81-.66 13.86-.62c12.64.1 23.57-.87 34.73-.35q4.08.19 20.89.36 4.51.05 11.34.65 2.75.24 11.34.73 15.07.87 39.53 3.51 2.7.29 5.23-.82 8.35-3.69 13.33-11.21c3.23-4.89 5.67-11.94 3.32-17.25-3.12-7.03-12.43-8.98-18.98-5.84q-4.83 2.31-5.81 2.83-1.67.87-2.57.47M94.15 822.01a1.92 1.91 3.3 0 1-1.95-2.18q1.58-10.96.39-22.27c-.69-6.52-4.63-17.54-13.05-14.78-3.96 1.3-7.69 5.81-9.33 10.43-2.4 6.8-3.91 14.64-2.87 21.67.46 3.12 1.59 8.06.66 9.89a1.19 1.19 0 0 1-2.11.02q-4.77-8.89-13-14.43-1.91-1.28-4.91-1.58c-7.89-.79-6.49 9.04-4.64 13.43q3.22 7.64 8.18 13.98a1.77 1.76 52.3 0 1-.31 2.49q-.71.54-1.58.02-6.86-4.11-13.6-3.65c-4.43.31-8.14 2.09-8.17 7.02-.02 4.74 1.91 7.95 4.99 11.44q1.77 2 4.86 1.19c31.63-8.24 65.12-13.8 98.05-16.86q1.94-.18 2.25-2.32c.59-4.08-1.01-8.33-5.1-9.37-4.74-1.21-11.02 1.88-14.54 4.96-.92.8-2.44 1.38-3.34 1.13a1.3 1.29 22 0 1-.8-1.86c3.98-7.37 11.68-24.56 2.7-30.28-3.78-2.41-8.53-.12-11.45 2.65-5.09 4.83-7.67 11.14-9.92 18.02q-.39 1.21-1.41 1.24m733.46 4.5c-2.44-1.61-3.98-7.65-6.73-9.86q-3.63-2.92-9.05-2.72a.92.92 0 0 0-.88.83l-1.28 13.52a.56.56 0 0 0 .63.61l17.22-2.03a.19.19 0 0 0 .09-.35m-12.4 119.26q.35-1.12.51-3.03 1.25-15.05 1.55-31.74.16-8.9-.66-12.08c-4.86-19.01-20.73-21.53-37.62-20.85-23.55.94-50.54 4.09-70.48 6.7-17.55 2.3-33.07 6.84-41.66 23.57-4.46 8.68-6.55 17.44-8.42 26.76a.34.34 0 0 0 .58.31c12-11.84 29.89-16.51 45.18-8.06 13.4 7.41 18.95 24.55 22.28 38.37a.21.21 0 0 0 .42-.02q3.49-25.09 16.87-46.64c9.09-14.63 22.23-23.25 39.95-20.32q8.39 1.39 14.41 7.44 4.22 4.24 5.73 6.7c6.3 10.2 9.13 21.52 10.75 32.84a.31.31 0 0 0 .61.05m-124.36-63.15a.34.34 0 0 0-.17-.63q-10.98-.25-22.06 1.17c-13.02 1.68-20.31 10.3-23.9 22.07-2.41 7.92-4.54 14.67-13.45 16.35q-36.74 6.95-69.62 13.63-20.16 4.09-28.57 6.16-5 1.23-8.83 2.65a.33.32 39.9 0 0 .06.62q16.68 3.2 26.99 15.83c8.25 10.12 9.95 22.34 9.05 34.98a.58.58 0 0 0 1.09.33c2.39-4.19 5.78-7.44 9.34-10.8q12.62-11.93 30.21-10.79c4.12.26 7.23-.27 10.89-1.31q12.94-3.66 26.07-6.65 2.76-.63 3.52-2.33 3.58-8.07 8.21-16.69 1.14-2.14 1.61-5.4c3.43-24.12 10.6-49.63 36.07-58.34 1.19-.4 2.73-.4 3.49-.85m78.97 22.51c-13.39 4.36-21.69 15.37-27.35 28.09-7.61 17.12-11.11 36.43-12.13 55.27a1.14 1.13 77.8 0 0 1.65 1.07l3.88-2.01a3.36 3.35 78.2 0 0 1.81-2.77q1.84-29.04 13.89-54.73 5.27-11.24 14.23-21.04c1.45-1.58 3.08-2.22 4.28-3.47a.25.25 0 0 0-.26-.41m-26.8 78.2a.81.8-18.1 0 0 1.17.59q10.13-5.27 18.81-7.84a1.17 1.17 0 0 0 .83-.88c1.78-7.83 4.3-15.09 9.77-20.79 2.7-2.82 7.56-4.63 11.36-2.59 4.71 2.52 7.97 9.95 8.86 15.13q3.13 18.21-3.97 35.09c-2.87 6.81-10.15 16.73-18.75 11.11-3.84-2.51-5.95-7.51-7.6-11.66a.37.36-23.2 0 0-.49-.19l-18.51 8.96a2.7 2.69 75.6 0 0-1.52 2.58q1.13 20.86 11.26 38.85c4.44 7.9 14.2 11.84 22.49 7.27 12.2-6.72 19.84-22.14 24.24-34.97q12.83-37.43 7.71-76.85c-1.42-10.96-4.35-21.35-9.23-30.06-2.51-4.47-8.72-10.77-14.59-11.19q-5.04-.35-7.39.87c-6.57 3.41-11.36 7.79-15.4 14.21q-5.51 8.79-8.88 17.47-7.94 20.45-10.15 42.56-.14 1.48-.02 2.33m-391.72-3.95a.23.23 0 0 0 .1-.45q-23.7-8.29-43.16-24.19-14.34-11.72-25.49-26.18a.93.91 67.4 0 0-.83-.35c-11.47 1.29-23.63 4.15-33.75 7.86-12.98 4.75-26.86 13.61-34.15 25.17q-5.56 8.82-7.51 18.36-3.02 14.82-.17 29.98c1.84 9.73 7.97 19.49 16.98 23.65q2.26 1.04 5.6 2.26a1.57 1.57 0 0 1 .81 2.28q-18.54 31.21-39.17 67.28-4.65 8.13-5.71 11.04c-2.22 6.04.59 10.65 5.43 13.92 15.72 10.62 33.51 17.79 52.61 24.98 16.28 6.13 34.89 11.27 50.58 15.03q27.89 6.7 66.82 9.71c5.19.4 8.77.09 13.05.6 9.88 1.18 17.32.68 34.75.69q5.1 0 11.32-.61 1.78-.17 11.36-.6 9.83-.45 34.98-3.56c13.96-1.73 25.9-4.13 24.43-21.78q-1.91-22.9-7.83-88.31c-.26-2.82.04-4.5 2.97-4.91a1.16 1.14-22.9 0 1 1.08.43q1.84 2.38 2.03 4.84 2.47 33.32 5.57 64.72.94 9.53 1.6 18.48c.59 8.19 1.28 13.41-2.75 19.48a.36.36 0 0 0 .43.54q14.01-5.24 24.84-10.34 10.02-4.71 8.7-15.41-2.26-18.24-8.98-61.41c-1.71-10.97-3.42-19.41-4.88-30.13a.43.42 71 0 0-.63-.31c-12.99 7.35-26.59 8.45-39.21.86-3.54-2.12-5.41-2.43-9.37-2.73q-38.91-2.99-130.17-11.92c-20.85-2.04-48.51-4.51-72.38-7.01q-5.55-.58-9.82.31c-5.43 1.12-9.6 1.83-14.82.6q-16.49-3.88-23.74-19.3-6.62-14.06-3.01-29.58c3.51-15.08 14.46-28.49 30.44-30.92 15.01-2.29 26.32 6.51 33.51 18.88a1.65 1.63-12 0 0 1.27.81zm328.43-49.12c-7.47 2.12-12.93 5.47-18.53 11.86-12.53 14.29-18.42 33.6-22.16 51.98-2.75 13.46-2.36 25.67-.2 38.93a.88.88 0 0 0 1.27.64l2.75-1.43a1.85 1.84-16.7 0 0 .99-1.83q-.41-4.08.03-11.53c.58-9.94 2.25-20.52 3.96-28.43q4.1-18.91 13.07-36.32 4.22-8.21 10.34-15.48 2.18-2.59 4.13-4.16 2.03-1.63 4.67-3.58a.37.37 0 0 0-.32-.65m-29.56 98.5 20.32-9.83a.88.86 79.2 0 0 .49-.74c.53-11.04 3.54-24.35 10.55-33.15 3.11-3.92 9.14-7.62 13.89-5.14 7.85 4.09 10.1 11.98 11.01 20.2a1.14 1.13-16.2 0 0 1.63.89l14.22-6.87a1.23 1.22-11.8 0 0 .69-1.05q1.03-23.88-8.74-45.05c-4.37-9.47-14.62-20.94-26.13-15.68-6.52 2.98-11.32 6.94-15.77 13.03q-7.23 9.9-11.67 21.31-11.49 29.53-11.77 61.27a.89.89 0 0 0 1.28.81M420.9 985.67q6.15 1.15 12.8 1.69 15.57 1.27 26.76 2.32a1.18 1.17 23.5 0 0 .97-.38q4.13-4.61 6.95-7.41c8.67-8.62 21.58-12.24 33.37-9.72 11.6 2.48 22.02 12.13 26.21 23.05a1.01 1.01 0 0 0 .86.64l24.64 1.81a.56.56 0 0 0 .61-.54c.78-17.68-1.96-33.1-18.79-42.18-7.54-4.07-15.48-5.65-23.98-6.55-4.74-.5-8.15-.46-11.6 2.29-12.95 10.33-27.14 19.49-42.68 25.41-12.67 4.82-23.13 8.13-36.11 9.24a.17.17 0 0 0-.01.33m353.23 23.8c3.63 2.62 8.66-3 10.14-6.03q7.56-15.36 5.36-33.52c-.46-3.77-2.41-12.11-6.18-13.63q-3.84-1.55-7.02 1.64c-4.76 4.79-6.6 10.78-8.1 17.35q-.65 2.86.16 4.5 2.54 5.19 2.05 10.19c-.23 2.29-2.45 5.31-2.49 8.05-.05 4.47 2.41 8.8 6.08 11.45m-528.163-51.015a34.27 28.63-85.1 0 0-31.452 31.7 34.27 28.63-85.1 0 0 25.598 36.59 34.27 28.63-85.1 0 0 31.452-31.7 34.27 28.63-85.1 0 0-25.598-36.59M823.9 974.39l-5.24-5.37a.8.8 0 0 0-1.38.49l-.35 4.26a1.14 1.13-87.4 0 0 1.11 1.22l5.55.11a.42.42 0 0 0 .31-.71m-192.12 25.98q1.66-12.42 6.26-26.87a.82.82 0 0 0-.99-1.04l-21.7 5.62a.34.33-34.7 0 0-.11.6q9.44 6.43 14.1 17.17 1.31 3.04 2.06 4.58a.2.2 0 0 0 .38-.06m-135.049-22.49a37.29 32.8-83.5 0 0-36.81 33.337 37.29 32.8-83.5 0 0 28.368 40.763 37.29 32.8-83.5 0 0 36.81-33.337 37.29 32.8-83.5 0 0-28.368-40.763M264.1 1025.53l197.84 18.78a.56.55 75.5 0 0 .51-.87c-1.73-2.5-4.29-6.09-5.58-9.5q-7.24-19.12.79-37.82a.58.57 13.7 0 0-.49-.8q-17.42-1.43-26.68-2.22-65.52-5.58-154.04-15.11a.29.29 0 0 0-.3.4c5.1 13.08.53 33.02-8.94 42.93q-.26.26-3.39 3.43a.46.46 0 0 0 .28.78m552.03-44.99-2.03 17.5a.71.7-84.9 0 0 .65.78l5.43.4a2.44 2.43-69.8 0 0 2.15-1q5.09-7.07 4.68-16.15a1.75 1.74.9 0 0-1.61-1.66l-8.38-.61a.84.83-84.6 0 0-.89.74m-241.48 168.18c-7.93-7.14-13.17-18.27-15.7-27.68q-.68-2.52-2.26-10.43c-6.04-30.23-2.69-60.66 7.27-88.9 5.27-14.98 13.03-29.13 25.17-39.66a.39.39 0 0 0-.38-.66q-13.57 4.72-21.37 16.57c-3.07 4.64-5.39 8.56-7.71 13.69q-10.77 23.83-13.13 50.11c-1.39 15.32-1.28 30.55 1.03 45.13q.86 5.45 1.99 9.34c4.24 14.61 9.16 27.65 24.97 32.7a.12.12 0 0 0 .12-.21m57.73-82.2q-6.29 3.31-13.96 7.13-1.93.96-2.52 2.51c-1.45 3.82-2.62 8.73-4.62 11.91-2.68 4.29-6.61 9.82-11.57 10.84-8.38 1.71-13.44-6.39-15.54-13.43-2.33-7.8-2.67-17.09-1.44-24.99 1.18-7.62 3.62-16.48 8.44-22.8 10.45-13.69 21.42-5.81 24.43 7.43a.63.63 0 0 0 .91.42l15.12-7.83a2.19 2.19 0 0 0 1.17-2.18c-.83-7.62-1.51-16.31-4.06-24.38q-2.33-7.36-3.33-9.79c-2.8-6.82-9.07-16.1-15.94-18.45-11.91-4.08-22.38 6.06-28.48 15.6-7.74 12.1-12.49 25.27-16.4 39.24q-1.81 6.45-3.15 15.24-5.01 32.82 1.19 60.65c2.27 10.19 6.13 21.41 13.91 29.34 13.18 13.47 29.15.61 36.8-11.43q7.02-11.03 11.36-24.04 3.29-9.85 5.95-23.4c1.12-5.69 1.2-11.91 2.21-17.23a.33.33 0 0 0-.48-.36m-18.82 2.49 1.77-.4a.39.24 13.3 0 0 .09-.03c48.05-24.56 96.33-48.57 144.87-72.29q2.19-1.07 3.34-3.55 2.25-4.91.14-9.27a2.17 2.17 0 0 0-2.76-1.08c-6.56 2.58-13.13 6.2-19.85 9.35q-19.49 9.16-36.09 17.03c-16.76 7.96-32.99 15.96-48.62 23.46q-11.26 5.4-19.82 9.76-17.29 8.81-19.77 9.87c-5.85 2.51-6.7 11.03-4.83 16.3a1.32 1.32 0 0 0 1.53.85m62.96-53.1 25.07-12.12a1.01 1-16.1 0 0 .56-1c-.58-6.17-1.37-10.5-4.75-15.36-5.57-7.99-12.18-.83-15.09 4.69q-5.59 10.61-6.4 23.38a.43.42 78.6 0 0 .61.41m-145.68-14.1a.63.63 0 0 0-.67.8c1.79 6.48 1.6 11.57.87 18.54q-1.32 12.6-10.79 23.82-1.53 1.82-1.38 4.03.48 7.24 2.12 14.14a1.42 1.41-6.7 0 0 1.38 1.08q9.07-.01 16.86-4.81a3.46 3.45-12.9 0 0 1.61-2.56q1.45-13.48 6.28-29.47c2.26-7.5 6.55-15.01 5.84-22.67a.99.99 0 0 0-.89-.89zm282.5 1.89-1.78 5.84a.58.57 73.5 0 0 .99.54l4.65-5.54a.33.32 24.5 0 0-.2-.53l-3.37-.49a.27.27 0 0 0-.29.18m-57.94 56.69q-.27-.43-1.92-1.92c-3.6-3.26-6.64-8.84-8.23-12.71q-6.09-14.75-7.33-30.79a.88.88 0 0 0-1.28-.71l-4.57 2.37a1.91 1.91 0 0 0-1 2.01q1.68 9.75 2.78 14.32 2.64 10.92 8.6 19.27 4.8 6.71 12.53 8.74a.39.38 81.2 0 0 .42-.58m-33.07-39.23-15.77 8.17a2.97 2.96 86.1 0 0-1.43 1.65q-.35.98-1.86 5.79-1 3.18-4.31 9.46-3.1 5.87-9.32 7.98c-6.61 2.24-12.01-2.87-14.55-8.5a1.03 1.03 0 0 0-1.41-.49l-21.57 11.18a1.98 1.97-18.4 0 0-1.04 2.07c1.9 11.64 5.09 23.84 11.57 33.67 5.8 8.8 15.45 14.13 25.5 8.5 10.01-5.6 17.12-16.28 21.77-26.73q10.98-24.63 13.25-52.2a.57.57 0 0 0-.83-.55m-22.78 11.54-19.71 9.53a1.17 1.16 63.3 0 0-.52 1.59c8.64 16.44 18.47-3.41 20.61-10.81a.27.27 0 0 0-.38-.31m28.026 2.394a2.1.96-98.6 0 0-.635 2.22 2.1.96-98.6 0 0 1.263 1.932 2.1.96-98.6 0 0 .635-2.22 2.1.96-98.6 0 0-1.263-1.932M610.62 1074.34c-6.33-5.9-7.17-14.06-2.71-21.57q2.35-3.96 2.37-3.98c1.77-2.18-.58-7.45-1.85-9.48-5.31-8.46-12.93-1.58-15.73 4.4-6.06 12.94-7.97 28.79-3.2 42.27 1.7 4.79 4.72 9.71 10.18 7.9 5.67-1.88 10.07-12.94 11.29-18.41a1.2 1.18 28.2 0 0-.35-1.13m127.3-17.32-6.71-12.19a1.24 1.19 84.1 0 0-.67-.57q-1.3-.45-3.47-.28a.91.9-83.8 0 0-.79.64l-3.09 10.1a1.16 1.16 0 0 0 1 1.49l13.42 1.28a.32.32 0 0 0 .31-.47m63.29 7.53 19.25 1.41a1.65 1.64-77.7 0 0 1.66-1.07l5.01-13.6a1.48 1.47-75.5 0 0-1.15-1.96q-3.7-.58-8.31-.52c-2.01.03-3.53 1.39-4.69 2.68q-9.46 10.46-11.8 12.98a.05.05 0 0 0 .03.08m-136.4 38.07q-6.7-6.32-10.36-14.29-4.29-9.34-5.49-14.54-2.42-10.45-3.09-13.03a.98.97-20.8 0 0-1.39-.62l-4.16 2.16a1.52 1.52 0 0 0-.82 1.5q1.31 13.43 8.61 26.05 5.6 9.69 16.46 13.17a.24.24 0 0 0 .24-.4m55.09-16.48a.42.42 0 0 0 .31-.12l22.84-22.26a.42.42 0 0 0-.26-.72l-20.61-1.69a.42.42 0 0 0-.42.25l-10.47 23.78a.42.42 0 0 0 .38.59zm-181.03-19.9-4.75 2.08c-3.75 1.24-7.7 1.87-10.7 2.59a1.2 1.19 78.9 0 0-.91 1.36l6.89 44.19a.66.66 0 0 0 .94.49l10.45-5.06a1.96 1.96 0 0 0 1.08-2.12q-3.86-20.91-1.85-42.7a.82.82 0 0 0-1.15-.83m98.593 14.836a1.87.59-94.5 0 0-.441 1.91 1.87.59-94.5 0 0 .735 1.818 1.87.59-94.5 0 0 .441-1.91 1.87.59-94.5 0 0-.735-1.818m76.747 9.874-5.35-.1a3.29 3.29 0 0 0-2.77 1.43c-4.66 6.78-13.32 14.41-22 16.35q-27.89 6.21-41.44-15.97c-1.4-2.28-2.88-4.06-5.61-3.54a.72.71-86.4 0 0-.54.48l-6.42 21.04a1.07 1.06 10.7 0 0 .94 1.37l59.37 4.88a1.87 1.86 23.6 0 0 1.54-.6l22.64-24.49a.51.51 0 0 0-.36-.85m92.2 16.83a.76.76 0 0 0-.63-1.07l-36.58-3.01a.76.76 0 0 0-.67.31l-17 22.63a.76.76 0 0 0 .54 1.21l43.38 3.57a.76.76 0 0 0 .76-.46zm-187.87 27.66a.52.52 0 0 0 .42.75l51.39 4.88a.52.52 0 0 0 .45-.18l15.34-18.32a.52.52 0 0 0-.35-.85l-57.54-4.73a.52.52 0 0 0-.51.28zm-75.08-17.29a.86.86 0 0 0-1.21-.49l-10.63 5.5a.86.86 0 0 0-.46.75l-.07 3.95a.86.86 0 0 0 .77.88l14.37 1.35a.86.86 0 0 0 .89-1.13zm-24.31 48.39 119.28 12.14a3.09 3.08 21.1 0 0 2.78-1.23q11.76-15.84 24.75-30.9a.39.39 0 0 0-.26-.65l-50.96-4.62a2.19 2.16 25.4 0 0-1.7.59l-4.94 4.68c-11.65 11.04-32.25 12.65-45.41 3.71q-7.51-5.11-11.52-12.83a3.26 3.24-10.8 0 0-2.58-1.74l-15.51-1.47a.72.72 0 0 0-.77.83c1.66 10.55 2.37 20.8-7.42 27.59q-2.35 1.63-5.79 3.65a.14.13-57 0 0 .05.25m-36.07 13.34 142.41 15.2a4.09 4.07 21.5 0 0 3.7-1.6l7.57-10.09a.31.31 0 0 0-.21-.5l-124.4-12.79a5.18 5.16-51.3 0 0-2.15.24l-26.96 9.12a.22.21-50.7 0 0 .04.42m139.87 20.4-157.57-16.83a13.41 12.94-44 0 0-2.71 0q-15.86 1.63-34.42 3.32c-5.27.48-14.04.15-20.69.8q-7.88.76-12.31.38c-12.19-1.05-24.86-.69-36.78-1.79q-21.56-1.98-29.96-3.19-23.04-3.3-48.45-9.8a3.59 3.59 0 0 0-3.06.62l-26.95 20.62a.59.59 0 0 0 .06.98q.81.46 1.95.57 20.44 1.98 90.68 9.65 95.21 10.39 164 18 33.22 3.67 87.82 10.11 4.61.54 5.38.23a.37.34 2.4 0 0 .13-.11l23.26-32.73a.53.53 0 0 0-.38-.83m79.61 3.42q24.9 2.49 56.19 5.87.2.02 1.96.43 1.93.46 2.72-1.39 6.53-15.17 8.99-21.67.84-2.22.69-4.11a.68.67 1.6 0 0-.59-.62q-26.45-3.19-49.26-5.29-1.07-.1-5.11.16a.99.97-75 0 0-.76.45c-5.93 9-11.06 16.5-15.33 25.28a.62.62 0 0 0 .5.89m-509.25 39.17 370.93 43a2.23 2.22 19.8 0 0 2.12-.99l29.48-45a.42.42 0 0 0-.3-.65q-82.22-9.49-104.02-11.91-2.46-.27-245-26.75-3.35-.37-5.04.89-4.23 3.14-7.76 6.01-20.82 16.97-40.63 34.73a.39.38 27.2 0 0 .22.67m369.45 48.42a.88.88 0 0 0-.64-1.35l-373.8-43.33a.88.88 0 0 0-.69.22l-11.01 9.89a.88.88 0 0 0 .48 1.53l375.44 47.74a.88.88 0 0 0 .85-.39zm88.5 5.13a1.03 1.02-73.1 0 0 .79 1.49l71.7 8.31a2.33 2.31-77.6 0 0 2.47-1.59q6.71-20.52 12.13-39.53.64-2.23.82-4.68a1.49 1.49 0 0 0-1.11-1.55q-4.03-1.05-8.19-1.5-32.85-3.55-54.02-6.53a1.98 1.98 0 0 0-2.05 1.07zm-101.5 15.15a.33.33 0 0 0-.24-.49l-379.6-48.27a.33.33 0 0 0-.27.09l-52.19 50.81a.33.33 0 0 0 .18.56l399.34 53.67a.33.33 0 0 0 .33-.16zM513.68 1373l-399.7-53.71a1.55 1.54-63.5 0 0-1.32.45q-22.16 22.56-45.79 49.39-2.03 2.31-3.29 4.01a.7.7 0 0 0 .46 1.11q40.17 5.95 95.21 14.27 36.76 5.55 141.83 20.74 58.38 8.44 154.25 22.39 4.33.63 22.3 3.05c3.35.45 5.04 1.1 6.53-2.04q9.17-19.36 22.38-44.12 6.99-13.11 7.64-14.66a.64.64 0 0 0-.5-.88m-33.59 68.15a.95.95 0 0 0-.71-1.37L59.46 1378.2a.95.95 0 0 0-.87.33l-12.88 15.37a.95.95 0 0 0 .59 1.55l424.12 63.36a.95.95 0 0 0 .99-.51zm213.04-46.87a2.18 2.18 0 0 0-1.79-2.8l-76.7-10.3a2.18 2.18 0 0 0-2.32 1.37l-23.13 59.3a2.18 2.18 0 0 0 1.75 2.95l81.7 10.39a2.18 2.18 0 0 0 2.36-1.53z"/><path d="M418.39 414.46a.95.94-11.3 0 0 .6-.89c-.11-4.89-.46-8.51 1.88-12.43q5.82-9.73 16.89-10.29 5.46-.28 9.87 1.48c2.6 1.05 5.19 3.63 7.27 5.18a1.81 1.81 0 0 0 1.93.14c4.79-2.56 9.27-3.46 14.61-2.02q12.5 3.35 16.3 16.06c4.03 13.5-3.47 25.14-16.57 29.1a1.52 1.5 2.5 0 0-.94.85c-4.68 10.85-16.69 17.03-27.88 11.29q-2.9-1.48-3.09-1.55a1.83 1.82-47.2 0 0-1.42.06c-5.6 2.69-12.93 2.2-18.41-1.26q-8.21-5.19-10.71-14.91c-2.06-8.03 1.57-17.75 9.67-20.81m35.91-8.45a1.21 1.21 0 0 1-1.48-.63q-4.49-9.44-15.35-8.52-7.16.61-11.02 6.62c-2.92 4.53-1.68 8.5-.37 12.92a1.35 1.34-13.9 0 1-1.03 1.7q-6.79 1.35-9.36 6.25c-4.44 8.48 1 18.06 9.08 21.86 4.68 2.2 9.47 1.37 13.72-1.69a1.95 1.95 0 0 1 2.4.1c2.13 1.82 3.04 3.11 5.49 3.87q8.01 2.49 14.08-2.98 4.57-4.11 4.71-10.03a.95.94 89.4 0 1 .9-.93l5.4-.24a2.94 2.86-55.3 0 0 .82-.16q5.71-2 8.23-7.28 4.84-10.16-1.51-19.26c-5.06-7.26-15.75-9.08-22.51-3.22q-1.64 1.43-2.2 1.62m286.76 377.75c-7.46-5.43-7.27-14.25-6.47-22.53q.72-7.57 2.14-31.92 1.64-27.9 3.62-56.08c.78-10.98 7.36-22.79 20.4-19.22q10.88 2.98 22.84 7.86 7.13 2.91 9.52 5.38c5.63 5.83 6.45 12.52 5.9 20.51q-3.78 54.91-5.28 79.24c-.54 8.7-3.63 16.28-12.62 18.7q-2.06.55-12.79.42c-5.15-.06-13.4.22-20.27-.19q-4.36-.26-6.99-2.17m2.13-5.92c1.86 2.35 5.11 2.27 8.07 2.25q3.37-.01 27.25-.04 5.82 0 7.6-5.71 1.46-4.67 1.69-8.59 2.26-37.56 4.82-70.44.37-4.74.4-8.63c.05-7.51.17-13.54-6.75-17.22q-5.02-2.67-10.1-4.39-8.55-2.89-17.01-5.58c-7.87-2.51-11.85 5.54-12.46 12.04q-.78 8.42-1.16 14.5-3.1 49.59-5.05 76.46c-.46 6.42-.92 10.76 2.7 15.35m-449.42-62.07q21.42-31.01 55.01-48.47c39.48-20.52 86.32-17.67 122.39 8.77 31.14 22.81 49.72 59.39 56.35 96.64q2.35 13.18 2.58 28.49.24 16.28-1.01 28.61-4.06 39.85-24.02 73.55-9.44 15.95-24.85 30.38-26.77 25.07-63 32.45-5.75 1.17-15.29 1.69c-20.15 1.1-40.7-3.59-58.9-12.15-26.22-12.34-47.32-33.92-60.91-59.35q-5.67-10.59-10.53-24.43-13.3-37.82-8.01-77.69 5.7-43.03 30.19-78.49m23.97-18.78c-8.5 8.5-15.15 16.18-20.57 24.43q-11.45 17.43-19.38 38.85c-2.69 7.26-4.78 16.11-6.14 22.82q-2.56 12.62-2.71 25.66-.22 18.87.35 24.49 2.81 27.81 14.72 53.26c17.17 36.7 49.57 65.84 90.21 73.12 37.57 6.73 73.7-3.94 101.69-30 17.05-15.86 29.77-35.78 37.25-57.74q3.61-10.62 4.61-14.58c10.77-42.45 8.33-88.75-11.01-128.51-6.97-14.33-16.92-28.3-28.06-38.56q-37.15-34.22-85.77-29.68-17.53 1.64-33.77 8.55c-15.59 6.65-29.46 15.94-41.42 27.89"/><path d="M323.81 737.88q-2.23-.76-2.63-3.03a1.65 1.63-36.7 0 1 .16-1.05c5.51-10.35 18.81-16.8 28.92-8.54q2.14 1.75.57 4.42a2.41 2.4-67.5 0 1-2.67 1.11q-.69-.18-2.6-.87c-8.5-3.06-15.42 2.28-20.66 7.7a1.04 1.03 31.5 0 1-1.09.26m146.81-10.14c5.06 2.13 12.15 8.35 11.06 14.56a1.4 1.35 77.3 0 1-.52.85c-2.09 1.6-3.68.64-5.03-1.39-2.26-3.39-4.57-5.75-8.33-7.34-3.77-1.59-7.06-1.61-11.07-.86-2.4.45-4.2-.02-4.5-2.64a1.4 1.35-31.4 0 1 .25-.96c3.69-5.11 13.09-4.36 18.14-2.22m-118.78 39.69c2.11 1.65 4.76 4.61 6.21 7.07 10.75 18.3 9.19 38.46-3.96 54.83-8.34 10.37-24.73 13.66-35.48 4.81q-14.19-11.69-14.42-30.71c-.18-14.99 7.57-31.38 21.22-38.33q14.2-7.23 26.43 2.33m-6.298 15.25a25.04 18.91-82.4 0 0-22.056 22.319 25.04 18.91-82.4 0 0 15.432 27.321 25.04 18.91-82.4 0 0 22.056-22.319 25.04 18.91-82.4 0 0-15.432-27.321m110.912-15.597a39.47 31.22-85.3 0 1 27.881 41.895 39.47 31.22-85.3 0 1-34.35 36.78 39.47 31.22-85.3 0 1-27.88-41.896 39.47 31.22-85.3 0 1 34.35-36.78m6.683 21.504a25.32 19.39-84.5 0 0-21.728 23.345 25.32 19.39-84.5 0 0 16.874 27.061 25.32 19.39-84.5 0 0 21.728-23.345 25.32 19.39-84.5 0 0-16.874-27.061"/><ellipse rx="7.19" ry="6.45" transform="rotate(-87.6 589.47 218.466)"/><ellipse rx="7.33" ry="6.9" transform="rotate(-78.3 726.246 117.024)"/><path d="M350.72 855.87a1.15 1.15 0 0 0-.23 1.58c5.74 7.97 17.87 13.2 26.75 14.73 17.41 2.99 33.97-.52 49.56-10.45q2.07-1.32 2.41-2.22a1.06 1.06 0 0 0-.17-.97l-1.76-2.3a1.4 1.4 0 0 1 .73-2.2q1.93-.55 3.44.27 6.31 3.42 10.9 8.58a1 1 0 0 1 .23.9c-.47 2.02-1.57 3.05-3.39 1.99q-2.87-1.68-4.48-3.24a1.15 1.15 0 0 0-1.92.57q-1.77 7.75-3.8 15.12c-3.96 14.3-10.57 28.17-23 35.82-10.99 6.76-26 5.09-35.46-3.21-12.59-11.06-15.94-27.83-19.12-43.44a4.13 4.07-70 0 0-.78-1.71l-3.94-5.15a.99.98 60.2 0 0-1.16-.32q-1.29.52-4.96 2.65a2.04 1.7-18.9 0 1-2.99-1.14c-.19-4.09 8.91-8.76 12.07-10.35 1.37-.69 2.2-.33 3.04.83a1.78 1.77 53.5 0 1-.36 2.44zm20.14 47.39c5.67 8.17 16.15 11.09 25.59 9.17 9.5-1.93 17.68-10.99 21.64-19.61a1.18 1.17-61 0 0-.41-1.46c-5.19-3.51-12.98-3.93-20.06-3.71-10.55.34-20.28 4.9-26.69 13.09a2.13 2.12 46.7 0 0-.07 2.52m-224.8 28.11a.45.44-20.3 0 0 .77.35q3.79-4.12 7.7-6.95c3.81-2.76 10.63-6.1 15.13-4.43 2.77 1.04 2.2 3.57 1.02 5.87q-2.29 4.5-6.52 11.6c-1.94 3.26-3.27 7.9-4.86 10.22q-.93 1.37-1.05 1.43a1.53 1.52-10.3 0 1-2.24-1.55q.54-3.92 2.64-7.76 3.86-7.06 8.29-14.89a.86.86 0 0 0-.69-1.28c-1.32-.09-3.71.53-4.8 1.12q-11.01 5.99-18.08 17.57-.38.61-1.44.43a1.33 1.32 8.2 0 1-1.1-1.46l3.83-33.02a.74.73 2.3 0 0-.76-.82q-.93.04-1.69.66c-9.16 7.51-12.7 19.98-14.13 31.59q-.12.99-.37 1.65a1.27 1.27 0 0 1-2.32.12c-3.74-7.33-8.84-13.47-16.42-16.48q-1.95-.78-3.01-.57a1.47 1.47 0 0 0-1.03 2.1q4.48 9.04 5.71 11.95c1.54 3.62 4.68 10.12 2.17 12.01a1.16 1.16 0 0 1-1.78-.52q-4.46-11.8-10-23.06-2.13-4.34 2.3-5.9c5.59-1.96 13.36 3.06 17.4 7.2q.37.39 4.02 4.61a.54.54 0 0 0 .94-.28q1.96-14.78 11.86-25.82c2.28-2.54 7.97-6.17 10.28-1.08q1.42 3.13.86 6.91-2.11 14.31-2.63 18.48m808.91 34.96a.35.35 0 0 0 .51.43c5.5-3.52 15.13-7.39 21.56-4.75 4.28 1.76.8 6.41-1.11 8.68q-5.97 7.1-11.39 13.88a1.63 1.62-62.1 0 1-1.74.54l-.77-.24a1.1 1.1 0 0 1-.65-1.56c2.67-5.11 6.77-9.45 12.72-16.61a.97.97 0 0 0-.68-1.59c-7.66-.54-16.2 4.38-22 9.64a1.38 1.38 0 0 1-2.3-1.03q.02-2.58 1.14-5.71 3.79-10.54 10.44-25.68a.92.92 0 0 0-.93-1.29q-3.08.3-6.28 2.48-11.25 7.66-16.9 21.62a1.22 1.21 36.4 0 1-2.07.31c-1.07-1.31-1.23-6.01-1.7-10q-1.49-12.64-8.29-22.16-1.15-1.62-2.41-2.13a1.59 1.58 17.4 0 0-2.14 1.11q-.99 4.29-.99 9.23.01 9.63.96 19.25.26 2.63 0 5.6a.92.92 0 0 1-1.69.42q-.5-.77-3.81-5.69c-4.68-6.95-13.39-13.64-21.82-14.46a.7.7 0 0 0-.65 1.1l4.05 6q6.75 10.02 9.78 21.1a1.68 1.68 0 0 1-1.13 2.06l-.05.02a1.7 1.69 70.9 0 1-2.07-1.01q-4.01-10.39-5.72-13.25-2.63-4.39-8.75-13.73-.62-.93-1-2.75a1.48 1.46 57.7 0 1 .25-1.16q2.13-2.92 6.23-2.25c8.94 1.48 15.31 6.04 21.3 12.71a.33.33 0 0 0 .58-.25c-.54-5.72-2.29-26.76 4.49-28.12 7.52-1.51 13.79 13.7 15.06 18.18q.59 2.06 1.99 9.24a.47.47 0 0 0 .87.15q5.84-9.85 15.35-15.39c2.96-1.73 12.68-5.36 11.66 1.36q-.62 4.14-2.71 8.81-3.44 7.7-7.19 16.89m-728.55 162.26c-3.02 1.06-8.95-2.12-11.39-3.6-5.89-3.57-4.15-10.04-1.47-14.94q23.26-42.56 30.21-55.03 1.81-3.26 3.9-6.35c3.43-5.07 10.04-7.14 15.18-3.22 3.27 2.5 3.38 6.02 1.8 9.98q-2.09 5.22-2.37 5.82-18.02 37.58-26.96 56.78c-2.49 5.35-3.94 8.81-8.9 10.56m-9.66-8.81q3.13 3.2 8.49 3.59a1.58 1.57 30.2 0 0 .99-.26q1.54-.98 2.46-2.91 27.15-57.04 29.04-60.95 1.73-3.57 2.99-6.94a2.53 2.52-59.6 0 0-.73-2.82c-6.29-5.33-11.61 7.07-13.59 10.66q-19.28 34.96-21.52 39.48-2.19 4.41-6.91 12.84-1.42 2.53-1.87 5.25a2.42 2.41 27.6 0 0 .65 2.06m36.91 16.49a3.96 3.92-60.1 0 1-.75-2.83q.54-4.39 2.23-8.51 11.39-27.72 23.31-54.59c1.83-4.14 3.62-9.06 5.86-13.65q2.08-4.28 3.22-5.66c3.35-4.05 12.48-4.66 16.19-.78 4.17 4.37 2.82 7.87.94 13.78-3.02 9.53-6.55 18.16-9.34 26.19q-5.85 16.79-16.18 46.17-.41 1.18-2.29 3.69c-3.75 5.02-8.54 4.26-14.13 2.47q-5.71-1.83-9.06-6.28m46.07-82.76q-7.47-2.86-10.89 5.09-9.83 22.85-12.47 29.2-5.87 14.13-17.41 40.98-2.29 5.34 2.52 7.71 4.74 2.33 9.94 1.51a1.95 1.92 17.6 0 0 1.06-.54q.89-.88 1.63-2.84c4.1-10.87 8.17-23.57 12.07-34.01q6.49-17.4 14.2-39.68 1.2-3.47.04-6.73a1.2 1.2 0 0 0-.69-.69m29.24 4.93c4.1-6 11.31-8.05 17.99-4.77 4.85 2.38 6.77 7.16 5.57 12.34q-5.84 25.19-11.41 50.17c-1.48 6.64-3.28 12.42-4.38 19.26q-.94 5.83-2.84 12.48c-2.02 7.05-7.42 8.72-14.46 7.89-11.05-1.31-18.51-3.92-14.77-17.14q8.86-31.29 19.66-67.49 3.17-10.6 4.64-12.74m16.34.31c-5.02-2.86-11.15-1.58-12.95 4.43q-15.39 51.25-22.52 76.63c-1.06 3.77-2.2 7.97 2.79 9.33q3.87 1.06 9.15 1.5c4 .33 6.49-1.05 7.28-4.87q3.11-14.99 6.01-27.06c1.76-7.33 2.71-13.9 4.79-21.56q1.23-4.54 6.43-27.62.92-4.1.67-8.14a3.3 3.27-77.3 0 0-1.65-2.64m54.13 2.03c3.67 3.18 3.9 7.6 3.38 13q-3.33 34.35-5.4 61.2-.56 7.27-1.83 14.61c-1.92 11.17-12.57 10.55-21.09 9.47q-7.5-.96-9.82-7.11-.85-2.27-.08-6.95.51-3.06 2.48-15.03 2.98-18.15 3.69-22.86c2.15-14.31 4.6-26.43 6.47-38.36 1.69-10.78 14.07-15.01 22.2-7.97m-10.55 91.66q1.61-2.42 1.96-6.66 3.62-42.99 6.66-74.54.35-3.71-.61-5.2-2.28-3.52-7.62-3.18c-4.26.28-6.1 2.92-6.79 6.98q-8.58 50.34-10.46 61.92-1.5 9.24-2.09 16.25-.38 4.63 4.07 5.42c2.89.52 13.02 1.81 14.88-.99m48.62-89.95c6.71-1.66 14.57.26 17.45 6.75q.85 1.91 1.53 11.18 2.32 32.13 4.48 61.08c.34 4.55.65 9.26-2.21 12.43-4.96 5.5-14.2 5.81-21.32 4.99q-4.42-.51-6.6-2.81c-4.34-4.6-4.11-9.12-3.58-15.86 1.06-13.5.75-26.34.72-39.34-.02-8.22.93-16.12.85-24.62-.06-6.44 2-12.15 8.68-13.8m12.31 90.6a6.03 6.03 0 0 0 5.62-6.42l-4.85-73.37a6.03 6.03 0 0 0-5.9-5.63l-4.22-.08a6.03 6.03 0 0 0-6.14 5.91l-1.42 74.15a6.03 6.03 0 0 0 6.43 6.14zm-394.9-26.79q-1.8-7.83-3.28-17.6-.93-6.07-.56-11.42c.31-4.55 3.54-7.98 8.41-5.18 9.95 5.72 16.04 22.17 17.75 32.76a.38.38 0 0 0 .7.14c5.25-8.92 10.59-16.14 20.35-20.15 3.04-1.26 8.38-2.08 9.58 2a2.36 2.29-47.7 0 1 .04 1.2q-.41 1.72-1.57 4.09-7.37 15.08-11.62 28.89a1.26 1.26 0 0 1-2.15.46l-.05-.06a3.72 3.72 0 0 1-.79-3.47q4.37-15.34 12.12-29.25a.65.64-79.6 0 0-.65-.95q-3.67.51-6.65 2.33-12.33 7.54-16.99 21.71-.78 2.38-2.06 3.71a1.3 1.3 0 0 1-2.23-.74q-2.04-16.68-10.12-30.91c-1.89-3.32-5.18-7.92-9.08-8.17a.85.84 3.8 0 0-.9.78c-.96 12.07 2.42 23.81 5.45 36.19q.6 2.47.26 4.7-.11.74-.84.73-.63-.02-1.06-.57c-5.04-6.48-9.09-10.88-17.23-14.29q-2.56-1.08-6.14-1.36a.76.76 0 0 0-.78 1q.44 1.32 1.13 2.15c5.36 6.58 10.73 13.16 14.02 21.3a1.34 1.25 76.3 0 1-1.03 1.82c-1.35.11-2.29-.76-2.93-1.99q-4.9-9.39-12.29-17.52c-.94-1.04-2.2-2.91-2.98-4.34-2.83-5.19 2.66-6.94 6.5-6.31q9.85 1.62 17.05 8.66a.37.37 0 0 0 .62-.34m873.2 91.36a.58.58 0 0 0 .92.08c6.03-6.6 11.74-12.57 19.5-16.67 2.99-1.58 12.03-5.17 14.6-1.44q1.82 2.63.22 5.74-13.48 26.21-16.41 32.84-.58 1.33-1.55 1.6a1.91 1.84 89.6 0 1-2.25-2.31q.65-2.76 1.75-5.08 5.75-12.16 13.53-26.71.81-1.51.53-2.86a.57.57 0 0 0-.67-.44c-14.25 2.94-25.74 15.16-32.46 27.88a1.28 1.26 4.6 0 1-.74.62q-1.69.55-2.53-.79a1.57 1.54-58.1 0 1-.23-1.03q2.1-17.64 2.77-34.33.36-8.84-1.37-16.87c-.44-2.03-.52-3.64-1.73-5.42a1.65 1.65 0 0 0-2.16-.51c-4.09 2.28-7.39 8.38-9.35 12.52q-9.16 19.39-8.62 40.77.05 1.82-.6 2.94a1.84 1.84 0 0 1-3.27-.17q-6.21-13.77-17.98-23.44c-3.82-3.14-7.95-4.94-12.39-5.58a.61.61 0 0 0-.67.79q.84 2.67 2.3 5.47 5.23 10 8.79 17.66 2.17 4.69 4.52 13.54a2.01 2-17 0 1-1.29 2.41l-.1.04a1.8 1.8 0 0 1-2.3-1.18c-3.66-12.03-7.9-20.47-14.59-32.48-1.04-1.85-2.74-6.08-1.49-8 3.37-5.21 13.41-.47 16.94 2.03q10.46 7.38 16.85 17.36.2.31.43.41a.57.56 13.3 0 0 .8-.49q.36-9.93 3.31-19.57c2.82-9.23 5.81-16.76 11.37-23.72 2.67-3.34 7.47-8.42 11.6-4.66q2.24 2.04 3.17 5.39c3.74 13.58 2.73 28.63.76 43.11q-.04.33.09.55m-77.21 186.53a.33.33 0 0 0 .51-.18c2.92-11.11 6.94-20.99 13.93-30.12 3.93-5.13 12.68-12.49 14.96-.4q.98 5.22.72 10.03-.63 11.28-2.25 22.29a.45.45 0 0 0 .79.36c6.84-7.94 16.43-14.2 26.95-16.11 3.69-.66 9.99-.25 7.65 5.33q-1.31 3.12-3.96 7.35c-3.5 5.59-6.39 11.1-9.21 17.03q-1.23 2.58-2.93 4.68a1.63 1.53 53 0 1-2.64-.46q-.55-1.2.07-2.67 5.23-12.25 12.78-23.79.94-1.43 1.48-2.78a.82.82 0 0 0-.93-1.11c-14.44 3.14-23.39 11.05-32.17 22.27q-.84 1.08-1.83.96a1.95 1.9 7.7 0 1-1.7-2.17c2.04-13.53 3.94-28.07 2.69-42.04a1.18 1.18 0 0 0-1.51-1.02c-1.68.51-3.45 1.9-4.63 3.37-8.84 11-13.37 24.43-15.84 38.52q-.04.2-.46.85a1.58 1.58 0 0 1-2.8-.27q-6.37-16.05-19.74-26.18-5.2-3.94-11.08-4.95-.9-.15-1.33.05a1.13 1.13 0 0 0-.56 1.51c5.6 11.75 10.54 23.07 13.06 35.39q.09.43-.1 3.31a.72.71 87 0 1-.6.67q-2.55.41-2.94-1.49-3.73-17.84-12.62-34.8-1.34-2.56-1.6-4.22c-.62-3.95 2.65-5.5 6.17-5.03 4.49.6 10.04 3.41 13.51 5.87q10.31 7.34 17.25 19 .3.51.91.95"/></svg>