<?xml version="1.0" encoding="UTF-8" standalone="no"?>
<!DOCTYPE svg PUBLIC "-//W3C//DTD SVG 1.1//EN" "http://www.w3.org/Graphics/SVG/1.1/DTD/svg11.dtd">
<svg xmlns="http://www.w3.org/2000/svg" version="1.1" viewBox="0.00 0.00 1773.00 1773.00">
<path fill="#40aa40" d="
  M 573.23 970.24
  L 581.65 1002.85
  Q 583.69 1010.84 584.67 1015.86
  C 587.19 1028.72 588.55 1042.87 588.92 1056.12
  Q 589.95 1093.16 577.70 1126.68
  C 572.34 1141.34 564.38 1155.97 553.75 1168.47
  Q 545.69 1177.94 536.47 1186.21
  Q 518.28 1202.55 494.28 1210.79
  C 480.10 1215.65 464.05 1218.96 449.25 1217.26
  Q 449.01 1217.24 448.78 1217.46
  L 448.40 1217.23
  A 1.66 1.63 62.5 0 0 447.57 1216.96
  Q 433.55 1216.37 421.24 1209.07
  Q 418.22 1207.19 414.96 1205.02
  C 400.65 1195.51 393.82 1183.21 387.71 1166.62
  Q 383.68 1155.71 381.42 1143.16
  A 0.29 0.29 0.0 0 0 380.85 1143.18
  Q 378.58 1160.69 372.67 1177.16
  Q 365.89 1196.04 347.88 1207.78
  Q 341.60 1211.69 336.36 1213.61
  Q 329.79 1216.02 321.18 1216.30
  Q 312.24 1217.21 303.04 1215.26
  C 271.87 1208.64 246.97 1192.09 226.09 1168.14
  Q 207.81 1147.18 197.08 1117.63
  Q 189.62 1097.05 187.16 1078.54
  C 181.97 1039.51 186.71 998.75 198.14 960.97
  Q 207.00 931.71 216.43 907.88
  Q 230.74 871.73 251.58 830.08
  Q 265.49 802.28 284.77 773.27
  C 306.01 741.31 330.27 713.59 362.48 694.46
  Q 364.36 693.35 369.53 691.20
  C 384.49 684.98 397.71 691.93 409.92 700.32
  Q 424.48 710.31 434.78 719.45
  Q 443.07 726.80 456.99 741.57
  Q 470.10 755.50 480.27 769.55
  C 489.37 782.12 499.84 797.74 508.37 813.20
  Q 522.83 839.42 531.39 858.59
  C 546.91 893.36 561.95 931.88 573.23 970.24
  Z
  M 381.60 1113.20
  Q 390.60 1106.18 398.51 1112.24
  C 401.71 1114.70 404.50 1119.05 405.13 1122.94
  C 407.62 1138.34 410.23 1153.37 417.71 1166.70
  Q 422.00 1174.35 425.39 1178.34
  C 434.58 1189.15 450.77 1191.39 463.99 1189.82
  Q 489.45 1186.80 510.47 1171.71
  Q 533.58 1155.13 545.95 1130.74
  Q 554.46 1113.96 557.77 1099.03
  C 563.94 1071.20 562.15 1040.16 555.79 1012.23
  C 548.78 981.43 538.53 950.24 527.89 922.32
  Q 515.63 890.16 498.79 854.93
  C 484.46 824.94 467.18 796.83 445.59 770.32
  Q 436.29 758.91 424.58 747.98
  C 413.46 737.59 402.63 728.48 390.31 720.44
  C 387.00 718.27 382.38 715.74 378.62 717.18
  Q 375.40 718.41 372.03 720.53
  Q 357.52 729.68 345.69 741.42
  C 321.18 765.76 300.57 795.97 283.96 826.97
  C 275.60 842.56 266.06 861.26 257.76 880.01
  C 241.79 916.09 226.89 953.88 218.04 993.02
  Q 210.37 1026.96 212.83 1061.48
  Q 214.49 1084.83 223.62 1110.12
  Q 227.75 1121.53 232.78 1129.97
  C 240.13 1142.29 249.32 1153.03 259.62 1162.54
  Q 281.66 1182.91 310.44 1188.26
  C 321.65 1190.35 333.64 1187.93 340.43 1178.15
  Q 347.39 1168.14 350.66 1154.41
  Q 354.00 1140.42 355.75 1124.61
  C 356.11 1121.38 356.82 1119.24 358.55 1116.77
  Q 367.05 1104.61 380.16 1113.25
  A 1.24 1.24 0.0 0 0 381.60 1113.20
  Z"
/>
<path fill="#ffcd19" d="
  M 1475.57 213.49
  Q 1488.01 218.56 1502.62 227.17
  C 1566.05 264.56 1601.69 333.88 1601.51 407.01
  Q 1601.44 432.39 1592.91 458.78
  C 1581.38 494.45 1557.21 525.32 1526.90 547.65
  C 1511.36 559.09 1494.63 567.09 1476.64 573.47
  Q 1449.29 583.17 1417.66 585.14
  Q 1381.48 587.39 1346.77 579.78
  Q 1319.33 573.78 1293.36 560.37
  C 1257.91 542.08 1228.94 510.37 1210.92 475.36
  Q 1194.53 443.51 1190.43 408.07
  Q 1185.88 368.73 1198.48 329.56
  Q 1206.85 303.53 1222.65 281.61
  Q 1241.43 255.56 1267.06 237.19
  C 1303.48 211.08 1349.23 197.85 1394.51 197.78
  Q 1436.82 197.71 1475.57 213.49
  Z
  M 1290.85 526.40
  Q 1298.44 531.59 1301.28 533.43
  C 1317.74 544.13 1336.68 549.72 1356.75 554.19
  C 1390.75 561.76 1424.36 560.43 1457.35 551.32
  Q 1470.48 547.70 1485.76 540.50
  Q 1531.52 518.93 1556.75 475.01
  C 1581.36 432.15 1578.53 380.81 1561.07 335.90
  C 1555.45 321.45 1547.40 307.73 1538.25 294.91
  Q 1528.69 281.51 1515.51 270.26
  C 1502.05 258.77 1487.12 248.04 1470.45 240.82
  Q 1425.81 221.49 1377.28 225.40
  C 1359.42 226.84 1338.56 231.62 1321.87 237.83
  Q 1305.83 243.81 1287.29 255.81
  C 1275.00 263.78 1261.29 276.64 1252.28 287.29
  C 1222.75 322.18 1210.94 367.71 1218.66 413.18
  C 1222.40 435.16 1229.71 456.06 1241.84 474.40
  Q 1250.49 487.47 1255.41 493.85
  Q 1269.04 511.52 1290.85 526.40
  Z"
/>
<path fill="#48a0e9" d="
  M 285.37 365.09
  A 0.54 0.54 0.0 0 0 285.94 364.60
  C 287.39 349.90 291.04 336.08 298.68 322.93
  C 317.20 291.01 351.66 271.58 387.95 268.82
  Q 405.68 267.47 423.06 270.93
  A 0.72 0.72 0.0 0 0 423.91 270.31
  C 424.58 264.31 425.01 259.80 426.27 254.90
  Q 437.56 210.98 472.27 183.29
  Q 506.33 156.12 550.24 151.56
  Q 562.24 150.31 572.29 151.31
  C 590.35 153.12 608.03 157.55 623.80 166.69
  Q 637.83 174.83 650.93 187.83
  C 670.42 207.18 682.15 233.11 686.52 259.97
  A 0.56 0.55 70.4 0 0 687.35 260.37
  Q 702.98 251.37 721.03 246.34
  C 743.45 240.10 769.74 240.11 792.06 247.71
  Q 838.90 263.66 859.09 308.15
  Q 864.97 321.10 867.86 339.47
  C 872.66 370.03 867.65 402.09 852.39 428.37
  C 834.53 459.16 803.93 480.89 770.88 494.18
  Q 737.35 507.68 700.52 513.04
  C 674.93 516.76 649.80 517.75 621.25 519.14
  Q 619.29 519.23 435.00 525.69
  Q 380.32 527.60 371.19 527.83
  Q 316.57 529.16 264.37 521.42
  Q 256.93 520.32 243.20 516.80
  C 224.11 511.91 205.33 502.27 193.55 486.53
  Q 178.79 466.81 182.40 442.26
  C 187.53 407.34 216.70 380.70 249.06 370.42
  C 261.14 366.58 273.04 364.50 285.37 365.09
  Z
  M 747.69 473.72
  C 778.82 463.16 808.71 446.19 826.82 418.06
  C 842.54 393.63 846.12 363.36 839.57 335.17
  Q 835.71 318.56 827.50 306.91
  C 814.77 288.84 794.01 274.34 772.22 271.04
  Q 759.62 269.13 744.51 270.28
  Q 724.30 271.82 705.16 281.93
  Q 694.77 287.41 687.83 292.33
  C 681.07 297.12 675.92 300.79 668.55 297.17
  Q 659.73 292.84 660.21 282.73
  C 661.74 251.20 647.96 221.02 624.39 200.64
  Q 617.98 195.10 607.07 189.10
  C 598.92 184.62 588.59 181.93 579.51 179.99
  Q 565.47 177.01 552.28 178.63
  C 537.26 180.48 521.74 184.54 508.35 191.64
  C 487.16 202.86 468.11 221.26 458.83 243.28
  C 453.15 256.76 450.84 271.01 450.59 285.76
  Q 450.50 291.03 449.40 293.68
  C 447.22 298.88 441.82 302.36 436.16 302.68
  C 431.57 302.93 429.24 301.47 424.25 299.79
  C 411.77 295.59 398.51 295.37 385.47 296.56
  C 368.70 298.08 350.34 306.25 338.05 317.05
  Q 317.00 335.53 313.25 365.01
  Q 312.73 369.16 312.31 378.80
  C 311.91 388.06 304.58 393.16 295.98 393.18
  Q 295.37 393.18 288.19 392.66
  Q 259.05 390.56 234.60 407.88
  Q 223.63 415.65 216.75 426.25
  C 209.89 436.84 205.98 451.34 211.23 463.08
  C 216.26 474.31 228.21 482.73 239.67 486.84
  Q 248.30 489.94 256.73 491.81
  Q 283.84 497.85 312.90 499.59
  Q 350.76 501.85 395.00 500.30
  C 479.00 497.34 563.02 494.45 647.00 490.80
  Q 665.43 490.00 684.43 487.89
  Q 716.47 484.32 747.69 473.72
  Z"
/>
<g fill="#98d529">
<path d="
  M 1075.11 1158.77
  Q 1075.07 1159.61 1076.00 1159.63
  Q 1090.86 1159.95 1105.80 1161.58
  Q 1113.66 1162.36 1121.61 1163.03
  Q 1130.97 1163.81 1137.42 1164.53
  Q 1181.58 1169.40 1223.54 1175.96
  Q 1241.83 1178.82 1283.95 1187.02
  Q 1296.13 1189.39 1313.32 1193.64
  C 1327.56 1197.15 1345.93 1200.86 1363.28 1205.49
  C 1447.66 1228.00 1529.09 1256.62 1608.58 1292.39
  Q 1659.29 1315.21 1696.16 1333.87
  Q 1715.32 1343.56 1732.42 1353.36
  C 1741.34 1358.48 1751.20 1363.28 1748.25 1375.24
  C 1746.63 1381.80 1739.60 1386.44 1732.86 1385.22
  Q 1730.15 1384.72 1725.23 1381.73
  Q 1717.76 1377.18 1713.74 1375.00
  C 1682.45 1358.05 1651.82 1343.10 1621.90 1329.14
  Q 1568.26 1304.12 1522.27 1286.57
  Q 1487.50 1273.30 1444.85 1258.70
  Q 1429.48 1253.43 1384.04 1239.92
  Q 1364.25 1234.04 1338.25 1227.84
  Q 1298.32 1218.31 1292.14 1217.11
  C 1272.57 1213.29 1234.69 1205.18 1205.28 1201.16
  C 1158.22 1194.72 1128.54 1190.68 1091.60 1188.06
  Q 968.63 1179.33 843.25 1190.83
  C 798.12 1194.98 756.56 1200.03 715.25 1206.53
  C 689.68 1210.55 666.59 1214.08 644.20 1218.60
  C 622.21 1223.04 615.31 1224.18 597.57 1227.63
  Q 587.25 1229.64 579.01 1231.59
  Q 555.69 1237.14 526.68 1243.70
  Q 507.64 1248.00 453.74 1262.48
  Q 452.92 1262.70 451.05 1262.71
  L 449.64 1235.48
  Q 458.92 1233.04 467.66 1230.79
  Q 487.57 1225.64 510.60 1219.65
  Q 535.46 1213.19 553.70 1209.19
  Q 633.13 1191.77 690.33 1182.46
  Q 756.86 1171.64 831.51 1164.37
  Q 929.10 1154.87 1027.50 1157.19
  Q 1051.55 1157.75 1074.25 1159.34
  Q 1074.65 1159.37 1075.11 1158.77
  Z"
/>
<path d="
  M 228.96 1407.12
  A 0.24 0.22 54.8 0 0 229.00 1406.83
  L 228.85 1406.56
  A 0.02 0.02 0.0 0 0 228.82 1406.55
  Q 225.14 1408.79 216.41 1413.41
  C 190.69 1427.03 171.40 1439.93 142.60 1459.02
  C 129.37 1467.78 115.32 1478.86 104.21 1486.21
  C 100.47 1488.69 97.10 1490.29 92.64 1488.38
  Q 90.13 1487.31 88.75 1484.23
  Q 86.05 1478.25 91.95 1473.70
  C 105.05 1463.61 120.69 1453.67 131.04 1446.37
  Q 144.09 1437.17 159.03 1427.85
  C 181.26 1413.99 203.36 1400.13 227.37 1387.86
  Q 241.30 1380.74 253.15 1376.44
  C 260.13 1373.91 266.41 1372.20 270.39 1378.78
  C 274.17 1385.05 269.08 1391.37 264.72 1395.98
  Q 248.41 1413.20 227.81 1430.42
  Q 212.27 1443.41 205.00 1449.97
  Q 191.31 1462.34 173.24 1479.53
  A 4.09 3.63 -79.3 0 1 172.71 1479.94
  Q 170.56 1481.32 169.31 1482.92
  A 0.37 0.37 0.0 0 0 169.80 1483.47
  Q 196.80 1466.61 233.11 1444.70
  C 247.52 1436.01 262.16 1427.82 276.95 1420.97
  C 283.14 1418.10 289.05 1415.77 295.44 1414.48
  C 305.19 1412.52 311.22 1420.69 307.34 1429.53
  Q 306.09 1432.39 300.64 1438.65
  Q 295.06 1445.07 280.75 1459.00
  Q 277.21 1462.44 262.11 1476.57
  C 255.00 1483.23 247.73 1490.76 240.83 1498.44
  A 0.32 0.32 0.0 0 0 241.20 1498.94
  Q 261.93 1489.24 280.41 1479.17
  C 295.04 1471.19 300.55 1468.52 313.11 1462.07
  Q 319.25 1458.93 326.12 1455.12
  Q 341.97 1446.34 355.86 1440.62
  Q 363.32 1437.54 370.09 1435.87
  C 374.99 1434.66 379.95 1433.60 384.10 1437.36
  C 387.47 1440.42 387.93 1445.34 385.77 1449.29
  Q 384.13 1452.27 380.14 1456.39
  Q 372.96 1463.80 365.23 1470.48
  C 358.96 1475.89 348.94 1483.18 341.52 1489.94
  Q 341.48 1489.97 332.32 1498.55
  A 0.34 0.33 -63.4 0 0 332.51 1499.13
  Q 332.95 1499.19 333.67 1498.87
  C 351.17 1491.18 360.32 1485.80 384.19 1472.90
  Q 396.38 1466.31 415.57 1455.27
  Q 427.29 1448.52 447.86 1437.37
  Q 451.58 1435.36 455.01 1432.26
  C 477.07 1412.29 501.14 1392.36 526.28 1373.03
  Q 551.50 1353.62 566.54 1342.80
  Q 567.52 1342.10 592.61 1324.37
  C 617.64 1306.69 646.62 1288.00 668.77 1274.30
  Q 690.20 1261.04 714.54 1247.44
  A 0.22 0.22 0.0 0 0 714.38 1247.03
  Q 703.57 1249.92 689.78 1254.33
  Q 656.08 1265.11 621.13 1280.91
  Q 563.57 1306.92 508.99 1335.75
  C 503.51 1338.64 495.71 1335.83 495.48 1329.02
  Q 495.31 1323.95 499.93 1321.39
  C 525.96 1306.99 551.68 1294.80 579.39 1281.40
  Q 621.97 1260.81 663.19 1245.48
  Q 677.24 1240.25 703.19 1232.45
  Q 724.63 1226.00 746.24 1223.41
  C 751.45 1222.79 756.25 1225.79 757.52 1230.90
  Q 759.19 1237.63 753.22 1242.54
  Q 746.30 1248.22 736.34 1254.09
  Q 689.08 1281.96 661.82 1298.58
  Q 642.11 1310.60 597.69 1341.12
  Q 590.53 1346.04 580.48 1353.61
  C 567.14 1363.65 553.09 1373.46 539.26 1384.57
  Q 523.17 1397.49 515.55 1403.46
  A 0.15 0.15 0.0 0 0 515.71 1403.71
  C 536.16 1393.23 569.56 1376.94 619.34 1352.35
  C 653.66 1335.39 690.13 1318.22 717.62 1305.14
  C 735.36 1296.68 749.57 1290.72 771.97 1280.75
  Q 824.03 1257.57 878.26 1242.10
  C 885.81 1239.94 890.84 1238.15 895.04 1245.18
  C 899.29 1252.29 893.98 1257.85 888.24 1261.75
  Q 874.49 1271.10 866.09 1276.07
  C 842.40 1290.09 829.53 1298.01 806.34 1311.65
  C 743.70 1348.52 677.70 1388.44 612.70 1427.89
  Q 598.70 1436.39 589.14 1442.53
  C 578.97 1449.07 568.91 1454.60 557.80 1462.11
  Q 543.05 1472.06 528.26 1481.40
  A 0.15 0.15 0.0 0 0 528.21 1481.61
  A 0.13 0.12 61.1 0 0 528.37 1481.66
  C 534.24 1478.85 539.67 1475.58 546.17 1472.47
  Q 549.19 1471.03 591.70 1449.77
  Q 627.64 1431.78 700.51 1396.68
  Q 731.49 1381.75 758.08 1369.60
  C 783.76 1357.86 807.10 1346.76 835.09 1333.98
  C 874.88 1315.81 895.41 1305.92 931.59 1289.58
  C 958.59 1277.39 989.97 1262.08 1021.48 1249.20
  Q 1026.62 1247.10 1032.90 1245.16
  Q 1041.27 1242.58 1045.24 1248.76
  C 1048.07 1253.17 1047.28 1258.44 1043.67 1262.16
  Q 1041.90 1263.99 1036.89 1266.89
  Q 1020.50 1276.38 1007.09 1285.11
  Q 950.73 1321.76 890.93 1361.70
  C 876.49 1371.34 858.77 1382.08 839.81 1393.44
  Q 778.75 1430.02 757.18 1443.46
  Q 722.00 1465.40 703.66 1476.81
  C 690.61 1484.94 678.60 1493.22 665.73 1501.49
  A 0.15 0.15 0.0 0 0 665.69 1501.69
  L 665.69 1501.70
  A 0.17 0.17 0.0 0 0 665.93 1501.76
  Q 673.33 1497.67 691.78 1488.44
  C 705.09 1481.78 725.19 1470.61 736.23 1464.99
  Q 864.41 1399.75 1018.89 1321.89
  Q 1034.79 1313.88 1063.47 1300.48
  Q 1089.48 1288.34 1124.23 1275.19
  Q 1150.87 1265.11 1171.83 1260.83
  C 1179.85 1259.20 1185.77 1257.78 1189.32 1265.87
  C 1192.48 1273.07 1186.72 1278.18 1181.36 1282.37
  Q 1172.89 1289.00 1166.79 1292.54
  Q 1161.44 1295.66 1135.74 1311.34
  Q 1125.81 1317.39 1104.41 1329.73
  C 1083.03 1342.05 1063.52 1354.08 1043.64 1365.64
  C 1027.38 1375.08 1005.68 1389.21 985.90 1400.99
  Q 954.53 1419.68 922.17 1440.17
  Q 885.79 1463.21 870.86 1473.63
  Q 867.44 1476.02 832.43 1500.59
  A 0.08 0.08 0.0 0 0 832.46 1500.73
  Q 832.54 1500.74 832.74 1500.64
  Q 876.95 1478.11 897.63 1467.28
  Q 925.49 1452.69 951.68 1439.68
  Q 997.98 1416.67 1006.14 1412.90
  Q 1075.29 1380.97 1078.32 1379.59
  Q 1123.45 1359.08 1194.25 1330.27
  Q 1208.36 1324.53 1219.42 1320.69
  C 1243.95 1312.19 1263.84 1305.14 1282.20 1300.23
  Q 1292.95 1297.35 1307.53 1294.54
  Q 1310.36 1294.00 1313.83 1293.78
  C 1327.13 1292.95 1330.02 1306.69 1321.55 1314.61
  C 1313.19 1322.43 1302.38 1328.73 1290.81 1335.20
  Q 1232.68 1367.68 1219.22 1375.73
  Q 1182.88 1397.46 1179.95 1399.20
  Q 1158.98 1411.64 1142.87 1422.30
  C 1127.12 1432.72 1111.03 1442.17 1093.98 1453.95
  Q 1071.81 1469.27 1050.59 1484.22
  C 1041.32 1490.76 1033.00 1497.51 1024.83 1504.09
  A 0.25 0.25 0.0 0 0 1025.09 1504.52
  Q 1047.22 1494.50 1066.35 1485.14
  C 1092.98 1472.12 1124.36 1457.37 1144.37 1447.58
  Q 1161.16 1439.36 1177.26 1432.25
  C 1194.61 1424.58 1220.98 1411.78 1241.58 1403.42
  C 1253.92 1398.41 1269.33 1391.56 1283.63 1385.81
  Q 1319.92 1371.21 1359.52 1357.54
  Q 1401.25 1343.13 1439.87 1333.90
  Q 1448.78 1331.77 1458.50 1330.18
  C 1467.65 1328.68 1477.90 1326.32 1483.08 1334.17
  C 1486.78 1339.78 1484.55 1345.48 1480.09 1349.85
  Q 1474.78 1355.04 1468.33 1359.07
  Q 1447.74 1371.96 1424.96 1385.11
  Q 1401.12 1398.87 1390.40 1405.38
  Q 1373.15 1415.86 1356.26 1426.33
  Q 1320.32 1448.60 1305.31 1459.07
  Q 1281.52 1475.66 1277.34 1478.57
  C 1260.84 1490.09 1246.74 1501.84 1232.93 1513.79
  A 0.31 0.31 0.0 0 0 1233.23 1514.32
  Q 1254.34 1507.66 1274.45 1499.42
  Q 1307.19 1485.99 1334.18 1473.61
  Q 1360.82 1461.39 1373.61 1455.95
  Q 1382.46 1452.19 1413.25 1438.76
  Q 1426.81 1432.85 1463.30 1419.36
  Q 1495.21 1407.56 1530.95 1398.23
  C 1543.85 1394.86 1553.22 1392.78 1564.95 1392.72
  Q 1571.40 1392.69 1574.95 1396.86
  C 1582.62 1405.87 1571.36 1416.72 1564.97 1422.21
  Q 1557.37 1428.73 1551.24 1432.97
  Q 1525.68 1450.62 1504.93 1463.68
  Q 1481.35 1478.51 1471.20 1485.64
  Q 1453.83 1497.85 1436.06 1510.84
  Q 1424.31 1519.43 1403.85 1536.20
  A 0.32 0.32 0.0 0 0 1404.15 1536.76
  Q 1418.09 1532.59 1435.96 1525.72
  C 1449.06 1520.68 1472.30 1509.86 1488.41 1503.89
  Q 1501.81 1498.93 1514.29 1493.76
  Q 1520.07 1491.36 1526.22 1489.41
  C 1533.73 1487.02 1538.92 1485.26 1545.57 1483.79
  Q 1550.37 1482.73 1552.94 1483.31
  C 1562.14 1485.39 1562.80 1496.09 1557.01 1502.02
  Q 1553.02 1506.10 1547.91 1509.66
  C 1533.19 1519.89 1522.69 1526.99 1511.74 1537.27
  A 0.29 0.29 0.0 0 0 1511.98 1537.76
  Q 1533.23 1534.65 1553.19 1527.68
  Q 1589.15 1515.11 1623.83 1501.10
  C 1626.95 1499.84 1629.15 1499.52 1631.95 1501.40
  C 1637.44 1505.11 1637.95 1513.39 1631.11 1516.12
  Q 1630.63 1516.31 1593.90 1531.37
  Q 1565.35 1543.09 1534.94 1551.14
  Q 1522.85 1554.35 1511.56 1556.08
  C 1505.29 1557.04 1500.09 1557.15 1494.45 1554.32
  C 1486.65 1550.40 1486.97 1540.52 1491.94 1534.37
  Q 1495.65 1529.78 1499.91 1525.92
  Q 1508.69 1517.95 1518.97 1510.96
  A 0.28 0.27 16.8 0 0 1518.71 1510.48
  Q 1488.98 1522.35 1470.26 1529.93
  Q 1464.06 1532.44 1457.94 1535.01
  Q 1447.44 1539.42 1427.77 1547.24
  Q 1416.46 1551.74 1403.25 1555.23
  Q 1396.57 1557.00 1391.25 1557.27
  C 1382.83 1557.69 1375.57 1552.78 1376.64 1543.70
  C 1377.27 1538.40 1382.82 1532.33 1386.95 1528.44
  C 1400.03 1516.10 1412.82 1506.86 1429.08 1494.48
  Q 1439.94 1486.22 1451.90 1478.11
  Q 1473.40 1463.52 1502.72 1444.62
  C 1520.41 1433.21 1532.09 1425.23 1547.75 1413.67
  A 0.32 0.32 0.0 0 0 1547.63 1413.10
  Q 1547.02 1412.96 1546.56 1413.06
  Q 1517.89 1419.17 1501.05 1424.82
  C 1483.61 1430.67 1464.60 1437.15 1446.11 1444.55
  Q 1399.65 1463.14 1332.44 1493.91
  Q 1302.98 1507.41 1265.38 1522.29
  C 1253.81 1526.88 1243.10 1530.47 1232.21 1533.42
  C 1224.02 1535.64 1210.51 1538.29 1206.15 1528.31
  C 1203.23 1521.64 1206.93 1515.74 1211.42 1510.65
  Q 1216.31 1505.09 1222.45 1499.71
  Q 1244.40 1480.47 1275.02 1459.04
  Q 1321.10 1426.79 1361.74 1402.52
  C 1396.36 1381.83 1420.45 1368.06 1449.52 1350.41
  A 0.23 0.23 0.0 0 0 1449.36 1349.98
  Q 1435.05 1352.60 1423.05 1356.09
  Q 1376.11 1369.74 1352.91 1378.44
  C 1330.13 1386.99 1311.82 1393.36 1290.44 1402.19
  Q 1231.84 1426.36 1192.58 1444.37
  C 1135.81 1470.40 1078.87 1499.06 1024.20 1525.44
  Q 1019.90 1527.52 1010.45 1531.44
  C 1000.96 1535.37 989.29 1540.98 982.43 1533.60
  C 978.82 1529.71 978.96 1523.95 981.76 1519.50
  C 983.77 1516.31 987.05 1513.43 990.13 1510.33
  Q 996.94 1503.45 1004.28 1497.79
  Q 1047.40 1464.49 1066.93 1451.45
  Q 1100.92 1428.74 1104.86 1426.10
  C 1124.19 1413.16 1140.10 1403.62 1162.06 1389.63
  C 1178.74 1379.00 1196.67 1369.12 1211.58 1360.30
  Q 1227.46 1350.91 1247.71 1339.66
  Q 1278.09 1322.77 1283.90 1319.11
  Q 1284.19 1318.94 1284.32 1318.69
  A 0.09 0.08 7.3 0 0 1284.22 1318.57
  Q 1259.85 1324.05 1236.83 1332.62
  Q 1210.48 1342.43 1204.47 1344.66
  Q 1185.57 1351.68 1174.47 1356.60
  Q 1157.79 1363.98 1144.79 1369.31
  Q 1130.73 1375.07 1103.27 1387.51
  C 1062.95 1405.78 1026.56 1422.54 989.04 1441.08
  Q 903.00 1483.61 827.50 1524.28
  Q 794.38 1542.11 784.47 1547.22
  Q 775.37 1551.90 769.32 1554.05
  C 756.26 1558.69 748.16 1544.46 758.52 1535.26
  Q 768.45 1526.44 780.78 1517.06
  Q 835.33 1475.55 899.37 1434.63
  Q 973.23 1387.43 1054.82 1339.34
  C 1072.55 1328.89 1094.27 1315.49 1114.27 1304.24
  C 1123.70 1298.94 1131.96 1293.55 1140.97 1288.85
  A 0.45 0.45 0.0 0 0 1141.15 1288.22
  L 1141.02 1287.99
  A 0.21 0.19 63.3 0 0 1140.78 1287.90
  Q 1136.88 1289.32 1121.67 1294.81
  Q 1113.84 1297.64 1103.03 1302.09
  Q 1072.68 1314.61 1050.23 1325.51
  C 1004.84 1347.56 962.91 1368.93 919.86 1390.96
  C 878.22 1412.27 843.70 1429.76 786.37 1458.92
  C 743.03 1480.96 683.99 1512.62 649.80 1530.82
  C 635.88 1538.24 608.37 1554.71 586.55 1564.56
  C 579.65 1567.68 572.36 1563.66 571.37 1556.15
  C 570.60 1550.33 574.16 1547.67 579.44 1543.59
  Q 625.85 1507.79 658.26 1486.26
  C 677.07 1473.75 702.57 1457.34 722.68 1445.14
  Q 805.12 1395.09 834.73 1376.99
  Q 882.70 1347.66 933.33 1313.32
  Q 951.11 1301.27 966.90 1292.05
  A 0.23 0.22 60.4 0 0 966.98 1291.75
  L 966.98 1291.74
  A 0.26 0.25 62.4 0 0 966.64 1291.63
  Q 770.70 1382.48 753.08 1390.52
  Q 741.47 1395.81 729.68 1401.29
  C 709.88 1410.50 690.96 1420.16 672.17 1429.19
  C 639.26 1445.01 616.12 1456.60 575.69 1476.18
  Q 570.17 1478.85 562.11 1483.11
  Q 540.06 1494.76 479.42 1526.40
  Q 466.01 1533.40 452.57 1539.59
  C 446.68 1542.30 439.25 1543.74 435.45 1536.72
  C 432.69 1531.61 434.88 1526.11 439.21 1522.68
  C 459.01 1507.00 473.26 1498.07 503.96 1477.35
  Q 523.78 1463.97 543.34 1451.59
  C 598.84 1416.46 662.87 1378.42 711.77 1348.73
  Q 749.31 1325.93 772.61 1312.25
  Q 800.41 1295.94 833.64 1276.03
  Q 835.52 1274.90 837.70 1273.84
  Q 841.85 1271.83 841.93 1271.77
  A 0.22 0.22 0.0 0 0 841.78 1271.39
  Q 841.01 1271.40 840.43 1271.63
  C 831.34 1275.24 821.20 1278.52 812.15 1282.16
  Q 774.89 1297.13 742.48 1312.26
  C 725.50 1320.19 688.02 1337.60 660.75 1351.08
  C 642.41 1360.14 624.14 1368.44 605.17 1378.08
  C 588.39 1386.60 570.99 1394.59 555.99 1402.27
  Q 543.27 1408.79 526.28 1416.81
  Q 515.02 1422.12 482.02 1438.63
  C 449.76 1454.76 427.01 1468.21 388.71 1489.62
  Q 373.30 1498.24 364.30 1502.76
  C 348.26 1510.81 336.52 1516.96 321.78 1521.53
  C 316.07 1523.31 307.42 1524.32 303.44 1518.94
  C 299.66 1513.83 301.59 1507.77 305.15 1503.14
  C 309.72 1497.19 313.32 1492.88 318.68 1487.97
  Q 332.57 1475.27 347.35 1464.05
  A 0.20 0.18 -35.6 0 0 347.40 1463.80
  L 347.39 1463.79
  A 0.22 0.22 0.0 0 0 347.10 1463.72
  Q 342.46 1466.24 331.65 1471.41
  C 320.68 1476.66 306.90 1484.81 295.25 1490.91
  Q 278.45 1499.70 276.93 1500.42
  C 263.92 1506.61 248.37 1515.84 233.70 1521.20
  C 226.60 1523.79 214.55 1526.34 211.10 1516.66
  C 208.00 1507.94 217.40 1498.07 223.18 1492.17
  Q 256.15 1458.57 259.43 1455.10
  C 262.56 1451.79 266.52 1448.38 270.28 1445.28
  Q 270.86 1444.80 271.52 1443.90
  A 0.27 0.27 0.0 0 0 271.17 1443.51
  Q 270.42 1443.94 246.35 1457.40
  Q 233.24 1464.72 222.24 1471.90
  C 203.51 1484.12 184.05 1496.39 166.14 1506.13
  C 159.64 1509.67 148.07 1514.92 141.02 1510.45
  C 131.02 1504.11 136.98 1493.58 142.92 1486.92
  Q 163.35 1464.05 183.16 1446.90
  Q 214.25 1419.97 222.48 1412.74
  Q 225.69 1409.92 228.96 1407.12
  Z"
/>
<path d="
  M 321.39 1270.43
  Q 322.25 1284.00 321.83 1297.49
  Q 321.81 1298.23 321.66 1299.10
  Q 312.75 1301.92 303.80 1304.62
  C 288.18 1309.34 273.87 1314.63 258.71 1319.80
  Q 247.46 1323.63 231.61 1329.85
  C 180.58 1349.88 132.47 1371.59 85.68 1399.19
  Q 67.66 1409.82 53.92 1420.10
  Q 49.02 1423.77 46.43 1424.33
  C 39.06 1425.93 32.30 1422.66 29.83 1415.48
  C 27.54 1408.80 30.54 1403.10 35.96 1399.27
  Q 38.02 1397.82 38.08 1397.77
  Q 52.94 1386.35 76.78 1372.54
  Q 115.54 1350.08 158.62 1330.63
  C 174.07 1323.65 191.98 1315.43 209.01 1308.97
  C 222.66 1303.80 236.13 1298.28 250.47 1293.38
  Q 285.53 1281.41 321.39 1270.43
  Z"
/>
</g>
<path fill="#1d803e" d="
  M 1257.29 919.24
  Q 1257.34 920.13 1256.81 920.80
  Q 1253.08 925.51 1241.52 939.76
  Q 1240.78 940.66 1239.94 940.84
  Q 1238.81 939.66 1237.76 938.27
  Q 1225.10 921.58 1216.19 908.27
  Q 1207.18 894.80 1199.44 881.82
  C 1182.53 853.47 1164.52 825.39 1144.75 798.39
  Q 1112.41 754.19 1085.61 718.66
  Q 1058.99 683.36 1042.46 659.50
  Q 1015.65 620.81 1001.46 599.08
  Q 997.42 592.89 992.49 586.09
  C 983.75 574.04 975.80 561.74 965.48 552.43
  C 961.27 548.64 954.13 546.49 948.45 549.95
  Q 940.30 554.94 931.62 562.38
  Q 903.58 586.43 877.86 616.62
  Q 855.95 642.35 852.80 646.29
  Q 825.24 680.80 821.32 685.81
  Q 789.49 726.58 741.87 791.62
  Q 728.95 809.27 724.95 814.68
  C 702.88 844.50 677.89 879.86 665.48 896.24
  Q 627.53 946.31 612.70 964.44
  Q 588.92 993.50 581.65 1002.85
  L 573.23 970.24
  Q 619.21 914.32 661.61 855.94
  C 692.02 814.08 725.88 767.89 745.04 742.03
  C 782.70 691.21 821.69 640.84 862.30 593.81
  Q 872.98 581.43 891.50 563.00
  Q 911.93 542.66 932.28 528.55
  Q 952.26 514.71 973.67 526.04
  C 989.50 534.41 999.26 547.81 1009.64 562.87
  Q 1024.44 584.36 1025.24 585.61
  C 1034.76 600.44 1040.35 608.21 1052.23 625.61
  Q 1064.89 644.17 1072.24 654.16
  C 1082.19 667.67 1089.51 678.56 1099.43 691.54
  C 1111.85 707.81 1131.07 733.10 1146.89 754.84
  C 1156.86 768.55 1171.39 787.82 1183.33 804.97
  C 1198.42 826.64 1211.60 849.02 1224.53 870.49
  Q 1239.35 895.12 1256.11 917.38
  Q 1257.01 918.58 1257.29 919.24
  Z"
/>
<path fill="#8f5d29" d="
  M 347.88 1207.78
  L 350.52 1365.02
  A 0.65 0.65 0.0 0 0 351.16 1365.66
  C 368.17 1365.92 385.58 1365.95 403.64 1364.14
  Q 407.00 1363.81 428.86 1361.96
  A 0.56 0.55 86.2 0 0 429.36 1361.38
  C 428.64 1345.58 426.83 1324.11 425.93 1303.19
  Q 425.62 1296.09 423.88 1267.03
  Q 422.70 1247.20 421.24 1209.07
  Q 433.55 1216.37 447.57 1216.96
  A 1.66 1.63 62.5 0 1 448.40 1217.23
  L 448.78 1217.46
  L 449.64 1235.48
  L 451.05 1262.71
  Q 450.97 1263.60 451.02 1264.49
  Q 454.69 1336.94 456.92 1369.84
  Q 457.64 1380.39 450.28 1385.20
  Q 447.30 1387.15 437.67 1388.24
  Q 391.03 1393.50 345.66 1392.40
  Q 337.52 1392.20 336.38 1391.90
  C 329.91 1390.25 325.57 1386.97 324.24 1380.46
  Q 324.00 1379.27 323.81 1371.99
  Q 322.98 1340.26 321.99 1300.00
  Q 321.98 1299.55 321.66 1299.10
  Q 321.81 1298.23 321.83 1297.49
  Q 322.25 1284.00 321.39 1270.43
  L 321.18 1216.30
  Q 329.79 1216.02 336.36 1213.61
  Q 341.60 1211.69 347.88 1207.78
  Z"
/>
<g fill="#4aa14c">
<path d="
  M 1105.80 1161.58
  Q 1090.86 1159.95 1076.00 1159.63
  Q 1075.07 1159.61 1075.11 1158.77
  Q 1089.50 1136.30 1105.26 1114.76
  Q 1107.75 1111.37 1124.92 1089.10
  C 1145.42 1062.52 1167.45 1036.33 1186.14 1010.58
  C 1199.41 992.29 1214.92 972.89 1229.21 954.46
  Q 1232.53 950.18 1240.02 941.33
  A 0.25 0.23 -31.0 0 0 1240.08 941.13
  Q 1240.04 940.98 1239.94 940.84
  Q 1240.78 940.66 1241.52 939.76
  Q 1253.08 925.51 1256.81 920.80
  Q 1257.34 920.13 1257.29 919.24
  L 1257.55 919.42
  A 0.39 0.38 37.3 0 0 1258.06 919.36
  C 1270.43 904.74 1284.97 888.40 1296.39 876.05
  Q 1318.79 851.84 1342.16 832.68
  Q 1356.85 820.63 1372.97 813.00
  C 1398.41 800.94 1423.95 810.11 1439.11 832.64
  C 1442.82 838.15 1446.21 844.90 1449.94 850.52
  C 1458.17 862.94 1469.37 877.86 1478.51 891.84
  C 1490.80 910.62 1504.32 932.42 1519.00 954.05
  C 1525.99 964.34 1534.84 977.80 1543.77 990.25
  Q 1548.13 996.33 1550.77 999.60
  Q 1577.05 1032.17 1605.83 1075.91
  C 1627.61 1109.01 1644.92 1136.19 1665.06 1165.73
  Q 1685.65 1195.94 1691.88 1205.89
  Q 1697.52 1214.90 1713.47 1241.77
  C 1721.12 1254.64 1728.83 1271.59 1737.36 1284.02
  Q 1741.16 1289.55 1741.52 1292.80
  C 1742.93 1305.52 1728.08 1314.07 1718.75 1304.19
  Q 1715.05 1300.28 1711.87 1295.05
  Q 1705.80 1285.06 1701.78 1277.65
  Q 1679.93 1237.28 1658.04 1205.25
  C 1646.07 1187.75 1638.04 1175.23 1626.73 1158.54
  C 1612.94 1138.18 1600.13 1117.75 1586.56 1096.93
  Q 1557.01 1051.59 1521.58 1007.16
  Q 1516.02 1000.20 1505.12 983.41
  C 1493.18 965.03 1485.17 953.01 1475.83 938.38
  Q 1457.74 910.05 1440.05 884.80
  C 1432.28 873.72 1426.15 863.78 1418.57 851.17
  C 1415.20 845.56 1409.96 839.36 1404.20 836.68
  C 1394.97 832.38 1384.29 836.59 1376.14 841.64
  Q 1367.17 847.19 1360.54 852.55
  Q 1340.38 868.87 1319.02 891.52
  Q 1315.23 895.54 1300.85 911.54
  Q 1292.55 920.78 1283.10 931.90
  Q 1249.46 971.49 1221.13 1009.44
  C 1204.01 1032.37 1193.63 1045.50 1174.35 1070.61
  Q 1162.82 1085.63 1147.65 1104.15
  Q 1131.16 1124.29 1105.80 1161.58
  Z"
/>
<path d="
  M 1304.74 1087.29
  C 1307.20 1085.68 1309.62 1083.77 1312.45 1081.95
  Q 1332.87 1068.89 1349.22 1057.50
  Q 1359.73 1050.18 1376.10 1040.59
  C 1397.62 1027.98 1413.90 1018.47 1432.74 1008.76
  Q 1441.14 1004.43 1459.12 997.22
  Q 1464.24 995.17 1466.30 995.30
  C 1471.42 995.62 1475.86 999.49 1476.41 1004.70
  C 1477.01 1010.49 1473.07 1015.16 1469.06 1019.06
  C 1450.56 1037.09 1429.80 1054.89 1412.49 1071.83
  Q 1402.72 1081.39 1365.13 1117.45
  A 0.22 0.22 0.0 0 0 1365.11 1117.75
  L 1365.12 1117.76
  A 0.22 0.22 0.0 0 0 1365.42 1117.80
  C 1380.38 1107.07 1389.17 1100.28 1398.49 1094.10
  C 1401.65 1092.01 1405.21 1089.24 1408.63 1087.10
  Q 1437.99 1068.62 1442.39 1065.89
  Q 1463.69 1052.66 1489.05 1042.08
  Q 1494.40 1039.84 1496.87 1040.32
  C 1503.54 1041.62 1507.30 1048.37 1505.19 1054.94
  C 1504.45 1057.25 1501.16 1061.02 1499.26 1062.78
  Q 1483.27 1077.54 1467.83 1090.84
  Q 1442.31 1112.83 1418.40 1136.14
  C 1411.91 1142.46 1405.34 1149.64 1399.86 1156.54
  A 0.35 0.35 0.0 0 0 1400.21 1157.10
  Q 1401.62 1156.74 1403.25 1156.00
  C 1410.49 1152.70 1420.90 1147.42 1429.06 1142.27
  C 1436.26 1137.73 1447.41 1131.13 1455.69 1126.71
  C 1479.20 1114.15 1494.82 1105.39 1515.24 1096.79
  Q 1527.36 1091.68 1535.25 1089.99
  Q 1539.91 1089.00 1543.67 1092.01
  C 1555.80 1101.75 1535.57 1121.96 1528.73 1128.98
  C 1516.33 1141.69 1501.62 1156.09 1489.05 1171.28
  C 1485.91 1175.07 1482.81 1179.99 1479.72 1183.93
  A 0.42 0.42 0.0 0 0 1479.90 1184.58
  Q 1480.36 1184.76 1481.01 1184.54
  Q 1498.09 1178.87 1510.71 1173.20
  Q 1517.35 1170.21 1532.80 1162.55
  Q 1546.49 1155.75 1562.12 1150.87
  C 1569.68 1148.50 1577.90 1146.13 1583.18 1153.61
  C 1588.26 1160.80 1582.39 1170.72 1578.28 1177.54
  Q 1570.41 1190.59 1562.34 1203.09
  Q 1558.36 1209.25 1555.48 1215.36
  A 0.46 0.45 -66.3 0 0 1555.72 1215.98
  Q 1556.01 1216.09 1556.26 1216.04
  Q 1565.77 1214.42 1581.96 1209.92
  Q 1585.81 1208.85 1599.75 1206.20
  Q 1607.16 1204.79 1613.32 1207.98
  C 1626.63 1214.89 1621.52 1229.93 1619.01 1240.95
  A 0.77 0.76 15.7 0 0 1619.52 1241.85
  Q 1629.12 1245.01 1636.16 1247.87
  C 1642.58 1250.47 1645.45 1257.76 1640.15 1262.98
  C 1636.27 1266.79 1631.92 1265.91 1626.88 1263.40
  Q 1620.88 1260.42 1610.12 1257.22
  C 1600.38 1254.33 1600.48 1245.87 1602.27 1237.51
  Q 1603.76 1230.52 1605.06 1224.14
  A 0.67 0.67 0.0 0 0 1604.31 1223.34
  C 1591.13 1225.20 1579.34 1228.40 1563.44 1232.66
  C 1555.18 1234.88 1543.52 1236.94 1537.71 1228.89
  Q 1533.07 1222.47 1536.31 1214.06
  Q 1538.86 1207.46 1541.70 1202.69
  Q 1551.76 1185.78 1562.29 1169.68
  A 0.40 0.40 0.0 0 0 1561.80 1169.10
  Q 1535.77 1180.25 1510.86 1192.31
  Q 1495.76 1199.61 1479.72 1203.68
  C 1471.88 1205.67 1460.72 1205.91 1457.68 1196.85
  Q 1456.02 1191.90 1458.51 1186.23
  C 1464.61 1172.36 1474.38 1160.08 1484.62 1149.04
  Q 1497.05 1135.65 1515.60 1116.41
  A 0.14 0.14 0.0 0 0 1515.44 1116.18
  Q 1483.88 1130.81 1454.64 1148.02
  Q 1444.49 1153.99 1436.07 1158.60
  C 1420.40 1167.16 1408.66 1173.52 1394.05 1179.29
  C 1386.78 1182.16 1377.88 1183.09 1373.12 1175.93
  C 1368.36 1168.77 1374.41 1160.95 1378.55 1154.77
  Q 1381.81 1149.90 1384.79 1146.47
  Q 1404.84 1123.37 1428.03 1102.89
  C 1438.89 1093.30 1446.41 1086.56 1455.52 1078.67
  A 0.26 0.26 0.0 0 0 1455.56 1078.31
  L 1455.56 1078.30
  A 0.22 0.21 -34.9 0 0 1455.27 1078.25
  Q 1413.77 1104.53 1374.26 1133.19
  C 1358.65 1144.51 1344.19 1153.87 1329.67 1162.17
  Q 1324.19 1165.30 1319.13 1163.99
  C 1311.42 1162.01 1308.88 1153.17 1313.62 1146.84
  Q 1324.01 1133.00 1338.45 1118.70
  Q 1364.57 1092.84 1404.02 1055.76
  Q 1416.45 1044.08 1429.29 1031.51
  A 0.12 0.12 0.0 0 0 1429.16 1031.32
  C 1411.23 1040.57 1393.74 1050.27 1376.98 1061.23
  C 1361.37 1071.44 1351.27 1077.40 1337.67 1086.64
  C 1324.50 1095.58 1309.43 1106.10 1291.42 1118.09
  Q 1280.14 1125.59 1268.12 1133.62
  C 1261.57 1138.00 1250.84 1144.92 1243.81 1137.16
  C 1240.07 1133.02 1240.79 1126.49 1244.29 1122.29
  Q 1248.52 1117.22 1257.63 1107.63
  Q 1279.71 1084.37 1303.00 1063.08
  C 1317.63 1049.69 1332.12 1035.15 1344.76 1023.97
  Q 1360.59 1009.98 1367.53 1003.01
  Q 1367.69 1002.85 1367.65 1002.70
  A 0.10 0.10 0.0 0 0 1367.50 1002.64
  Q 1330.21 1027.81 1293.20 1054.97
  Q 1290.66 1056.83 1282.43 1062.92
  Q 1243.54 1091.71 1215.84 1111.83
  Q 1205.12 1119.61 1197.86 1123.56
  Q 1192.51 1126.47 1187.78 1124.52
  C 1181.06 1121.76 1180.05 1113.32 1184.65 1108.12
  C 1186.38 1106.17 1188.25 1104.44 1189.85 1102.68
  Q 1227.18 1061.51 1239.41 1047.86
  C 1255.23 1030.21 1266.38 1018.99 1287.38 996.91
  C 1303.15 980.34 1320.05 963.76 1336.68 946.06
  A 0.42 0.41 -62.0 0 0 1336.47 945.37
  C 1331.33 944.19 1328.09 939.72 1329.30 934.52
  Q 1330.00 931.51 1333.36 928.85
  Q 1342.80 921.36 1352.16 913.80
  C 1361.20 906.51 1369.29 901.04 1378.65 895.15
  Q 1385.53 890.82 1390.52 888.80
  C 1397.86 885.84 1404.72 893.35 1403.20 900.70
  Q 1402.73 902.96 1399.69 906.71
  C 1388.05 921.05 1372.95 935.40 1358.71 949.13
  C 1348.74 958.75 1330.70 976.85 1318.05 990.31
  C 1303.95 1005.32 1290.14 1018.47 1277.99 1031.99
  Q 1257.68 1054.58 1244.41 1068.22
  A 0.23 0.22 -44.0 0 0 1244.40 1068.52
  L 1244.41 1068.53
  A 0.24 0.24 0.0 0 0 1244.74 1068.56
  Q 1255.82 1060.12 1275.06 1045.82
  C 1277.83 1043.76 1281.85 1041.29 1285.14 1038.88
  C 1299.29 1028.47 1319.85 1013.43 1339.23 1000.46
  C 1367.57 981.51 1397.54 961.26 1424.51 948.15
  Q 1431.62 944.70 1437.03 949.79
  C 1441.19 953.70 1441.35 959.88 1437.58 964.09
  Q 1433.41 968.74 1428.02 973.52
  C 1417.52 982.82 1408.12 990.27 1399.34 998.20
  Q 1348.02 1044.57 1331.81 1059.83
  Q 1321.67 1069.37 1304.59 1087.12
  A 0.12 0.11 4.6 0 0 1304.74 1087.29
  Z"
/>
</g>
<path fill="#1d803e" d="
  M 1052.23 926.87
  A 0.22 0.22 0.0 0 0 1052.27 926.58
  L 1052.26 926.57
  A 0.18 0.18 0.0 0 0 1052.02 926.53
  Q 1042.03 932.84 1026.79 941.86
  C 1014.20 949.31 1003.96 956.26 990.95 964.31
  Q 987.31 966.55 976.71 973.41
  Q 910.74 1016.03 843.62 1064.62
  Q 826.14 1077.27 779.71 1111.70
  C 767.00 1121.13 755.67 1129.58 743.89 1136.89
  Q 740.68 1138.88 739.10 1139.49
  C 734.63 1141.22 729.44 1140.13 726.88 1136.31
  Q 722.19 1129.34 728.49 1122.44
  Q 733.38 1117.08 739.28 1111.53
  Q 779.38 1073.78 818.58 1040.33
  Q 852.04 1011.78 853.94 1010.20
  C 874.28 993.27 886.41 983.00 906.59 966.90
  Q 930.38 947.92 950.40 932.08
  Q 968.04 918.13 973.87 913.73
  C 988.16 902.95 1000.36 892.83 1015.55 881.52
  Q 1021.53 877.07 1033.91 867.74
  A 0.17 0.17 0.0 0 0 1033.95 867.51
  A 0.12 0.11 58.5 0 0 1033.80 867.47
  C 1027.83 870.98 1021.39 874.44 1015.98 877.74
  Q 992.21 892.25 980.89 899.41
  Q 946.60 921.08 906.78 949.29
  C 841.97 995.21 780.49 1041.93 720.09 1092.89
  Q 709.24 1102.04 697.49 1111.66
  C 680.15 1125.84 673.71 1131.75 659.81 1141.51
  Q 652.23 1146.84 646.23 1142.76
  Q 643.08 1140.63 642.16 1137.38
  C 640.72 1132.32 643.07 1128.41 646.73 1124.98
  C 671.11 1102.17 693.47 1080.53 716.42 1060.02
  Q 785.10 998.62 839.00 951.03
  C 850.14 941.19 862.20 931.32 873.99 920.99
  Q 879.42 916.23 888.01 909.04
  Q 942.36 863.49 952.29 855.03
  C 964.40 844.71 977.08 834.33 991.87 822.26
  A 0.40 0.39 -38.0 0 0 991.94 821.72
  L 991.93 821.70
  A 0.39 0.38 54.5 0 0 991.41 821.61
  C 950.17 848.02 918.11 868.86 884.11 892.74
  Q 859.98 909.68 832.44 930.44
  C 767.73 979.23 709.83 1027.60 641.73 1084.73
  Q 639.42 1086.67 636.47 1087.61
  C 631.93 1089.07 626.71 1086.58 624.68 1082.57
  C 621.33 1075.97 625.50 1071.13 630.03 1066.53
  Q 663.43 1032.61 690.16 1006.67
  Q 744.55 953.90 779.03 922.03
  Q 798.31 904.22 801.83 900.85
  C 812.45 890.65 824.39 880.66 836.36 869.51
  Q 840.93 865.25 850.28 857.14
  Q 867.62 842.07 884.99 826.99
  Q 899.28 814.59 909.04 807.04
  Q 909.16 806.94 909.18 806.79
  A 0.08 0.08 0.0 0 0 909.06 806.72
  Q 908.14 807.31 905.38 809.17
  Q 888.83 820.36 858.85 843.12
  Q 781.08 902.14 745.26 930.52
  Q 710.24 958.27 683.87 978.37
  Q 658.42 997.77 652.09 1001.83
  Q 645.07 1006.34 638.59 1002.00
  C 634.58 999.31 633.22 993.95 635.50 989.98
  Q 637.45 986.58 641.67 982.17
  Q 704.35 916.72 767.32 855.07
  C 777.20 845.39 787.71 835.92 798.70 825.11
  Q 805.08 818.83 817.85 807.35
  C 825.89 800.12 834.57 791.19 841.93 784.76
  Q 851.14 776.71 863.64 765.25
  C 876.27 753.67 885.67 745.71 900.54 732.69
  A 0.18 0.17 -39.9 0 0 900.57 732.46
  L 900.56 732.45
  A 0.19 0.19 0.0 0 0 900.30 732.41
  Q 895.05 735.91 890.74 739.01
  Q 841.86 774.13 795.82 808.74
  Q 784.52 817.23 778.07 821.58
  C 770.43 826.74 761.96 832.95 753.18 838.29
  Q 748.62 841.07 746.29 841.33
  C 740.96 841.92 735.88 838.12 735.30 832.74
  Q 734.91 829.10 737.64 825.38
  Q 751.40 806.63 767.49 788.74
  C 809.63 741.91 851.73 697.81 896.31 655.72
  A 0.61 0.61 0.0 0 0 896.18 654.73
  C 891.89 652.41 889.67 648.18 891.43 643.46
  Q 892.58 640.37 897.65 637.00
  Q 899.27 635.93 911.16 627.16
  Q 929.54 613.61 941.56 606.01
  Q 949.12 601.24 954.25 606.60
  C 962.10 614.79 953.04 623.30 947.38 629.13
  Q 930.62 646.41 906.41 669.58
  Q 890.52 684.79 884.59 690.93
  Q 877.43 698.33 870.24 705.35
  C 859.83 715.50 851.69 724.41 838.56 738.19
  C 822.46 755.09 808.62 770.61 791.40 789.15
  Q 791.01 789.58 790.88 790.01
  A 0.16 0.16 0.0 0 0 791.12 790.19
  C 799.36 784.75 806.43 779.27 813.77 773.84
  Q 844.85 750.84 879.35 725.91
  Q 894.64 714.86 905.85 707.40
  C 929.03 691.99 945.49 681.11 966.31 669.82
  C 969.18 668.25 974.31 665.38 977.27 665.14
  C 982.12 664.74 986.35 667.61 987.80 672.25
  C 989.64 678.16 985.82 681.72 981.62 685.36
  Q 965.47 699.35 945.01 717.02
  Q 882.54 770.95 830.41 819.41
  Q 787.31 859.48 761.89 884.64
  Q 750.20 896.21 719.66 927.58
  A 0.17 0.16 46.6 0 0 719.66 927.79
  L 719.68 927.81
  A 0.21 0.21 0.0 0 0 719.97 927.84
  Q 739.17 912.93 742.42 910.19
  Q 745.16 907.89 777.49 882.96
  Q 784.42 877.62 791.34 872.37
  Q 801.65 864.56 825.83 845.85
  Q 848.70 828.16 905.38 786.89
  Q 931.26 768.05 979.02 737.57
  Q 989.08 731.15 999.44 725.55
  Q 1020.26 714.29 1020.28 714.28
  Q 1027.14 710.83 1032.06 715.16
  C 1038.29 720.62 1035.62 728.00 1029.98 732.48
  Q 1016.56 743.14 990.22 763.73
  Q 911.61 825.18 840.92 888.94
  Q 830.86 898.02 821.35 906.87
  C 813.10 914.55 803.57 922.78 795.27 930.75
  Q 784.51 941.08 765.85 958.35
  Q 765.07 959.07 761.06 963.16
  A 0.13 0.13 0.0 0 0 761.14 963.38
  Q 761.28 963.39 761.39 963.41
  A 0.04 0.04 0.0 0 0 761.43 963.41
  Q 785.64 943.86 794.03 937.54
  C 808.40 926.73 821.21 916.21 833.70 907.27
  C 848.62 896.59 860.70 887.50 876.76 876.31
  Q 914.56 849.95 948.91 827.95
  Q 975.79 810.75 1013.45 788.23
  C 1026.35 780.53 1039.16 773.71 1052.97 766.00
  C 1059.61 762.29 1067.56 765.37 1068.63 773.08
  C 1069.40 778.66 1065.98 782.48 1061.84 786.09
  Q 1050.42 796.08 1002.77 835.52
  Q 972.82 860.31 890.41 929.91
  Q 876.20 941.91 869.46 947.96
  Q 859.60 956.81 853.50 961.74
  Q 852.48 962.57 827.42 984.64
  A 0.17 0.16 51.4 0 0 827.40 984.87
  L 827.41 984.88
  A 0.19 0.18 -37.2 0 0 827.67 984.91
  C 837.41 977.44 846.19 971.41 856.04 963.94
  Q 863.56 958.23 874.48 950.62
  C 887.07 941.84 896.85 934.33 908.32 926.58
  C 928.21 913.16 943.65 902.22 959.76 892.07
  C 971.13 884.91 982.63 877.04 993.76 870.38
  C 1028.69 849.49 1059.74 831.34 1095.14 816.65
  C 1104.85 812.61 1112.96 824.23 1106.82 832.59
  Q 1104.88 835.23 1100.08 839.08
  C 1089.08 847.89 1073.33 858.93 1062.94 867.38
  C 1055.40 873.50 1048.57 878.34 1038.86 885.73
  Q 1007.23 909.81 961.04 945.80
  Q 940.54 961.77 919.99 978.17
  Q 910.69 985.60 902.05 992.90
  C 893.92 999.77 886.43 1005.32 878.13 1012.53
  Q 860.15 1028.17 840.47 1044.55
  A 0.34 0.34 0.0 0 0 840.42 1045.02
  L 840.43 1045.03
  A 0.35 0.34 52.8 0 0 840.91 1045.10
  Q 862.92 1028.98 882.66 1015.62
  C 891.49 1009.65 899.05 1003.68 907.29 998.29
  C 922.94 988.05 934.88 979.75 948.54 970.93
  Q 989.13 944.71 992.70 942.46
  Q 1031.67 917.90 1071.81 894.57
  Q 1093.10 882.20 1116.64 869.65
  C 1120.04 867.84 1122.97 866.12 1126.32 866.87
  Q 1128.95 867.47 1130.56 868.90
  Q 1137.32 874.91 1132.12 883.17
  Q 1130.77 885.31 1125.55 889.79
  Q 1108.53 904.39 1088.94 919.79
  Q 1072.37 932.81 1064.22 939.41
  Q 1056.48 945.68 1039.65 959.17
  Q 1000.52 990.53 969.88 1016.38
  Q 942.98 1039.07 909.34 1070.23
  A 0.10 0.10 0.0 0 0 909.33 1070.36
  L 909.49 1070.56
  A 0.09 0.08 53.0 0 0 909.60 1070.58
  Q 930.48 1055.92 938.28 1049.96
  C 953.17 1038.57 966.21 1030.19 980.64 1019.46
  Q 983.67 1017.22 997.74 1007.49
  Q 1047.71 972.97 1066.07 961.09
  Q 1097.91 940.49 1115.01 930.53
  C 1126.79 923.66 1140.18 916.84 1153.73 911.98
  C 1159.14 910.04 1164.04 909.75 1167.96 914.09
  C 1171.43 917.92 1170.86 924.00 1168.08 927.88
  C 1157.50 942.60 1146.14 955.18 1132.21 969.39
  C 1109.70 992.36 1097.84 1004.81 1075.04 1027.87
  Q 1058.38 1044.72 1042.94 1061.72
  A 0.12 0.12 0.0 0 0 1043.10 1061.90
  Q 1063.82 1047.28 1084.09 1030.84
  C 1106.66 1012.53 1130.18 994.79 1149.67 981.12
  C 1154.28 977.89 1159.73 973.23 1163.09 970.60
  C 1173.53 962.44 1184.65 976.78 1174.22 985.03
  Q 1168.20 989.79 1160.20 994.97
  Q 1149.90 1001.65 1133.66 1014.42
  Q 1103.19 1038.39 1087.43 1050.36
  C 1060.92 1070.48 1033.87 1093.62 1005.21 1111.20
  C 999.60 1114.64 992.55 1116.05 988.20 1110.12
  C 983.54 1103.75 988.15 1097.24 992.85 1091.34
  Q 1005.96 1074.91 1023.04 1057.04
  Q 1048.48 1030.41 1077.97 999.96
  C 1099.40 977.83 1118.14 959.33 1135.24 940.49
  A 0.31 0.30 -84.1 0 0 1134.86 940.02
  C 1123.49 946.77 1105.71 956.64 1092.25 965.33
  C 1052.50 991.01 1013.74 1017.53 977.40 1043.42
  C 952.64 1061.06 913.77 1089.99 881.24 1111.24
  Q 876.47 1114.36 868.42 1118.16
  C 861.56 1121.41 853.72 1118.49 852.31 1110.89
  Q 851.45 1106.25 855.31 1101.03
  Q 861.58 1092.55 865.75 1088.24
  C 875.54 1078.10 886.26 1067.15 897.09 1057.26
  Q 924.28 1032.41 929.48 1027.97
  Q 952.09 1008.63 957.57 1003.85
  C 973.26 990.16 984.51 981.53 1003.37 965.67
  C 1012.06 958.36 1024.16 949.57 1034.66 940.84
  C 1041.11 935.48 1046.71 931.46 1052.23 926.87
  Z"
/>
<path fill="#8f5d29" d="
  M 373.00 1256.42
  A 0.31 0.31 0.0 0 0 372.52 1256.03
  C 367.51 1260.78 360.30 1260.23 356.86 1254.37
  C 354.05 1249.57 356.31 1245.07 358.47 1240.21
  Q 366.37 1222.41 374.50 1205.03
  C 379.76 1193.76 395.15 1201.23 390.09 1211.93
  Q 386.69 1219.12 380.13 1232.88
  A 0.24 0.24 0.0 0 0 380.51 1233.17
  Q 383.87 1230.28 389.26 1226.78
  C 392.95 1224.37 397.10 1223.91 400.74 1227.05
  C 405.58 1231.25 403.51 1236.63 400.69 1241.91
  Q 396.69 1249.39 389.09 1262.93
  A 0.31 0.31 0.0 0 0 389.55 1263.32
  Q 393.12 1260.42 395.13 1258.97
  C 399.59 1255.76 405.50 1256.10 408.46 1260.95
  C 410.93 1264.99 409.57 1269.27 407.17 1273.20
  Q 402.10 1281.51 395.85 1291.29
  A 0.24 0.24 0.0 0 0 396.20 1291.61
  Q 396.93 1291.04 399.79 1288.55
  C 403.66 1285.19 408.99 1285.26 412.49 1288.98
  C 416.29 1293.03 414.84 1298.03 412.67 1303.07
  Q 409.14 1311.28 395.35 1342.89
  Q 393.78 1346.51 392.81 1347.45
  C 387.54 1352.63 378.89 1349.81 378.09 1342.27
  Q 377.83 1339.79 379.87 1335.13
  Q 379.95 1334.95 386.65 1320.17
  A 0.33 0.33 0.0 0 0 386.10 1319.82
  C 382.42 1324.24 374.93 1333.33 369.48 1333.17
  C 363.06 1332.97 358.64 1328.20 360.14 1321.60
  Q 360.96 1317.99 363.25 1313.73
  Q 370.95 1299.40 373.95 1293.94
  A 0.29 0.29 0.0 0 0 373.55 1293.55
  Q 373.06 1293.82 371.74 1294.91
  C 366.89 1298.90 359.56 1298.75 356.52 1292.86
  C 354.44 1288.84 355.73 1285.07 357.91 1281.41
  Q 358.41 1280.55 373.00 1256.42
  Z"
/>
<path fill="#40aa40" d="
  M 361.72 997.31
  Q 361.88 997.24 362.06 997.09
  Q 374.37 986.35 395.12 967.81
  C 400.41 963.08 406.18 958.75 411.72 953.85
  Q 413.90 951.91 418.45 948.36
  Q 426.42 942.15 439.95 931.21
  Q 449.17 923.75 464.26 913.51
  C 470.51 909.26 477.32 911.65 479.94 918.57
  C 481.56 922.84 478.98 927.09 475.65 930.71
  C 463.86 943.53 450.09 956.98 437.72 970.71
  Q 427.82 981.70 407.84 1002.85
  Q 402.17 1008.85 387.60 1025.31
  A 0.33 0.32 44.3 0 0 387.61 1025.75
  L 387.62 1025.76
  A 0.34 0.34 0.0 0 0 388.08 1025.78
  Q 392.16 1022.37 395.46 1019.68
  Q 409.93 1007.83 435.15 988.41
  Q 438.85 985.56 452.69 976.22
  Q 467.26 966.38 476.56 961.57
  Q 483.75 957.85 487.01 957.04
  Q 490.81 956.10 494.72 959.36
  C 499.96 963.72 498.80 969.77 494.92 974.67
  Q 488.38 982.92 483.39 988.39
  Q 457.35 1016.93 445.87 1030.13
  Q 434.69 1042.98 424.50 1057.09
  A 0.26 0.26 0.0 0 0 424.85 1057.46
  C 438.33 1048.57 443.44 1045.32 455.06 1037.14
  Q 477.02 1021.67 500.21 1010.48
  Q 506.86 1007.28 512.32 1010.60
  C 520.45 1015.56 516.25 1024.58 512.88 1030.88
  C 505.55 1044.61 496.13 1057.75 485.76 1071.80
  C 477.37 1083.16 471.62 1091.83 465.51 1101.11
  A 0.39 0.39 0.0 0 0 466.04 1101.66
  Q 490.95 1086.15 494.86 1083.60
  Q 495.09 1083.45 506.72 1076.97
  Q 512.78 1073.60 518.26 1077.08
  C 524.02 1080.75 522.63 1087.56 519.69 1092.70
  Q 508.18 1112.85 492.39 1131.65
  Q 485.94 1139.33 476.97 1147.22
  C 473.69 1150.11 469.53 1151.77 465.57 1149.54
  C 461.45 1147.21 459.83 1143.13 461.84 1138.76
  Q 462.71 1136.90 465.67 1134.08
  Q 477.55 1122.80 487.14 1110.07
  A 0.29 0.28 -82.4 0 0 486.81 1109.63
  Q 484.61 1110.54 482.49 1112.00
  Q 469.47 1120.95 459.44 1126.43
  C 453.21 1129.83 444.12 1130.58 439.77 1124.47
  C 435.37 1118.31 438.50 1110.88 441.93 1105.42
  C 445.23 1100.17 447.41 1096.56 450.20 1092.34
  C 459.91 1077.63 476.02 1055.16 488.23 1037.51
  A 0.23 0.22 -88.5 0 0 487.93 1037.19
  C 470.21 1048.07 454.89 1058.55 429.51 1075.50
  Q 424.26 1079.01 415.45 1082.68
  Q 411.49 1084.33 408.58 1084.18
  C 399.98 1083.74 393.83 1077.49 396.92 1068.61
  Q 398.38 1064.40 400.74 1060.74
  Q 408.53 1048.66 415.91 1039.15
  Q 431.40 1019.20 445.49 1003.63
  A 0.23 0.23 0.0 0 0 445.48 1003.32
  L 445.47 1003.31
  A 0.21 0.20 -40.0 0 0 445.18 1003.29
  Q 440.59 1007.18 434.60 1011.59
  C 423.61 1019.68 412.24 1028.72 402.39 1037.11
  Q 379.96 1056.24 365.13 1068.63
  Q 357.58 1074.93 351.71 1079.29
  C 345.66 1083.78 339.31 1085.97 334.26 1079.25
  A 0.43 0.43 0.0 0 0 333.62 1079.20
  Q 314.13 1097.99 294.82 1119.07
  Q 291.29 1122.92 283.26 1130.13
  Q 279.59 1133.42 277.09 1133.86
  C 271.37 1134.87 266.27 1131.67 264.97 1126.07
  Q 264.06 1122.14 266.43 1117.71
  Q 271.19 1108.81 275.86 1101.62
  Q 289.98 1079.85 305.62 1060.68
  A 0.22 0.22 0.0 0 0 305.31 1060.37
  C 302.30 1062.72 297.64 1067.44 292.58 1066.41
  Q 287.48 1065.38 285.58 1060.96
  C 283.04 1055.04 287.35 1051.25 291.74 1047.16
  Q 293.67 1045.36 296.95 1042.05
  Q 316.06 1022.76 335.85 999.61
  Q 342.72 991.57 348.36 985.28
  C 358.67 973.78 365.96 965.24 373.52 956.52
  C 375.15 954.63 377.04 951.82 378.97 949.60
  Q 387.81 939.40 396.80 929.18
  A 0.19 0.18 -47.4 0 0 396.79 928.93
  A 0.19 0.18 46.1 0 0 396.53 928.92
  C 388.73 935.85 381.89 942.36 374.02 949.21
  Q 364.45 957.54 344.01 977.26
  Q 311.52 1008.61 287.20 1035.45
  Q 280.33 1043.03 274.54 1048.78
  Q 263.91 1059.36 261.23 1061.43
  Q 256.43 1065.14 251.10 1063.45
  C 246.85 1062.10 243.91 1057.45 244.72 1053.24
  Q 245.40 1049.70 247.84 1045.87
  Q 260.57 1025.89 272.84 1009.35
  Q 298.74 974.43 325.52 940.82
  C 340.12 922.50 355.51 901.60 368.26 885.51
  Q 381.47 868.83 397.65 846.12
  A 0.28 0.28 0.0 0 0 397.24 845.75
  C 387.31 854.46 373.35 866.71 362.13 877.65
  Q 325.28 913.59 317.94 921.20
  Q 307.99 931.51 276.90 964.40
  Q 271.58 970.03 255.59 985.58
  Q 251.67 989.41 247.17 988.82
  C 242.09 988.17 238.58 984.21 238.80 978.99
  Q 238.95 975.45 240.82 971.04
  Q 250.04 949.25 265.60 924.58
  Q 289.99 885.91 301.61 868.32
  Q 319.80 840.77 338.44 815.73
  A 0.48 0.48 0.0 0 0 338.12 814.97
  Q 333.67 814.39 331.14 811.02
  C 328.20 807.09 328.99 803.36 332.20 799.74
  Q 349.94 779.71 372.33 764.07
  Q 376.84 760.92 381.05 762.38
  C 385.53 763.92 388.57 768.80 387.48 773.49
  Q 386.80 776.36 384.57 780.06
  Q 377.54 791.68 372.74 798.24
  C 361.53 813.57 349.61 829.52 337.86 846.69
  Q 334.56 851.52 324.79 865.77
  Q 299.90 902.07 280.11 934.06
  A 0.22 0.22 0.0 0 0 280.34 934.39
  Q 280.65 934.32 281.12 933.87
  Q 281.98 933.06 311.59 902.50
  C 337.07 876.19 362.67 851.83 389.04 829.05
  C 398.47 820.91 408.78 812.61 419.92 806.94
  Q 426.74 803.48 431.76 808.68
  C 437.07 814.18 432.71 822.12 429.51 828.28
  C 421.97 842.79 411.33 856.18 402.72 868.74
  Q 396.99 877.10 386.25 890.86
  C 380.74 897.91 371.19 911.03 363.97 920.12
  Q 354.83 931.62 326.29 968.80
  A 0.05 0.05 0.0 0 0 326.36 968.86
  Q 342.16 954.93 355.81 941.80
  C 379.92 918.62 406.12 895.47 433.91 876.17
  Q 443.91 869.23 446.50 868.22
  C 456.52 864.28 463.50 874.48 458.48 883.27
  Q 454.73 889.85 450.56 894.82
  Q 437.42 910.47 427.00 921.91
  C 412.42 937.93 396.75 956.38 384.21 970.38
  C 376.82 978.65 370.12 987.14 361.57 997.11
  A 0.13 0.13 0.0 0 0 361.72 997.31
  Z
  M 392.83 992.24
  Q 377.94 1006.07 377.63 1006.38
  Q 377.48 1006.53 358.04 1025.28
  Q 347.74 1035.21 339.19 1044.91
  Q 327.52 1058.16 315.13 1075.09
  A 0.03 0.02 24.7 0 0 315.15 1075.13
  L 315.49 1075.14
  A 0.44 0.40 -65.2 0 0 315.82 1075.00
  Q 323.28 1067.19 329.33 1061.65
  Q 337.11 1054.53 341.17 1050.32
  Q 351.08 1040.03 352.40 1038.39
  Q 361.37 1027.23 380.04 1007.04
  Q 392.34 993.73 393.35 992.83
  A 0.08 0.08 0.0 0 0 393.37 992.73
  L 393.11 992.28
  A 0.18 0.18 0.0 0 0 392.83 992.24
  Z"
/>
<path fill="#ffcd19" d="
  M 1387.55 446.34
  A 0.25 0.25 0.0 0 0 1387.53 446.70
  L 1387.53 446.71
  A 0.17 0.17 0.0 0 0 1387.77 446.73
  Q 1401.61 435.96 1404.05 434.30
  Q 1417.19 425.32 1431.08 415.18
  C 1444.55 405.34 1460.69 394.66 1472.75 386.75
  Q 1512.17 360.91 1541.96 345.70
  C 1547.50 342.88 1554.37 345.53 1555.62 351.76
  C 1556.57 356.48 1553.97 359.72 1550.55 362.81
  Q 1522.44 388.13 1486.78 418.71
  C 1479.61 424.87 1471.49 432.49 1465.34 437.61
  C 1455.28 445.98 1447.93 452.84 1436.99 462.28
  A 0.22 0.22 0.0 0 0 1436.96 462.59
  L 1436.96 462.60
  A 0.21 0.20 54.3 0 0 1437.24 462.65
  Q 1457.03 449.37 1462.98 445.24
  C 1476.24 436.01 1494.19 424.64 1503.41 418.92
  Q 1528.13 403.58 1552.86 391.60
  C 1558.53 388.86 1564.48 392.12 1565.43 398.23
  Q 1566.15 402.78 1561.80 406.80
  Q 1535.10 431.47 1516.06 447.36
  C 1507.73 454.31 1500.93 461.24 1492.70 467.87
  C 1485.60 473.58 1477.10 481.76 1468.93 488.46
  A 0.23 0.22 53.4 0 0 1468.89 488.77
  L 1468.90 488.77
  A 0.23 0.23 0.0 0 0 1469.22 488.83
  C 1478.77 482.36 1485.55 478.45 1493.78 472.90
  Q 1510.19 461.82 1531.19 450.90
  C 1534.26 449.30 1539.36 446.31 1543.29 445.07
  C 1550.86 442.68 1556.31 450.08 1553.67 456.98
  Q 1552.62 459.72 1548.95 463.46
  C 1538.19 474.41 1532.43 480.69 1523.30 489.48
  Q 1505.41 506.71 1488.95 525.34
  Q 1486.22 528.42 1484.25 529.29
  C 1480.01 531.16 1475.34 528.96 1473.31 524.96
  C 1471.06 520.53 1473.41 516.51 1476.56 513.06
  Q 1485.68 503.04 1498.94 489.71
  A 0.17 0.17 0.0 0 0 1498.73 489.44
  Q 1493.19 492.87 1476.53 503.50
  Q 1467.82 509.06 1453.03 518.30
  Q 1440.39 526.19 1417.48 541.76
  Q 1415.39 543.18 1411.68 545.36
  C 1407.03 548.09 1403.69 550.76 1399.40 549.60
  C 1392.51 547.73 1391.22 540.00 1395.67 535.13
  C 1399.25 531.22 1406.05 524.44 1409.66 521.17
  C 1427.98 504.55 1443.58 489.12 1462.18 473.20
  Q 1472.41 464.44 1482.11 455.16
  C 1485.17 452.22 1489.07 449.47 1492.54 446.40
  A 0.30 0.29 50.2 0 0 1492.57 446.00
  L 1492.56 445.99
  A 0.36 0.34 -36.5 0 0 1492.08 445.93
  C 1480.38 454.53 1466.93 462.04 1455.38 470.53
  Q 1449.01 475.21 1430.73 487.61
  Q 1419.57 495.17 1406.29 505.01
  Q 1371.29 530.93 1355.49 542.00
  C 1350.37 545.59 1342.67 544.12 1340.85 537.76
  C 1339.15 531.82 1342.53 528.60 1346.30 524.87
  C 1360.39 510.92 1376.44 494.92 1392.17 480.58
  C 1402.20 471.42 1411.89 461.67 1421.67 453.21
  Q 1443.09 434.69 1460.63 418.74
  Q 1464.50 415.22 1469.41 411.33
  Q 1470.78 410.24 1478.24 403.98
  Q 1478.76 403.54 1479.03 403.16
  A 0.25 0.25 0.0 0 0 1478.68 402.81
  Q 1461.38 415.27 1439.82 429.87
  C 1432.17 435.04 1422.27 442.71 1416.12 447.10
  Q 1396.54 461.05 1384.41 470.42
  C 1367.14 483.77 1350.39 496.07 1334.26 509.08
  C 1327.76 514.32 1320.20 519.13 1313.38 523.65
  Q 1309.69 526.09 1306.80 525.70
  C 1299.32 524.68 1295.36 517.21 1300.06 511.06
  Q 1304.97 504.62 1314.69 494.69
  Q 1341.03 467.78 1355.29 454.29
  Q 1362.33 447.63 1390.61 421.11
  C 1395.80 416.25 1402.58 410.74 1408.43 405.25
  C 1421.73 392.74 1435.67 380.51 1450.79 366.79
  Q 1450.91 366.68 1456.28 362.26
  A 0.22 0.21 54.4 0 0 1456.32 361.97
  A 0.23 0.21 57.0 0 0 1456.03 361.90
  Q 1454.17 362.94 1453.45 363.45
  Q 1421.09 386.40 1412.96 392.07
  C 1397.94 402.55 1383.87 413.83 1368.54 425.02
  Q 1365.08 427.55 1351.03 438.55
  Q 1307.78 472.42 1306.40 473.64
  Q 1305.85 474.13 1281.78 492.10
  Q 1277.41 495.37 1275.35 495.69
  C 1266.43 497.05 1261.48 486.75 1267.44 480.21
  Q 1272.99 474.12 1276.61 470.04
  C 1286.15 459.29 1294.75 450.77 1307.34 437.87
  C 1324.43 420.36 1341.47 404.60 1358.74 387.99
  Q 1373.04 374.24 1387.07 362.37
  A 0.56 0.56 0.0 0 0 1387.17 361.63
  L 1387.16 361.61
  A 0.36 0.36 0.0 0 0 1386.64 361.53
  C 1382.63 364.76 1377.07 368.67 1372.95 371.96
  C 1359.66 382.55 1345.14 393.03 1331.32 403.99
  Q 1324.06 409.76 1319.13 413.46
  Q 1298.98 428.63 1282.05 442.05
  Q 1271.73 450.23 1258.09 459.33
  C 1253.77 462.21 1248.62 464.47 1244.33 459.88
  Q 1238.60 453.76 1244.29 446.95
  C 1248.16 442.32 1254.09 435.74 1257.52 432.25
  C 1285.11 404.13 1298.63 390.82 1331.51 358.64
  C 1345.11 345.34 1359.87 331.97 1373.08 318.66
  C 1376.27 315.43 1380.65 311.93 1384.14 308.41
  A 0.23 0.23 0.0 0 0 1384.15 308.10
  L 1384.14 308.09
  A 0.21 0.20 -40.0 0 0 1383.85 308.07
  Q 1377.71 312.89 1373.93 315.67
  Q 1348.86 334.07 1335.78 344.02
  C 1324.54 352.56 1309.16 363.52 1296.92 373.18
  C 1280.07 386.48 1263.57 397.97 1247.10 410.84
  C 1244.74 412.67 1239.42 417.06 1236.26 417.69
  C 1225.60 419.80 1221.15 408.91 1228.20 401.43
  Q 1242.95 385.78 1257.15 370.40
  C 1267.89 358.75 1277.23 349.99 1289.82 336.82
  Q 1302.03 324.04 1306.82 319.30
  Q 1319.78 306.47 1328.47 297.92
  A 0.31 0.31 0.0 0 0 1328.49 297.48
  L 1328.45 297.44
  A 0.32 0.31 49.8 0 0 1328.02 297.40
  C 1314.65 307.79 1301.04 318.45 1286.88 328.45
  C 1273.42 337.96 1261.01 348.26 1248.97 356.59
  Q 1244.70 359.54 1243.73 360.04
  C 1234.95 364.56 1225.65 355.29 1232.62 347.11
  Q 1239.06 339.55 1256.35 320.55
  C 1263.47 312.72 1270.00 304.29 1276.35 297.82
  A 0.28 0.28 0.0 0 0 1275.99 297.39
  C 1273.08 299.31 1269.66 300.38 1266.35 298.59
  C 1261.65 296.03 1260.35 290.58 1263.25 286.02
  Q 1264.22 284.50 1268.48 281.78
  Q 1288.65 268.90 1312.40 252.56
  Q 1316.77 249.55 1319.00 249.24
  C 1324.47 248.48 1328.79 252.74 1328.79 258.12
  Q 1328.78 261.68 1325.96 264.95
  Q 1309.75 283.73 1296.81 299.28
  A 0.19 0.19 0.0 0 0 1297.07 299.56
  Q 1310.82 289.95 1317.85 284.54
  Q 1328.41 276.42 1338.57 269.46
  C 1353.57 259.18 1374.24 243.52 1391.17 233.18
  Q 1396.58 229.89 1402.07 233.73
  A 3.40 3.35 -0.4 0 1 1402.80 234.44
  Q 1407.75 241.09 1401.70 247.46
  Q 1386.57 263.40 1373.51 276.07
  C 1362.46 286.78 1353.42 296.93 1342.29 307.46
  C 1332.14 317.07 1323.68 326.32 1315.26 335.26
  C 1311.03 339.76 1306.32 343.71 1301.81 347.86
  A 0.26 0.26 0.0 0 0 1301.79 348.22
  L 1301.80 348.23
  A 0.21 0.21 0.0 0 0 1302.09 348.26
  C 1318.36 335.50 1333.83 324.62 1348.44 313.29
  C 1362.58 302.33 1373.28 295.11 1388.91 283.67
  C 1408.02 269.69 1427.51 256.78 1446.57 244.84
  Q 1453.65 240.41 1458.96 246.56
  Q 1461.66 249.70 1460.68 254.22
  Q 1460.16 256.67 1456.13 260.95
  C 1442.08 275.88 1427.01 290.41 1412.58 304.01
  Q 1398.92 316.90 1394.61 321.18
  Q 1382.58 333.14 1376.76 338.51
  Q 1360.81 353.19 1344.38 369.87
  C 1340.12 374.19 1333.94 379.27 1328.92 384.40
  A 0.16 0.16 0.0 0 0 1329.09 384.66
  Q 1329.76 384.44 1330.13 384.12
  Q 1340.77 374.98 1352.72 366.33
  Q 1360.48 360.71 1375.74 349.04
  Q 1402.69 328.42 1427.59 310.10
  Q 1456.95 288.48 1484.79 271.27
  C 1490.56 267.70 1497.22 269.00 1499.14 275.78
  Q 1500.67 281.22 1495.72 285.72
  Q 1464.06 314.50 1434.49 341.25
  C 1420.91 353.53 1411.00 363.11 1396.88 375.94
  Q 1388.49 383.55 1372.46 398.96
  Q 1368.26 403.00 1356.24 413.24
  A 0.38 0.37 -40.0 0 0 1356.19 413.76
  L 1356.20 413.77
  A 0.36 0.36 0.0 0 0 1356.70 413.82
  Q 1367.29 405.14 1374.60 399.84
  C 1392.23 387.05 1409.77 373.50 1427.04 361.38
  C 1454.88 341.83 1475.77 327.46 1499.36 313.10
  Q 1505.12 309.59 1521.95 300.44
  A 5.03 4.85 22.8 0 1 1523.09 300.00
  C 1533.70 297.45 1539.41 308.69 1531.96 315.96
  Q 1524.39 323.37 1514.21 332.46
  Q 1486.25 357.45 1458.51 381.99
  C 1447.13 392.05 1436.07 402.60 1425.39 411.95
  C 1416.66 419.61 1407.99 428.16 1401.14 434.49
  C 1396.45 438.83 1391.71 442.57 1387.55 446.34
  Z"
/>
</svg>
