<!-- Kid-scribble landscape used as the source drawing for the AI style cover
     thumbnails in this folder. Regenerate them with: npm run gen:style-covers -->
<svg xmlns="http://www.w3.org/2000/svg" viewBox="0 0 1024 1024">
  <rect width="1024" height="1024" fill="#ffffff"/>
  <g fill="none" stroke-linecap="round" stroke-linejoin="round">
    <path d="M 210 262 Q 168 258 158 226 Q 150 196 178 178 Q 200 164 224 172 Q 226 138 260 122 Q 296 106 324 130 Q 336 96 380 88 Q 428 82 448 118 Q 486 104 516 126 Q 544 146 536 182 Q 568 192 572 224 Q 574 252 542 262 Q 470 276 380 276 Q 288 274 210 262" stroke="#4a90d9" stroke-width="15"/>
    <path d="M 802.7 126.2 Q 873.2 158 879.5 170.6 Q 885.9 183.2 829.5 155 Q 773 126.8 760.8 132.7 Q 748.5 138.5 816 173.2 Q 883.4 207.9 886.6 215 Q 889.8 222.1 814.3 186.6 Q 738.7 151.2 729.8 161.8 Q 720.9 172.5 806.5 207.9 Q 892.1 243.3 885.9 247.2 Q 879.6 251 802 213.6 Q 724.3 176.1 720.3 190.3 Q 716.3 204.5 797 234.3 Q 877.6 264.2 867.3 274 Q 856.9 283.9 781.8 248.7 Q 706.8 213.5 710.1 226.4 Q 713.4 239.3 777.5 266.9 Q 841.7 294.4 830.9 300.1 Q 820.1 305.8 769.2 282 Q 718.2 258.1 728.5 273 Q 738.9 287.8 768.9 296.5 L 798.9 305.1" stroke="#f6c418" stroke-width="11"/>
    <path d="M 910 218 Q 905.1 250.7 897.1 265.7 Q 889.1 280.7 875.5 293 Q 861.8 305.3 847.1 312 Q 832.5 318.7 816.3 321.5 Q 800 324.4 783.5 322.9 Q 766.9 321.4 751.3 313.6 Q 735.7 305.8 723.4 293.9 Q 711.1 281.9 703.9 266.3 Q 696.6 250.6 695 234.3 Q 693.4 218 694.2 200.8 Q 695 183.7 704.5 168.6 Q 713.9 153.4 725.7 142.2 Q 737.5 131 752.5 124.5 Q 767.4 118 783.7 114.5 Q 800 110.9 816.8 111.7 Q 833.5 112.5 848.4 121.8 Q 863.2 131.2 875 142.6 Q 886.7 154.1 894.5 169.8 Q 902.2 185.5 905.9 201.8 L 909.5 218" stroke="#f6c418" stroke-width="13"/>
    <path d="M 513.4 316 Q 538.2 338.7 548.8 357.5 Q 559.4 376.3 528.4 356.6 Q 497.3 336.9 490 342.1 Q 482.7 347.3 527.5 379.1 Q 572.4 410.9 582 432.5 Q 591.7 454.1 538.3 415 Q 484.9 375.8 473.8 387.1 Q 462.7 398.5 539.5 441.2 Q 616.3 483.9 622.6 497.9 Q 628.9 511.9 546.4 461.4 Q 463.8 410.9 457.3 421.3 Q 450.7 431.7 553.9 496 Q 657.1 560.3 664.7 572.4 Q 672.2 584.5 556.1 510.9 Q 440 437.3 438.3 448 Q 436.6 458.6 558.9 537.3 Q 681.1 616 658.8 613.8 Q 636.5 611.5 530 545.5 Q 423.5 479.4 421.5 484.5 Q 419.5 489.7 517.9 558.4 Q 616.2 627.1 598 626.7 Q 579.8 626.3 490.9 569.9 Q 402.1 513.5 398.5 521.3 Q 394.8 529 467 574.5 Q 539.3 620 523 628.3 Q 506.7 636.5 446.4 591.2 Q 386 545.9 381.3 554.8 Q 376.5 563.8 427.4 600.3 Q 478.4 636.9 457.6 631.4 Q 436.8 625.9 401.8 608.2 Q 366.8 590.5 362.3 594.8 Q 357.8 599.1 384.2 620.5 Q 410.6 642 388.7 635.8 Q 366.8 629.6 353.8 622.4 L 340.8 615.1" stroke="#1e8a3e" stroke-width="12"/>
    <path d="M 318 648 L 512 286 L 700 622" stroke="#1e8a3e" stroke-width="14"/>
    <path d="M 788 477.1 Q 815.7 485.7 820.9 502 Q 826.1 518.2 798.3 506 Q 770.5 493.8 766.5 503.5 Q 762.4 513.1 811.8 531.4 Q 861.1 549.6 870.7 567.4 Q 880.2 585.1 813.2 561.5 Q 746.1 537.8 735 549.5 Q 724 561.3 810.8 594 Q 897.6 626.6 910.9 643.2 Q 924.2 659.7 816.5 618.5 Q 708.7 577.4 702.4 591.1 Q 696.1 604.8 822.7 646.8 Q 949.2 688.8 942 698.8 Q 934.7 708.9 811.7 665.6 Q 688.7 622.3 678.3 634.9 Q 667.9 647.5 700 658 L 732.1 668.4" stroke="#4ba757" stroke-width="12"/>
    <path d="M 648 645 L 795 452 L 975 725" stroke="#4ba757" stroke-width="14"/>
    <path d="M 226 395.3 Q 267.9 427.2 274.7 443.6 Q 281.5 460.1 237.2 435 Q 192.9 409.8 184.4 415.9 Q 176 421.9 238.2 450.5 Q 300.3 479.1 302.4 494.6 Q 304.4 510.2 227.9 468.5 Q 151.4 426.8 145.9 434 Q 140.3 441.2 216.3 487.1 Q 292.4 533 290.6 538.9 Q 288.8 544.8 214.3 502.3 Q 139.7 459.8 131.1 467.1 Q 122.5 474.5 203.5 524.5 Q 284.5 574.4 284.9 578.8 Q 285.3 583.2 204.7 544.6 Q 124 506 123 515.8 Q 122.1 525.6 198.1 564.4 Q 274 603.2 264.4 605.4 Q 254.9 607.5 186.7 573 Q 118.4 538.5 125.3 555.5 Q 132.1 572.4 181.9 601.5 Q 231.7 630.5 222.5 631.4 Q 213.3 632.2 178.6 615.4 L 143.8 598.5" stroke="#4ba757" stroke-width="11"/>
    <path d="M 212 662 Q 150 668 120 618 Q 92 570 100 502 Q 108 436 146 396 Q 180 362 212 380 Q 244 362 278 396 Q 316 436 324 502 Q 332 570 304 618 Q 274 668 226 660 Q 218 640 212 646 Q 206 640 198 662" stroke="#4ba757" stroke-width="14"/>
    <path d="M 189.4 671.8 Q 235.3 680.1 214.1 683.8 Q 192.8 687.5 216.9 690.8 Q 241 694 216.3 698.4 Q 191.6 702.8 216.7 709 Q 241.8 715.2 216.9 718.8 Q 191.9 722.4 215.3 728.5 Q 238.6 734.6 216.1 736.5 Q 193.7 738.5 214.1 744.9 Q 234.5 751.3 211.4 755 Q 188.4 758.8 212 764.4 Q 235.6 770 211.5 773 Q 187.4 776.1 213 781.3 L 238.6 786.4" stroke="#8a5a2c" stroke-width="10"/>
    <path d="M 178 656 L 172 800 L 256 800 L 250 656" stroke="#8a5a2c" stroke-width="13"/>
    <path d="M 30 715.4 Q 90 702.8 120 696 Q 150 689.3 180 681.8 Q 210 674.3 240 671.1 Q 270 668 300 664 Q 330 660 360 657 Q 390 654.1 420 648.8 Q 450 643.5 480 645.8 Q 510 648 540 648.3 Q 570 648.5 600 649.4 Q 630 650.2 660 652.5 Q 690 654.8 720 657.4 Q 750 660 780 663.5 Q 810 667 840 675.8 Q 870 684.6 900 689.8 Q 930 695 960 703.3 L 990 711.6" stroke="#7cc832" stroke-width="14"/>
    <path d="M 659.5 681.6 Q 981.3 766.6 985.5 778.9 Q 989.7 791.1 749.2 733.3 Q 508.7 675.4 465.6 671.8 Q 422.6 668.3 699.7 745.3 Q 976.8 822.4 974.5 840.4 Q 972.2 858.4 647.9 774.5 L 323.6 690.5" stroke="#7cc832" stroke-width="12"/>
    <path d="M 323.6 690.5 Q 251.8 702.4 617 788.6 Q 982.1 874.9 978.6 894.7 Q 975.1 914.5 579.3 814.8 Q 183.5 715 152.4 723.4 Q 121.3 731.7 555.7 841.9 Q 990.1 952.1 951.5 959.7 L 913 967.2" stroke="#7cc832" stroke-width="12"/>
    <path d="M 913 967.2 Q 44.5 751.4 42.4 765.2 Q 40.2 779 415.4 865.9 Q 790.6 952.7 725 953.3 Q 659.5 953.8 354.1 882.7 Q 48.8 811.6 46.9 821.3 Q 45 830.9 293.3 893.5 L 541.5 956.1" stroke="#7cc832" stroke-width="12"/>
    <path d="M 541.5 956.1 Q 417.8 949 232.5 904.6 Q 47.2 860.2 50.7 880.8 Q 54.1 901.3 180.1 926.6 Q 306 951.9 238.1 952.8 Q 170.2 953.6 105.6 943.3 L 41.1 933" stroke="#7cc832" stroke-width="12"/>
  </g>
</svg>
